<?xml version="1.0" encoding="us-ascii" standalone="no"?><svg xmlns="http://www.w3.org/2000/svg" xmlns:xlink="http://www.w3.org/1999/xlink" contentStyleType="text/css" height="778px" preserveAspectRatio="none" style="width:756px;height:778px;background:#261D45;" version="1.1" viewBox="0 0 756 778" width="756px" zoomAndPan="magnify"><defs/><g><rect fill="#261D45" height="778" style="stroke:none;stroke-width:1.0;" width="756" x="0" y="0"/><text fill="#0BE784" font-family="sans-serif" font-size="14" font-weight="bold" lengthAdjust="spacing" textLength="138" x="302.3643" y="22.9951">System Overview</text><!--cluster Frontend Layer--><g id="cluster_Frontend Layer"><path d="M8.5,182.0969 L130.5,182.0969 A3.75,3.75 0 0 1 133,184.5969 L140,204.3937 L173.5,204.3937 A2.5,2.5 0 0 1 176,206.8937 L176,293.1969 A2.5,2.5 0 0 1 173.5,295.6969 L8.5,295.6969 A2.5,2.5 0 0 1 6,293.1969 L6,184.5969 A2.5,2.5 0 0 1 8.5,182.0969 " fill="#231B3D" style="stroke:#3F2C70;stroke-width:1.5;"/><line style="stroke:#3F2C70;stroke-width:1.5;" x1="6" x2="140" y1="204.3937" y2="204.3937"/><text fill="#96DDF2" font-family="sans-serif" font-size="14" font-weight="bold" lengthAdjust="spacing" textLength="121" x="10" y="197.092">Frontend Layer</text></g><!--cluster Django Application--><g id="cluster_Django Application"><path d="M29.5,352.8369 L176.5,352.8369 A3.75,3.75 0 0 1 179,355.3369 L186,375.1338 L350.5,375.1338 A2.5,2.5 0 0 1 353,377.6338 L353,587.2269 A2.5,2.5 0 0 1 350.5,589.7269 L29.5,589.7269 A2.5,2.5 0 0 1 27,587.2269 L27,355.3369 A2.5,2.5 0 0 1 29.5,352.8369 " fill="#231B3D" style="stroke:#3F2C70;stroke-width:1.5;"/><line style="stroke:#3F2C70;stroke-width:1.5;" x1="27" x2="186" y1="375.1338" y2="375.1338"/><text fill="#96DDF2" font-family="sans-serif" font-size="14" font-weight="bold" lengthAdjust="spacing" textLength="146" x="31" y="367.832">Django Application</text></g><!--cluster Background Services--><g id="cluster_Background Services"><path d="M394.5,344.6969 L562.5,344.6969 A3.75,3.75 0 0 1 565,347.1969 L572,366.9938 L605.5,366.9938 A2.5,2.5 0 0 1 608,369.4938 L608,595.3769 A2.5,2.5 0 0 1 605.5,597.8769 L394.5,597.8769 A2.5,2.5 0 0 1 392,595.3769 L392,347.1969 A2.5,2.5 0 0 1 394.5,344.6969 " fill="#231B3D" style="stroke:#3F2C70;stroke-width:1.5;"/><line style="stroke:#3F2C70;stroke-width:1.5;" x1="392" x2="572" y1="366.9938" y2="366.9938"/><text fill="#96DDF2" font-family="sans-serif" font-size="14" font-weight="bold" lengthAdjust="spacing" textLength="167" x="396" y="359.692">Background Services</text></g><!--cluster External APIs--><g id="cluster_External APIs"><path d="M433.6657,670.2632 C440.7201,660.5546 448.3446,659.5555 455.5358,670.1155 C462.0533,659.7191 469.6347,659.9844 476.3495,669.9135 C484.2772,660.576 491.8141,658.6761 498.7847,670.909 C504.1284,659.5608 513.4491,657.0863 521.2451,668.4877 C529.4036,657.7546 535.9203,657.8206 542.4636,669.9845 C547.5625,658.8456 557.3314,658.3894 564.4599,667.8134 C571.3598,658.7053 577.6735,658.5374 584.1284,668.2776 C591.1687,658.9018 599.2639,657.9624 606.8587,667.6154 C614.2919,657.5227 623.3106,658.1101 629.0265,669.3961 C634.4972,660.8223 643.3766,658.9489 648.6529,669.5946 C654.3766,659.634 663.3757,658.8618 669.4762,669.2081 C677.0571,658.9685 687.6946,660.2299 692.9172,671.7487 C700.1223,661.5112 707.8946,660.6783 714.1798,672.6302 C718.8389,663.1768 727.2966,663.6012 732.4779,672.098 C741.301,676.9198 742.1477,684.4378 734.9788,691.3383 C745.7724,694.6868 747.6558,704.4805 740.4134,712.468 C749.7286,719.9396 747.7645,729.0235 737.9937,734.3883 C745.1648,740.7996 744.2266,747.7115 735.7733,752.172 C729.7191,762.9173 719.3894,764.827 711.1215,754.799 C704.7317,763.424 695.8354,764.906 690.313,753.8806 C685.1373,764.4096 677.1317,768.6531 668.2105,757.7418 C661.1206,765.6813 654.8464,764.6518 650.2861,755.1431 C646.2425,765.8212 635.8201,768.5989 628.2088,759.034 C623.0515,769.1432 612.7877,769.7605 606.7378,759.9985 C600.7891,769.8823 590.6446,769.7849 584.2286,760.5486 C576.1482,771.0075 568.127,770.7987 561.4299,759.1237 C554.1241,769.0735 547.2845,769.5956 540.9602,758.1832 C534.4254,766.8938 526.4913,766.6845 520.1035,758.0069 C512.3828,766.6094 505.5551,767.3257 500.2575,755.637 C492.3416,764.788 483.5951,764.7588 477.7323,753.3839 C471.6667,762.4467 465.2406,763.9725 457.5151,755.2732 C449.7555,766.0445 440.4141,763.5034 434.6145,753.1487 C425.1632,749.0377 422.3935,740.8398 430.0714,732.8879 C418.3149,727.2151 419.0401,718.3949 428.2577,710.9853 C420.1574,703.4796 421.9921,695.2918 432.4219,691.8102 C423.558,684.147 422.4064,676.7649 433.6657,670.2632 " fill="#231B3D" style="stroke:#3F2C70;stroke-width:1.0;"/><text fill="#96DDF2" font-family="sans-serif" font-size="14" font-weight="bold" lengthAdjust="spacing" textLength="103" x="531" y="687.872">External APIs</text></g><!--entity Frontend--><g id="elem_Frontend"><rect fill="#0BE784" height="62.5938" rx="2.5" ry="2.5" style="stroke:#0BE784;stroke-width:0.5;" width="137" x="22.5" y="217.0969"/><rect fill="#0BE784" height="10" style="stroke:#0BE784;stroke-width:0.5;" width="15" x="139.5" y="222.0969"/><rect fill="#0BE784" height="2" style="stroke:#0BE784;stroke-width:0.5;" width="4" x="137.5" y="224.0969"/><rect fill="#0BE784" height="2" style="stroke:#0BE784;stroke-width:0.5;" width="4" x="137.5" y="228.0969"/><text fill="#96DDF2" font-family="sans-serif" font-size="14" lengthAdjust="spacing" textLength="97" x="37.5" y="250.092">Vue.js + D3.js</text><text fill="#96DDF2" font-family="sans-serif" font-size="14" lengthAdjust="spacing" textLength="85" x="37.5" y="266.3889">Visualization</text></g><!--entity WebApp--><g id="elem_WebApp"><rect fill="#0BE784" height="46.2969" rx="2.5" ry="2.5" style="stroke:#0BE784;stroke-width:0.5;" width="96" x="43" y="387.8369"/><rect fill="#0BE784" height="10" style="stroke:#0BE784;stroke-width:0.5;" width="15" x="119" y="392.8369"/><rect fill="#0BE784" height="2" style="stroke:#0BE784;stroke-width:0.5;" width="4" x="117" y="394.8369"/><rect fill="#0BE784" height="2" style="stroke:#0BE784;stroke-width:0.5;" width="4" x="117" y="398.8369"/><text fill="#96DDF2" font-family="sans-serif" font-size="14" lengthAdjust="spacing" textLength="56" x="58" y="420.832">webApp</text></g><!--entity ApiApp--><g id="elem_ApiApp"><rect fill="#0BE784" height="46.2969" rx="2.5" ry="2.5" style="stroke:#0BE784;stroke-width:0.5;" width="87" x="47.5" y="527.4369"/><rect fill="#0BE784" height="10" style="stroke:#0BE784;stroke-width:0.5;" width="15" x="114.5" y="532.4369"/><rect fill="#0BE784" height="2" style="stroke:#0BE784;stroke-width:0.5;" width="4" x="112.5" y="534.4369"/><rect fill="#0BE784" height="2" style="stroke:#0BE784;stroke-width:0.5;" width="4" x="112.5" y="538.4369"/><text fill="#96DDF2" font-family="sans-serif" font-size="14" lengthAdjust="spacing" textLength="47" x="62.5" y="560.432">apiApp</text></g><!--entity RadialApp--><g id="elem_RadialApp"><rect fill="#0BE784" height="46.2969" rx="2.5" ry="2.5" style="stroke:#0BE784;stroke-width:0.5;" width="163" x="173.5" y="387.8369"/><rect fill="#0BE784" height="10" style="stroke:#0BE784;stroke-width:0.5;" width="15" x="316.5" y="392.8369"/><rect fill="#0BE784" height="2" style="stroke:#0BE784;stroke-width:0.5;" width="4" x="314.5" y="394.8369"/><rect fill="#0BE784" height="2" style="stroke:#0BE784;stroke-width:0.5;" width="4" x="314.5" y="398.8369"/><text fill="#96DDF2" font-family="sans-serif" font-size="14" lengthAdjust="spacing" textLength="123" x="188.5" y="420.832">radialTidyTreeApp</text></g><!--entity CronWorker--><g id="elem_CronWorker"><rect fill="#0BE784" height="62.5938" rx="2.5" ry="2.5" style="stroke:#0BE784;stroke-width:0.5;" width="167" x="416.5" y="379.6969"/><rect fill="#0BE784" height="10" style="stroke:#0BE784;stroke-width:0.5;" width="15" x="563.5" y="384.6969"/><rect fill="#0BE784" height="2" style="stroke:#0BE784;stroke-width:0.5;" width="4" x="561.5" y="386.6969"/><rect fill="#0BE784" height="2" style="stroke:#0BE784;stroke-width:0.5;" width="4" x="561.5" y="390.6969"/><text fill="#96DDF2" font-family="sans-serif" font-size="14" lengthAdjust="spacing" textLength="86" x="431.5" y="412.692">Cron Worker</text><text fill="#96DDF2" font-family="sans-serif" font-size="14" lengthAdjust="spacing" textLength="127" x="431.5" y="428.9889">(run_cron_jobs.py)</text></g><!--entity Pipeline--><g id="elem_Pipeline"><rect fill="#0BE784" height="62.5938" rx="2.5" ry="2.5" style="stroke:#0BE784;stroke-width:0.5;" width="183" x="408.5" y="519.2869"/><rect fill="#0BE784" height="10" style="stroke:#0BE784;stroke-width:0.5;" width="15" x="571.5" y="524.2869"/><rect fill="#0BE784" height="2" style="stroke:#0BE784;stroke-width:0.5;" width="4" x="569.5" y="526.2869"/><rect fill="#0BE784" height="2" style="stroke:#0BE784;stroke-width:0.5;" width="4" x="569.5" y="530.2869"/><text fill="#96DDF2" font-family="sans-serif" font-size="14" lengthAdjust="spacing" textLength="112" x="423.5" y="552.282">8-Stage Pipeline</text><text fill="#96DDF2" font-family="sans-serif" font-size="14" lengthAdjust="spacing" textLength="143" x="423.5" y="568.5789">(2-3 min processing)</text></g><!--entity Horizon--><g id="elem_Horizon"><rect fill="#0BE784" height="46.2969" rx="2.5" ry="2.5" style="stroke:#0BE784;stroke-width:0.5;" width="118" x="441" y="696.8769"/><rect fill="#0BE784" height="10" style="stroke:#0BE784;stroke-width:0.5;" width="15" x="539" y="701.8769"/><rect fill="#0BE784" height="2" style="stroke:#0BE784;stroke-width:0.5;" width="4" x="537" y="703.8769"/><rect fill="#0BE784" height="2" style="stroke:#0BE784;stroke-width:0.5;" width="4" x="537" y="707.8769"/><text fill="#96DDF2" font-family="sans-serif" font-size="14" lengthAdjust="spacing" textLength="78" x="456" y="729.872">Horizon API</text></g><!--entity Expert--><g id="elem_Expert"><rect fill="#0BE784" height="46.2969" rx="2.5" ry="2.5" style="stroke:#0BE784;stroke-width:0.5;" width="130" x="594" y="696.8769"/><rect fill="#0BE784" height="10" style="stroke:#0BE784;stroke-width:0.5;" width="15" x="704" y="701.8769"/><rect fill="#0BE784" height="2" style="stroke:#0BE784;stroke-width:0.5;" width="4" x="702" y="703.8769"/><rect fill="#0BE784" height="2" style="stroke:#0BE784;stroke-width:0.5;" width="4" x="702" y="707.8769"/><text fill="#96DDF2" font-family="sans-serif" font-size="14" lengthAdjust="spacing" textLength="90" x="609" y="729.872">Stellar Expert</text></g><!--entity User--><g id="elem_User"><ellipse cx="91" cy="51.2969" fill="#0BE784" rx="8" ry="8" style="stroke:#0BE784;stroke-width:0.5;"/><path d="M91,59.2969 L91,86.2969 M78,67.2969 L104,67.2969 M91,86.2969 L78,101.2969 M91,86.2969 L104,101.2969 " fill="none" style="stroke:#0BE784;stroke-width:0.5;"/><text fill="#100D23" font-family="sans-serif" font-size="14" lengthAdjust="spacing" textLength="32" x="75" y="115.792">User</text></g><!--entity DB--><g id="elem_DB"><path d="M39.5,699.2269 C39.5,689.2269 91,689.2269 91,689.2269 C91,689.2269 142.5,689.2269 142.5,699.2269 L142.5,740.8206 C142.5,750.8206 91,750.8206 91,750.8206 C91,750.8206 39.5,750.8206 39.5,740.8206 L39.5,699.2269 " fill="#0BE784" style="stroke:#0BE784;stroke-width:0.5;"/><path d="M39.5,699.2269 C39.5,709.2269 91,709.2269 91,709.2269 C91,709.2269 142.5,709.2269 142.5,699.2269 " fill="none" style="stroke:#0BE784;stroke-width:0.5;"/><text fill="#96DDF2" font-family="sans-serif" font-size="14" lengthAdjust="spacing" textLength="60" x="49.5" y="726.222">Astra DB</text><text fill="#96DDF2" font-family="sans-serif" font-size="14" lengthAdjust="spacing" textLength="83" x="49.5" y="742.5189">(Cassandra)</text></g><g id="elem_GMN24"><path d="M178,684.7669 L178,716.0269 L142.82,720.0269 L178,724.0269 L178,755.2981 A0,0 0 0 0 178,755.2981 L406,755.2981 A0,0 0 0 0 406,755.2981 L406,694.7669 L396,684.7669 L178,684.7669 A0,0 0 0 0 178,684.7669 " fill="#100D23" style="stroke:#181818;stroke-width:0.5;"/><path d="M396,684.7669 L396,694.7669 L406,694.7669 L396,684.7669 " fill="#100D23" style="stroke:#181818;stroke-width:0.5;"/><text fill="#0BE784" font-family="sans-serif" font-size="13" lengthAdjust="spacing" textLength="127" x="184" y="701.8338">Query Optimization:</text><text fill="#96DDF2" font-family="sans-serif" font-size="13" lengthAdjust="spacing" textLength="150" x="184" y="716.9666">&#8226; 204 &#8594; 24 queries/min</text><text fill="#96DDF2" font-family="sans-serif" font-size="13" lengthAdjust="spacing" textLength="104" x="184" y="732.0994">&#8226; 88% reduction</text><text fill="#96DDF2" font-family="sans-serif" font-size="13" lengthAdjust="spacing" textLength="207" x="184" y="747.2322">&#8226; Using status__in=[...]&lt;/color&gt;</text></g><!--link User to Frontend--><g id="link_User_Frontend"><path d="M91,119.4969 C91,148.8569 91,183.1769 91,210.6469 " fill="none" id="User-to-Frontend" style="stroke:#01C176;stroke-width:1.0;"/><polygon fill="#01C176" points="91,216.6469,95,207.6469,91,211.6469,87,207.6469,91,216.6469" style="stroke:#01C176;stroke-width:1.0;"/><text fill="#96DDF2" font-family="sans-serif" font-size="13" lengthAdjust="spacing" textLength="36" x="92" y="162.1638">Views</text></g><!--link Frontend to WebApp--><g id="link_Frontend_WebApp"><path d="M91,279.9769 C91,311.4669 91,353.7669 91,381.7869 " fill="none" id="Frontend-to-WebApp" style="stroke:#01C176;stroke-width:1.0;"/><polygon fill="#01C176" points="91,387.7869,95,378.7869,91,382.7869,87,378.7869,91,387.7869" style="stroke:#01C176;stroke-width:1.0;"/><text fill="#96DDF2" font-family="sans-serif" font-size="13" lengthAdjust="spacing" textLength="32" x="92" y="324.7638">HTTP</text></g><!--link WebApp to ApiApp--><g id="link_WebApp_ApiApp"><path d="M91,434.4069 C91,459.9869 91,495.5969 91,521.1769 " fill="none" id="WebApp-to-ApiApp" style="stroke:#01C176;stroke-width:1.0;"/><polygon fill="#01C176" points="91,527.1769,95,518.1769,91,522.1769,87,518.1769,91,527.1769" style="stroke:#01C176;stroke-width:1.0;"/><text fill="#96DDF2" font-family="sans-serif" font-size="13" lengthAdjust="spacing" textLength="54" x="92" y="485.3538">API Calls</text></g><!--link ApiApp to DB--><g id="link_ApiApp_DB"><path d="M91,574.1669 C91,603.8069 91,649.9169 91,682.8969 " fill="none" id="ApiApp-to-DB" style="stroke:#01C176;stroke-width:1.0;"/><polygon fill="#01C176" points="91,688.8969,95,679.8969,91,683.8969,87,679.8969,91,688.8969" style="stroke:#01C176;stroke-width:1.0;"/><text fill="#96DDF2" font-family="sans-serif" font-size="13" lengthAdjust="spacing" textLength="49" x="120" y="626.9438">Queries</text><text fill="#96DDF2" font-family="sans-serif" font-size="13" lengthAdjust="spacing" textLength="105" x="92" y="642.0766">(88% optimized)</text></g><!--link CronWorker to Pipeline--><g id="link_CronWorker_Pipeline"><path d="M500,442.5269 C500,465.3269 500,490.3469 500,513.1369 " fill="none" id="CronWorker-to-Pipeline" style="stroke:#01C176;stroke-width:1.0;"/><polygon fill="#01C176" points="500,519.1369,504,510.1369,500,514.1369,496,510.1369,500,519.1369" style="stroke:#01C176;stroke-width:1.0;"/><text fill="#96DDF2" font-family="sans-serif" font-size="13" lengthAdjust="spacing" textLength="83" x="501" y="485.3538">Orchestrates</text></g><!--link Pipeline to Horizon--><g id="link_Pipeline_Horizon"><path d="M500,582.2969 C500,615.3369 500,661.1069 500,690.5469 " fill="none" id="Pipeline-to-Horizon" style="stroke:#01C176;stroke-width:1.0;"/><polygon fill="#01C176" points="500,696.5469,504,687.5469,500,691.5469,496,687.5469,500,696.5469" style="stroke:#01C176;stroke-width:1.0;"/><text fill="#96DDF2" font-family="sans-serif" font-size="13" lengthAdjust="spacing" textLength="85" x="501" y="634.4438">Fetches Data</text></g><!--link Pipeline to Expert--><g id="link_Pipeline_Expert"><path d="M555.93,582.3569 C569.63,591.4269 583.62,602.1069 595,613.8769 C618.92,638.6169 635.4618,668.4186 646.3818,691.1486 " fill="none" id="Pipeline-to-Expert" style="stroke:#01C176;stroke-width:1.0;"/><polygon fill="#01C176" points="648.98,696.5569,648.6881,686.7123,646.8148,692.05,641.4771,690.1767,648.98,696.5569" style="stroke:#01C176;stroke-width:1.0;"/><text fill="#96DDF2" font-family="sans-serif" font-size="13" lengthAdjust="spacing" textLength="73" x="621" y="634.4438">Enrichment</text></g><!--link Pipeline to DB--><g id="link_Pipeline_DB"><path d="M420.72,582.3169 C398.91,590.3769 375.15,598.7869 353,605.8769 C288.51,626.5169 272.09,631.1769 206,645.8769 C185.74,650.3869 178.55,644.5869 160,653.8769 C143.21,662.2969 131.8095,671.7746 119.7595,684.5346 " fill="none" id="Pipeline-to-DB" style="stroke:#01C176;stroke-width:1.0;"/><polygon fill="#01C176" points="115.64,688.8969,124.7275,685.0998,119.073,685.2617,118.9111,679.6071,115.64,688.8969" style="stroke:#01C176;stroke-width:1.0;"/><text fill="#96DDF2" font-family="sans-serif" font-size="13" lengthAdjust="spacing" textLength="42" x="326" y="634.4438">Stores</text></g><!--SRC=[dPHVJjj04CRVVOgHgqfKLKBYf90Y6Yc94r6f4hG9y00esjX3M71stTqr42gaFlK0FKAFnaaw_XkR9aBqASxiRx_vPdPszGqN8LDi0JFctSoLZ8G_a85KyCRPQRhj3vOk21ylMHIOaHGcGpxkkEx8iKgC9nUX52WC_B00-iyrcus6wxJY5QbyL5cqqH_kTjeK_LSQeAUKlCl1vg2vksCzLZ86ClBNPtDQpNxBVKMsYh3F39inZUkr6orIR_-lTaXoR8wliTswTBpTnilIp3EqjDvpxkv5pzavaR3X9a3Oz-BuNiPsnqjjS067jwXkETxjRoVBNSjAanzhNEbQUQtsI54253vyOKjKTbveudKrD_P9XFLh3U_1RT7lkJZXEc81Vs26Is43qr08vJaUIrdSQoRc4dfX670lsxCXqntE24iaJvFFKZDA60jvZlMIp_MOOZvdmOJxoub2p7TyIwBbJMMpgoE2STnB3_L6jmEg6awbka5rBhPK9AOUHQRNSgRhuV9TaYrcKcIznqvjREB4Hpp4W0ia8QVMWWKN42f9sJKNyrGgHyg-qxjc3-yDAi42w1rztkptG2h-G9O9IWJp_skDZGq60LCml0zHcOHFFylfYnjfzxHH3Dm- -HymhPdm5Kjjk_tLv2LpM3lBdesBMdSrENiqPpIvshQAK0NCve6mWydaoBQo_nKc6mPYg4GOi20WkInO0SaJGLyZL1nfeBSwdRSWGyCN_07zTxPLEhNAlk88QFUXygumhjhGY5Z5IeNFEqpu24tCWqijsuHd3IPwA1JthXPq4flOj8GntUuulIMaGL1yVcL0NYOzBrxsPqz5NFKI3jDga-kuLpmNApXzoBfFF_-0qsZ3qw_VuBJXUzgnRHfFOkF5k7CA_SYBXRBOSJope0qpaPvEkVXqLg_NBueayT76Tgs_]--></g></svg>