<?xml version="1.0" encoding="us-ascii" standalone="no"?><svg xmlns="http://www.w3.org/2000/svg" xmlns:xlink="http://www.w3.org/1999/xlink" contentStyleType="text/css" height="778px" preserveAspectRatio="none" style="width:739px;height:778px;background:#372963;" version="1.1" viewBox="0 0 739 778" width="739px" zoomAndPan="magnify"><defs/><g><rect fill="#372963" height="778" style="stroke:none;stroke-width:1.0;" width="739" x="0" y="0"/><text fill="#00FF9C" font-family="sans-serif" font-size="14" font-weight="bold" lengthAdjust="spacing" textLength="138" x="293.8643" y="22.9951">System Overview</text><!--cluster Frontend Layer--><g id="cluster_Frontend Layer"><path d="M8.5,182.0969 L130.5,182.0969 A3.75,3.75 0 0 1 133,184.5969 L140,204.3937 L173.5,204.3937 A2.5,2.5 0 0 1 176,206.8937 L176,293.1969 A2.5,2.5 0 0 1 173.5,295.6969 L8.5,295.6969 A2.5,2.5 0 0 1 6,293.1969 L6,184.5969 A2.5,2.5 0 0 1 8.5,182.0969 " fill="#100D23" style="stroke:#000000;stroke-width:1.5;"/><line style="stroke:#000000;stroke-width:1.5;" x1="6" x2="140" y1="204.3937" y2="204.3937"/><text fill="#FFFFFF" font-family="sans-serif" font-size="14" font-weight="bold" lengthAdjust="spacing" textLength="121" x="10" y="197.092">Frontend Layer</text></g><!--cluster Django Application--><g id="cluster_Django Application"><path d="M29.5,352.8369 L176.5,352.8369 A3.75,3.75 0 0 1 179,355.3369 L186,375.1338 L350.5,375.1338 A2.5,2.5 0 0 1 353,377.6338 L353,587.2269 A2.5,2.5 0 0 1 350.5,589.7269 L29.5,589.7269 A2.5,2.5 0 0 1 27,587.2269 L27,355.3369 A2.5,2.5 0 0 1 29.5,352.8369 " fill="#100D23" style="stroke:#000000;stroke-width:1.5;"/><line style="stroke:#000000;stroke-width:1.5;" x1="27" x2="186" y1="375.1338" y2="375.1338"/><text fill="#FFFFFF" font-family="sans-serif" font-size="14" font-weight="bold" lengthAdjust="spacing" textLength="146" x="31" y="367.832">Django Application</text></g><!--cluster Background Services--><g id="cluster_Background Services"><path d="M379.5,344.6969 L547.5,344.6969 A3.75,3.75 0 0 1 550,347.1969 L557,366.9938 L590.5,366.9938 A2.5,2.5 0 0 1 593,369.4938 L593,595.3769 A2.5,2.5 0 0 1 590.5,597.8769 L379.5,597.8769 A2.5,2.5 0 0 1 377,595.3769 L377,347.1969 A2.5,2.5 0 0 1 379.5,344.6969 " fill="#100D23" style="stroke:#000000;stroke-width:1.5;"/><line style="stroke:#000000;stroke-width:1.5;" x1="377" x2="557" y1="366.9938" y2="366.9938"/><text fill="#FFFFFF" font-family="sans-serif" font-size="14" font-weight="bold" lengthAdjust="spacing" textLength="167" x="381" y="359.692">Background Services</text></g><!--cluster External APIs--><g id="cluster_External APIs"><path d="M416.6657,670.2632 C423.7201,660.5546 431.3446,659.5555 438.5358,670.1155 C445.0533,659.7191 452.6347,659.9844 459.3495,669.9135 C467.2772,660.576 474.8141,658.6761 481.7847,670.909 C487.1284,659.5608 496.4491,657.0863 504.2451,668.4877 C512.4036,657.7546 518.9203,657.8206 525.4636,669.9845 C530.5625,658.8456 540.3314,658.3894 547.4599,667.8134 C554.3598,658.7053 560.6735,658.5374 567.1284,668.2776 C574.1687,658.9018 582.2639,657.9624 589.8587,667.6154 C597.2919,657.5227 606.3106,658.1101 612.0265,669.3961 C617.4972,660.8223 626.3766,658.9489 631.6529,669.5946 C637.3766,659.634 646.3757,658.8618 652.4762,669.2081 C660.0571,658.9685 670.6946,660.2299 675.9172,671.7487 C683.1223,661.5112 690.8946,660.6783 697.1798,672.6302 C701.8389,663.1768 710.2966,663.6012 715.4779,672.098 C724.301,676.9198 725.1477,684.4378 717.9788,691.3383 C728.7724,694.6868 730.6558,704.4805 723.4134,712.468 C732.7286,719.9396 730.7645,729.0235 720.9937,734.3883 C728.1648,740.7996 727.2266,747.7115 718.7733,752.172 C712.7191,762.9173 702.3894,764.827 694.1215,754.799 C687.7317,763.424 678.8354,764.906 673.313,753.8806 C668.1373,764.4096 660.1317,768.6531 651.2105,757.7418 C644.1206,765.6813 637.8464,764.6518 633.2861,755.1431 C629.2425,765.8212 618.8201,768.5989 611.2088,759.034 C606.0515,769.1432 595.7877,769.7605 589.7378,759.9985 C583.7891,769.8823 573.6446,769.7849 567.2286,760.5486 C559.1482,771.0075 551.127,770.7987 544.4299,759.1237 C537.1241,769.0735 530.2845,769.5956 523.9602,758.1832 C517.4254,766.8938 509.4913,766.6845 503.1035,758.0069 C495.3828,766.6094 488.5551,767.3257 483.2575,755.637 C475.3416,764.788 466.5951,764.7588 460.7323,753.3839 C454.6667,762.4467 448.2406,763.9725 440.5151,755.2732 C432.7555,766.0445 423.4141,763.5034 417.6145,753.1487 C408.1632,749.0377 405.3935,740.8398 413.0714,732.8879 C401.3149,727.2151 402.0401,718.3949 411.2577,710.9853 C403.1574,703.4796 404.9921,695.2918 415.4219,691.8102 C406.558,684.147 405.4064,676.7649 416.6657,670.2632 " fill="#100D23" style="stroke:#00FF9C;stroke-width:1.0;"/><text fill="#FFFFFF" font-family="sans-serif" font-size="14" font-weight="bold" lengthAdjust="spacing" textLength="103" x="514" y="687.872">External APIs</text></g><!--entity Frontend--><g id="elem_Frontend"><rect fill="#00FF9C" height="62.5938" rx="2.5" ry="2.5" style="stroke:#00FF9C;stroke-width:0.5;" width="137" x="22.5" y="217.0969"/><rect fill="#00FF9C" height="10" style="stroke:#00FF9C;stroke-width:0.5;" width="15" x="139.5" y="222.0969"/><rect fill="#00FF9C" height="2" style="stroke:#00FF9C;stroke-width:0.5;" width="4" x="137.5" y="224.0969"/><rect fill="#00FF9C" height="2" style="stroke:#00FF9C;stroke-width:0.5;" width="4" x="137.5" y="228.0969"/><text fill="#FFFFFF" font-family="sans-serif" font-size="14" lengthAdjust="spacing" textLength="97" x="37.5" y="250.092">Vue.js + D3.js</text><text fill="#FFFFFF" font-family="sans-serif" font-size="14" lengthAdjust="spacing" textLength="85" x="37.5" y="266.3889">Visualization</text></g><!--entity WebApp--><g id="elem_WebApp"><rect fill="#00FF9C" height="46.2969" rx="2.5" ry="2.5" style="stroke:#00FF9C;stroke-width:0.5;" width="96" x="43" y="387.8369"/><rect fill="#00FF9C" height="10" style="stroke:#00FF9C;stroke-width:0.5;" width="15" x="119" y="392.8369"/><rect fill="#00FF9C" height="2" style="stroke:#00FF9C;stroke-width:0.5;" width="4" x="117" y="394.8369"/><rect fill="#00FF9C" height="2" style="stroke:#00FF9C;stroke-width:0.5;" width="4" x="117" y="398.8369"/><text fill="#FFFFFF" font-family="sans-serif" font-size="14" lengthAdjust="spacing" textLength="56" x="58" y="420.832">webApp</text></g><!--entity ApiApp--><g id="elem_ApiApp"><rect fill="#00FF9C" height="46.2969" rx="2.5" ry="2.5" style="stroke:#00FF9C;stroke-width:0.5;" width="87" x="51.5" y="527.4369"/><rect fill="#00FF9C" height="10" style="stroke:#00FF9C;stroke-width:0.5;" width="15" x="118.5" y="532.4369"/><rect fill="#00FF9C" height="2" style="stroke:#00FF9C;stroke-width:0.5;" width="4" x="116.5" y="534.4369"/><rect fill="#00FF9C" height="2" style="stroke:#00FF9C;stroke-width:0.5;" width="4" x="116.5" y="538.4369"/><text fill="#FFFFFF" font-family="sans-serif" font-size="14" lengthAdjust="spacing" textLength="47" x="66.5" y="560.432">apiApp</text></g><!--entity RadialApp--><g id="elem_RadialApp"><rect fill="#00FF9C" height="46.2969" rx="2.5" ry="2.5" style="stroke:#00FF9C;stroke-width:0.5;" width="163" x="173.5" y="387.8369"/><rect fill="#00FF9C" height="10" style="stroke:#00FF9C;stroke-width:0.5;" width="15" x="316.5" y="392.8369"/><rect fill="#00FF9C" height="2" style="stroke:#00FF9C;stroke-width:0.5;" width="4" x="314.5" y="394.8369"/><rect fill="#00FF9C" height="2" style="stroke:#00FF9C;stroke-width:0.5;" width="4" x="314.5" y="398.8369"/><text fill="#FFFFFF" font-family="sans-serif" font-size="14" lengthAdjust="spacing" textLength="123" x="188.5" y="420.832">radialTidyTreeApp</text></g><!--entity CronWorker--><g id="elem_CronWorker"><rect fill="#00FF9C" height="62.5938" rx="2.5" ry="2.5" style="stroke:#00FF9C;stroke-width:0.5;" width="167" x="401.5" y="379.6969"/><rect fill="#00FF9C" height="10" style="stroke:#00FF9C;stroke-width:0.5;" width="15" x="548.5" y="384.6969"/><rect fill="#00FF9C" height="2" style="stroke:#00FF9C;stroke-width:0.5;" width="4" x="546.5" y="386.6969"/><rect fill="#00FF9C" height="2" style="stroke:#00FF9C;stroke-width:0.5;" width="4" x="546.5" y="390.6969"/><text fill="#FFFFFF" font-family="sans-serif" font-size="14" lengthAdjust="spacing" textLength="86" x="416.5" y="412.692">Cron Worker</text><text fill="#FFFFFF" font-family="sans-serif" font-size="14" lengthAdjust="spacing" textLength="127" x="416.5" y="428.9889">(run_cron_jobs.py)</text></g><!--entity Pipeline--><g id="elem_Pipeline"><rect fill="#00FF9C" height="62.5938" rx="2.5" ry="2.5" style="stroke:#00FF9C;stroke-width:0.5;" width="183" x="393.5" y="519.2869"/><rect fill="#00FF9C" height="10" style="stroke:#00FF9C;stroke-width:0.5;" width="15" x="556.5" y="524.2869"/><rect fill="#00FF9C" height="2" style="stroke:#00FF9C;stroke-width:0.5;" width="4" x="554.5" y="526.2869"/><rect fill="#00FF9C" height="2" style="stroke:#00FF9C;stroke-width:0.5;" width="4" x="554.5" y="530.2869"/><text fill="#FFFFFF" font-family="sans-serif" font-size="14" lengthAdjust="spacing" textLength="112" x="408.5" y="552.282">8-Stage Pipeline</text><text fill="#FFFFFF" font-family="sans-serif" font-size="14" lengthAdjust="spacing" textLength="143" x="408.5" y="568.5789">(2-3 min processing)</text></g><!--entity Horizon--><g id="elem_Horizon"><rect fill="#00FF9C" height="46.2969" rx="2.5" ry="2.5" style="stroke:#00FF9C;stroke-width:0.5;" width="118" x="424" y="696.8769"/><rect fill="#00FF9C" height="10" style="stroke:#00FF9C;stroke-width:0.5;" width="15" x="522" y="701.8769"/><rect fill="#00FF9C" height="2" style="stroke:#00FF9C;stroke-width:0.5;" width="4" x="520" y="703.8769"/><rect fill="#00FF9C" height="2" style="stroke:#00FF9C;stroke-width:0.5;" width="4" x="520" y="707.8769"/><text fill="#FFFFFF" font-family="sans-serif" font-size="14" lengthAdjust="spacing" textLength="78" x="439" y="729.872">Horizon API</text></g><!--entity Expert--><g id="elem_Expert"><rect fill="#00FF9C" height="46.2969" rx="2.5" ry="2.5" style="stroke:#00FF9C;stroke-width:0.5;" width="130" x="577" y="696.8769"/><rect fill="#00FF9C" height="10" style="stroke:#00FF9C;stroke-width:0.5;" width="15" x="687" y="701.8769"/><rect fill="#00FF9C" height="2" style="stroke:#00FF9C;stroke-width:0.5;" width="4" x="685" y="703.8769"/><rect fill="#00FF9C" height="2" style="stroke:#00FF9C;stroke-width:0.5;" width="4" x="685" y="707.8769"/><text fill="#FFFFFF" font-family="sans-serif" font-size="14" lengthAdjust="spacing" textLength="90" x="592" y="729.872">Stellar Expert</text></g><!--entity User--><g id="elem_User"><ellipse cx="91" cy="51.2969" fill="#00FF9C" rx="8" ry="8" style="stroke:#181818;stroke-width:0.5;"/><path d="M91,59.2969 L91,86.2969 M78,67.2969 L104,67.2969 M91,86.2969 L78,101.2969 M91,86.2969 L104,101.2969 " fill="none" style="stroke:#181818;stroke-width:0.5;"/><text fill="#FFFFFF" font-family="sans-serif" font-size="14" lengthAdjust="spacing" textLength="32" x="75" y="115.792">User</text></g><!--entity DB--><g id="elem_DB"><path d="M58.5,699.2269 C58.5,689.2269 110,689.2269 110,689.2269 C110,689.2269 161.5,689.2269 161.5,699.2269 L161.5,740.8206 C161.5,750.8206 110,750.8206 110,750.8206 C110,750.8206 58.5,750.8206 58.5,740.8206 L58.5,699.2269 " fill="#00FF9C" style="stroke:#00FF9C;stroke-width:0.5;"/><path d="M58.5,699.2269 C58.5,709.2269 110,709.2269 110,709.2269 C110,709.2269 161.5,709.2269 161.5,699.2269 " fill="none" style="stroke:#00FF9C;stroke-width:0.5;"/><text fill="#FFFFFF" font-family="sans-serif" font-size="14" lengthAdjust="spacing" textLength="60" x="68.5" y="726.222">Astra DB</text><text fill="#FFFFFF" font-family="sans-serif" font-size="14" lengthAdjust="spacing" textLength="83" x="68.5" y="742.5189">(Cassandra)</text></g><g id="elem_GMN24"><path d="M196.5,684.7669 L196.5,716.0269 L161.73,720.0269 L196.5,724.0269 L196.5,755.2981 A0,0 0 0 0 196.5,755.2981 L367.5,755.2981 A0,0 0 0 0 367.5,755.2981 L367.5,694.7669 L357.5,684.7669 L196.5,684.7669 A0,0 0 0 0 196.5,684.7669 " fill="#FEFFDD" style="stroke:#181818;stroke-width:0.5;"/><path d="M357.5,684.7669 L357.5,694.7669 L367.5,694.7669 L357.5,684.7669 " fill="#FEFFDD" style="stroke:#181818;stroke-width:0.5;"/><text fill="#00FF9C" font-family="sans-serif" font-size="13" lengthAdjust="spacing" textLength="127" x="202.5" y="701.8338">Query Optimization:</text><text fill="#FFFFFF" font-family="sans-serif" font-size="13" lengthAdjust="spacing" textLength="150" x="202.5" y="716.9666">&#8226; 204 &#8594; 24 queries/min</text><text fill="#FFFFFF" font-family="sans-serif" font-size="13" lengthAdjust="spacing" textLength="104" x="202.5" y="732.0994">&#8226; 88% reduction</text><text fill="#FFFFFF" font-family="sans-serif" font-size="13" lengthAdjust="spacing" textLength="150" x="202.5" y="747.2322">&#8226; Using status__in=[...]</text></g><!--link User to Frontend--><g id="link_User_Frontend"><path d="M91,119.4969 C91,148.8569 91,183.1769 91,210.6469 " fill="none" id="User-to-Frontend" style="stroke:#C592FF;stroke-width:1.0;"/><polygon fill="#C592FF" points="91,216.6469,95,207.6469,91,211.6469,87,207.6469,91,216.6469" style="stroke:#C592FF;stroke-width:1.0;"/><text fill="#FFFFFF" font-family="sans-serif" font-size="13" lengthAdjust="spacing" textLength="36" x="92" y="162.1638">Views</text></g><!--link Frontend to WebApp--><g id="link_Frontend_WebApp"><path d="M91,279.9769 C91,311.4669 91,353.7669 91,381.7869 " fill="none" id="Frontend-to-WebApp" style="stroke:#C592FF;stroke-width:1.0;"/><polygon fill="#C592FF" points="91,387.7869,95,378.7869,91,382.7869,87,378.7869,91,387.7869" style="stroke:#C592FF;stroke-width:1.0;"/><text fill="#FFFFFF" font-family="sans-serif" font-size="13" lengthAdjust="spacing" textLength="32" x="92" y="324.7638">HTTP</text></g><!--link WebApp to ApiApp--><g id="link_WebApp_ApiApp"><path d="M91.65,434.4069 C92.4,459.9869 93.4242,495.5995 94.1742,521.1795 " fill="none" id="WebApp-to-ApiApp" style="stroke:#C592FF;stroke-width:1.0;"/><polygon fill="#C592FF" points="94.35,527.1769,98.0845,518.0635,94.2035,522.179,90.088,518.298,94.35,527.1769" style="stroke:#C592FF;stroke-width:1.0;"/><text fill="#FFFFFF" font-family="sans-serif" font-size="13" lengthAdjust="spacing" textLength="54" x="95" y="485.3538">API Calls</text></g><!--link ApiApp to DB--><g id="link_ApiApp_DB"><path d="M97.02,574.1669 C99.68,603.8069 103.8154,649.9407 106.7654,682.9207 " fill="none" id="ApiApp-to-DB" style="stroke:#C592FF;stroke-width:1.0;"/><polygon fill="#C592FF" points="107.3,688.8969,110.4823,679.5763,106.8545,683.9168,102.5141,680.289,107.3,688.8969" style="stroke:#C592FF;stroke-width:1.0;"/><text fill="#FFFFFF" font-family="sans-serif" font-size="13" lengthAdjust="spacing" textLength="49" x="133" y="626.9438">Queries</text><text fill="#FFFFFF" font-family="sans-serif" font-size="13" lengthAdjust="spacing" textLength="105" x="105" y="642.0766">(88% optimized)</text></g><!--link CronWorker to Pipeline--><g id="link_CronWorker_Pipeline"><path d="M485,442.5269 C485,465.3269 485,490.3469 485,513.1369 " fill="none" id="CronWorker-to-Pipeline" style="stroke:#C592FF;stroke-width:1.0;"/><polygon fill="#C592FF" points="485,519.1369,489,510.1369,485,514.1369,481,510.1369,485,519.1369" style="stroke:#C592FF;stroke-width:1.0;"/><text fill="#FFFFFF" font-family="sans-serif" font-size="13" lengthAdjust="spacing" textLength="83" x="486" y="485.3538">Orchestrates</text></g><!--link Pipeline to Horizon--><g id="link_Pipeline_Horizon"><path d="M484.63,582.2969 C484.24,615.3369 483.6913,661.1073 483.3413,690.5473 " fill="none" id="Pipeline-to-Horizon" style="stroke:#C592FF;stroke-width:1.0;"/><polygon fill="#C592FF" points="483.27,696.5469,487.3767,687.5951,483.3294,691.5472,479.3773,687.5,483.27,696.5469" style="stroke:#C592FF;stroke-width:1.0;"/><text fill="#FFFFFF" font-family="sans-serif" font-size="13" lengthAdjust="spacing" textLength="85" x="485" y="634.4438">Fetches Data</text></g><!--link Pipeline to Expert--><g id="link_Pipeline_Expert"><path d="M539.89,582.0569 C553.61,591.1969 567.64,601.9869 579,613.8769 C602.67,638.6469 618.9327,668.4292 629.6327,691.1392 " fill="none" id="Pipeline-to-Expert" style="stroke:#C592FF;stroke-width:1.0;"/><polygon fill="#C592FF" points="632.19,696.5669,631.9725,686.7204,630.0589,692.0438,624.7355,690.1302,632.19,696.5669" style="stroke:#C592FF;stroke-width:1.0;"/><text fill="#FFFFFF" font-family="sans-serif" font-size="13" lengthAdjust="spacing" textLength="73" x="604" y="634.4438">Enrichment</text></g><!--link Pipeline to DB--><g id="link_Pipeline_DB"><path d="M413.92,582.3469 C394.33,590.4069 372.97,598.8069 353,605.8769 C294.41,626.6169 279.32,630.8769 219,645.8769 C201.41,650.2569 195.11,645.5569 179,653.8769 C162.46,662.4269 151.2164,671.7806 139.1964,684.4106 " fill="none" id="Pipeline-to-DB" style="stroke:#C592FF;stroke-width:1.0;"/><polygon fill="#C592FF" points="135.06,688.7569,144.1621,684.995,138.507,685.135,138.367,679.4798,135.06,688.7569" style="stroke:#C592FF;stroke-width:1.0;"/><text fill="#FFFFFF" font-family="sans-serif" font-size="13" lengthAdjust="spacing" textLength="42" x="328" y="634.4438">Stores</text></g><!--SRC=[hPJDJjj04CVlVegHgqfKLKAQq1OGHGe94PKgGPi01q3HnXx2WhFhpgw1K27rr0Ve8_JHU9AEFsE3VSCNsxE_cVdFXsrkf0e5YGNCX7Sp9nqfVw03JV2czxcxzQddc88GdfMtqYxXbmDyxJrt-D3f3Bkzz4oJZvJPEvtHQ6kGs4TQsSnwcLpEOqs2Ff6-op3lurQNiPVGs0gorGnra0wR61ylHHJObv9AZASNeLQeR59pSyNrzRuC3L1JssCbOw0Z_vMoLGBxmegPCFXwiQsq0SAE5zktCtPtl3GM5t1uYtGhyMvdFJdUTHmU2RiV6rp5TKAM8UO8xeWu0IeVleabaflhIRIkPk2UHDY-Dl0UXZs-dwiJQI8Ho0TXfLOk20D5e3p7OodBy5gekOP-60RIotmQCjtXZB4av6doM6f62HEXpB5-ybYFaV2b22RINqu8CVVuaLZBJcMngn71EEwbXwPHxO2hXbDDDqZdQeqYDVNOChtMCzCEb- -IR36J8lKQDrlyHN7Y8nbY81Loe6wh1mkf82JDsOrKypHKZfHrftlhxjzR92K2w1zzRTPxe4a-i6I6ae3vUwsmiSKW40Jxzo6IJVZqiPo-s6wtRom96Ewn_e4mHYYVH2fxkBVQl6GFMsVP9tZHsbrjpZRl6M-kSPt2L06pVM3iO38vSftilS9aoy0CbmW34GGSBZDMGDR4qFS8II8lzDhcvblGePKB-O3-EzSfJQtYLuo0lG_9kyAuQiihuXGd5JxlCECZj34FGsvP4vurcEbzHTAxMl0acjYq1FxJKfpUKTeYa9nVMT2NVCZ3VFQBYAjTmc5QPV8PRXU_2O2dt_-Wszc0fpz_eRi1FzFMhFCUPeTnYmZzo8izCzjnl9nWhB2HcKwb-dBMRhSld7XsiHxdFm00]--></g></svg>