<?xml version="1.0" encoding="us-ascii" standalone="no"?><svg xmlns="http://www.w3.org/2000/svg" xmlns:xlink="http://www.w3.org/1999/xlink" contentStyleType="text/css" height="820px" preserveAspectRatio="none" style="width:1408px;height:820px;background:#261D45;" version="1.1" viewBox="0 0 1408 820" width="1408px" zoomAndPan="magnify"><defs/><g><rect fill="#261D45" height="820" style="stroke:none;stroke-width:1.0;" width="1408" x="0" y="0"/><text fill="#0BE784" font-family="sans-serif" font-size="14" font-weight="bold" lengthAdjust="spacing" textLength="138" x="628.4088" y="22.9951">System Overview</text><!--cluster Frontend Layer--><g id="cluster_Frontend Layer"><path d="M624.3176,182.0969 L746.3176,182.0969 A3.75,3.75 0 0 1 748.8176,184.5969 L755.8176,204.3937 L789.3176,204.3937 A2.5,2.5 0 0 1 791.8176,206.8937 L791.8176,293.1869 A2.5,2.5 0 0 1 789.3176,295.6869 L624.3176,295.6869 A2.5,2.5 0 0 1 621.8176,293.1869 L621.8176,184.5969 A2.5,2.5 0 0 1 624.3176,182.0969 " fill="#231B3D" style="stroke:#3F2C70;stroke-width:1.5;"/><line style="stroke:#3F2C70;stroke-width:1.5;" x1="621.8176" x2="755.8176" y1="204.3937" y2="204.3937"/><text fill="#96DDF2" font-family="sans-serif" font-size="14" font-weight="bold" lengthAdjust="spacing" textLength="121" x="625.8176" y="197.092">Frontend Layer</text></g><!--cluster Django Application--><g id="cluster_Django Application"><path d="M645.3176,344.6869 L792.3176,344.6869 A3.75,3.75 0 0 1 794.8176,347.1869 L801.8176,366.9838 L966.3176,366.9838 A2.5,2.5 0 0 1 968.8176,369.4838 L968.8176,591.9269 A2.5,2.5 0 0 1 966.3176,594.4269 L645.3176,594.4269 A2.5,2.5 0 0 1 642.8176,591.9269 L642.8176,347.1869 A2.5,2.5 0 0 1 645.3176,344.6869 " fill="#231B3D" style="stroke:#3F2C70;stroke-width:1.5;"/><line style="stroke:#3F2C70;stroke-width:1.5;" x1="642.8176" x2="801.8176" y1="366.9838" y2="366.9838"/><text fill="#96DDF2" font-family="sans-serif" font-size="14" font-weight="bold" lengthAdjust="spacing" textLength="146" x="646.8176" y="359.682">Django Application</text></g><!--cluster Background Services--><g id="cluster_Background Services"><path d="M140.3176,488.9869 L308.3176,488.9869 A3.75,3.75 0 0 1 310.8176,491.4869 L317.8176,511.2837 L616.3176,511.2837 A2.5,2.5 0 0 1 618.8176,513.7837 L618.8176,600.0769 A2.5,2.5 0 0 1 616.3176,602.5769 L140.3176,602.5769 A2.5,2.5 0 0 1 137.8176,600.0769 L137.8176,491.4869 A2.5,2.5 0 0 1 140.3176,488.9869 " fill="#231B3D" style="stroke:#3F2C70;stroke-width:1.5;"/><line style="stroke:#3F2C70;stroke-width:1.5;" x1="137.8176" x2="317.8176" y1="511.2837" y2="511.2837"/><text fill="#96DDF2" font-family="sans-serif" font-size="14" font-weight="bold" lengthAdjust="spacing" textLength="167" x="141.8176" y="503.982">Background Services</text></g><!--cluster Data Sources--><g id="cluster_Data Sources"><path d="M42.3312,687.0608 C51.5504,672.6336 66.9324,674.547 74.2145,689.1857 C80.3373,670.3164 98.2486,670.395 109.7012,683.2177 C120.6958,670.0262 132.8557,673.8327 140.2406,687.3457 C147.0821,670.3436 163.6821,666.8433 174.2919,683.5377 C182.9502,666.8926 196.9211,667.8412 205.977,683.1432 C215.6777,668.2502 226.8918,669.1799 237.1955,682.4754 C248.8278,665.5902 262.9216,664.0227 275.5526,681.356 C285.3559,667.9164 294.7999,667.8064 302.7574,683.1034 C314.5626,664.5912 329.5216,663.6855 341.2272,683.2042 C349.1556,670.3494 360.6064,667.2688 370.1867,681.4336 C384.0719,669.1328 395.9369,670.3349 404.7149,687.432 C412.5471,670.3409 429.2058,669.5422 438.5624,685.889 C448.3939,669.3089 460.1899,670.3785 469.5142,686.3709 C483.9292,670.8784 495.7591,673.2859 505.8176,691.1169 C510.0148,689.8567 511.8769,691.654 511.5558,695.86 C533.8624,706.1023 533.2193,721.3702 518.1474,737.5258 C536.6466,759.4124 525.5606,779.0727 498.8176,780.7069 C500.5787,780.8811 500.9655,781.8742 499.963,783.279 C490.7054,798.516 481.7632,799.5911 471.4004,784.3135 C463.267,801.3856 448.3378,799.4994 438.9583,785.6196 C429.6147,802.5358 418.1779,807.5909 403.5916,791.1838 C394.7155,805.5535 379.5199,807.6336 371.9247,789.9196 C360.9363,810.307 347.1578,807.5019 335.292,790.7859 C325.7628,805.128 314.3275,805.7432 303.94,791.735 C296.5657,807.8403 283.6357,813.7542 270.3746,797.9219 C257.7773,810.9796 244.5185,809.2811 238.362,791.2827 C227.8794,804.1983 217.0913,804.5441 208.6979,789.0976 C199.3023,806.8342 184.2713,808.2781 172.4372,791.6723 C162.1476,808.7067 147.4212,804.4911 139.9163,788.8969 C130.3434,802.7741 118.6457,804.6328 110.0272,787.963 C99.3426,799.8077 86.7697,799.3747 78.6111,784.9429 C60.3749,806.4733 41.269,795.1709 33.8176,773.7069 C37.6988,772.5538 39.4521,773.8246 39.5872,777.8669 C16.5926,768.8871 12.8776,753.6692 29.8824,735.5221 C6,715.5093 9.7637,692.4434 40.8176,684.1169 C42.6386,684.2847 43.2787,685.4696 42.3312,687.0608 " fill="#231B3D" style="stroke:#3F2C70;stroke-width:1.0;"/><text fill="#96DDF2" font-family="sans-serif" font-size="14" font-weight="bold" lengthAdjust="spacing" textLength="105" x="217.3176" y="702.112">Data Sources</text></g><!--entity Frontend--><g id="elem_Frontend"><rect fill="#100D23" height="62.5938" rx="2.5" ry="2.5" style="stroke:#0BE784;stroke-width:0.5;" width="137" x="638.3176" y="217.0969"/><rect fill="#100D23" height="10" style="stroke:#0BE784;stroke-width:0.5;" width="15" x="755.3176" y="222.0969"/><rect fill="#100D23" height="2" style="stroke:#0BE784;stroke-width:0.5;" width="4" x="753.3176" y="224.0969"/><rect fill="#100D23" height="2" style="stroke:#0BE784;stroke-width:0.5;" width="4" x="753.3176" y="228.0969"/><text fill="#96DDF2" font-family="sans-serif" font-size="14" lengthAdjust="spacing" textLength="97" x="653.3176" y="250.092">Vue.js + D3.js</text><text fill="#96DDF2" font-family="sans-serif" font-size="14" lengthAdjust="spacing" textLength="85" x="653.3176" y="266.3889">Visualization</text></g><!--entity WebApp--><g id="elem_WebApp"><rect fill="#100D23" height="46.2969" rx="2.5" ry="2.5" style="stroke:#0BE784;stroke-width:0.5;" width="96" x="658.8176" y="379.6869"/><rect fill="#100D23" height="10" style="stroke:#0BE784;stroke-width:0.5;" width="15" x="734.8176" y="384.6869"/><rect fill="#100D23" height="2" style="stroke:#0BE784;stroke-width:0.5;" width="4" x="732.8176" y="386.6869"/><rect fill="#100D23" height="2" style="stroke:#0BE784;stroke-width:0.5;" width="4" x="732.8176" y="390.6869"/><text fill="#96DDF2" font-family="sans-serif" font-size="14" lengthAdjust="spacing" textLength="56" x="673.8176" y="412.682">webApp</text></g><!--entity ApiApp--><g id="elem_ApiApp"><rect fill="#100D23" height="46.2969" rx="2.5" ry="2.5" style="stroke:#0BE784;stroke-width:0.5;" width="87" x="663.3176" y="532.1369"/><rect fill="#100D23" height="10" style="stroke:#0BE784;stroke-width:0.5;" width="15" x="730.3176" y="537.1369"/><rect fill="#100D23" height="2" style="stroke:#0BE784;stroke-width:0.5;" width="4" x="728.3176" y="539.1369"/><rect fill="#100D23" height="2" style="stroke:#0BE784;stroke-width:0.5;" width="4" x="728.3176" y="543.1369"/><text fill="#96DDF2" font-family="sans-serif" font-size="14" lengthAdjust="spacing" textLength="47" x="678.3176" y="565.132">apiApp</text></g><!--entity RadialApp--><g id="elem_RadialApp"><rect fill="#100D23" height="46.2969" rx="2.5" ry="2.5" style="stroke:#0BE784;stroke-width:0.5;" width="163" x="789.3176" y="379.6869"/><rect fill="#100D23" height="10" style="stroke:#0BE784;stroke-width:0.5;" width="15" x="932.3176" y="384.6869"/><rect fill="#100D23" height="2" style="stroke:#0BE784;stroke-width:0.5;" width="4" x="930.3176" y="386.6869"/><rect fill="#100D23" height="2" style="stroke:#0BE784;stroke-width:0.5;" width="4" x="930.3176" y="390.6869"/><text fill="#96DDF2" font-family="sans-serif" font-size="14" lengthAdjust="spacing" textLength="123" x="804.3176" y="412.682">radialTidyTreeApp</text></g><!--entity BQPipeline--><g id="elem_BQPipeline"><rect fill="#100D23" height="62.5938" rx="2.5" ry="2.5" style="stroke:#0BE784;stroke-width:0.5;" width="201" x="401.3176" y="523.9869"/><rect fill="#100D23" height="10" style="stroke:#0BE784;stroke-width:0.5;" width="15" x="582.3176" y="528.9869"/><rect fill="#100D23" height="2" style="stroke:#0BE784;stroke-width:0.5;" width="4" x="580.3176" y="530.9869"/><rect fill="#100D23" height="2" style="stroke:#0BE784;stroke-width:0.5;" width="4" x="580.3176" y="534.9869"/><text fill="#96DDF2" font-family="sans-serif" font-size="14" lengthAdjust="spacing" textLength="121" x="416.3176" y="556.982">BigQuery Pipeline</text><text fill="#96DDF2" font-family="sans-serif" font-size="14" lengthAdjust="spacing" textLength="161" x="416.3176" y="573.2789">(50-90 sec processing)</text></g><!--entity APIPipeline--><g id="elem_APIPipeline"><rect fill="#100D23" height="62.5938" rx="2.5" ry="2.5" style="stroke:#0BE784;stroke-width:0.5;" width="213" x="153.3176" y="523.9869"/><rect fill="#100D23" height="10" style="stroke:#0BE784;stroke-width:0.5;" width="15" x="346.3176" y="528.9869"/><rect fill="#100D23" height="2" style="stroke:#0BE784;stroke-width:0.5;" width="4" x="344.3176" y="530.9869"/><rect fill="#100D23" height="2" style="stroke:#0BE784;stroke-width:0.5;" width="4" x="344.3176" y="534.9869"/><text fill="#96DDF2" font-family="sans-serif" font-size="14" lengthAdjust="spacing" textLength="173" x="168.3176" y="556.982">API Pipeline (Educational)</text><text fill="#96DDF2" font-family="sans-serif" font-size="14" lengthAdjust="spacing" textLength="123" x="168.3176" y="573.2789">(8-stage, 2-3 min)</text></g><!--entity BigQuery--><g id="elem_BigQuery"><path d="M360.3176,721.1169 C360.3176,711.1169 428.8176,711.1169 428.8176,711.1169 C428.8176,711.1169 497.3176,711.1169 497.3176,721.1169 L497.3176,762.7106 C497.3176,772.7106 428.8176,772.7106 428.8176,772.7106 C428.8176,772.7106 360.3176,772.7106 360.3176,762.7106 L360.3176,721.1169 " fill="#100D23" style="stroke:#0BE784;stroke-width:0.5;"/><path d="M360.3176,721.1169 C360.3176,731.1169 428.8176,731.1169 428.8176,731.1169 C428.8176,731.1169 497.3176,731.1169 497.3176,721.1169 " fill="none" style="stroke:#0BE784;stroke-width:0.5;"/><text fill="#96DDF2" font-family="sans-serif" font-size="14" lengthAdjust="spacing" textLength="117" x="370.3176" y="748.112">BigQuery/Hubble</text><text fill="#96DDF2" font-family="sans-serif" font-size="14" lengthAdjust="spacing" textLength="110" x="370.3176" y="764.4089">(Stellar Dataset)</text></g><!--entity Horizon--><g id="elem_Horizon"><rect fill="#100D23" height="46.2969" rx="2.5" ry="2.5" style="stroke:#0BE784;stroke-width:0.5;" width="118" x="206.8176" y="718.7569"/><rect fill="#100D23" height="10" style="stroke:#0BE784;stroke-width:0.5;" width="15" x="304.8176" y="723.7569"/><rect fill="#100D23" height="2" style="stroke:#0BE784;stroke-width:0.5;" width="4" x="302.8176" y="725.7569"/><rect fill="#100D23" height="2" style="stroke:#0BE784;stroke-width:0.5;" width="4" x="302.8176" y="729.7569"/><text fill="#96DDF2" font-family="sans-serif" font-size="14" lengthAdjust="spacing" textLength="78" x="221.8176" y="751.752">Horizon API</text></g><!--entity Expert--><g id="elem_Expert"><rect fill="#100D23" height="46.2969" rx="2.5" ry="2.5" style="stroke:#0BE784;stroke-width:0.5;" width="130" x="41.8176" y="718.7569"/><rect fill="#100D23" height="10" style="stroke:#0BE784;stroke-width:0.5;" width="15" x="151.8176" y="723.7569"/><rect fill="#100D23" height="2" style="stroke:#0BE784;stroke-width:0.5;" width="4" x="149.8176" y="725.7569"/><rect fill="#100D23" height="2" style="stroke:#0BE784;stroke-width:0.5;" width="4" x="149.8176" y="729.7569"/><text fill="#96DDF2" font-family="sans-serif" font-size="14" lengthAdjust="spacing" textLength="90" x="56.8176" y="751.752">Stellar Expert</text></g><!--entity User--><g id="elem_User"><ellipse cx="706.8176" cy="51.2969" fill="#0BE784" rx="8" ry="8" style="stroke:#0BE784;stroke-width:0.5;"/><path d="M706.8176,59.2969 L706.8176,86.2969 M693.8176,67.2969 L719.8176,67.2969 M706.8176,86.2969 L693.8176,101.2969 M706.8176,86.2969 L719.8176,101.2969 " fill="none" style="stroke:#0BE784;stroke-width:0.5;"/><text fill="#100D23" font-family="sans-serif" font-size="14" lengthAdjust="spacing" textLength="32" x="690.8176" y="115.792">User</text></g><!--entity DB--><g id="elem_DB"><path d="M613.3176,721.1169 C613.3176,711.1169 664.8176,711.1169 664.8176,711.1169 C664.8176,711.1169 716.3176,711.1169 716.3176,721.1169 L716.3176,762.7106 C716.3176,772.7106 664.8176,772.7106 664.8176,772.7106 C664.8176,772.7106 613.3176,772.7106 613.3176,762.7106 L613.3176,721.1169 " fill="#100D23" style="stroke:#0BE784;stroke-width:0.5;"/><path d="M613.3176,721.1169 C613.3176,731.1169 664.8176,731.1169 664.8176,731.1169 C664.8176,731.1169 716.3176,731.1169 716.3176,721.1169 " fill="none" style="stroke:#0BE784;stroke-width:0.5;"/><text fill="#96DDF2" font-family="sans-serif" font-size="14" lengthAdjust="spacing" textLength="60" x="623.3176" y="748.112">Astra DB</text><text fill="#96DDF2" font-family="sans-serif" font-size="14" lengthAdjust="spacing" textLength="83" x="623.3176" y="764.4089">(Cassandra)</text></g><g id="elem_GMN25"><path d="M1197.8176,512.4469 L1197.8176,598.1109 L1401.8176,598.1109 L1401.8176,522.4469 L1391.8176,512.4469 L1197.8176,512.4469 " fill="#231B3D" style="stroke:#3F2C70;stroke-width:0.5;"/><path d="M1391.8176,512.4469 L1391.8176,522.4469 L1401.8176,522.4469 L1391.8176,512.4469 " fill="#231B3D" style="stroke:#3F2C70;stroke-width:1.0;"/><text fill="#0BE784" font-family="sans-serif" font-size="13" lengthAdjust="spacing" textLength="106" x="1203.8176" y="529.5138">Primary Pipeline:</text><text fill="#96DDF2" font-family="sans-serif" font-size="13" lengthAdjust="spacing" textLength="138" x="1203.8176" y="544.6466">&#8226; 4 optimized queries</text><text fill="#96DDF2" font-family="sans-serif" font-size="13" lengthAdjust="spacing" textLength="122" x="1203.8176" y="559.7794">&#8226; No API rate limits</text><text fill="#96DDF2" font-family="sans-serif" font-size="13" lengthAdjust="spacing" textLength="81" x="1203.8176" y="574.9122">&#8226; 2-3x faster</text><text fill="#96DDF2" font-family="sans-serif" font-size="13" lengthAdjust="spacing" textLength="183" x="1203.8176" y="590.045">&#8226; Up to 100K children/parent</text></g><g id="elem_GMN28"><path d="M984.8176,520.0169 L984.8176,590.5481 L1162.8176,590.5481 L1162.8176,530.0169 L1152.8176,520.0169 L984.8176,520.0169 " fill="#231B3D" style="stroke:#3F2C70;stroke-width:0.5;"/><path d="M1152.8176,520.0169 L1152.8176,530.0169 L1162.8176,530.0169 L1152.8176,520.0169 " fill="#231B3D" style="stroke:#3F2C70;stroke-width:1.0;"/><text fill="#96DDF2" font-family="sans-serif" font-size="13" lengthAdjust="spacing" textLength="146" x="990.8176" y="537.0838">Educational/Reference:</text><text fill="#96DDF2" font-family="sans-serif" font-size="13" lengthAdjust="spacing" textLength="131" x="990.8176" y="552.2166">&#8226; 8-stage sequential</text><text fill="#96DDF2" font-family="sans-serif" font-size="13" lengthAdjust="spacing" textLength="152" x="990.8176" y="567.3494">&#8226; Horizon + Expert APIs</text><text fill="#96DDF2" font-family="sans-serif" font-size="13" lengthAdjust="spacing" textLength="157" x="990.8176" y="582.4822">&#8226; Not enabled by default</text></g><!--link User to Frontend--><g id="link_User_Frontend"><path d="M706.8176,119.4869 C706.8176,148.8469 706.8176,183.1769 706.8176,210.6369 " fill="none" id="User-to-Frontend" style="stroke:#01C176;stroke-width:1.0;"/><polygon fill="#01C176" points="706.8176,216.6369,710.8176,207.6369,706.8176,211.6369,702.8176,207.6369,706.8176,216.6369" style="stroke:#01C176;stroke-width:1.0;"/><text fill="#96DDF2" font-family="sans-serif" font-size="13" lengthAdjust="spacing" textLength="36" x="707.8176" y="162.1638">Views</text></g><!--link Frontend to WebApp--><g id="link_Frontend_WebApp"><path d="M706.8176,279.8769 C706.8176,309.2469 706.8176,346.9869 706.8176,373.3269 " fill="none" id="Frontend-to-WebApp" style="stroke:#01C176;stroke-width:1.0;"/><polygon fill="#01C176" points="706.8176,379.3269,710.8176,370.3269,706.8176,374.3269,702.8176,370.3269,706.8176,379.3269" style="stroke:#01C176;stroke-width:1.0;"/><text fill="#96DDF2" font-family="sans-serif" font-size="13" lengthAdjust="spacing" textLength="32" x="707.8176" y="324.7538">HTTP</text></g><!--link WebApp to ApiApp--><g id="link_WebApp_ApiApp"><path d="M706.8176,426.3569 C706.8176,454.8869 706.8176,497.7269 706.8176,526.0969 " fill="none" id="WebApp-to-ApiApp" style="stroke:#01C176;stroke-width:1.0;"/><polygon fill="#01C176" points="706.8176,532.0969,710.8176,523.0969,706.8176,527.0969,702.8176,523.0969,706.8176,532.0969" style="stroke:#01C176;stroke-width:1.0;"/><text fill="#96DDF2" font-family="sans-serif" font-size="13" lengthAdjust="spacing" textLength="54" x="707.8176" y="469.0538">API Calls</text></g><!--link ApiApp to DB--><g id="link_ApiApp_DB"><path d="M701.6676,578.9169 C694.1276,612.0469 681.4192,667.9365 673.0092,704.8865 " fill="none" id="ApiApp-to-DB" style="stroke:#01C176;stroke-width:1.0;"/><polygon fill="#01C176" points="671.6776,710.7369,677.5752,702.849,672.7873,705.8616,669.7747,701.0736,671.6776,710.7369" style="stroke:#01C176;stroke-width:1.0;"/><text fill="#96DDF2" font-family="sans-serif" font-size="13" lengthAdjust="spacing" textLength="49" x="717.8176" y="641.1838">Queries</text><text fill="#96DDF2" font-family="sans-serif" font-size="13" lengthAdjust="spacing" textLength="105" x="689.8176" y="656.3166">(88% optimized)</text></g><!--link BQPipeline to BigQuery--><g id="link_BQPipeline_BigQuery"><path d="M457.5476,586.9869 C444.8676,598.2969 432.6376,612.2769 425.8176,628.1169 C414.4976,654.3769 415.9877,681.4749 420.2877,704.9749 " fill="none" id="BQPipeline-to-BigQuery" style="stroke:#0BE784;stroke-width:2.0;"/><polygon fill="#0BE784" points="421.3676,710.8769,423.6824,701.3039,420.4677,705.9585,415.813,702.7438,421.3676,710.8769" style="stroke:#0BE784;stroke-width:2.0;"/><text fill="#96DDF2" font-family="sans-serif" font-size="13" font-weight="bold" lengthAdjust="spacing" textLength="152" x="426.8176" y="648.6838">Primary Data Source</text></g><!--link BQPipeline to DB--><g id="link_BQPipeline_DB"><path d="M540.2176,586.7669 C554.5776,598.9469 570.5876,613.5369 583.8176,628.1169 C607.4776,654.1769 627.2143,682.1749 642.6243,705.7449 " fill="none" id="BQPipeline-to-DB" style="stroke:#01C176;stroke-width:1.0;"/><polygon fill="#01C176" points="645.9076,710.7669,644.3306,701.0451,643.1715,706.5819,637.6347,705.4229,645.9076,710.7669" style="stroke:#01C176;stroke-width:1.0;"/><text fill="#96DDF2" font-family="sans-serif" font-size="13" lengthAdjust="spacing" textLength="42" x="608.8176" y="648.6838">Stores</text></g><!--link APIPipeline to Horizon--><g id="link_APIPipeline_Horizon"><path d="M260.8076,586.7669 C262.0176,623.8469 263.823,679.55 264.893,712.52 " fill="none" id="APIPipeline-to-Horizon" style="stroke:#96DDF2;stroke-width:1.0;stroke-dasharray:7.0,7.0;"/><polygon fill="#96DDF2" points="265.0876,718.5169,268.7936,709.3919,264.9254,713.5195,260.7978,709.6514,265.0876,718.5169" style="stroke:#96DDF2;stroke-width:1.0;"/><text fill="#96DDF2" font-family="sans-serif" font-size="13" lengthAdjust="spacing" textLength="84" x="263.8176" y="648.6838">(Educational)</text></g><!--link APIPipeline to Expert--><g id="link_APIPipeline_Expert"><path d="M220.1076,587.0469 C205.9176,599.0469 190.3476,613.4269 177.8176,628.1169 C153.3276,656.7969 134.0869,689.4066 121.2769,713.1466 " fill="none" id="APIPipeline-to-Expert" style="stroke:#96DDF2;stroke-width:1.0;stroke-dasharray:7.0,7.0;"/><polygon fill="#96DDF2" points="118.4276,718.4269,126.2217,712.4059,120.802,714.0266,119.1813,708.6069,118.4276,718.4269" style="stroke:#96DDF2;stroke-width:1.0;"/><text fill="#96DDF2" font-family="sans-serif" font-size="13" lengthAdjust="spacing" textLength="74" x="178.8176" y="648.6838">(Reference)</text></g><!--link BQPipeline to GMN25--><g id="link_BQPipeline_GMN25"><path d="M537.8476,523.4969 C568.1576,499.0069 613.8776,467.1169 660.3176,453.4869 C767.3576,422.0669 1056.3776,418.5369 1162.3176,453.4869 C1197.7176,465.1569 1231.4576,489.8569 1256.6476,511.9969 " fill="none" id="BQPipeline-GMN25" style="stroke:#01C176;stroke-width:1.0;stroke-dasharray:7.0,7.0;"/></g><!--link APIPipeline to GMN28--><g id="link_APIPipeline_GMN28"><path d="M291.3576,523.5469 C318.0576,499.0969 358.6876,467.2269 401.3176,453.4869 C459.4776,434.7369 893.8376,432.7169 951.3176,453.4869 C987.7276,466.6369 1020.9476,495.8469 1043.5876,519.6169 " fill="none" id="APIPipeline-GMN28" style="stroke:#01C176;stroke-width:1.0;stroke-dasharray:7.0,7.0;"/></g><!--SRC=[jLRPJXin57sVhxYQgX88KhAm2qNAC22gLcqWWJwKFdXcd63gs5FR0uIgKh-bdzOlwVNiaqMyqATux7FFFNTLz7ScOgB8308IVfygcOZeL7Afu4rtl-FlxZcwH4HqGX9kpgKmEUHet_VFkquD4yfPB0KL1duw0DuYPwVTzhiz-o9LH5L-s_RE3WvtyNQP6c2Wb7miW9tJpi6-ywlXaSiaUYLl3UA8618GJVy7TunqPBg6kjlhU3r_aRetwOO7xPUfIMZmQILngUv5pNbq3M8XpIiADinm2YUXlJ_EDVH7Sste33u_KFN0wAFZPC5SQrhfT8hSkUSAYQc8u2EPK-KMEbADLH-wDmbzTwzX2_mU_jwA6wOJmjapCKmA5uY6WiZgAjdzUoAc4WPnp5cOOzTuUAG1mbAgB-cn-KnYLZmFqcFpMP684JvcqNoiA2sGL-cj1TT5LQc7aSrHIFLQLHwRNYPKpM78OigPeBTYOw_TEcg3fY74IgAnPcAwcVhpBWjOasKmV5yImCPPb6Iv87mJwGvRsg2kRUYsUZ1Z8gD2av8BnMS3wleuJZ2IYLhIN0vQANdd8Wa2RWMF3EMSAB3McffSQmvhAhsGYZrBOTsdgFox2IhupfvYgaoAouvMQILae8qYu7keu9HeJKIaIERRznmdxSVMrtmTVMlromw2O-mtx5pjEkLL0vZrXuLTZCT3ryc_6vYiIIp69l-KS8vq-MK3w7iMP5F1gBRbE7mBCZPinfvfjEawLKrJktH-jWF98sjSjWTId0JzeM8pWb-rCYqHB3WUuMnIAwsgjuLbCxuT4Nr7Kqz5OT2aqK0lMsQbIGslw8GgAaAAPawwYXIRtXcGarhhrbRHmcOfmYkGnpL8vhR_z_SVsAto1p-olAu6VfAspq0H5CBHmAp1uM0ymOJWMbEh0TSn60cuRpz0UCTuX37kuBx5PdLiyzX85-EjPsqvu9oxbkYTCdTheix76FS2nYmCxftLkAAGMqLXKCdQ_1YWWk0GHn3CYxyELKZ_0000]--></g></svg>