<?xml version="1.0" encoding="us-ascii" standalone="no"?><svg xmlns="http://www.w3.org/2000/svg" xmlns:xlink="http://www.w3.org/1999/xlink" contentStyleType="text/css" height="691px" preserveAspectRatio="none" style="width:665px;height:691px;background:#372963;" version="1.1" viewBox="0 0 665 691" width="665px" zoomAndPan="magnify"><defs/><g><rect fill="#372963" height="691" style="stroke:none;stroke-width:1.0;" width="665" x="0" y="0"/><text fill="#00FF9C" font-family="sans-serif" font-size="14" font-weight="bold" lengthAdjust="spacing" textLength="279" x="191.75" y="32.9951">8-Stage Data Pipeline (2-3 minutes)</text><ellipse cx="237" cy="57.2969" fill="#00FF9C" rx="10" ry="10" style="stroke:#222222;stroke-width:1.0;"/><rect fill="#100D23" height="33.9688" rx="12.5" ry="12.5" style="stroke:#00FF9C;stroke-width:0.5;" width="167" x="153.5" y="87.2969"/><text fill="#FFFFFF" font-family="sans-serif" font-size="12" lengthAdjust="spacing" textLength="147" x="163.5" y="108.4355">User Searches Address</text><path d="M361.5,138.1172 L361.5,154.25 L341.5,158.25 L361.5,162.25 L361.5,178.3828 A0,0 0 0 0 361.5,178.3828 L653.5,178.3828 A0,0 0 0 0 653.5,178.3828 L653.5,148.1172 L643.5,138.1172 L361.5,138.1172 A0,0 0 0 0 361.5,138.1172 " fill="#FEFFDD" style="stroke:#181818;stroke-width:0.5;"/><path d="M643.5,138.1172 L643.5,148.1172 L653.5,148.1172 L643.5,138.1172 " fill="#FEFFDD" style="stroke:#181818;stroke-width:0.5;"/><text fill="#FFFFFF" font-family="sans-serif" font-size="13" lengthAdjust="spacing" textLength="271" x="367.5" y="155.1841">Status: PENDING_MAKE_PARENT_LINEAGE</text><text fill="#FFFFFF" font-family="sans-serif" font-size="13" lengthAdjust="spacing" textLength="189" x="367.5" y="170.3169">Creates initial lineage records</text><rect fill="#100D23" height="33.9688" rx="12.5" ry="12.5" style="stroke:#00FF9C;stroke-width:0.5;" width="209" x="132.5" y="141.2656"/><text fill="#FFFFFF" font-family="sans-serif" font-size="12" lengthAdjust="spacing" textLength="189" x="142.5" y="162.4043">Stage 1: Make Parent Lineage</text><path d="M358.5,195.2344 L358.5,211.3672 L338.5,215.3672 L358.5,219.3672 L358.5,235.5 A0,0 0 0 0 358.5,235.5 L563.5,235.5 A0,0 0 0 0 563.5,235.5 L563.5,205.2344 L553.5,195.2344 L358.5,195.2344 A0,0 0 0 0 358.5,195.2344 " fill="#FEFFDD" style="stroke:#181818;stroke-width:0.5;"/><path d="M553.5,195.2344 L553.5,205.2344 L563.5,205.2344 L553.5,195.2344 " fill="#FEFFDD" style="stroke:#181818;stroke-width:0.5;"/><text fill="#FFFFFF" font-family="sans-serif" font-size="13" lengthAdjust="spacing" textLength="184" x="364.5" y="212.3013">Fetches operations &amp; effects</text><text fill="#FFFFFF" font-family="sans-serif" font-size="13" lengthAdjust="spacing" textLength="165" x="364.5" y="227.4341">Validates with Horizon API</text><rect fill="#100D23" height="33.9688" rx="12.5" ry="12.5" style="stroke:#00FF9C;stroke-width:0.5;" width="203" x="135.5" y="198.3828"/><text fill="#FFFFFF" font-family="sans-serif" font-size="12" lengthAdjust="spacing" textLength="183" x="145.5" y="219.5215">Stage 2: Collect Horizon Data</text><path d="M354,252.3516 L354,268.4844 L334,272.4844 L354,276.4844 L354,292.6172 A0,0 0 0 0 354,292.6172 L521,292.6172 A0,0 0 0 0 521,292.6172 L521,262.3516 L511,252.3516 L354,252.3516 A0,0 0 0 0 354,252.3516 " fill="#FEFFDD" style="stroke:#181818;stroke-width:0.5;"/><path d="M511,252.3516 L511,262.3516 L521,262.3516 L511,252.3516 " fill="#FEFFDD" style="stroke:#181818;stroke-width:0.5;"/><text fill="#FFFFFF" font-family="sans-serif" font-size="13" lengthAdjust="spacing" textLength="146" x="360" y="269.4185">Collects home_domain</text><text fill="#FFFFFF" font-family="sans-serif" font-size="13" lengthAdjust="spacing" textLength="108" x="360" y="284.5513">and XLM balance</text><rect fill="#100D23" height="33.9688" rx="12.5" ry="12.5" style="stroke:#00FF9C;stroke-width:0.5;" width="194" x="140" y="255.5"/><text fill="#FFFFFF" font-family="sans-serif" font-size="12" lengthAdjust="spacing" textLength="174" x="150" y="276.6387">Stage 3: Account Attributes</text><rect fill="#100D23" height="33.9688" rx="12.5" ry="12.5" style="stroke:#00FF9C;stroke-width:0.5;" width="174" x="150" y="312.6172"/><text fill="#FFFFFF" font-family="sans-serif" font-size="12" lengthAdjust="spacing" textLength="154" x="160" y="333.7559">Stage 4: Account Assets</text><rect fill="#100D23" height="33.9688" rx="12.5" ry="12.5" style="stroke:#00FF9C;stroke-width:0.5;" width="165" x="154.5" y="366.5859"/><text fill="#FFFFFF" font-family="sans-serif" font-size="12" lengthAdjust="spacing" textLength="145" x="164.5" y="387.7246">Stage 5: Account Flags</text><path d="M333.5,417.4063 L333.5,433.5391 L313.5,437.5391 L333.5,441.5391 L333.5,457.6719 A0,0 0 0 0 333.5,457.6719 L517.5,457.6719 A0,0 0 0 0 517.5,457.6719 L517.5,427.4063 L507.5,417.4063 L333.5,417.4063 A0,0 0 0 0 333.5,417.4063 " fill="#FEFFDD" style="stroke:#181818;stroke-width:0.5;"/><path d="M507.5,417.4063 L507.5,427.4063 L517.5,427.4063 L507.5,417.4063 " fill="#FEFFDD" style="stroke:#181818;stroke-width:0.5;"/><text fill="#FFFFFF" font-family="sans-serif" font-size="13" lengthAdjust="spacing" textLength="163" x="339.5" y="434.4731">Stellar Expert enrichment</text><text fill="#FFFFFF" font-family="sans-serif" font-size="13" lengthAdjust="spacing" textLength="130" x="339.5" y="449.606">Enhanced metadata</text><rect fill="#100D23" height="33.9688" rx="12.5" ry="12.5" style="stroke:#00FF9C;stroke-width:0.5;" width="153" x="160.5" y="420.5547"/><text fill="#FFFFFF" font-family="sans-serif" font-size="12" lengthAdjust="spacing" textLength="133" x="170.5" y="441.6934">Stage 6: SE Directory</text><rect fill="#100D23" height="33.9688" rx="12.5" ry="12.5" style="stroke:#00FF9C;stroke-width:0.5;" width="179" x="147.5" y="477.6719"/><text fill="#FFFFFF" font-family="sans-serif" font-size="12" lengthAdjust="spacing" textLength="159" x="157.5" y="498.8105">Stage 7: Account Creator</text><path d="M354,528.4922 L354,544.625 L334,548.625 L354,552.625 L354,568.7578 A0,0 0 0 0 354,568.7578 L629,568.7578 A0,0 0 0 0 629,568.7578 L629,538.4922 L619,528.4922 L354,528.4922 A0,0 0 0 0 354,528.4922 " fill="#FEFFDD" style="stroke:#181818;stroke-width:0.5;"/><path d="M619,528.4922 L619,538.4922 L629,538.4922 L619,528.4922 " fill="#FEFFDD" style="stroke:#181818;stroke-width:0.5;"/><text fill="#FFFFFF" font-family="sans-serif" font-size="13" lengthAdjust="spacing" textLength="254" x="360" y="545.5591">Status: DONE_GRANDPARENT_LINEAGE</text><text fill="#FFFFFF" font-family="sans-serif" font-size="13" lengthAdjust="spacing" textLength="160" x="360" y="560.6919">Creates ancestor lineage</text><rect fill="#100D23" height="33.9688" rx="12.5" ry="12.5" style="stroke:#00FF9C;stroke-width:0.5;" width="194" x="140" y="531.6406"/><text fill="#FFFFFF" font-family="sans-serif" font-size="12" lengthAdjust="spacing" textLength="174" x="150" y="552.7793">Stage 8: Make Grandparent</text><path d="M10,578.7578 L10,679.5547 A0,0 0 0 0 10,679.5547 L206,679.5547 A0,0 0 0 0 206,679.5547 L206,633.1563 L226,629.1563 L206,625.1563 L206,588.7578 L196,578.7578 L10,578.7578 A0,0 0 0 0 10,578.7578 " fill="#FEFFDD" style="stroke:#181818;stroke-width:0.5;"/><path d="M196,578.7578 L196,588.7578 L206,588.7578 L196,578.7578 " fill="#FEFFDD" style="stroke:#181818;stroke-width:0.5;"/><text fill="#00FF9C" font-family="sans-serif" font-size="13" lengthAdjust="spacing" textLength="113" x="16" y="595.8247">Pipeline Features:</text><text fill="#FFFFFF" font-family="sans-serif" font-size="13" lengthAdjust="spacing" textLength="146" x="16" y="610.9575">&#8226; Sequential execution</text><text fill="#FFFFFF" font-family="sans-serif" font-size="13" lengthAdjust="spacing" textLength="150" x="16" y="626.0903">&#8226; Runs every 2 minutes</text><text fill="#FFFFFF" font-family="sans-serif" font-size="13" lengthAdjust="spacing" textLength="168" x="16" y="641.2231">&#8226; Real-time stage tracking</text><text fill="#FFFFFF" font-family="sans-serif" font-size="13" lengthAdjust="spacing" textLength="175" x="16" y="656.356">&#8226; Automatic stuck recovery</text><text fill="#FFFFFF" font-family="sans-serif" font-size="13" lengthAdjust="spacing" textLength="169" x="16" y="671.4888">&#8226; Terminal status handling</text><ellipse cx="237" cy="629.1563" fill="none" rx="11" ry="11" style="stroke:#00FF9C;stroke-width:1.0;"/><ellipse cx="237" cy="629.1563" fill="#222222" rx="6" ry="6" style="stroke:#00FF9C;stroke-width:1.0;"/><line style="stroke:#C592FF;stroke-width:1.0;" x1="237" x2="237" y1="67.2969" y2="87.2969"/><polygon fill="#C592FF" points="233,77.2969,237,87.2969,241,77.2969,237,81.2969" style="stroke:#C592FF;stroke-width:1.0;"/><line style="stroke:#C592FF;stroke-width:1.0;" x1="237" x2="237" y1="121.2656" y2="141.2656"/><polygon fill="#C592FF" points="233,131.2656,237,141.2656,241,131.2656,237,135.2656" style="stroke:#C592FF;stroke-width:1.0;"/><line style="stroke:#C592FF;stroke-width:1.0;" x1="237" x2="237" y1="175.2344" y2="198.3828"/><polygon fill="#C592FF" points="233,188.3828,237,198.3828,241,188.3828,237,192.3828" style="stroke:#C592FF;stroke-width:1.0;"/><line style="stroke:#C592FF;stroke-width:1.0;" x1="237" x2="237" y1="232.3516" y2="255.5"/><polygon fill="#C592FF" points="233,245.5,237,255.5,241,245.5,237,249.5" style="stroke:#C592FF;stroke-width:1.0;"/><line style="stroke:#C592FF;stroke-width:1.0;" x1="237" x2="237" y1="289.4688" y2="312.6172"/><polygon fill="#C592FF" points="233,302.6172,237,312.6172,241,302.6172,237,306.6172" style="stroke:#C592FF;stroke-width:1.0;"/><line style="stroke:#C592FF;stroke-width:1.0;" x1="237" x2="237" y1="346.5859" y2="366.5859"/><polygon fill="#C592FF" points="233,356.5859,237,366.5859,241,356.5859,237,360.5859" style="stroke:#C592FF;stroke-width:1.0;"/><line style="stroke:#C592FF;stroke-width:1.0;" x1="237" x2="237" y1="400.5547" y2="420.5547"/><polygon fill="#C592FF" points="233,410.5547,237,420.5547,241,410.5547,237,414.5547" style="stroke:#C592FF;stroke-width:1.0;"/><line style="stroke:#C592FF;stroke-width:1.0;" x1="237" x2="237" y1="454.5234" y2="477.6719"/><polygon fill="#C592FF" points="233,467.6719,237,477.6719,241,467.6719,237,471.6719" style="stroke:#C592FF;stroke-width:1.0;"/><line style="stroke:#C592FF;stroke-width:1.0;" x1="237" x2="237" y1="511.6406" y2="531.6406"/><polygon fill="#C592FF" points="233,521.6406,237,531.6406,241,521.6406,237,525.6406" style="stroke:#C592FF;stroke-width:1.0;"/><line style="stroke:#C592FF;stroke-width:1.0;" x1="237" x2="237" y1="565.6094" y2="618.1563"/><polygon fill="#C592FF" points="233,608.1563,237,618.1563,241,608.1563,237,612.1563" style="stroke:#C592FF;stroke-width:1.0;"/><!--SRC=[TLJRRjf047ttLunKgMeVK0aqDoUAv0P3KGb5ILhr3MtM0wnOxxgpurnQLUgtzDFw9HqRXr18_3XdzfmpCmV2qhX2aShXHkdbd7pfidDlFS6hxc7d-A0RXNM7qcnk3J_0pmZa-x3zOA_TxdMwAynJXjJKs-r-__YyhlUzuwOwgx_erpC22P6_Qzhq_d57sdQRhbWH_w_mN9ClNkh9SAPAoxkM8ZPi4KvrLOsRXsT7BL6S8_GKAvYO0grn26ywhIxanfMCuUtfk_h9MHI5obmKnLy24boX8ht004cM4OPm8i2AQo-62xL4c2X2np0IHYcVHCup0fdvWcLhqifbY66IZdl3yM1waNnAfvFaCXrVJqV3SPeCKkaw9rJY0OmpR9G5k-82GYst216w32hQjNOd1XdRecRuwCdyyAuURKkyZrnRzmMIOkDTWDU0ivay2m9_LTPajUwTuSMQA9aCTmMxCIHQIruO4cOoDzNEjkGQHm4MFiTfvdDbd9ILS7qRNKX6hN8QTxdVRt27WBonu_qdg6_LV0CvYE4gXPwH5R6dXvsrexMA8BsNqHdGaT6BNCuaMEeMbOyCScGbywjTHuTFilLfF3q97pLd7v0CLjItV-7clS_ZT3guJCQz5mzU6Gb2_tZn3IjIBg8LiSLPnRkLwNMC-y9LIZRZTOG1_lx-8z7zNegxAb1uZxgi4j10bwLa0M-H7g3p-0juX53P5fiS8TJpCibVXN7p1avAbiEoqGANUbb7jE9fu6iaeHF5K2y1PDMPhLwl1_i7]--></g></svg>