<?xml version="1.0" encoding="us-ascii" standalone="no"?><svg xmlns="http://www.w3.org/2000/svg" xmlns:xlink="http://www.w3.org/1999/xlink" contentStyleType="text/css" height="691px" preserveAspectRatio="none" style="width:716px;height:691px;background:#261D45;" version="1.1" viewBox="0 0 716 691" width="716px" zoomAndPan="magnify"><defs/><g><rect fill="#261D45" height="691" style="stroke:none;stroke-width:1.0;" width="716" x="0" y="0"/><text fill="#0BE784" font-family="sans-serif" font-size="14" font-weight="bold" lengthAdjust="spacing" textLength="279" x="217.25" y="32.9951">8-Stage Data Pipeline (2-3 minutes)</text><ellipse cx="288" cy="57.2969" fill="#0BE784" rx="10" ry="10" style="stroke:#222222;stroke-width:1.0;"/><rect fill="#100D23" height="33.9688" rx="12.5" ry="12.5" style="stroke:#0BE784;stroke-width:0.5;" width="167" x="204.5" y="87.2969"/><text fill="#96DDF2" font-family="sans-serif" font-size="12" lengthAdjust="spacing" textLength="147" x="214.5" y="108.4355">User Searches Address</text><path d="M412.5,138.1172 L412.5,154.25 L392.5,158.25 L412.5,162.25 L412.5,178.3828 A0,0 0 0 0 412.5,178.3828 L704.5,178.3828 A0,0 0 0 0 704.5,178.3828 L704.5,148.1172 L694.5,138.1172 L412.5,138.1172 A0,0 0 0 0 412.5,138.1172 " fill="#100D23" style="stroke:#181818;stroke-width:0.5;"/><path d="M694.5,138.1172 L694.5,148.1172 L704.5,148.1172 L694.5,138.1172 " fill="#100D23" style="stroke:#181818;stroke-width:0.5;"/><text fill="#0BE784" font-family="sans-serif" font-size="13" lengthAdjust="spacing" textLength="46" x="418.5" y="155.1841">Status:</text><text fill="#96DDF2" font-family="sans-serif" font-size="13" lengthAdjust="spacing" textLength="4" x="464.5" y="155.1841">&#160;</text><text fill="#96DDF2" font-family="sans-serif" font-size="13" lengthAdjust="spacing" textLength="221" x="468.5" y="155.1841">PENDING_MAKE_PARENT_LINEAGE</text><text fill="#96DDF2" font-family="sans-serif" font-size="13" lengthAdjust="spacing" textLength="246" x="418.5" y="170.3169">Creates initial lineage records&lt;/color&gt;</text><rect fill="#100D23" height="33.9688" rx="12.5" ry="12.5" style="stroke:#0BE784;stroke-width:0.5;" width="209" x="183.5" y="141.2656"/><text fill="#96DDF2" font-family="sans-serif" font-size="12" lengthAdjust="spacing" textLength="189" x="193.5" y="162.4043">Stage 1: Make Parent Lineage</text><path d="M409.5,195.2344 L409.5,211.3672 L389.5,215.3672 L409.5,219.3672 L409.5,235.5 A0,0 0 0 0 409.5,235.5 L652.5,235.5 A0,0 0 0 0 652.5,235.5 L652.5,205.2344 L642.5,195.2344 L409.5,195.2344 A0,0 0 0 0 409.5,195.2344 " fill="#100D23" style="stroke:#181818;stroke-width:0.5;"/><path d="M642.5,195.2344 L642.5,205.2344 L652.5,205.2344 L642.5,195.2344 " fill="#100D23" style="stroke:#181818;stroke-width:0.5;"/><text fill="#96DDF2" font-family="sans-serif" font-size="13" lengthAdjust="spacing" textLength="184" x="415.5" y="212.3013">Fetches operations &amp; effects</text><text fill="#96DDF2" font-family="sans-serif" font-size="13" lengthAdjust="spacing" textLength="222" x="415.5" y="227.4341">Validates with Horizon API&lt;/color&gt;</text><rect fill="#100D23" height="33.9688" rx="12.5" ry="12.5" style="stroke:#0BE784;stroke-width:0.5;" width="203" x="186.5" y="198.3828"/><text fill="#96DDF2" font-family="sans-serif" font-size="12" lengthAdjust="spacing" textLength="183" x="196.5" y="219.5215">Stage 2: Collect Horizon Data</text><path d="M405,252.3516 L405,268.4844 L385,272.4844 L405,276.4844 L405,292.6172 A0,0 0 0 0 405,292.6172 L591,292.6172 A0,0 0 0 0 591,292.6172 L591,262.3516 L581,252.3516 L405,252.3516 A0,0 0 0 0 405,252.3516 " fill="#100D23" style="stroke:#181818;stroke-width:0.5;"/><path d="M581,252.3516 L581,262.3516 L591,262.3516 L581,252.3516 " fill="#100D23" style="stroke:#181818;stroke-width:0.5;"/><text fill="#96DDF2" font-family="sans-serif" font-size="13" lengthAdjust="spacing" textLength="146" x="411" y="269.4185">Collects home_domain</text><text fill="#96DDF2" font-family="sans-serif" font-size="13" lengthAdjust="spacing" textLength="165" x="411" y="284.5513">and XLM balance&lt;/color&gt;</text><rect fill="#100D23" height="33.9688" rx="12.5" ry="12.5" style="stroke:#0BE784;stroke-width:0.5;" width="194" x="191" y="255.5"/><text fill="#96DDF2" font-family="sans-serif" font-size="12" lengthAdjust="spacing" textLength="174" x="201" y="276.6387">Stage 3: Account Attributes</text><rect fill="#100D23" height="33.9688" rx="12.5" ry="12.5" style="stroke:#0BE784;stroke-width:0.5;" width="174" x="201" y="312.6172"/><text fill="#96DDF2" font-family="sans-serif" font-size="12" lengthAdjust="spacing" textLength="154" x="211" y="333.7559">Stage 4: Account Assets</text><rect fill="#100D23" height="33.9688" rx="12.5" ry="12.5" style="stroke:#0BE784;stroke-width:0.5;" width="165" x="205.5" y="366.5859"/><text fill="#96DDF2" font-family="sans-serif" font-size="12" lengthAdjust="spacing" textLength="145" x="215.5" y="387.7246">Stage 5: Account Flags</text><path d="M384.5,417.4063 L384.5,433.5391 L364.5,437.5391 L384.5,441.5391 L384.5,457.6719 A0,0 0 0 0 384.5,457.6719 L592.5,457.6719 A0,0 0 0 0 592.5,457.6719 L592.5,427.4063 L582.5,417.4063 L384.5,417.4063 A0,0 0 0 0 384.5,417.4063 " fill="#100D23" style="stroke:#181818;stroke-width:0.5;"/><path d="M582.5,417.4063 L582.5,427.4063 L592.5,427.4063 L582.5,417.4063 " fill="#100D23" style="stroke:#181818;stroke-width:0.5;"/><text fill="#96DDF2" font-family="sans-serif" font-size="13" lengthAdjust="spacing" textLength="163" x="390.5" y="434.4731">Stellar Expert enrichment</text><text fill="#96DDF2" font-family="sans-serif" font-size="13" lengthAdjust="spacing" textLength="187" x="390.5" y="449.606">Enhanced metadata&lt;/color&gt;</text><rect fill="#100D23" height="33.9688" rx="12.5" ry="12.5" style="stroke:#0BE784;stroke-width:0.5;" width="153" x="211.5" y="420.5547"/><text fill="#96DDF2" font-family="sans-serif" font-size="12" lengthAdjust="spacing" textLength="133" x="221.5" y="441.6934">Stage 6: SE Directory</text><rect fill="#100D23" height="33.9688" rx="12.5" ry="12.5" style="stroke:#0BE784;stroke-width:0.5;" width="179" x="198.5" y="477.6719"/><text fill="#96DDF2" font-family="sans-serif" font-size="12" lengthAdjust="spacing" textLength="159" x="208.5" y="498.8105">Stage 7: Account Creator</text><path d="M405,528.4922 L405,544.625 L385,548.625 L405,552.625 L405,568.7578 A0,0 0 0 0 405,568.7578 L680,568.7578 A0,0 0 0 0 680,568.7578 L680,538.4922 L670,528.4922 L405,528.4922 A0,0 0 0 0 405,528.4922 " fill="#100D23" style="stroke:#181818;stroke-width:0.5;"/><path d="M670,528.4922 L670,538.4922 L680,538.4922 L670,528.4922 " fill="#100D23" style="stroke:#181818;stroke-width:0.5;"/><text fill="#0BE784" font-family="sans-serif" font-size="13" lengthAdjust="spacing" textLength="46" x="411" y="545.5591">Status:</text><text fill="#96DDF2" font-family="sans-serif" font-size="13" lengthAdjust="spacing" textLength="4" x="457" y="545.5591">&#160;</text><text fill="#96DDF2" font-family="sans-serif" font-size="13" lengthAdjust="spacing" textLength="204" x="461" y="545.5591">DONE_GRANDPARENT_LINEAGE</text><text fill="#96DDF2" font-family="sans-serif" font-size="13" lengthAdjust="spacing" textLength="217" x="411" y="560.6919">Creates ancestor lineage&lt;/color&gt;</text><rect fill="#100D23" height="33.9688" rx="12.5" ry="12.5" style="stroke:#0BE784;stroke-width:0.5;" width="194" x="191" y="531.6406"/><text fill="#96DDF2" font-family="sans-serif" font-size="12" lengthAdjust="spacing" textLength="174" x="201" y="552.7793">Stage 8: Make Grandparent</text><path d="M10,578.7578 L10,679.5547 A0,0 0 0 0 10,679.5547 L257,679.5547 A0,0 0 0 0 257,679.5547 L257,633.1563 L277,629.1563 L257,625.1563 L257,588.7578 L247,578.7578 L10,578.7578 A0,0 0 0 0 10,578.7578 " fill="#231B3D" style="stroke:#181818;stroke-width:0.5;"/><path d="M247,578.7578 L247,588.7578 L257,588.7578 L247,578.7578 " fill="#231B3D" style="stroke:#181818;stroke-width:0.5;"/><text fill="#0BE784" font-family="sans-serif" font-size="13" lengthAdjust="spacing" textLength="113" x="16" y="595.8247">Pipeline Features:</text><text fill="#96DDF2" font-family="sans-serif" font-size="13" lengthAdjust="spacing" textLength="146" x="16" y="610.9575">&#8226; Sequential execution</text><text fill="#96DDF2" font-family="sans-serif" font-size="13" lengthAdjust="spacing" textLength="150" x="16" y="626.0903">&#8226; Runs every 2 minutes</text><text fill="#96DDF2" font-family="sans-serif" font-size="13" lengthAdjust="spacing" textLength="168" x="16" y="641.2231">&#8226; Real-time stage tracking</text><text fill="#96DDF2" font-family="sans-serif" font-size="13" lengthAdjust="spacing" textLength="175" x="16" y="656.356">&#8226; Automatic stuck recovery</text><text fill="#96DDF2" font-family="sans-serif" font-size="13" lengthAdjust="spacing" textLength="226" x="16" y="671.4888">&#8226; Terminal status handling&lt;/color&gt;</text><ellipse cx="288" cy="629.1563" fill="none" rx="11" ry="11" style="stroke:#E5526F;stroke-width:1.0;"/><ellipse cx="288" cy="629.1563" fill="#222222" rx="6" ry="6" style="stroke:#E5526F;stroke-width:1.0;"/><line style="stroke:#01C176;stroke-width:1.0;" x1="288" x2="288" y1="67.2969" y2="87.2969"/><polygon fill="#01C176" points="284,77.2969,288,87.2969,292,77.2969,288,81.2969" style="stroke:#01C176;stroke-width:1.0;"/><line style="stroke:#01C176;stroke-width:1.0;" x1="288" x2="288" y1="121.2656" y2="141.2656"/><polygon fill="#01C176" points="284,131.2656,288,141.2656,292,131.2656,288,135.2656" style="stroke:#01C176;stroke-width:1.0;"/><line style="stroke:#01C176;stroke-width:1.0;" x1="288" x2="288" y1="175.2344" y2="198.3828"/><polygon fill="#01C176" points="284,188.3828,288,198.3828,292,188.3828,288,192.3828" style="stroke:#01C176;stroke-width:1.0;"/><line style="stroke:#01C176;stroke-width:1.0;" x1="288" x2="288" y1="232.3516" y2="255.5"/><polygon fill="#01C176" points="284,245.5,288,255.5,292,245.5,288,249.5" style="stroke:#01C176;stroke-width:1.0;"/><line style="stroke:#01C176;stroke-width:1.0;" x1="288" x2="288" y1="289.4688" y2="312.6172"/><polygon fill="#01C176" points="284,302.6172,288,312.6172,292,302.6172,288,306.6172" style="stroke:#01C176;stroke-width:1.0;"/><line style="stroke:#01C176;stroke-width:1.0;" x1="288" x2="288" y1="346.5859" y2="366.5859"/><polygon fill="#01C176" points="284,356.5859,288,366.5859,292,356.5859,288,360.5859" style="stroke:#01C176;stroke-width:1.0;"/><line style="stroke:#01C176;stroke-width:1.0;" x1="288" x2="288" y1="400.5547" y2="420.5547"/><polygon fill="#01C176" points="284,410.5547,288,420.5547,292,410.5547,288,414.5547" style="stroke:#01C176;stroke-width:1.0;"/><line style="stroke:#01C176;stroke-width:1.0;" x1="288" x2="288" y1="454.5234" y2="477.6719"/><polygon fill="#01C176" points="284,467.6719,288,477.6719,292,467.6719,288,471.6719" style="stroke:#01C176;stroke-width:1.0;"/><line style="stroke:#01C176;stroke-width:1.0;" x1="288" x2="288" y1="511.6406" y2="531.6406"/><polygon fill="#01C176" points="284,521.6406,288,531.6406,292,521.6406,288,525.6406" style="stroke:#01C176;stroke-width:1.0;"/><line style="stroke:#01C176;stroke-width:1.0;" x1="288" x2="288" y1="565.6094" y2="618.1563"/><polygon fill="#01C176" points="284,608.1563,288,618.1563,292,608.1563,288,612.1563" style="stroke:#01C176;stroke-width:1.0;"/><!--SRC=[hPJDRjD04CVlVegHa10SAXgdIOjRLN9h9rIq8MeAuXOjwqcoodetx8xx0KBYMNWqdeInuxYXIKGF-3Z_sPdVVDdFbLa89tBu8kHywcnXidEhhOCNORUL77G2ttW8IUfMqGDy3u2_iwSFMllxITXUQjPbw6hx_bbwU7HGsNlMK6rzsqsINXZys98WTixUhHwtpbk7tIrE8nAE_iwmpSakQf-qqmcxlJMV32UYqBI9590YZN0YIsjK1pyzskECKuH4a82XMg1M1k5LkDU6N9c2qBy-ULCzEGq2Ny85GVJHeuCH2YTdw27ECeVU7xEmZDMAu4hC4OR2eI6uv8XiFWwC9GIdfZDQw-eJ7ev0XOzMEHjvMSJfC1qa5uF- -2f-duw7yNKwk1bVNWpIk9zoh7E7Web16KLAQD3BpE1GykHyKmYQ34gOXZYCW9kbKHAyiqvziwPgo3-GQwOUKjK7kq0dI5dZuINWPCBHF7j_4bfb5TQTebaJFnvUxEPfHn1BoKj841CvzQKSnFDewZeyp6oEuypcGXds4fpYy-KLtuCMHkBkr0ThgRr7Mfjhvr7gQJ5TKxeHZ59853UQh7ju7kc8K6lX8BtdnX6WSKhESjuOTatDhCJC84SIt3sn6_ZmaQgQltMFN4Vr9lOTrx-erl6_h67oOP2E-zVn8DcvWoM-PvZL4cufWEL5iCJHE66QiDqwQoURDCrTzZXsmSVMW6rszVVFNtoQNmikjJm1l4TPb4l9dgLqNV1wuYsw1mXN5xwIKEWzKZc2hvf7Zd-5oanhEIw8bucKPBcGy-geoZYrV8EEmt56NxKEU7uPCqytw_u3]--></g></svg>