<?xml version="1.0" encoding="us-ascii" standalone="no"?><svg xmlns="http://www.w3.org/2000/svg" xmlns:xlink="http://www.w3.org/1999/xlink" contentStyleType="text/css" height="1551px" preserveAspectRatio="none" style="width:742px;height:1551px;background:#261D45;" version="1.1" viewBox="0 0 742 1551" width="742px" zoomAndPan="magnify"><defs/><g><rect fill="#261D45" height="1551" style="stroke:none;stroke-width:1.0;" width="742" x="0" y="0"/><text fill="#0BE784" font-family="sans-serif" font-size="14" font-weight="bold" lengthAdjust="spacing" textLength="458" x="140.5" y="32.9951">Data Collection Pipeline - Permanent Storage Architecture</text><rect fill="none" height="839.2031" style="stroke:#000000;stroke-width:1.5;" width="720" x="11" y="48.2969"/><path d="M353,48.2969 L353,57.5938 L343,67.5938 L11,67.5938 " fill="none" style="stroke:#000000;stroke-width:1.5;"/><text fill="#0BE784" font-family="sans-serif" font-size="14" lengthAdjust="spacing" textLength="332" x="14" y="62.292">BigQuery Pipeline (Primary - Permanent Storage)</text><ellipse cx="251.5" cy="87.5938" fill="#0BE784" rx="10" ry="10" style="stroke:#222222;stroke-width:1.0;"/><rect fill="#100D23" height="33.9688" rx="12.5" ry="12.5" style="stroke:#0BE784;stroke-width:0.5;" width="167" x="168" y="117.5938"/><text fill="#96DDF2" font-family="sans-serif" font-size="12" lengthAdjust="spacing" textLength="147" x="178" y="138.7324">User Searches Address</text><path d="M328.5,161.5625 L328.5,232.0938 L493.5,232.0938 L493.5,171.5625 L483.5,161.5625 L328.5,161.5625 " fill="#231B3D" style="stroke:#3F2C70;stroke-width:0.5;"/><path d="M483.5,161.5625 L483.5,171.5625 L493.5,171.5625 L483.5,161.5625 " fill="#231B3D" style="stroke:#3F2C70;stroke-width:0.5;"/><text fill="#0BE784" font-family="sans-serif" font-size="13" lengthAdjust="spacing" textLength="105" x="334.5" y="178.6294">REPEAT SEARCH</text><text fill="#96DDF2" font-family="sans-serif" font-size="13" lengthAdjust="spacing" textLength="144" x="334.5" y="193.7622">&#8226; &lt;1 second response</text><text fill="#96DDF2" font-family="sans-serif" font-size="13" lengthAdjust="spacing" textLength="113" x="334.5" y="208.895">&#8226; 0 BigQuery cost</text><text fill="#96DDF2" font-family="sans-serif" font-size="13" lengthAdjust="spacing" textLength="110" x="334.5" y="224.0278">&#8226; Cached lineage</text><polygon fill="#231B3D" points="186.5,232.0938,316.5,232.0938,328.5,244.0938,316.5,256.0938,186.5,256.0938,174.5,244.0938,186.5,232.0938" style="stroke:#0BE784;stroke-width:0.5;"/><text fill="#0BE784" font-family="sans-serif" font-size="11" lengthAdjust="spacing" textLength="130" x="186.5" y="247.9019">Lineage in Cassandra?</text><text fill="#96DDF2" font-family="sans-serif" font-size="11" lengthAdjust="spacing" textLength="20" x="154.5" y="241.4995">yes</text><text fill="#96DDF2" font-family="sans-serif" font-size="11" lengthAdjust="spacing" textLength="14" x="328.5" y="241.4995">no</text><rect fill="#100D23" height="33.9688" rx="12.5" ry="12.5" style="stroke:#0BE784;stroke-width:0.5;" width="208" x="31" y="266.0938"/><text fill="#96DDF2" font-family="sans-serif" font-size="12" lengthAdjust="spacing" textLength="188" x="41" y="287.2324">Read Lineage from Cassandra</text><path d="M497,266.0938 L497,282.2266 L477,286.2266 L497,290.2266 L497,306.3594 A0,0 0 0 0 497,306.3594 L666,306.3594 A0,0 0 0 0 666,306.3594 L666,276.0938 L656,266.0938 L497,266.0938 A0,0 0 0 0 497,266.0938 " fill="#231B3D" style="stroke:#3F2C70;stroke-width:0.5;"/><path d="M656,266.0938 L656,276.0938 L666,276.0938 L656,266.0938 " fill="#231B3D" style="stroke:#3F2C70;stroke-width:0.5;"/><text fill="#96DDF2" font-family="sans-serif" font-size="13" lengthAdjust="spacing" textLength="33" x="503" y="283.1606">From</text><text fill="#0BE784" font-family="sans-serif" font-size="13" lengthAdjust="spacing" textLength="111" x="540" y="283.1606">accounts_current</text><text fill="#96DDF2" font-family="sans-serif" font-size="13" lengthAdjust="spacing" textLength="128" x="503" y="298.2935">Creation timestamp</text><rect fill="#100D23" height="33.9688" rx="12.5" ry="12.5" style="stroke:#0BE784;stroke-width:0.5;" width="218" x="259" y="269.2422"/><text fill="#96DDF2" font-family="sans-serif" font-size="12" lengthAdjust="spacing" textLength="198" x="269" y="290.3809">Query 1: Account Creation Date</text><path d="M481,323.2109 L481,339.3438 L461,343.3438 L481,347.3438 L481,363.4766 A0,0 0 0 0 481,363.4766 L719,363.4766 A0,0 0 0 0 719,363.4766 L719,333.2109 L709,323.2109 L481,323.2109 A0,0 0 0 0 481,323.2109 " fill="#231B3D" style="stroke:#3F2C70;stroke-width:0.5;"/><path d="M709,323.2109 L709,333.2109 L719,333.2109 L709,323.2109 " fill="#231B3D" style="stroke:#3F2C70;stroke-width:0.5;"/><text fill="#96DDF2" font-family="sans-serif" font-size="13" lengthAdjust="spacing" textLength="33" x="487" y="340.2778">From</text><text fill="#0BE784" font-family="sans-serif" font-size="13" lengthAdjust="spacing" textLength="180" x="524" y="340.2778">enriched_history_operations</text><text fill="#96DDF2" font-family="sans-serif" font-size="13" lengthAdjust="spacing" textLength="133" x="487" y="355.4106">Find parent (type=0)</text><rect fill="#100D23" height="33.9688" rx="12.5" ry="12.5" style="stroke:#0BE784;stroke-width:0.5;" width="186" x="275" y="326.3594"/><text fill="#96DDF2" font-family="sans-serif" font-size="12" lengthAdjust="spacing" textLength="166" x="285" y="347.498">Query 2: Creator Discovery</text><path d="M472,373.4766 L472,397.1758 L452,401.1758 L472,405.1758 L472,428.875 A0,0 0 0 0 472,428.875 L650,428.875 A0,0 0 0 0 650,428.875 L650,383.4766 L640,373.4766 L472,373.4766 A0,0 0 0 0 472,373.4766 " fill="#231B3D" style="stroke:#3F2C70;stroke-width:0.5;"/><path d="M640,373.4766 L640,383.4766 L650,383.4766 L640,373.4766 " fill="#231B3D" style="stroke:#3F2C70;stroke-width:0.5;"/><text fill="#96DDF2" font-family="sans-serif" font-size="13" lengthAdjust="spacing" textLength="157" x="478" y="390.5435">Paginated (10K batches)</text><text fill="#96DDF2" font-family="sans-serif" font-size="13" lengthAdjust="spacing" textLength="125" x="478" y="405.6763">Up to 100K children</text><text fill="#96DDF2" font-family="sans-serif" font-size="13" lengthAdjust="spacing" textLength="108" x="478" y="420.8091">Handles airdrops</text><rect fill="#100D23" height="33.9688" rx="12.5" ry="12.5" style="stroke:#0BE784;stroke-width:0.5;" width="168" x="284" y="384.1914"/><text fill="#96DDF2" font-family="sans-serif" font-size="12" lengthAdjust="spacing" textLength="148" x="294" y="405.3301">Query 3: Child Accounts</text><path d="M484.5,438.875 L484.5,470.1406 L464.5,474.1406 L484.5,478.1406 L484.5,509.4063 A0,0 0 0 0 484.5,509.4063 L681.5,509.4063 A0,0 0 0 0 681.5,509.4063 L681.5,448.875 L671.5,438.875 L484.5,438.875 A0,0 0 0 0 484.5,438.875 " fill="#231B3D" style="stroke:#3F2C70;stroke-width:0.5;"/><path d="M671.5,438.875 L671.5,448.875 L681.5,448.875 L671.5,438.875 " fill="#231B3D" style="stroke:#3F2C70;stroke-width:0.5;"/><text fill="#0BE784" font-family="sans-serif" font-size="13" lengthAdjust="spacing" textLength="144" x="490.5" y="455.9419">PERMANENT STORAGE</text><text fill="#96DDF2" font-family="sans-serif" font-size="13" lengthAdjust="spacing" textLength="170" x="490.5" y="471.0747">&#8226; Never re-query BigQuery</text><text fill="#96DDF2" font-family="sans-serif" font-size="13" lengthAdjust="spacing" textLength="89" x="490.5" y="486.2075">&#8226; Free forever</text><text fill="#96DDF2" font-family="sans-serif" font-size="13" lengthAdjust="spacing" textLength="176" x="490.5" y="501.3403">&#8226; Costs decrease over time</text><rect fill="#100D23" height="33.9688" rx="12.5" ry="12.5" style="stroke:#0BE784;stroke-width:0.5;" width="193" x="271.5" y="457.1563"/><text fill="#96DDF2" font-family="sans-serif" font-size="12" lengthAdjust="spacing" textLength="173" x="281.5" y="478.2949">Store Lineage in Cassandra</text><polygon fill="#231B3D" points="251.5,515.4063,263.5,527.4063,251.5,539.4063,239.5,527.4063,251.5,515.4063" style="stroke:#0BE784;stroke-width:0.5;"/><path d="M373.5,549.4063 L373.5,603.3711 L353.5,607.3711 L373.5,611.3711 L373.5,665.3359 A0,0 0 0 0 373.5,665.3359 L583.5,665.3359 A0,0 0 0 0 583.5,665.3359 L583.5,559.4063 L573.5,549.4063 L373.5,549.4063 A0,0 0 0 0 373.5,549.4063 " fill="#231B3D" style="stroke:#3F2C70;stroke-width:0.5;"/><path d="M573.5,549.4063 L573.5,559.4063 L583.5,559.4063 L573.5,549.4063 " fill="#231B3D" style="stroke:#3F2C70;stroke-width:0.5;"/><text fill="#96DDF2" font-family="sans-serif" font-size="13" lengthAdjust="spacing" textLength="33" x="379.5" y="566.4731">From</text><text fill="#0BE784" font-family="sans-serif" font-size="13" lengthAdjust="spacing" textLength="73" x="416.5" y="566.4731">Horizon API</text><text fill="#96DDF2" font-family="sans-serif" font-size="13" lengthAdjust="spacing" textLength="189" x="379.5" y="581.606">Balance, flags, home_domain</text><text fill="#96DDF2" font-family="sans-serif" font-size="13" lengthAdjust="spacing" textLength="4" x="379.5" y="596.7388">&#160;</text><text fill="#96DDF2" font-family="sans-serif" font-size="13" lengthAdjust="spacing" textLength="33" x="379.5" y="611.8716">From</text><text fill="#0BE784" font-family="sans-serif" font-size="13" lengthAdjust="spacing" textLength="86" x="416.5" y="611.8716">Stellar Expert</text><text fill="#96DDF2" font-family="sans-serif" font-size="13" lengthAdjust="spacing" textLength="161" x="379.5" y="627.0044">Current assets, trustlines</text><text fill="#96DDF2" font-family="sans-serif" font-size="13" lengthAdjust="spacing" textLength="4" x="379.5" y="642.1372">&#160;</text><text fill="#E5526F" font-family="sans-serif" font-size="13" lengthAdjust="spacing" textLength="174" x="379.5" y="657.27">Every search (always fresh)</text><rect fill="#100D23" height="33.9688" rx="12.5" ry="12.5" style="stroke:#0BE784;stroke-width:0.5;" width="204" x="149.5" y="590.3867"/><text fill="#96DDF2" font-family="sans-serif" font-size="12" lengthAdjust="spacing" textLength="184" x="159.5" y="611.5254">API: Refresh Enrichment Data</text><rect fill="#100D23" height="33.9688" rx="12.5" ry="12.5" style="stroke:#0BE784;stroke-width:0.5;" width="209" x="147" y="685.3359"/><text fill="#96DDF2" font-family="sans-serif" font-size="12" lengthAdjust="spacing" textLength="189" x="157" y="706.4746">Return Complete Data to User</text><path d="M21.5,729.3047 L21.5,875.5 A0,0 0 0 0 21.5,875.5 L220.5,875.5 A0,0 0 0 0 220.5,875.5 L220.5,806.4023 L240.5,802.4023 L220.5,798.4023 L220.5,739.3047 L210.5,729.3047 L21.5,729.3047 A0,0 0 0 0 21.5,729.3047 " fill="#231B3D" style="stroke:#3F2C70;stroke-width:0.5;"/><path d="M210.5,729.3047 L210.5,739.3047 L220.5,739.3047 L210.5,729.3047 " fill="#231B3D" style="stroke:#3F2C70;stroke-width:0.5;"/><text fill="#0BE784" font-family="sans-serif" font-size="13" lengthAdjust="spacing" textLength="141" x="27.5" y="746.3716">Cost Model (Realistic):</text><text fill="#96DDF2" font-family="sans-serif" font-size="13" lengthAdjust="spacing" textLength="145" x="27.5" y="761.5044">&#8226; 2,500 unique/month:</text><text fill="#0BE784" font-family="sans-serif" font-size="13" lengthAdjust="spacing" textLength="16" x="176.5" y="761.5044">$0</text><text fill="#96DDF2" font-family="sans-serif" font-size="13" lengthAdjust="spacing" textLength="145" x="27.5" y="776.6372">&#8226; 5,000 unique/month:</text><text fill="#0BE784" font-family="sans-serif" font-size="13" lengthAdjust="spacing" textLength="29" x="176.5" y="776.6372">$1-5</text><text fill="#96DDF2" font-family="sans-serif" font-size="13" lengthAdjust="spacing" textLength="123" x="27.5" y="791.77">&#8226; Repeat searches:</text><text fill="#0BE784" font-family="sans-serif" font-size="13" lengthAdjust="spacing" textLength="31" x="154.5" y="791.77">FREE</text><text fill="#96DDF2" font-family="sans-serif" font-size="13" lengthAdjust="spacing" textLength="4" x="27.5" y="806.9028">&#160;</text><text fill="#0BE784" font-family="sans-serif" font-size="13" lengthAdjust="spacing" textLength="86" x="27.5" y="822.0356">Performance:</text><text fill="#96DDF2" font-family="sans-serif" font-size="13" lengthAdjust="spacing" textLength="144" x="27.5" y="837.1685">&#8226; First-time: 50-90 sec</text><text fill="#96DDF2" font-family="sans-serif" font-size="13" lengthAdjust="spacing" textLength="110" x="27.5" y="852.3013">&#8226; Repeat: &lt;1 sec</text><text fill="#96DDF2" font-family="sans-serif" font-size="13" lengthAdjust="spacing" textLength="98" x="27.5" y="867.4341">&#8226; No rate limits</text><ellipse cx="251.5" cy="802.4023" fill="none" rx="11" ry="11" style="stroke:#E5526F;stroke-width:1.0;"/><ellipse cx="251.5" cy="802.4023" fill="#222222" rx="6" ry="6" style="stroke:#E5526F;stroke-width:1.0;"/><rect fill="none" height="642.6797" style="stroke:#000000;stroke-width:1.5;" width="509.5" x="32.5" y="897.5"/><path d="M387.5,897.5 L387.5,906.7969 L377.5,916.7969 L32.5,916.7969 " fill="none" style="stroke:#000000;stroke-width:1.5;"/><text fill="#96DDF2" font-family="sans-serif" font-size="14" lengthAdjust="spacing" textLength="345" x="35.5" y="911.4951">API Pipeline (Educational Reference - 2-3 minutes)</text><ellipse cx="251.5" cy="936.7969" fill="#0BE784" rx="10" ry="10" style="stroke:#222222;stroke-width:1.0;"/><rect fill="#100D23" height="33.9688" rx="12.5" ry="12.5" style="stroke:#0BE784;stroke-width:0.5;" width="167" x="168" y="966.7969"/><text fill="#96DDF2" font-family="sans-serif" font-size="12" lengthAdjust="spacing" textLength="147" x="178" y="987.9355">User Searches Address</text><rect fill="#100D23" height="33.9688" rx="12.5" ry="12.5" style="stroke:#0BE784;stroke-width:0.5;" width="209" x="147" y="1020.7656"/><text fill="#96DDF2" font-family="sans-serif" font-size="12" lengthAdjust="spacing" textLength="189" x="157" y="1041.9043">Stage 1: Make Parent Lineage</text><rect fill="#100D23" height="33.9688" rx="12.5" ry="12.5" style="stroke:#0BE784;stroke-width:0.5;" width="203" x="150" y="1074.7344"/><text fill="#96DDF2" font-family="sans-serif" font-size="12" lengthAdjust="spacing" textLength="183" x="160" y="1095.873">Stage 2: Collect Horizon Data</text><rect fill="#100D23" height="33.9688" rx="12.5" ry="12.5" style="stroke:#0BE784;stroke-width:0.5;" width="194" x="154.5" y="1128.7031"/><text fill="#96DDF2" font-family="sans-serif" font-size="12" lengthAdjust="spacing" textLength="174" x="164.5" y="1149.8418">Stage 3: Account Attributes</text><rect fill="#100D23" height="33.9688" rx="12.5" ry="12.5" style="stroke:#0BE784;stroke-width:0.5;" width="174" x="164.5" y="1182.6719"/><text fill="#96DDF2" font-family="sans-serif" font-size="12" lengthAdjust="spacing" textLength="154" x="174.5" y="1203.8105">Stage 4: Account Assets</text><rect fill="#100D23" height="33.9688" rx="12.5" ry="12.5" style="stroke:#0BE784;stroke-width:0.5;" width="165" x="169" y="1236.6406"/><text fill="#96DDF2" font-family="sans-serif" font-size="12" lengthAdjust="spacing" textLength="145" x="179" y="1257.7793">Stage 5: Account Flags</text><path d="M348,1295.0273 L348,1303.5938 L328,1307.5938 L348,1311.5938 L348,1320.1602 A0,0 0 0 0 348,1320.1602 L532,1320.1602 A0,0 0 0 0 532,1320.1602 L532,1305.0273 L522,1295.0273 L348,1295.0273 A0,0 0 0 0 348,1295.0273 " fill="#231B3D" style="stroke:#3F2C70;stroke-width:0.5;"/><path d="M522,1295.0273 L522,1305.0273 L532,1305.0273 L522,1295.0273 " fill="#231B3D" style="stroke:#3F2C70;stroke-width:0.5;"/><text fill="#96DDF2" font-family="sans-serif" font-size="13" lengthAdjust="spacing" textLength="163" x="354" y="1312.0942">Stellar Expert enrichment</text><rect fill="#100D23" height="33.9688" rx="12.5" ry="12.5" style="stroke:#0BE784;stroke-width:0.5;" width="153" x="175" y="1290.6094"/><text fill="#96DDF2" font-family="sans-serif" font-size="12" lengthAdjust="spacing" textLength="133" x="185" y="1311.748">Stage 6: SE Directory</text><rect fill="#100D23" height="33.9688" rx="12.5" ry="12.5" style="stroke:#0BE784;stroke-width:0.5;" width="179" x="162" y="1344.5781"/><text fill="#96DDF2" font-family="sans-serif" font-size="12" lengthAdjust="spacing" textLength="159" x="172" y="1365.7168">Stage 7: Account Creator</text><rect fill="#100D23" height="33.9688" rx="12.5" ry="12.5" style="stroke:#0BE784;stroke-width:0.5;" width="194" x="154.5" y="1398.5469"/><text fill="#96DDF2" font-family="sans-serif" font-size="12" lengthAdjust="spacing" textLength="174" x="164.5" y="1419.6855">Stage 8: Make Grandparent</text><path d="M42.5,1442.5156 L42.5,1528.1797 A0,0 0 0 0 42.5,1528.1797 L220.5,1528.1797 A0,0 0 0 0 220.5,1528.1797 L220.5,1489.3477 L240.5,1485.3477 L220.5,1481.3477 L220.5,1452.5156 L210.5,1442.5156 L42.5,1442.5156 A0,0 0 0 0 42.5,1442.5156 " fill="#231B3D" style="stroke:#3F2C70;stroke-width:0.5;"/><path d="M210.5,1442.5156 L210.5,1452.5156 L220.5,1452.5156 L210.5,1442.5156 " fill="#231B3D" style="stroke:#3F2C70;stroke-width:0.5;"/><text fill="#96DDF2" font-family="sans-serif" font-size="13" lengthAdjust="spacing" textLength="155" x="48.5" y="1459.5825">API Pipeline (Reference):</text><text fill="#96DDF2" font-family="sans-serif" font-size="13" lengthAdjust="spacing" textLength="137" x="48.5" y="1474.7153">&#8226; 8 sequential stages</text><text fill="#96DDF2" font-family="sans-serif" font-size="13" lengthAdjust="spacing" textLength="152" x="48.5" y="1489.8481">&#8226; Horizon + Expert APIs</text><text fill="#96DDF2" font-family="sans-serif" font-size="13" lengthAdjust="spacing" textLength="149" x="48.5" y="1504.981">&#8226; Educational purposes</text><text fill="#96DDF2" font-family="sans-serif" font-size="13" lengthAdjust="spacing" textLength="157" x="48.5" y="1520.1138">&#8226; Not enabled by default</text><ellipse cx="251.5" cy="1485.3477" fill="none" rx="11" ry="11" style="stroke:#E5526F;stroke-width:1.0;"/><ellipse cx="251.5" cy="1485.3477" fill="#222222" rx="6" ry="6" style="stroke:#E5526F;stroke-width:1.0;"/><line style="stroke:#01C176;stroke-width:1.0;" x1="251.5" x2="251.5" y1="97.5938" y2="117.5938"/><polygon fill="#01C176" points="247.5,107.5938,251.5,117.5938,255.5,107.5938,251.5,111.5938" style="stroke:#01C176;stroke-width:1.0;"/><line style="stroke:#01C176;stroke-width:1.0;" x1="368" x2="368" y1="303.2109" y2="326.3594"/><polygon fill="#01C176" points="364,316.3594,368,326.3594,372,316.3594,368,320.3594" style="stroke:#01C176;stroke-width:1.0;"/><line style="stroke:#01C176;stroke-width:1.0;" x1="368" x2="368" y1="360.3281" y2="384.1914"/><polygon fill="#01C176" points="364,374.1914,368,384.1914,372,374.1914,368,378.1914" style="stroke:#01C176;stroke-width:1.0;"/><line style="stroke:#01C176;stroke-width:1.0;" x1="368" x2="368" y1="418.1602" y2="457.1563"/><polygon fill="#01C176" points="364,447.1563,368,457.1563,372,447.1563,368,451.1563" style="stroke:#01C176;stroke-width:1.0;"/><line style="stroke:#01C176;stroke-width:1.0;" x1="174.5" x2="135" y1="244.0938" y2="244.0938"/><line style="stroke:#01C176;stroke-width:1.0;" x1="135" x2="135" y1="244.0938" y2="266.0938"/><polygon fill="#01C176" points="131,256.0938,135,266.0938,139,256.0938,135,260.0938" style="stroke:#01C176;stroke-width:1.0;"/><line style="stroke:#01C176;stroke-width:1.0;" x1="328.5" x2="368" y1="244.0938" y2="244.0938"/><line style="stroke:#01C176;stroke-width:1.0;" x1="368" x2="368" y1="244.0938" y2="269.2422"/><polygon fill="#01C176" points="364,259.2422,368,269.2422,372,259.2422,368,263.2422" style="stroke:#01C176;stroke-width:1.0;"/><line style="stroke:#01C176;stroke-width:1.0;" x1="135" x2="135" y1="300.0625" y2="527.4063"/><line style="stroke:#01C176;stroke-width:1.0;" x1="135" x2="239.5" y1="527.4063" y2="527.4063"/><polygon fill="#01C176" points="229.5,523.4063,239.5,527.4063,229.5,531.4063,233.5,527.4063" style="stroke:#01C176;stroke-width:1.0;"/><line style="stroke:#01C176;stroke-width:1.0;" x1="368" x2="368" y1="491.125" y2="527.4063"/><line style="stroke:#01C176;stroke-width:1.0;" x1="368" x2="263.5" y1="527.4063" y2="527.4063"/><polygon fill="#01C176" points="273.5,523.4063,263.5,527.4063,273.5,531.4063,269.5,527.4063" style="stroke:#01C176;stroke-width:1.0;"/><line style="stroke:#01C176;stroke-width:1.0;" x1="251.5" x2="251.5" y1="151.5625" y2="232.0938"/><polygon fill="#01C176" points="247.5,222.0938,251.5,232.0938,255.5,222.0938,251.5,226.0938" style="stroke:#01C176;stroke-width:1.0;"/><line style="stroke:#01C176;stroke-width:1.0;" x1="251.5" x2="251.5" y1="539.4063" y2="590.3867"/><polygon fill="#01C176" points="247.5,580.3867,251.5,590.3867,255.5,580.3867,251.5,584.3867" style="stroke:#01C176;stroke-width:1.0;"/><line style="stroke:#01C176;stroke-width:1.0;" x1="251.5" x2="251.5" y1="624.3555" y2="685.3359"/><polygon fill="#01C176" points="247.5,675.3359,251.5,685.3359,255.5,675.3359,251.5,679.3359" style="stroke:#01C176;stroke-width:1.0;"/><line style="stroke:#01C176;stroke-width:1.0;" x1="251.5" x2="251.5" y1="719.3047" y2="791.4023"/><polygon fill="#01C176" points="247.5,781.4023,251.5,791.4023,255.5,781.4023,251.5,785.4023" style="stroke:#01C176;stroke-width:1.0;"/><line style="stroke:#01C176;stroke-width:1.0;" x1="251.5" x2="251.5" y1="946.7969" y2="966.7969"/><polygon fill="#01C176" points="247.5,956.7969,251.5,966.7969,255.5,956.7969,251.5,960.7969" style="stroke:#01C176;stroke-width:1.0;"/><line style="stroke:#01C176;stroke-width:1.0;" x1="251.5" x2="251.5" y1="1000.7656" y2="1020.7656"/><polygon fill="#01C176" points="247.5,1010.7656,251.5,1020.7656,255.5,1010.7656,251.5,1014.7656" style="stroke:#01C176;stroke-width:1.0;"/><line style="stroke:#01C176;stroke-width:1.0;" x1="251.5" x2="251.5" y1="1054.7344" y2="1074.7344"/><polygon fill="#01C176" points="247.5,1064.7344,251.5,1074.7344,255.5,1064.7344,251.5,1068.7344" style="stroke:#01C176;stroke-width:1.0;"/><line style="stroke:#01C176;stroke-width:1.0;" x1="251.5" x2="251.5" y1="1108.7031" y2="1128.7031"/><polygon fill="#01C176" points="247.5,1118.7031,251.5,1128.7031,255.5,1118.7031,251.5,1122.7031" style="stroke:#01C176;stroke-width:1.0;"/><line style="stroke:#01C176;stroke-width:1.0;" x1="251.5" x2="251.5" y1="1162.6719" y2="1182.6719"/><polygon fill="#01C176" points="247.5,1172.6719,251.5,1182.6719,255.5,1172.6719,251.5,1176.6719" style="stroke:#01C176;stroke-width:1.0;"/><line style="stroke:#01C176;stroke-width:1.0;" x1="251.5" x2="251.5" y1="1216.6406" y2="1236.6406"/><polygon fill="#01C176" points="247.5,1226.6406,251.5,1236.6406,255.5,1226.6406,251.5,1230.6406" style="stroke:#01C176;stroke-width:1.0;"/><line style="stroke:#01C176;stroke-width:1.0;" x1="251.5" x2="251.5" y1="1270.6094" y2="1290.6094"/><polygon fill="#01C176" points="247.5,1280.6094,251.5,1290.6094,255.5,1280.6094,251.5,1284.6094" style="stroke:#01C176;stroke-width:1.0;"/><line style="stroke:#01C176;stroke-width:1.0;" x1="251.5" x2="251.5" y1="1324.5781" y2="1344.5781"/><polygon fill="#01C176" points="247.5,1334.5781,251.5,1344.5781,255.5,1334.5781,251.5,1338.5781" style="stroke:#01C176;stroke-width:1.0;"/><line style="stroke:#01C176;stroke-width:1.0;" x1="251.5" x2="251.5" y1="1378.5469" y2="1398.5469"/><polygon fill="#01C176" points="247.5,1388.5469,251.5,1398.5469,255.5,1388.5469,251.5,1392.5469" style="stroke:#01C176;stroke-width:1.0;"/><line style="stroke:#01C176;stroke-width:1.0;" x1="251.5" x2="251.5" y1="1432.5156" y2="1474.3477"/><polygon fill="#01C176" points="247.5,1464.3477,251.5,1474.3477,255.5,1464.3477,251.5,1468.3477" style="stroke:#01C176;stroke-width:1.0;"/><!--SRC=[fLVRRjj647tNLmpIFaYeXLAI9Jjqwa8NAZPIgwhaF1jhSYGjJEuokykaIf2Ytz9FwvTqbXVTJCeoQXYsJ9xPcJbpPcQjdxY8cM8HF3B_QQba8eAX3AM27zgzrkYyMzCR1FCD_ypD6hxLWBu6XmOjnncrEzaxgG9K-NDdu5rSdgVFnrAO_EdRtcWqRjU-bpZeAoM_5CQjOUkYLmAQ6wRCleSoa8npZDVjjdlZ4io8iqYAu5awxKvhq1aTCIZ9SGiESC6Iq3nFU0iHqc3APPNh0nuxYxP_uTJAMQmPRaA4TxvzxkRnN8-OOK3G42bsAM3AOmovG6Z255N410e3H99YIuI-ybVS439HMAjHZ7IaDNfpSEY0B_z8KAstfzMdYaUCdfGSstYJvgXjkUWtVRiVDIgO8oD_gA4V10grlifUyWNK3_pzHYviV5p0a6dDHA3OhmqmAnHGNwDkfD9AsLHykJ8x_DclWzDctjJhtyFSwy-6DmUGZCthV__-1zwrGADFPGOABfP2OpNMWGqbljIc6ZXab740OPPGYaFoO4DF_qX_k3Da0HH9BvICjcbV5J0CDT4kv8cvP-A_7j_EvlVD-zixxyNykqxphNCw1N-rUrsu6so9I7IHOIb-AnEToQIAZEoqbWjztwSECJ1Ko59PahRnwhJqSyTZo-M175Xsh7xm4wKeddBBZLF38oGfH_7nUDjk5YUrw8XhNtwcX_y_LXIAMm4zhBXbRVqWOrHfNBhY44u1KYDRdkjc7UClJkDuu1qAVCN3eA1RloxgALjoGNK9eDvoFj1ECRR56-NWZp4O2RGrFe1lVLAOvS0Rqdv8au9n5IWPwweKxCH1A1iNLwyQ4LDlTjUVU1EQ4lU_p_hllMeTJv1AI_tH_9JILyY_sc2ia9gQuYIx8uE2neYc7UAJYAZHhNvIwHrcJX_v8f-g_Ucj2pDSKBEkm4kb4jd2snrWyw_8_WJTtKZ5lvBuoKEPoO25JFXu1ekGBVKPh6I43u6C61Tby5EzpWs68LFW_KagDsLMmwnbWQgCXXmRbMXZXwj-qMy-43tRc3Jbx2g2EWk_iBM6bC56RO_eMZgNQJEIg6GKXqXSfikL56pNMRwzg2tZx5FATeYBShBp56sPuKu664ATfdv8RStzXbkhK4NxhEiua0XEOlkPhY1cvHwU-ADJPTmzSruqRZMxLUOpZ6cUvLIXVcOxdddUYwmN_OMAEY2oegdCTSoLDashUNUxYuu7v-PBkmeraK3Jagh28sxqRds_brvtSbDI_SvDnmiIFnsvBBJDXYH0trwdsiqEH5maXiRTwsuyDBRikA8LTyUU4ARPkCwds3x6hfNiCWT5JnRTlGLrjhkoRupYZpQcVSZv3YJjdVtNtUthiMtf_RSzbouFjDOKXI6pjNRQQDblQC3DY7hUQfcdYuEjBzL-99SvPUyL3VbipRso3qjBl2bhTITUaiweZuJX90DjWz5LqA9GFnLvaxDAyAwwuaJ5KbSVF96MG_OOqhPzN1V_SEpB-Zy0]--></g></svg>