<?xml version="1.0" encoding="us-ascii" standalone="no"?><svg xmlns="http://www.w3.org/2000/svg" xmlns:xlink="http://www.w3.org/1999/xlink" contentStyleType="text/css" height="327px" preserveAspectRatio="none" style="width:2527px;height:327px;background:#261D45;" version="1.1" viewBox="0 0 2527 327" width="2527px" zoomAndPan="magnify"><defs/><g><rect fill="#261D45" height="327" style="stroke:none;stroke-width:1.0;" width="2527" x="0" y="0"/><text fill="#0BE784" font-family="sans-serif" font-size="14" font-weight="bold" lengthAdjust="spacing" textLength="235" x="1139.25" y="22.9951">Astra DB (Cassandra) Schema</text><!--class StellarAccountSearchCache--><g id="elem_StellarAccountSearchCache"><rect codeLine="20" fill="#100D23" height="194.6719" id="StellarAccountSearchCache" rx="2.5" ry="2.5" style="stroke:#0BE784;stroke-width:0.5;" width="223" x="7" y="85.0469"/><ellipse cx="22" cy="101.0469" fill="#ADD1B2" rx="11" ry="11" style="stroke:#181818;stroke-width:1.0;"/><path d="M24.9688,106.6875 Q24.3906,106.9844 23.75,107.125 Q23.1094,107.2813 22.4063,107.2813 Q19.9063,107.2813 18.5781,105.6406 Q17.2656,103.9844 17.2656,100.8594 Q17.2656,97.7344 18.5781,96.0781 Q19.9063,94.4219 22.4063,94.4219 Q23.1094,94.4219 23.75,94.5781 Q24.4063,94.7344 24.9688,95.0313 L24.9688,97.75 Q24.3438,97.1719 23.75,96.9063 Q23.1563,96.625 22.5313,96.625 Q21.1875,96.625 20.5,97.7031 Q19.8125,98.7656 19.8125,100.8594 Q19.8125,102.9531 20.5,104.0313 Q21.1875,105.0938 22.5313,105.0938 Q23.1563,105.0938 23.75,104.8281 Q24.3438,104.5469 24.9688,103.9688 L24.9688,106.6875 Z " fill="#96DDF2"/><text fill="#96DDF2" font-family="sans-serif" font-size="14" lengthAdjust="spacing" textLength="191" x="36" y="105.8936">StellarAccountSearchCache</text><line style="stroke:#0BE784;stroke-width:0.5;" x1="8" x2="229" y1="117.0469" y2="117.0469"/><text fill="#0BE784" font-family="sans-serif" font-size="14" lengthAdjust="spacing" textLength="152" x="27" y="134.042">+ stellar_account (PK)</text><text fill="#0BE784" font-family="sans-serif" font-size="14" lengthAdjust="spacing" textLength="150" x="27" y="150.3389">+ network_name (PK)</text><text fill="#96DDF2" font-family="sans-serif" font-size="14" lengthAdjust="spacing" textLength="59" x="27" y="166.6357">+ status</text><ellipse cx="18" cy="179.5859" fill="none" rx="3" ry="3" style="stroke:#038048;stroke-width:1.0;"/><text fill="#96DDF2" font-family="sans-serif" font-size="14" lengthAdjust="spacing" textLength="87" x="27" y="182.9326">cached_json</text><ellipse cx="18" cy="195.8828" fill="none" rx="3" ry="3" style="stroke:#038048;stroke-width:1.0;"/><text fill="#96DDF2" font-family="sans-serif" font-size="14" lengthAdjust="spacing" textLength="104" x="27" y="199.2295">last_fetched_at</text><ellipse cx="18" cy="212.1797" fill="none" rx="3" ry="3" style="stroke:#038048;stroke-width:1.0;"/><text fill="#96DDF2" font-family="sans-serif" font-size="14" lengthAdjust="spacing" textLength="78" x="27" y="215.5264">retry_count</text><ellipse cx="18" cy="228.4766" fill="none" rx="3" ry="3" style="stroke:#038048;stroke-width:1.0;"/><text fill="#96DDF2" font-family="sans-serif" font-size="14" lengthAdjust="spacing" textLength="73" x="27" y="231.8232">created_at</text><ellipse cx="18" cy="244.7734" fill="none" rx="3" ry="3" style="stroke:#038048;stroke-width:1.0;"/><text fill="#96DDF2" font-family="sans-serif" font-size="14" lengthAdjust="spacing" textLength="78" x="27" y="248.1201">updated_at</text><line style="stroke:#0BE784;stroke-width:1.0;" x1="8" x2="229" y1="255.4219" y2="255.4219"/><text fill="#01C176" font-family="sans-serif" font-size="14" lengthAdjust="spacing" textLength="101" x="13" y="272.417">12-hour cache</text></g><!--class StellarCreatorAccountLineage--><g id="elem_StellarCreatorAccountLineage"><rect codeLine="33" fill="#100D23" height="276.1563" id="StellarCreatorAccountLineage" rx="2.5" ry="2.5" style="stroke:#0BE784;stroke-width:0.5;" width="236" x="443.5" y="44.2969"/><ellipse cx="458.5" cy="60.2969" fill="#ADD1B2" rx="11" ry="11" style="stroke:#181818;stroke-width:1.0;"/><path d="M461.4688,65.9375 Q460.8906,66.2344 460.25,66.375 Q459.6094,66.5313 458.9063,66.5313 Q456.4063,66.5313 455.0781,64.8906 Q453.7656,63.2344 453.7656,60.1094 Q453.7656,56.9844 455.0781,55.3281 Q456.4063,53.6719 458.9063,53.6719 Q459.6094,53.6719 460.25,53.8281 Q460.9063,53.9844 461.4688,54.2813 L461.4688,57 Q460.8438,56.4219 460.25,56.1563 Q459.6563,55.875 459.0313,55.875 Q457.6875,55.875 457,56.9531 Q456.3125,58.0156 456.3125,60.1094 Q456.3125,62.2031 457,63.2813 Q457.6875,64.3438 459.0313,64.3438 Q459.6563,64.3438 460.25,64.0781 Q460.8438,63.7969 461.4688,63.2188 L461.4688,65.9375 Z " fill="#96DDF2"/><text fill="#96DDF2" font-family="sans-serif" font-size="14" lengthAdjust="spacing" textLength="204" x="472.5" y="65.1436">StellarCreatorAccountLineage</text><line style="stroke:#0BE784;stroke-width:0.5;" x1="444.5" x2="678.5" y1="76.2969" y2="76.2969"/><text fill="#0BE784" font-family="sans-serif" font-size="14" lengthAdjust="spacing" textLength="60" x="463.5" y="93.292">+ id (PK)</text><text fill="#0BE784" font-family="sans-serif" font-size="14" lengthAdjust="spacing" textLength="153" x="463.5" y="109.5889">+ stellar_account (CK)</text><text fill="#0BE784" font-family="sans-serif" font-size="14" lengthAdjust="spacing" textLength="151" x="463.5" y="125.8857">+ network_name (CK)</text><text fill="#0BE784" font-family="sans-serif" font-size="14" lengthAdjust="spacing" textLength="122" x="463.5" y="142.1826">+ created_at (CK)</text><text fill="#96DDF2" font-family="sans-serif" font-size="14" lengthAdjust="spacing" textLength="176" x="463.5" y="158.4795">+ stellar_creator_account</text><ellipse cx="454.5" cy="171.4297" fill="none" rx="3" ry="3" style="stroke:#038048;stroke-width:1.0;"/><text fill="#96DDF2" font-family="sans-serif" font-size="14" lengthAdjust="spacing" textLength="184" x="463.5" y="174.7764">stellar_account_created_at</text><ellipse cx="454.5" cy="187.7266" fill="none" rx="3" ry="3" style="stroke:#038048;stroke-width:1.0;"/><text fill="#96DDF2" font-family="sans-serif" font-size="14" lengthAdjust="spacing" textLength="98" x="463.5" y="191.0732">home_domain</text><ellipse cx="454.5" cy="204.0234" fill="none" rx="3" ry="3" style="stroke:#038048;stroke-width:1.0;"/><text fill="#96DDF2" font-family="sans-serif" font-size="14" lengthAdjust="spacing" textLength="84" x="463.5" y="207.3701">xlm_balance</text><ellipse cx="454.5" cy="220.3203" fill="none" rx="3" ry="3" style="stroke:#038048;stroke-width:1.0;"/><text fill="#96DDF2" font-family="sans-serif" font-size="14" lengthAdjust="spacing" textLength="42" x="463.5" y="223.667">is_hva</text><ellipse cx="454.5" cy="236.6172" fill="none" rx="3" ry="3" style="stroke:#038048;stroke-width:1.0;"/><text fill="#96DDF2" font-family="sans-serif" font-size="14" lengthAdjust="spacing" textLength="30" x="463.5" y="239.9639">tags</text><ellipse cx="454.5" cy="252.9141" fill="none" rx="3" ry="3" style="stroke:#038048;stroke-width:1.0;"/><text fill="#96DDF2" font-family="sans-serif" font-size="14" lengthAdjust="spacing" textLength="43" x="463.5" y="256.2607">status</text><ellipse cx="454.5" cy="269.2109" fill="none" rx="3" ry="3" style="stroke:#038048;stroke-width:1.0;"/><text fill="#96DDF2" font-family="sans-serif" font-size="14" lengthAdjust="spacing" textLength="78" x="463.5" y="272.5576">retry_count</text><ellipse cx="454.5" cy="285.5078" fill="none" rx="3" ry="3" style="stroke:#038048;stroke-width:1.0;"/><text fill="#96DDF2" font-family="sans-serif" font-size="14" lengthAdjust="spacing" textLength="141" x="463.5" y="288.8545">num_child_accounts</text><line style="stroke:#0BE784;stroke-width:1.0;" x1="444.5" x2="678.5" y1="296.1563" y2="296.1563"/><text fill="#01C176" font-family="sans-serif" font-size="14" lengthAdjust="spacing" textLength="180" x="449.5" y="313.1514">Lineage data with HVA flag</text></g><!--class StellarAccountStageExecution--><g id="elem_StellarAccountStageExecution"><rect codeLine="51" fill="#100D23" height="210.9688" id="StellarAccountStageExecution" rx="2.5" ry="2.5" style="stroke:#0BE784;stroke-width:0.5;" width="239" x="2047" y="76.8969"/><ellipse cx="2062" cy="92.8969" fill="#ADD1B2" rx="11" ry="11" style="stroke:#181818;stroke-width:1.0;"/><path d="M2064.9688,98.5375 Q2064.3906,98.8344 2063.75,98.975 Q2063.1094,99.1313 2062.4063,99.1313 Q2059.9063,99.1313 2058.5781,97.4906 Q2057.2656,95.8344 2057.2656,92.7094 Q2057.2656,89.5844 2058.5781,87.9281 Q2059.9063,86.2719 2062.4063,86.2719 Q2063.1094,86.2719 2063.75,86.4281 Q2064.4063,86.5844 2064.9688,86.8813 L2064.9688,89.6 Q2064.3438,89.0219 2063.75,88.7563 Q2063.1563,88.475 2062.5313,88.475 Q2061.1875,88.475 2060.5,89.5531 Q2059.8125,90.6156 2059.8125,92.7094 Q2059.8125,94.8031 2060.5,95.8813 Q2061.1875,96.9438 2062.5313,96.9438 Q2063.1563,96.9438 2063.75,96.6781 Q2064.3438,96.3969 2064.9688,95.8188 L2064.9688,98.5375 Z " fill="#96DDF2"/><text fill="#96DDF2" font-family="sans-serif" font-size="14" lengthAdjust="spacing" textLength="207" x="2076" y="97.7436">StellarAccountStageExecution</text><line style="stroke:#0BE784;stroke-width:0.5;" x1="2048" x2="2285" y1="108.8969" y2="108.8969"/><text fill="#0BE784" font-family="sans-serif" font-size="14" lengthAdjust="spacing" textLength="152" x="2067" y="125.892">+ stellar_account (PK)</text><text fill="#0BE784" font-family="sans-serif" font-size="14" lengthAdjust="spacing" textLength="150" x="2067" y="142.1889">+ network_name (PK)</text><text fill="#0BE784" font-family="sans-serif" font-size="14" lengthAdjust="spacing" textLength="121" x="2067" y="158.4857">+ created_at (PK)</text><text fill="#0BE784" font-family="sans-serif" font-size="14" lengthAdjust="spacing" textLength="149" x="2067" y="174.7826">+ stage_number (CK)</text><text fill="#96DDF2" font-family="sans-serif" font-size="14" lengthAdjust="spacing" textLength="93" x="2067" y="191.0795">+ cron_name</text><ellipse cx="2058" cy="204.0297" fill="none" rx="3" ry="3" style="stroke:#038048;stroke-width:1.0;"/><text fill="#96DDF2" font-family="sans-serif" font-size="14" lengthAdjust="spacing" textLength="43" x="2067" y="207.3764">status</text><ellipse cx="2058" cy="220.3266" fill="none" rx="3" ry="3" style="stroke:#038048;stroke-width:1.0;"/><text fill="#96DDF2" font-family="sans-serif" font-size="14" lengthAdjust="spacing" textLength="133" x="2067" y="223.6732">execution_time_ms</text><ellipse cx="2058" cy="236.6234" fill="none" rx="3" ry="3" style="stroke:#038048;stroke-width:1.0;"/><text fill="#96DDF2" font-family="sans-serif" font-size="14" lengthAdjust="spacing" textLength="104" x="2067" y="239.9701">error_message</text><ellipse cx="2058" cy="252.9203" fill="none" rx="3" ry="3" style="stroke:#038048;stroke-width:1.0;"/><text fill="#96DDF2" font-family="sans-serif" font-size="14" lengthAdjust="spacing" textLength="78" x="2067" y="256.267">updated_at</text><line style="stroke:#0BE784;stroke-width:1.0;" x1="2048" x2="2285" y1="263.5688" y2="263.5688"/><text fill="#01C176" font-family="sans-serif" font-size="14" lengthAdjust="spacing" textLength="113" x="2053" y="280.5639">Pipeline tracking</text></g><!--class ManagementCronHealth--><g id="elem_ManagementCronHealth"><rect codeLine="65" fill="#100D23" height="178.375" id="ManagementCronHealth" rx="2.5" ry="2.5" style="stroke:#0BE784;stroke-width:0.5;" width="200" x="2320.5" y="93.1869"/><ellipse cx="2335.5" cy="109.1869" fill="#ADD1B2" rx="11" ry="11" style="stroke:#181818;stroke-width:1.0;"/><path d="M2338.4688,114.8275 Q2337.8906,115.1244 2337.25,115.265 Q2336.6094,115.4213 2335.9063,115.4213 Q2333.4063,115.4213 2332.0781,113.7806 Q2330.7656,112.1244 2330.7656,108.9994 Q2330.7656,105.8744 2332.0781,104.2181 Q2333.4063,102.5619 2335.9063,102.5619 Q2336.6094,102.5619 2337.25,102.7181 Q2337.9063,102.8744 2338.4688,103.1713 L2338.4688,105.89 Q2337.8438,105.3119 2337.25,105.0463 Q2336.6563,104.765 2336.0313,104.765 Q2334.6875,104.765 2334,105.8431 Q2333.3125,106.9056 2333.3125,108.9994 Q2333.3125,111.0931 2334,112.1713 Q2334.6875,113.2338 2336.0313,113.2338 Q2336.6563,113.2338 2337.25,112.9681 Q2337.8438,112.6869 2338.4688,112.1088 L2338.4688,114.8275 Z " fill="#96DDF2"/><text fill="#96DDF2" font-family="sans-serif" font-size="14" lengthAdjust="spacing" textLength="168" x="2349.5" y="114.0336">ManagementCronHealth</text><line style="stroke:#0BE784;stroke-width:0.5;" x1="2321.5" x2="2519.5" y1="125.1869" y2="125.1869"/><text fill="#0BE784" font-family="sans-serif" font-size="14" lengthAdjust="spacing" textLength="60" x="2340.5" y="142.182">+ id (PK)</text><text fill="#0BE784" font-family="sans-serif" font-size="14" lengthAdjust="spacing" textLength="121" x="2340.5" y="158.4789">+ created_at (PK)</text><text fill="#0BE784" font-family="sans-serif" font-size="14" lengthAdjust="spacing" textLength="126" x="2340.5" y="174.7757">+ cron_name (CK)</text><text fill="#96DDF2" font-family="sans-serif" font-size="14" lengthAdjust="spacing" textLength="59" x="2340.5" y="191.0726">+ status</text><ellipse cx="2331.5" cy="204.0228" fill="none" rx="3" ry="3" style="stroke:#038048;stroke-width:1.0;"/><text fill="#96DDF2" font-family="sans-serif" font-size="14" lengthAdjust="spacing" textLength="133" x="2340.5" y="207.3695">execution_time_ms</text><ellipse cx="2331.5" cy="220.3197" fill="none" rx="3" ry="3" style="stroke:#038048;stroke-width:1.0;"/><text fill="#96DDF2" font-family="sans-serif" font-size="14" lengthAdjust="spacing" textLength="104" x="2340.5" y="223.6664">error_message</text><ellipse cx="2331.5" cy="236.6166" fill="none" rx="3" ry="3" style="stroke:#038048;stroke-width:1.0;"/><text fill="#96DDF2" font-family="sans-serif" font-size="14" lengthAdjust="spacing" textLength="78" x="2340.5" y="239.9632">updated_at</text><line style="stroke:#0BE784;stroke-width:1.0;" x1="2321.5" x2="2519.5" y1="247.265" y2="247.265"/><text fill="#01C176" font-family="sans-serif" font-size="14" lengthAdjust="spacing" textLength="122" x="2326.5" y="264.2601">Health monitoring</text></g><!--class HVAStandingChange--><g id="elem_HVAStandingChange"><rect codeLine="77" fill="#100D23" height="259.8594" id="HVAStandingChange" rx="2.5" ry="2.5" style="stroke:#0BE784;stroke-width:0.5;" width="220" x="999.5" y="52.4469"/><ellipse cx="1034.75" cy="68.4469" fill="#ADD1B2" rx="11" ry="11" style="stroke:#181818;stroke-width:1.0;"/><path d="M1037.7188,74.0875 Q1037.1406,74.3844 1036.5,74.525 Q1035.8594,74.6813 1035.1563,74.6813 Q1032.6563,74.6813 1031.3281,73.0406 Q1030.0156,71.3844 1030.0156,68.2594 Q1030.0156,65.1344 1031.3281,63.4781 Q1032.6563,61.8219 1035.1563,61.8219 Q1035.8594,61.8219 1036.5,61.9781 Q1037.1563,62.1344 1037.7188,62.4313 L1037.7188,65.15 Q1037.0938,64.5719 1036.5,64.3063 Q1035.9063,64.025 1035.2813,64.025 Q1033.9375,64.025 1033.25,65.1031 Q1032.5625,66.1656 1032.5625,68.2594 Q1032.5625,70.3531 1033.25,71.4313 Q1033.9375,72.4938 1035.2813,72.4938 Q1035.9063,72.4938 1036.5,72.2281 Q1037.0938,71.9469 1037.7188,71.3688 L1037.7188,74.0875 Z " fill="#96DDF2"/><text fill="#96DDF2" font-family="sans-serif" font-size="14" lengthAdjust="spacing" textLength="143" x="1053.25" y="73.2936">HVAStandingChange</text><line style="stroke:#0BE784;stroke-width:0.5;" x1="1000.5" x2="1218.5" y1="84.4469" y2="84.4469"/><text fill="#0BE784" font-family="sans-serif" font-size="14" lengthAdjust="spacing" textLength="152" x="1019.5" y="101.442">+ stellar_account (PK)</text><text fill="#0BE784" font-family="sans-serif" font-size="14" lengthAdjust="spacing" textLength="138" x="1019.5" y="117.7389">+ change_time (CK)</text><text fill="#96DDF2" font-family="sans-serif" font-size="14" lengthAdjust="spacing" textLength="92" x="1019.5" y="134.0357">+ event_type</text><ellipse cx="1010.5" cy="146.9859" fill="none" rx="3" ry="3" style="stroke:#038048;stroke-width:1.0;"/><text fill="#96DDF2" font-family="sans-serif" font-size="14" lengthAdjust="spacing" textLength="58" x="1019.5" y="150.3326">old_rank</text><ellipse cx="1010.5" cy="163.2828" fill="none" rx="3" ry="3" style="stroke:#038048;stroke-width:1.0;"/><text fill="#96DDF2" font-family="sans-serif" font-size="14" lengthAdjust="spacing" textLength="66" x="1019.5" y="166.6295">new_rank</text><ellipse cx="1010.5" cy="179.5797" fill="none" rx="3" ry="3" style="stroke:#038048;stroke-width:1.0;"/><text fill="#96DDF2" font-family="sans-serif" font-size="14" lengthAdjust="spacing" textLength="82" x="1019.5" y="182.9264">old_balance</text><ellipse cx="1010.5" cy="195.8766" fill="none" rx="3" ry="3" style="stroke:#038048;stroke-width:1.0;"/><text fill="#96DDF2" font-family="sans-serif" font-size="14" lengthAdjust="spacing" textLength="90" x="1019.5" y="199.2232">new_balance</text><ellipse cx="1010.5" cy="212.1734" fill="none" rx="3" ry="3" style="stroke:#038048;stroke-width:1.0;"/><text fill="#96DDF2" font-family="sans-serif" font-size="14" lengthAdjust="spacing" textLength="89" x="1019.5" y="215.5201">rank_change</text><ellipse cx="1010.5" cy="228.4703" fill="none" rx="3" ry="3" style="stroke:#038048;stroke-width:1.0;"/><text fill="#96DDF2" font-family="sans-serif" font-size="14" lengthAdjust="spacing" textLength="142" x="1019.5" y="231.817">balance_change_pct</text><ellipse cx="1010.5" cy="244.7672" fill="none" rx="3" ry="3" style="stroke:#038048;stroke-width:1.0;"/><text fill="#96DDF2" font-family="sans-serif" font-size="14" lengthAdjust="spacing" textLength="102" x="1019.5" y="248.1139">network_name</text><ellipse cx="1010.5" cy="261.0641" fill="none" rx="3" ry="3" style="stroke:#038048;stroke-width:1.0;"/><text fill="#96DDF2" font-family="sans-serif" font-size="14" lengthAdjust="spacing" textLength="96" x="1019.5" y="264.4107">xlm_threshold</text><ellipse cx="1010.5" cy="277.3609" fill="none" rx="3" ry="3" style="stroke:#038048;stroke-width:1.0;"/><text fill="#96DDF2" font-family="sans-serif" font-size="14" lengthAdjust="spacing" textLength="73" x="1019.5" y="280.7076">created_at</text><line style="stroke:#0BE784;stroke-width:1.0;" x1="1000.5" x2="1218.5" y1="288.0094" y2="288.0094"/><text fill="#01C176" font-family="sans-serif" font-size="14" lengthAdjust="spacing" textLength="208" x="1005.5" y="305.0045">Multi-threshold ranking history</text></g><!--class BigQueryPipelineConfig--><g id="elem_BigQueryPipelineConfig"><rect codeLine="94" fill="#100D23" height="243.5625" id="BigQueryPipelineConfig" rx="2.5" ry="2.5" style="stroke:#0BE784;stroke-width:0.5;" width="210" x="1521.5" y="60.5969"/><ellipse cx="1544.15" cy="76.5969" fill="#ADD1B2" rx="11" ry="11" style="stroke:#181818;stroke-width:1.0;"/><path d="M1547.1188,82.2375 Q1546.5406,82.5344 1545.9,82.675 Q1545.2594,82.8313 1544.5563,82.8313 Q1542.0563,82.8313 1540.7281,81.1906 Q1539.4156,79.5344 1539.4156,76.4094 Q1539.4156,73.2844 1540.7281,71.6281 Q1542.0563,69.9719 1544.5563,69.9719 Q1545.2594,69.9719 1545.9,70.1281 Q1546.5563,70.2844 1547.1188,70.5813 L1547.1188,73.3 Q1546.4938,72.7219 1545.9,72.4563 Q1545.3063,72.175 1544.6813,72.175 Q1543.3375,72.175 1542.65,73.2531 Q1541.9625,74.3156 1541.9625,76.4094 Q1541.9625,78.5031 1542.65,79.5813 Q1543.3375,80.6438 1544.6813,80.6438 Q1545.3063,80.6438 1545.9,80.3781 Q1546.4938,80.0969 1547.1188,79.5188 L1547.1188,82.2375 Z " fill="#96DDF2"/><text fill="#96DDF2" font-family="sans-serif" font-size="14" lengthAdjust="spacing" textLength="161" x="1559.85" y="81.4436">BigQueryPipelineConfig</text><line style="stroke:#0BE784;stroke-width:0.5;" x1="1522.5" x2="1730.5" y1="92.5969" y2="92.5969"/><text fill="#0BE784" font-family="sans-serif" font-size="14" lengthAdjust="spacing" textLength="109" x="1541.5" y="109.592">+ config_id (PK)</text><text fill="#96DDF2" font-family="sans-serif" font-size="14" lengthAdjust="spacing" textLength="139" x="1541.5" y="125.8889">+ bigquery_enabled</text><ellipse cx="1532.5" cy="138.8391" fill="none" rx="3" ry="3" style="stroke:#038048;stroke-width:1.0;"/><text fill="#96DDF2" font-family="sans-serif" font-size="14" lengthAdjust="spacing" textLength="97" x="1541.5" y="142.1857">cost_limit_usd</text><ellipse cx="1532.5" cy="155.1359" fill="none" rx="3" ry="3" style="stroke:#038048;stroke-width:1.0;"/><text fill="#96DDF2" font-family="sans-serif" font-size="14" lengthAdjust="spacing" textLength="91" x="1541.5" y="158.4826">size_limit_mb</text><ellipse cx="1532.5" cy="171.4328" fill="none" rx="3" ry="3" style="stroke:#038048;stroke-width:1.0;"/><text fill="#96DDF2" font-family="sans-serif" font-size="14" lengthAdjust="spacing" textLength="101" x="1541.5" y="174.7795">pipeline_mode</text><ellipse cx="1532.5" cy="187.7297" fill="none" rx="3" ry="3" style="stroke:#038048;stroke-width:1.0;"/><text fill="#96DDF2" font-family="sans-serif" font-size="14" lengthAdjust="spacing" textLength="97" x="1541.5" y="191.0764">hva_threshold</text><ellipse cx="1532.5" cy="204.0266" fill="none" rx="3" ry="3" style="stroke:#038048;stroke-width:1.0;"/><text fill="#96DDF2" font-family="sans-serif" font-size="14" lengthAdjust="spacing" textLength="184" x="1541.5" y="207.3732">hva_supported_thresholds</text><ellipse cx="1532.5" cy="220.3234" fill="none" rx="3" ry="3" style="stroke:#038048;stroke-width:1.0;"/><text fill="#96DDF2" font-family="sans-serif" font-size="14" lengthAdjust="spacing" textLength="74" x="1541.5" y="223.6701">batch_size</text><ellipse cx="1532.5" cy="236.6203" fill="none" rx="3" ry="3" style="stroke:#038048;stroke-width:1.0;"/><text fill="#96DDF2" font-family="sans-serif" font-size="14" lengthAdjust="spacing" textLength="109" x="1541.5" y="239.967">cache_ttl_hours</text><ellipse cx="1532.5" cy="252.9172" fill="none" rx="3" ry="3" style="stroke:#038048;stroke-width:1.0;"/><text fill="#96DDF2" font-family="sans-serif" font-size="14" lengthAdjust="spacing" textLength="73" x="1541.5" y="256.2639">created_at</text><ellipse cx="1532.5" cy="269.2141" fill="none" rx="3" ry="3" style="stroke:#038048;stroke-width:1.0;"/><text fill="#96DDF2" font-family="sans-serif" font-size="14" lengthAdjust="spacing" textLength="78" x="1541.5" y="272.5607">updated_at</text><line style="stroke:#0BE784;stroke-width:1.0;" x1="1522.5" x2="1730.5" y1="279.8625" y2="279.8625"/><text fill="#01C176" font-family="sans-serif" font-size="14" lengthAdjust="spacing" textLength="193" x="1527.5" y="296.8576">Admin-configurable settings</text></g><g id="elem_GMN8"><path d="M265,154.6769 L265,178.3769 L230.48,182.3769 L265,186.3769 L265,210.0753 A0,0 0 0 0 265,210.0753 L408,210.0753 A0,0 0 0 0 408,210.0753 L408,164.6769 L398,154.6769 L265,154.6769 A0,0 0 0 0 265,154.6769 " fill="#231B3D" style="stroke:#3F2C70;stroke-width:0.5;"/><path d="M398,154.6769 L398,164.6769 L408,164.6769 L398,154.6769 " fill="#231B3D" style="stroke:#3F2C70;stroke-width:0.5;"/><text fill="#0BE784" font-family="sans-serif" font-size="13" lengthAdjust="spacing" textLength="122" x="271" y="171.7438">Optimized Queries:</text><text fill="#96DDF2" font-family="sans-serif" font-size="13" lengthAdjust="spacing" textLength="114" x="271" y="186.8766">filter(status__in=[</text><text fill="#96DDF2" font-family="sans-serif" font-size="13" lengthAdjust="spacing" textLength="10" x="271" y="202.0094">])</text></g><g id="elem_GMN11"><path d="M714.5,109.2769 L714.5,178.3769 L679.87,182.3769 L714.5,186.3769 L714.5,255.4722 A0,0 0 0 0 714.5,255.4722 L964.5,255.4722 A0,0 0 0 0 964.5,255.4722 L964.5,119.2769 L954.5,109.2769 L714.5,109.2769 A0,0 0 0 0 714.5,109.2769 " fill="#231B3D" style="stroke:#3F2C70;stroke-width:0.5;"/><path d="M954.5,109.2769 L954.5,119.2769 L964.5,119.2769 L954.5,109.2769 " fill="#231B3D" style="stroke:#3F2C70;stroke-width:0.5;"/><text fill="#0BE784" font-family="sans-serif" font-size="13" lengthAdjust="spacing" textLength="84" x="720.5" y="126.3438">Data Source:</text><text fill="#96DDF2" font-family="sans-serif" font-size="13" lengthAdjust="spacing" textLength="53" x="720.5" y="141.4766">Primary:</text><text fill="#0BE784" font-family="sans-serif" font-size="13" lengthAdjust="spacing" textLength="111" x="777.5" y="141.4766">BigQuery Pipeline</text><text fill="#96DDF2" font-family="sans-serif" font-size="13" lengthAdjust="spacing" textLength="229" x="720.5" y="156.6094">&#8226; Account data (comma-formatted)</text><text fill="#96DDF2" font-family="sans-serif" font-size="13" lengthAdjust="spacing" textLength="55" x="720.5" y="171.7422">&#8226; Assets</text><text fill="#96DDF2" font-family="sans-serif" font-size="13" lengthAdjust="spacing" textLength="87" x="720.5" y="186.875">&#8226; Creator info</text><text fill="#96DDF2" font-family="sans-serif" font-size="13" lengthAdjust="spacing" textLength="105" x="720.5" y="202.0078">&#8226; Child accounts</text><text fill="#96DDF2" font-family="sans-serif" font-size="13" lengthAdjust="spacing" textLength="92" x="720.5" y="217.1406">&#8226; HVA tagging</text><text fill="#96DDF2" font-family="sans-serif" font-size="13" lengthAdjust="spacing" textLength="4" x="720.5" y="232.2735">&#160;</text><text fill="#96DDF2" font-family="sans-serif" font-size="13" lengthAdjust="spacing" textLength="155" x="720.5" y="247.4063">Educational: API Pipeline</text></g><g id="elem_GMN14"><path d="M1255,116.8469 L1255,178.3769 L1219.86,182.3769 L1255,186.3769 L1255,247.9094 A0,0 0 0 0 1255,247.9094 L1486,247.9094 A0,0 0 0 0 1486,247.9094 L1486,126.8469 L1476,116.8469 L1255,116.8469 A0,0 0 0 0 1255,116.8469 " fill="#231B3D" style="stroke:#3F2C70;stroke-width:0.5;"/><path d="M1476,116.8469 L1476,126.8469 L1486,126.8469 L1476,116.8469 " fill="#231B3D" style="stroke:#3F2C70;stroke-width:0.5;"/><text fill="#0BE784" font-family="sans-serif" font-size="13" lengthAdjust="spacing" textLength="158" x="1261" y="133.9138">Multi-Threshold Tracking:</text><text fill="#96DDF2" font-family="sans-serif" font-size="13" lengthAdjust="spacing" textLength="193" x="1261" y="149.0466">&#8226; Tracks ranking per threshold</text><text fill="#96DDF2" font-family="sans-serif" font-size="13" lengthAdjust="spacing" textLength="153" x="1261" y="164.1794">&#8226; xlm_threshold column</text><text fill="#96DDF2" font-family="sans-serif" font-size="13" lengthAdjust="spacing" textLength="158" x="1261" y="179.3122">&#8226; Network-aware filtering</text><text fill="#96DDF2" font-family="sans-serif" font-size="13" lengthAdjust="spacing" textLength="210" x="1261" y="194.445">&#8226; Event types: ENTERED, EXITED,</text><text fill="#96DDF2" font-family="sans-serif" font-size="13" lengthAdjust="spacing" textLength="151" x="1269" y="209.5778">RANK_UP, RANK_DOWN</text><text fill="#96DDF2" font-family="sans-serif" font-size="13" lengthAdjust="spacing" textLength="4" x="1261" y="224.7106">&#160;</text><text fill="#0BE784" font-family="sans-serif" font-size="13" lengthAdjust="spacing" textLength="147" x="1261" y="239.8435">480x storage efficiency</text></g><g id="elem_GMN17"><path d="M1767,139.5469 L1767,178.3769 L1731.8,182.3769 L1767,186.3769 L1767,225.2109 A0,0 0 0 0 1767,225.2109 L2012,225.2109 A0,0 0 0 0 2012,225.2109 L2012,149.5469 L2002,139.5469 L1767,139.5469 A0,0 0 0 0 1767,139.5469 " fill="#231B3D" style="stroke:#3F2C70;stroke-width:0.5;"/><path d="M2002,139.5469 L2002,149.5469 L2012,149.5469 L2002,139.5469 " fill="#231B3D" style="stroke:#3F2C70;stroke-width:0.5;"/><text fill="#0BE784" font-family="sans-serif" font-size="13" lengthAdjust="spacing" textLength="149" x="1773" y="156.6138">Dynamic Configuration:</text><text fill="#96DDF2" font-family="sans-serif" font-size="13" lengthAdjust="spacing" textLength="224" x="1773" y="171.7466">&#8226; Default HVA threshold: 100K XLM</text><text fill="#96DDF2" font-family="sans-serif" font-size="13" lengthAdjust="spacing" textLength="154" x="1773" y="186.8794">&#8226; Supported thresholds:</text><text fill="#96DDF2" font-family="sans-serif" font-size="13" lengthAdjust="spacing" textLength="203" x="1781" y="202.0122">10K, 50K, 100K, 500K, 750K, 1M</text><text fill="#96DDF2" font-family="sans-serif" font-size="13" lengthAdjust="spacing" textLength="179" x="1773" y="217.145">&#8226; Admins can customize list</text></g><!--SRC=[jLTjRzis4FxkNt70FYH1Oo1sqgGpjWAEvRP66iUrqwt3C10qHKbS9D8bgIRUKA2_PJzjlsH7KR8TMIgojo-EUJpUotDtpyNcJiWLrJI39MLtiLQv34SgLHg-wP_tWhFd7RFH27b4yzI-KjAMAj-U1y6hVcT7XwNK6FYz0t1PjzSxEGdwf-v6wP3hKdfoERvuSORIVRC0GwtLVQNO6_KkpZkVTxr9PNcpi_vfx_8qg3ixZVhiugJH6TgrmgOSlcDEFYW3UpaqLbC8Bk5mX9bH6Mfw10kMy8nsEZxRXULfIlMGCGp0BZZLB1bHL2b2gzbx1iQh4-hruN1sTTIa9xczL_gEI9hnkf8FkZ16RMxmvXamvp8alnebYpF6Pad4RI6bjf1fRlMQ57xz6ysftLxdgt1xx7PteohGVzdhTnELQ-_BOVO8WP6pfYeWtWh9QTm2WWXRyzx3P_GKV5gKjWdMLNOWzFwOZxxoMm1IYuNKy4fKnaceCYeyv0zfHfOqfPBnuYmCIJxHugkbiIbDRYfMhuRCCy8IaOQLFzDIXWfQh1Q5Us4JUFF34AAKndirgReI_VFn0sUv5Kh-VutP27nheJ4cWaalkMwj3jDA5fxguF4g6M85LY4hfSWOccGSHpNcJ-lfcLZn504577I6rBA3uJMLQ2RZI1OOnXjEKuJwx_Rp4v3O9FcL9ltl4o_poPGKsFUF4iTsmewH8Gf72PNnlwGoLjWeuctDa7z2c8bThtpq2gT0Ktdd1uFVRm_kPdV8tENksIaIxx4ubtUbYAnOEMmxNRmPNfjeRXBqiC-EJGXUupeKtSsZmZL21eamYEXwY-UbYD_bNA-hNXif6Ocu6LHMt97zZjf0jHJnHsUDS4cNAI-3LKZtgSY49Rdn8YD-uwKeMnQILUcVP2hqMIC_rR9s4fElLagxt3TtfWGJzmbnXhSxXrYR4hSMp3_QASCm4xBhiywrImWCjnPnD0x0OiTh4ISMLFILNRjT-JL4RrROTnXm2Au4Wfl1FgQHI2tNXtxA217o-vzH2U1WDfu6a-dhWsD_d4p9R7xpUZvUB2hHV4mcqtVl9_EV3b3mor67ox3unwGbzEObsHfzu2X-WU0otX3tJ8kCwlMW_ghgDwWQRl_fdr_-W388lqSEcSeosesKpgZ5YXsrl35O7TDyL-O6GaQgHSEjDzXPRmqwRfVXQeWT8m7iwup3d557W3GTm70ssIRP1lq-dRNYxKVwTZFIj-LI63J7MboRpU2lS9FjJbF3YqSqWrERvfbirfnwXkhIUwev-1Rrc3GeZnrzWgDFCu3nz7Oy7mV7CFumkSM_-qy0viFf5Na_E_PVWfiVfu_1Bl4uUt7o08xDN9VoA19CSCdMhL2tC5rxVw-HW0M3KJN_hh0jO0V-1uXla0h20U0FYoluyFQw-T6YehBjaoO603HpTGpFtOSpwBwwpmilQJ5US9T16fJ0SaJ9yGoaoFvRVFu2]--></g></svg>