<?xml version="1.0" encoding="us-ascii" standalone="no"?><svg xmlns="http://www.w3.org/2000/svg" xmlns:xlink="http://www.w3.org/1999/xlink" contentStyleType="text/css" height="278px" preserveAspectRatio="none" style="width:1436px;height:278px;background:#261D45;" version="1.1" viewBox="0 0 1436 278" width="1436px" zoomAndPan="magnify"><defs/><g><rect fill="#261D45" height="278" style="stroke:none;stroke-width:1.0;" width="1436" x="0" y="0"/><text fill="#0BE784" font-family="sans-serif" font-size="14" font-weight="bold" lengthAdjust="spacing" textLength="235" x="593.5" y="22.9951">Astra DB (Cassandra) Schema</text><!--class StellarAccountSearchCache--><g id="elem_StellarAccountSearchCache"><rect codeLine="20" fill="#100D23" height="194.6719" id="StellarAccountSearchCache" rx="2.5" ry="2.5" style="stroke:#0BE784;stroke-width:0.5;" width="223" x="7" y="60.5969"/><ellipse cx="22" cy="76.5969" fill="#ADD1B2" rx="11" ry="11" style="stroke:#181818;stroke-width:1.0;"/><path d="M24.9688,82.2375 Q24.3906,82.5344 23.75,82.675 Q23.1094,82.8313 22.4063,82.8313 Q19.9063,82.8313 18.5781,81.1906 Q17.2656,79.5344 17.2656,76.4094 Q17.2656,73.2844 18.5781,71.6281 Q19.9063,69.9719 22.4063,69.9719 Q23.1094,69.9719 23.75,70.1281 Q24.4063,70.2844 24.9688,70.5813 L24.9688,73.3 Q24.3438,72.7219 23.75,72.4563 Q23.1563,72.175 22.5313,72.175 Q21.1875,72.175 20.5,73.2531 Q19.8125,74.3156 19.8125,76.4094 Q19.8125,78.5031 20.5,79.5813 Q21.1875,80.6438 22.5313,80.6438 Q23.1563,80.6438 23.75,80.3781 Q24.3438,80.0969 24.9688,79.5188 L24.9688,82.2375 Z " fill="#96DDF2"/><text fill="#96DDF2" font-family="sans-serif" font-size="14" lengthAdjust="spacing" textLength="191" x="36" y="81.4436">StellarAccountSearchCache</text><line style="stroke:#0BE784;stroke-width:0.5;" x1="8" x2="229" y1="92.5969" y2="92.5969"/><text fill="#0BE784" font-family="sans-serif" font-size="14" lengthAdjust="spacing" textLength="152" x="27" y="109.592">+ stellar_account (PK)</text><text fill="#0BE784" font-family="sans-serif" font-size="14" lengthAdjust="spacing" textLength="150" x="27" y="125.8889">+ network_name (PK)</text><text fill="#96DDF2" font-family="sans-serif" font-size="14" lengthAdjust="spacing" textLength="59" x="27" y="142.1857">+ status</text><ellipse cx="18" cy="155.1359" fill="none" rx="3" ry="3" style="stroke:#038048;stroke-width:1.0;"/><text fill="#96DDF2" font-family="sans-serif" font-size="14" lengthAdjust="spacing" textLength="87" x="27" y="158.4826">cached_json</text><ellipse cx="18" cy="171.4328" fill="none" rx="3" ry="3" style="stroke:#038048;stroke-width:1.0;"/><text fill="#96DDF2" font-family="sans-serif" font-size="14" lengthAdjust="spacing" textLength="104" x="27" y="174.7795">last_fetched_at</text><ellipse cx="18" cy="187.7297" fill="none" rx="3" ry="3" style="stroke:#038048;stroke-width:1.0;"/><text fill="#96DDF2" font-family="sans-serif" font-size="14" lengthAdjust="spacing" textLength="78" x="27" y="191.0764">retry_count</text><ellipse cx="18" cy="204.0266" fill="none" rx="3" ry="3" style="stroke:#038048;stroke-width:1.0;"/><text fill="#96DDF2" font-family="sans-serif" font-size="14" lengthAdjust="spacing" textLength="73" x="27" y="207.3732">created_at</text><ellipse cx="18" cy="220.3234" fill="none" rx="3" ry="3" style="stroke:#038048;stroke-width:1.0;"/><text fill="#96DDF2" font-family="sans-serif" font-size="14" lengthAdjust="spacing" textLength="141" x="27" y="223.6701">updated_at&lt;/color&gt;</text><line style="stroke:#0BE784;stroke-width:1.0;" x1="8" x2="229" y1="230.9719" y2="230.9719"/><text fill="#01C176" font-family="sans-serif" font-size="14" lengthAdjust="spacing" textLength="101" x="13" y="247.967">12-hour cache</text></g><!--class StellarCreatorAccountLineage--><g id="elem_StellarCreatorAccountLineage"><rect codeLine="33" fill="#100D23" height="227.2656" id="StellarCreatorAccountLineage" rx="2.5" ry="2.5" style="stroke:#0BE784;stroke-width:0.5;" width="236" x="919.5" y="44.2969"/><ellipse cx="934.5" cy="60.2969" fill="#ADD1B2" rx="11" ry="11" style="stroke:#181818;stroke-width:1.0;"/><path d="M937.4688,65.9375 Q936.8906,66.2344 936.25,66.375 Q935.6094,66.5313 934.9063,66.5313 Q932.4063,66.5313 931.0781,64.8906 Q929.7656,63.2344 929.7656,60.1094 Q929.7656,56.9844 931.0781,55.3281 Q932.4063,53.6719 934.9063,53.6719 Q935.6094,53.6719 936.25,53.8281 Q936.9063,53.9844 937.4688,54.2813 L937.4688,57 Q936.8438,56.4219 936.25,56.1563 Q935.6563,55.875 935.0313,55.875 Q933.6875,55.875 933,56.9531 Q932.3125,58.0156 932.3125,60.1094 Q932.3125,62.2031 933,63.2813 Q933.6875,64.3438 935.0313,64.3438 Q935.6563,64.3438 936.25,64.0781 Q936.8438,63.7969 937.4688,63.2188 L937.4688,65.9375 Z " fill="#96DDF2"/><text fill="#96DDF2" font-family="sans-serif" font-size="14" lengthAdjust="spacing" textLength="204" x="948.5" y="65.1436">StellarCreatorAccountLineage</text><line style="stroke:#0BE784;stroke-width:0.5;" x1="920.5" x2="1154.5" y1="76.2969" y2="76.2969"/><text fill="#0BE784" font-family="sans-serif" font-size="14" lengthAdjust="spacing" textLength="60" x="939.5" y="93.292">+ id (PK)</text><text fill="#0BE784" font-family="sans-serif" font-size="14" lengthAdjust="spacing" textLength="153" x="939.5" y="109.5889">+ stellar_account (CK)</text><text fill="#0BE784" font-family="sans-serif" font-size="14" lengthAdjust="spacing" textLength="151" x="939.5" y="125.8857">+ network_name (CK)</text><text fill="#0BE784" font-family="sans-serif" font-size="14" lengthAdjust="spacing" textLength="122" x="939.5" y="142.1826">+ created_at (CK)</text><text fill="#96DDF2" font-family="sans-serif" font-size="14" lengthAdjust="spacing" textLength="176" x="939.5" y="158.4795">+ stellar_creator_account</text><ellipse cx="930.5" cy="171.4297" fill="none" rx="3" ry="3" style="stroke:#038048;stroke-width:1.0;"/><text fill="#96DDF2" font-family="sans-serif" font-size="14" lengthAdjust="spacing" textLength="184" x="939.5" y="174.7764">stellar_account_created_at</text><ellipse cx="930.5" cy="187.7266" fill="none" rx="3" ry="3" style="stroke:#038048;stroke-width:1.0;"/><text fill="#96DDF2" font-family="sans-serif" font-size="14" lengthAdjust="spacing" textLength="98" x="939.5" y="191.0732">home_domain</text><ellipse cx="930.5" cy="204.0234" fill="none" rx="3" ry="3" style="stroke:#038048;stroke-width:1.0;"/><text fill="#96DDF2" font-family="sans-serif" font-size="14" lengthAdjust="spacing" textLength="84" x="939.5" y="207.3701">xlm_balance</text><ellipse cx="930.5" cy="220.3203" fill="none" rx="3" ry="3" style="stroke:#038048;stroke-width:1.0;"/><text fill="#96DDF2" font-family="sans-serif" font-size="14" lengthAdjust="spacing" textLength="43" x="939.5" y="223.667">status</text><ellipse cx="930.5" cy="236.6172" fill="none" rx="3" ry="3" style="stroke:#038048;stroke-width:1.0;"/><text fill="#96DDF2" font-family="sans-serif" font-size="14" lengthAdjust="spacing" textLength="141" x="939.5" y="239.9639">retry_count&lt;/color&gt;</text><line style="stroke:#0BE784;stroke-width:1.0;" x1="920.5" x2="1154.5" y1="247.2656" y2="247.2656"/><text fill="#01C176" font-family="sans-serif" font-size="14" lengthAdjust="spacing" textLength="88" x="925.5" y="264.2607">Lineage data</text></g><!--class StellarAccountStageExecution--><g id="elem_StellarAccountStageExecution"><rect codeLine="48" fill="#100D23" height="210.9688" id="StellarAccountStageExecution" rx="2.5" ry="2.5" style="stroke:#0BE784;stroke-width:0.5;" width="239" x="1190" y="52.4469"/><ellipse cx="1205" cy="68.4469" fill="#ADD1B2" rx="11" ry="11" style="stroke:#181818;stroke-width:1.0;"/><path d="M1207.9688,74.0875 Q1207.3906,74.3844 1206.75,74.525 Q1206.1094,74.6813 1205.4063,74.6813 Q1202.9063,74.6813 1201.5781,73.0406 Q1200.2656,71.3844 1200.2656,68.2594 Q1200.2656,65.1344 1201.5781,63.4781 Q1202.9063,61.8219 1205.4063,61.8219 Q1206.1094,61.8219 1206.75,61.9781 Q1207.4063,62.1344 1207.9688,62.4313 L1207.9688,65.15 Q1207.3438,64.5719 1206.75,64.3063 Q1206.1563,64.025 1205.5313,64.025 Q1204.1875,64.025 1203.5,65.1031 Q1202.8125,66.1656 1202.8125,68.2594 Q1202.8125,70.3531 1203.5,71.4313 Q1204.1875,72.4938 1205.5313,72.4938 Q1206.1563,72.4938 1206.75,72.2281 Q1207.3438,71.9469 1207.9688,71.3688 L1207.9688,74.0875 Z " fill="#96DDF2"/><text fill="#96DDF2" font-family="sans-serif" font-size="14" lengthAdjust="spacing" textLength="207" x="1219" y="73.2936">StellarAccountStageExecution</text><line style="stroke:#0BE784;stroke-width:0.5;" x1="1191" x2="1428" y1="84.4469" y2="84.4469"/><text fill="#0BE784" font-family="sans-serif" font-size="14" lengthAdjust="spacing" textLength="152" x="1210" y="101.442">+ stellar_account (PK)</text><text fill="#0BE784" font-family="sans-serif" font-size="14" lengthAdjust="spacing" textLength="150" x="1210" y="117.7389">+ network_name (PK)</text><text fill="#0BE784" font-family="sans-serif" font-size="14" lengthAdjust="spacing" textLength="121" x="1210" y="134.0357">+ created_at (PK)</text><text fill="#0BE784" font-family="sans-serif" font-size="14" lengthAdjust="spacing" textLength="149" x="1210" y="150.3326">+ stage_number (CK)</text><text fill="#96DDF2" font-family="sans-serif" font-size="14" lengthAdjust="spacing" textLength="93" x="1210" y="166.6295">+ cron_name</text><ellipse cx="1201" cy="179.5797" fill="none" rx="3" ry="3" style="stroke:#038048;stroke-width:1.0;"/><text fill="#96DDF2" font-family="sans-serif" font-size="14" lengthAdjust="spacing" textLength="43" x="1210" y="182.9264">status</text><ellipse cx="1201" cy="195.8766" fill="none" rx="3" ry="3" style="stroke:#038048;stroke-width:1.0;"/><text fill="#96DDF2" font-family="sans-serif" font-size="14" lengthAdjust="spacing" textLength="133" x="1210" y="199.2232">execution_time_ms</text><ellipse cx="1201" cy="212.1734" fill="none" rx="3" ry="3" style="stroke:#038048;stroke-width:1.0;"/><text fill="#96DDF2" font-family="sans-serif" font-size="14" lengthAdjust="spacing" textLength="104" x="1210" y="215.5201">error_message</text><ellipse cx="1201" cy="228.4703" fill="none" rx="3" ry="3" style="stroke:#038048;stroke-width:1.0;"/><text fill="#96DDF2" font-family="sans-serif" font-size="14" lengthAdjust="spacing" textLength="141" x="1210" y="231.817">updated_at&lt;/color&gt;</text><line style="stroke:#0BE784;stroke-width:1.0;" x1="1191" x2="1428" y1="239.1188" y2="239.1188"/><text fill="#01C176" font-family="sans-serif" font-size="14" lengthAdjust="spacing" textLength="113" x="1196" y="256.1139">Pipeline tracking</text></g><!--class ManagementCronHealth--><g id="elem_ManagementCronHealth"><rect codeLine="62" fill="#100D23" height="178.375" id="ManagementCronHealth" rx="2.5" ry="2.5" style="stroke:#0BE784;stroke-width:0.5;" width="200" x="443.5" y="68.7469"/><ellipse cx="458.5" cy="84.7469" fill="#ADD1B2" rx="11" ry="11" style="stroke:#181818;stroke-width:1.0;"/><path d="M461.4688,90.3875 Q460.8906,90.6844 460.25,90.825 Q459.6094,90.9813 458.9063,90.9813 Q456.4063,90.9813 455.0781,89.3406 Q453.7656,87.6844 453.7656,84.5594 Q453.7656,81.4344 455.0781,79.7781 Q456.4063,78.1219 458.9063,78.1219 Q459.6094,78.1219 460.25,78.2781 Q460.9063,78.4344 461.4688,78.7313 L461.4688,81.45 Q460.8438,80.8719 460.25,80.6063 Q459.6563,80.325 459.0313,80.325 Q457.6875,80.325 457,81.4031 Q456.3125,82.4656 456.3125,84.5594 Q456.3125,86.6531 457,87.7313 Q457.6875,88.7938 459.0313,88.7938 Q459.6563,88.7938 460.25,88.5281 Q460.8438,88.2469 461.4688,87.6688 L461.4688,90.3875 Z " fill="#96DDF2"/><text fill="#96DDF2" font-family="sans-serif" font-size="14" lengthAdjust="spacing" textLength="168" x="472.5" y="89.5936">ManagementCronHealth</text><line style="stroke:#0BE784;stroke-width:0.5;" x1="444.5" x2="642.5" y1="100.7469" y2="100.7469"/><text fill="#0BE784" font-family="sans-serif" font-size="14" lengthAdjust="spacing" textLength="60" x="463.5" y="117.742">+ id (PK)</text><text fill="#0BE784" font-family="sans-serif" font-size="14" lengthAdjust="spacing" textLength="121" x="463.5" y="134.0389">+ created_at (PK)</text><text fill="#0BE784" font-family="sans-serif" font-size="14" lengthAdjust="spacing" textLength="126" x="463.5" y="150.3357">+ cron_name (CK)</text><text fill="#96DDF2" font-family="sans-serif" font-size="14" lengthAdjust="spacing" textLength="59" x="463.5" y="166.6326">+ status</text><ellipse cx="454.5" cy="179.5828" fill="none" rx="3" ry="3" style="stroke:#038048;stroke-width:1.0;"/><text fill="#96DDF2" font-family="sans-serif" font-size="14" lengthAdjust="spacing" textLength="133" x="463.5" y="182.9295">execution_time_ms</text><ellipse cx="454.5" cy="195.8797" fill="none" rx="3" ry="3" style="stroke:#038048;stroke-width:1.0;"/><text fill="#96DDF2" font-family="sans-serif" font-size="14" lengthAdjust="spacing" textLength="104" x="463.5" y="199.2264">error_message</text><ellipse cx="454.5" cy="212.1766" fill="none" rx="3" ry="3" style="stroke:#038048;stroke-width:1.0;"/><text fill="#96DDF2" font-family="sans-serif" font-size="14" lengthAdjust="spacing" textLength="141" x="463.5" y="215.5232">updated_at&lt;/color&gt;</text><line style="stroke:#0BE784;stroke-width:1.0;" x1="444.5" x2="642.5" y1="222.825" y2="222.825"/><text fill="#01C176" font-family="sans-serif" font-size="14" lengthAdjust="spacing" textLength="122" x="449.5" y="239.8201">Health monitoring</text></g><g id="elem_GMN6"><path d="M265,130.2369 L265,153.9369 L230.48,157.9369 L265,161.9369 L265,185.6353 A0,0 0 0 0 265,185.6353 L408,185.6353 A0,0 0 0 0 408,185.6353 L408,140.2369 L398,130.2369 L265,130.2369 A0,0 0 0 0 265,130.2369 " fill="#231B3D" style="stroke:#3F2C70;stroke-width:0.5;"/><path d="M398,130.2369 L398,140.2369 L408,140.2369 L398,130.2369 " fill="#231B3D" style="stroke:#3F2C70;stroke-width:0.5;"/><text fill="#0BE784" font-family="sans-serif" font-size="13" lengthAdjust="spacing" textLength="122" x="271" y="147.3038">Optimized Queries:</text><text fill="#96DDF2" font-family="sans-serif" font-size="13" lengthAdjust="spacing" textLength="114" x="271" y="162.4366">filter(status__in=[</text><text fill="#96DDF2" font-family="sans-serif" font-size="13" lengthAdjust="spacing" textLength="67" x="271" y="177.5694">])&lt;/color&gt;</text></g><g id="elem_GMN9"><path d="M678.5,115.1069 L678.5,153.9369 L643.91,157.9369 L678.5,161.9369 L678.5,200.7709 A0,0 0 0 0 678.5,200.7709 L884.5,200.7709 A0,0 0 0 0 884.5,200.7709 L884.5,125.1069 L874.5,115.1069 L678.5,115.1069 A0,0 0 0 0 678.5,115.1069 " fill="#231B3D" style="stroke:#3F2C70;stroke-width:0.5;"/><path d="M874.5,115.1069 L874.5,125.1069 L884.5,125.1069 L874.5,115.1069 " fill="#231B3D" style="stroke:#3F2C70;stroke-width:0.5;"/><text fill="#0BE784" font-family="sans-serif" font-size="13" lengthAdjust="spacing" textLength="107" x="684.5" y="132.1738">Health Statuses:</text><text fill="#96DDF2" font-family="sans-serif" font-size="13" lengthAdjust="spacing" textLength="70" x="684.5" y="147.3066">&#8226; HEALTHY</text><text fill="#E5526F" font-family="sans-serif" font-size="13" lengthAdjust="spacing" textLength="185" x="684.5" y="162.4394">&#8226; UNHEALTHY_RATE_LIMITED</text><text fill="#96DDF2" font-family="sans-serif" font-size="13" lengthAdjust="spacing" textLength="4" x="684.5" y="177.5722">&#160;</text><text fill="#96DDF2" font-family="sans-serif" font-size="13" lengthAdjust="spacing" textLength="170" x="684.5" y="192.705">Cron skips when unhealthy</text></g><!--SRC=[lLNHRjem57tdAopj0QeE3KAXMzKX0KbBj9PIQ1-gQRACSo4UYOqSHxIRAkrRzcdxaXadWIX0MITjZxu-llUSSszkeZdZ2o99Y2Q4pcTInDphYK18zCPgrUsJPYbQ8poOaZXG5uAh5FAXPTiNLYc7eG698lIzX52tcAzUgzbMOtKZf0SoZTQwpkdx4ntTJejGHqgnp83rNlsqLNhEL-D2mUvYLgFURTZ5OesfHKzhEulfl8gf0D0vNSNFKcBjJgGaGNONLNfQ6U6U94TeJ7q8oVax0ssNIedgiO8W8B93gIQYna0azNj4Gmt5GjvZ52LmJ18ygWm_7QrJxi1pK4iXvvYJ4FQ14p4cEL5nf6-E4LrHyF3NI71prbmLde8oKQ9CJ8AIJzZmIDv886fp7I-yz9YhMQtcMPhkjEjMrHUnJ6gkiSy5Xtghx28pwefn8BCz9Z7le2zRFlPUu-C1yCQ8VT2SvGaFcgZB-1W32nnnmLzVX80z4HAMjEWn2F6418HJI9-lkvdhr85UPBxgrf6zhSY6LMcaymWqLapm_pUlEtq-s6_D5VCud80ys1Gg1JSCYZv29XOhfiqFqwXUE1A7eB_q6Rnkz8Ti0O6s7EbzGVM6ccrxVasuJXk2tZsQLXz8eFo_7ljNEBOsuGzc-DyPbEeD1MVwyoWOP3QvP3DV8J5zOPDk5dj1vSr2qsJVm4EtCKW6qTb-dLCMA92LH2p6Z7_yh448bOVEm7O7b-MtoT4TuE7evdBaZCTPQEHWTt1xxuuUoZhmPMCcSC_yZefITlPyhuhqVcoOlQZXru-VgEzqhkxw3pj0JhDfjIuCw7wGml2eS-VWA_VQlNFit9ljt2kcIFzb5n5Q-i1Hp7t3wsbRxMy0]--></g></svg>