<?xml version="1.0" encoding="us-ascii" standalone="no"?><svg xmlns="http://www.w3.org/2000/svg" xmlns:xlink="http://www.w3.org/1999/xlink" contentStyleType="text/css" height="752px" preserveAspectRatio="none" style="width:2814px;height:752px;background:#261D45;" version="1.1" viewBox="0 0 2814 752" width="2814px" zoomAndPan="magnify"><defs/><g><rect fill="#261D45" height="752" style="stroke:none;stroke-width:1.0;" width="2814" x="0" y="0"/><text fill="#0BE784" font-family="sans-serif" font-size="14" font-weight="bold" lengthAdjust="spacing" textLength="224" x="1288" y="22.9951">Frontend &amp; API Architecture</text><!--cluster Frontend Components--><g id="cluster_Frontend Components"><path d="M623.5,182.0969 L801.5,182.0969 A3.75,3.75 0 0 1 804,184.5969 L811,204.3937 L1298.5,204.3937 A2.5,2.5 0 0 1 1301,206.8937 L1301,309.4869 A2.5,2.5 0 0 1 1298.5,311.9869 L623.5,311.9869 A2.5,2.5 0 0 1 621,309.4869 L621,184.5969 A2.5,2.5 0 0 1 623.5,182.0969 " fill="#231B3D" style="stroke:#3F2C70;stroke-width:1.5;"/><line style="stroke:#3F2C70;stroke-width:1.5;" x1="621" x2="811" y1="204.3937" y2="204.3937"/><text fill="#96DDF2" font-family="sans-serif" font-size="14" font-weight="bold" lengthAdjust="spacing" textLength="177" x="625" y="197.092">Frontend Components</text></g><!--cluster API Endpoints--><g id="cluster_API Endpoints"><path d="M8.5,419.6169 L117.5,419.6169 A3.75,3.75 0 0 1 120,422.1169 L127,441.9138 L1489.5,441.9138 A2.5,2.5 0 0 1 1492,444.4138 L1492,530.7069 A2.5,2.5 0 0 1 1489.5,533.2069 L8.5,533.2069 A2.5,2.5 0 0 1 6,530.7069 L6,422.1169 A2.5,2.5 0 0 1 8.5,419.6169 " fill="#231B3D" style="stroke:#3F2C70;stroke-width:1.5;"/><line style="stroke:#3F2C70;stroke-width:1.5;" x1="6" x2="127" y1="441.9138" y2="441.9138"/><text fill="#96DDF2" font-family="sans-serif" font-size="14" font-weight="bold" lengthAdjust="spacing" textLength="108" x="10" y="434.612">API Endpoints</text></g><!--entity Vue--><g id="elem_Vue"><rect fill="#100D23" height="62.5938" rx="2.5" ry="2.5" style="stroke:#0BE784;stroke-width:0.5;" width="116" x="637" y="225.2369"/><rect fill="#100D23" height="10" style="stroke:#0BE784;stroke-width:0.5;" width="15" x="733" y="230.2369"/><rect fill="#100D23" height="2" style="stroke:#0BE784;stroke-width:0.5;" width="4" x="731" y="232.2369"/><rect fill="#100D23" height="2" style="stroke:#0BE784;stroke-width:0.5;" width="4" x="731" y="236.2369"/><text fill="#96DDF2" font-family="sans-serif" font-size="14" lengthAdjust="spacing" textLength="42" x="652" y="258.232">Vue.js</text><text fill="#96DDF2" font-family="sans-serif" font-size="14" lengthAdjust="spacing" textLength="76" x="652" y="274.5289">Reactive UI</text></g><!--entity D3--><g id="elem_D3"><rect fill="#100D23" height="78.8906" rx="2.5" ry="2.5" style="stroke:#0BE784;stroke-width:0.5;" width="173" x="788.5" y="217.0969"/><rect fill="#100D23" height="10" style="stroke:#0BE784;stroke-width:0.5;" width="15" x="941.5" y="222.0969"/><rect fill="#100D23" height="2" style="stroke:#0BE784;stroke-width:0.5;" width="4" x="939.5" y="224.0969"/><rect fill="#100D23" height="2" style="stroke:#0BE784;stroke-width:0.5;" width="4" x="939.5" y="228.0969"/><text fill="#96DDF2" font-family="sans-serif" font-size="14" lengthAdjust="spacing" textLength="35" x="803.5" y="250.092">D3.js</text><text fill="#96DDF2" font-family="sans-serif" font-size="14" lengthAdjust="spacing" textLength="110" x="803.5" y="266.3889">Radial/Tidy Tree</text><text fill="#96DDF2" font-family="sans-serif" font-size="14" lengthAdjust="spacing" textLength="133" x="803.5" y="282.6857">(comma-formatted)</text></g><!--entity Bootstrap--><g id="elem_Bootstrap"><rect fill="#100D23" height="62.5938" rx="2.5" ry="2.5" style="stroke:#0BE784;stroke-width:0.5;" width="121" x="996.5" y="225.2369"/><rect fill="#100D23" height="10" style="stroke:#0BE784;stroke-width:0.5;" width="15" x="1097.5" y="230.2369"/><rect fill="#100D23" height="2" style="stroke:#0BE784;stroke-width:0.5;" width="4" x="1095.5" y="232.2369"/><rect fill="#100D23" height="2" style="stroke:#0BE784;stroke-width:0.5;" width="4" x="1095.5" y="236.2369"/><text fill="#96DDF2" font-family="sans-serif" font-size="14" lengthAdjust="spacing" textLength="68" x="1011.5" y="258.232">Bootstrap</text><text fill="#96DDF2" font-family="sans-serif" font-size="14" lengthAdjust="spacing" textLength="81" x="1011.5" y="274.5289">Responsive</text></g><!--entity QueryBuilder--><g id="elem_QueryBuilder"><rect fill="#100D23" height="62.5938" rx="2.5" ry="2.5" style="stroke:#0BE784;stroke-width:0.5;" width="133" x="1152.5" y="225.2369"/><rect fill="#100D23" height="10" style="stroke:#0BE784;stroke-width:0.5;" width="15" x="1265.5" y="230.2369"/><rect fill="#100D23" height="2" style="stroke:#0BE784;stroke-width:0.5;" width="4" x="1263.5" y="232.2369"/><rect fill="#100D23" height="2" style="stroke:#0BE784;stroke-width:0.5;" width="4" x="1263.5" y="236.2369"/><text fill="#96DDF2" font-family="sans-serif" font-size="14" lengthAdjust="spacing" textLength="93" x="1167.5" y="258.232">Query Builder</text><text fill="#96DDF2" font-family="sans-serif" font-size="14" lengthAdjust="spacing" textLength="42" x="1167.5" y="274.5289">Vue.js</text></g><!--entity PendingAPI--><g id="elem_PendingAPI"><rect fill="#100D23" height="62.5938" rx="2.5" ry="2.5" style="stroke:#0BE784;stroke-width:0.5;" width="215" x="551.5" y="454.6169"/><rect fill="#100D23" height="10" style="stroke:#0BE784;stroke-width:0.5;" width="15" x="746.5" y="459.6169"/><rect fill="#100D23" height="2" style="stroke:#0BE784;stroke-width:0.5;" width="4" x="744.5" y="461.6169"/><rect fill="#100D23" height="2" style="stroke:#0BE784;stroke-width:0.5;" width="4" x="744.5" y="465.6169"/><text fill="#96DDF2" font-family="sans-serif" font-size="14" lengthAdjust="spacing" textLength="161" x="566.5" y="487.612">/api/pending-accounts/</text><text fill="#96DDF2" font-family="sans-serif" font-size="14" lengthAdjust="spacing" textLength="175" x="566.5" y="503.9089">(30s cache, auto-refresh)</text></g><!--entity StagesAPI--><g id="elem_StagesAPI"><rect fill="#100D23" height="62.5938" rx="2.5" ry="2.5" style="stroke:#0BE784;stroke-width:0.5;" width="195" x="801.5" y="454.6169"/><rect fill="#100D23" height="10" style="stroke:#0BE784;stroke-width:0.5;" width="15" x="976.5" y="459.6169"/><rect fill="#100D23" height="2" style="stroke:#0BE784;stroke-width:0.5;" width="4" x="974.5" y="461.6169"/><rect fill="#100D23" height="2" style="stroke:#0BE784;stroke-width:0.5;" width="4" x="974.5" y="465.6169"/><text fill="#96DDF2" font-family="sans-serif" font-size="14" lengthAdjust="spacing" textLength="155" x="816.5" y="487.612">/api/stage-executions/</text><text fill="#96DDF2" font-family="sans-serif" font-size="14" lengthAdjust="spacing" textLength="116" x="816.5" y="503.9089">(5s auto-refresh)</text></g><!--entity SearchAPI--><g id="elem_SearchAPI"><rect fill="#100D23" height="62.5938" rx="2.5" ry="2.5" style="stroke:#0BE784;stroke-width:0.5;" width="219" x="22.5" y="454.6169"/><rect fill="#100D23" height="10" style="stroke:#0BE784;stroke-width:0.5;" width="15" x="221.5" y="459.6169"/><rect fill="#100D23" height="2" style="stroke:#0BE784;stroke-width:0.5;" width="4" x="219.5" y="461.6169"/><rect fill="#100D23" height="2" style="stroke:#0BE784;stroke-width:0.5;" width="4" x="219.5" y="465.6169"/><text fill="#96DDF2" font-family="sans-serif" font-size="14" lengthAdjust="spacing" textLength="57" x="37.5" y="487.612">/search/</text><text fill="#96DDF2" font-family="sans-serif" font-size="14" lengthAdjust="spacing" textLength="179" x="37.5" y="503.9089">(Main search with lineage)</text></g><!--entity HVAAPI--><g id="elem_HVAAPI"><rect fill="#100D23" height="62.5938" rx="2.5" ry="2.5" style="stroke:#0BE784;stroke-width:0.5;" width="240" x="277" y="454.6169"/><rect fill="#100D23" height="10" style="stroke:#0BE784;stroke-width:0.5;" width="15" x="497" y="459.6169"/><rect fill="#100D23" height="2" style="stroke:#0BE784;stroke-width:0.5;" width="4" x="495" y="461.6169"/><rect fill="#100D23" height="2" style="stroke:#0BE784;stroke-width:0.5;" width="4" x="495" y="465.6169"/><text fill="#96DDF2" font-family="sans-serif" font-size="14" lengthAdjust="spacing" textLength="184" x="292" y="487.612">/web/high-value-accounts/</text><text fill="#96DDF2" font-family="sans-serif" font-size="14" lengthAdjust="spacing" textLength="200" x="292" y="503.9089">(Multi-threshold leaderboard)</text></g><!--entity QueryBuilderAPI--><g id="elem_QueryBuilderAPI"><rect fill="#100D23" height="62.5938" rx="2.5" ry="2.5" style="stroke:#0BE784;stroke-width:0.5;" width="224" x="1252" y="454.6169"/><rect fill="#100D23" height="10" style="stroke:#0BE784;stroke-width:0.5;" width="15" x="1456" y="459.6169"/><rect fill="#100D23" height="2" style="stroke:#0BE784;stroke-width:0.5;" width="4" x="1454" y="461.6169"/><rect fill="#100D23" height="2" style="stroke:#0BE784;stroke-width:0.5;" width="4" x="1454" y="465.6169"/><text fill="#96DDF2" font-family="sans-serif" font-size="14" lengthAdjust="spacing" textLength="135" x="1267" y="487.612">/web/query-builder/</text><text fill="#96DDF2" font-family="sans-serif" font-size="14" lengthAdjust="spacing" textLength="184" x="1267" y="503.9089">(10 pre-defined + custom)</text></g><!--entity LineageAPI--><g id="elem_LineageAPI"><rect fill="#100D23" height="62.5938" rx="2.5" ry="2.5" style="stroke:#0BE784;stroke-width:0.5;" width="186" x="1031" y="454.6169"/><rect fill="#100D23" height="10" style="stroke:#0BE784;stroke-width:0.5;" width="15" x="1197" y="459.6169"/><rect fill="#100D23" height="2" style="stroke:#0BE784;stroke-width:0.5;" width="4" x="1195" y="461.6169"/><rect fill="#100D23" height="2" style="stroke:#0BE784;stroke-width:0.5;" width="4" x="1195" y="465.6169"/><text fill="#96DDF2" font-family="sans-serif" font-size="14" lengthAdjust="spacing" textLength="146" x="1046" y="487.612">/api/account-lineage/</text><text fill="#96DDF2" font-family="sans-serif" font-size="14" lengthAdjust="spacing" textLength="127" x="1046" y="503.9089">(No full table scan)</text></g><!--entity User--><g id="elem_User"><ellipse cx="695" cy="51.2969" fill="#0BE784" rx="8" ry="8" style="stroke:#0BE784;stroke-width:0.5;"/><path d="M695,59.2969 L695,86.2969 M682,67.2969 L708,67.2969 M695,86.2969 L682,101.2969 M695,86.2969 L708,101.2969 " fill="none" style="stroke:#0BE784;stroke-width:0.5;"/><text fill="#100D23" font-family="sans-serif" font-size="14" lengthAdjust="spacing" textLength="32" x="679" y="115.792">User</text></g><!--entity DB--><g id="elem_DB"><path d="M703.5,683.8469 C703.5,673.8469 755,673.8469 755,673.8469 C755,673.8469 806.5,673.8469 806.5,683.8469 L806.5,725.4406 C806.5,735.4406 755,735.4406 755,735.4406 C755,735.4406 703.5,735.4406 703.5,725.4406 L703.5,683.8469 " fill="#100D23" style="stroke:#0BE784;stroke-width:0.5;"/><path d="M703.5,683.8469 C703.5,693.8469 755,693.8469 755,693.8469 C755,693.8469 806.5,693.8469 806.5,683.8469 " fill="none" style="stroke:#0BE784;stroke-width:0.5;"/><text fill="#96DDF2" font-family="sans-serif" font-size="14" lengthAdjust="spacing" textLength="60" x="713.5" y="710.842">Astra DB</text><text fill="#96DDF2" font-family="sans-serif" font-size="14" lengthAdjust="spacing" textLength="83" x="713.5" y="727.1389">(Cassandra)</text></g><g id="elem_GMN31"><path d="M2037,397.6869 L2037,574.1478 L2301,574.1478 L2301,407.6869 L2291,397.6869 L2037,397.6869 " fill="#231B3D" style="stroke:#3F2C70;stroke-width:0.5;"/><path d="M2291,397.6869 L2291,407.6869 L2301,407.6869 L2291,397.6869 " fill="#231B3D" style="stroke:#3F2C70;stroke-width:1.0;"/><text fill="#0BE784" font-family="sans-serif" font-size="13" lengthAdjust="spacing" textLength="111" x="2043" y="414.7538">Optimized Query:</text><text fill="#96DDF2" font-family="sans-serif" font-size="13" lengthAdjust="spacing" textLength="4" x="2043" y="429.8866">&#160;</text><text fill="#96DDF2" font-family="sans-serif" font-size="13" lengthAdjust="spacing" textLength="232" x="2043" y="445.0194">FROM stellar_account_search_cache</text><text fill="#96DDF2" font-family="sans-serif" font-size="13" lengthAdjust="spacing" textLength="115" x="2043" y="460.1522">WHERE status IN (</text><text fill="#96DDF2" font-family="sans-serif" font-size="13" lengthAdjust="spacing" textLength="5" x="2043" y="475.285">)</text><text fill="#96DDF2" font-family="sans-serif" font-size="13" lengthAdjust="spacing" textLength="4" x="2043" y="490.4178">&#160;</text><text fill="#96DDF2" font-family="sans-serif" font-size="13" lengthAdjust="spacing" textLength="243" x="2043" y="505.5506">FROM stellar_creator_account_lineage</text><text fill="#96DDF2" font-family="sans-serif" font-size="13" lengthAdjust="spacing" textLength="132" x="2043" y="520.6835">WHERE status IN (...)</text><text fill="#96DDF2" font-family="sans-serif" font-size="13" lengthAdjust="spacing" textLength="4" x="2043" y="535.8163">&#160;</text><text fill="#01C176" font-family="sans-serif" font-size="13" lengthAdjust="spacing" textLength="90" x="2043" y="550.9491">30s TTL cache</text><text fill="#01C176" font-family="sans-serif" font-size="13" lengthAdjust="spacing" textLength="117" x="2043" y="566.0819">88% fewer queries</text></g><g id="elem_GMN34"><path d="M1511.5,420.3869 L1511.5,551.4494 L1728.5,551.4494 L1728.5,430.3869 L1718.5,420.3869 L1511.5,420.3869 " fill="#231B3D" style="stroke:#3F2C70;stroke-width:0.5;"/><path d="M1718.5,420.3869 L1718.5,430.3869 L1728.5,430.3869 L1718.5,420.3869 " fill="#231B3D" style="stroke:#3F2C70;stroke-width:1.0;"/><text fill="#0BE784" font-family="sans-serif" font-size="13" lengthAdjust="spacing" textLength="111" x="1517.5" y="437.4538">Pipeline Initiation:</text><text fill="#96DDF2" font-family="sans-serif" font-size="13" lengthAdjust="spacing" textLength="123" x="1517.5" y="452.5866">1. Validate address</text><text fill="#96DDF2" font-family="sans-serif" font-size="13" lengthAdjust="spacing" textLength="140" x="1517.5" y="467.7194">2. Queue as PENDING</text><text fill="#96DDF2" font-family="sans-serif" font-size="13" lengthAdjust="spacing" textLength="12" x="1517.5" y="482.8522">3.</text><text fill="#0BE784" font-family="sans-serif" font-size="13" lengthAdjust="spacing" textLength="180" x="1533.5" y="482.8522">BigQuery Pipeline processes</text><text fill="#96DDF2" font-family="sans-serif" font-size="13" lengthAdjust="spacing" textLength="178" x="1517.5" y="497.985">4. Returns in 50-90 seconds</text><text fill="#96DDF2" font-family="sans-serif" font-size="13" lengthAdjust="spacing" textLength="4" x="1517.5" y="513.1178">&#160;</text><text fill="#96DDF2" font-family="sans-serif" font-size="13" lengthAdjust="spacing" textLength="171" x="1517.5" y="528.2506">Up to 100K children/parent</text><text fill="#0BE784" font-family="sans-serif" font-size="13" lengthAdjust="spacing" textLength="181" x="1517.5" y="543.3835">Comma-formatted balances</text></g><g id="elem_GMN37"><path d="M1764,412.8169 L1764,559.0122 L2002,559.0122 L2002,422.8169 L1992,412.8169 L1764,412.8169 " fill="#231B3D" style="stroke:#3F2C70;stroke-width:0.5;"/><path d="M1992,412.8169 L1992,422.8169 L2002,422.8169 L1992,412.8169 " fill="#231B3D" style="stroke:#3F2C70;stroke-width:1.0;"/><text fill="#0BE784" font-family="sans-serif" font-size="13" lengthAdjust="spacing" textLength="186" x="1770" y="429.8838">Multi-Threshold Leaderboard:</text><text fill="#96DDF2" font-family="sans-serif" font-size="13" lengthAdjust="spacing" textLength="217" x="1770" y="445.0166">&#8226; Dropdown selector: 10K-1M XLM</text><text fill="#96DDF2" font-family="sans-serif" font-size="13" lengthAdjust="spacing" textLength="153" x="1770" y="460.1494">&#8226; Smart query strategy:</text><text fill="#96DDF2" font-family="sans-serif" font-size="13" lengthAdjust="spacing" textLength="182" x="1778" y="475.2822">- High threshold: is_hva filter</text><text fill="#96DDF2" font-family="sans-serif" font-size="13" lengthAdjust="spacing" textLength="187" x="1778" y="490.415">- Low threshold: network filter</text><text fill="#96DDF2" font-family="sans-serif" font-size="13" lengthAdjust="spacing" textLength="177" x="1770" y="505.5478">&#8226; Partition-key rank lookups</text><text fill="#96DDF2" font-family="sans-serif" font-size="13" lengthAdjust="spacing" textLength="155" x="1770" y="520.6806">&#8226; Clickable account links</text><text fill="#96DDF2" font-family="sans-serif" font-size="13" lengthAdjust="spacing" textLength="193" x="1770" y="535.8135">&#8226; Comma-formatted balances</text><text fill="#0BE784" font-family="sans-serif" font-size="13" lengthAdjust="spacing" textLength="204" x="1770" y="550.9463">&#8226; 24h ranking change indicators</text></g><g id="elem_GMN40"><path d="M2593,374.9869 L2593,596.8463 L2807,596.8463 L2807,384.9869 L2797,374.9869 L2593,374.9869 " fill="#231B3D" style="stroke:#3F2C70;stroke-width:0.5;"/><path d="M2797,374.9869 L2797,384.9869 L2807,384.9869 L2797,374.9869 " fill="#231B3D" style="stroke:#3F2C70;stroke-width:1.0;"/><text fill="#0BE784" font-family="sans-serif" font-size="13" lengthAdjust="spacing" textLength="152" x="2599" y="392.0538">10 Pre-Defined Queries:</text><text fill="#96DDF2" font-family="sans-serif" font-size="13" lengthAdjust="spacing" textLength="111" x="2599" y="407.1866">&#8226; Stuck Accounts</text><text fill="#96DDF2" font-family="sans-serif" font-size="13" lengthAdjust="spacing" textLength="122" x="2599" y="422.3194">&#8226; Orphan Accounts</text><text fill="#96DDF2" font-family="sans-serif" font-size="13" lengthAdjust="spacing" textLength="98" x="2599" y="437.4522">&#8226; Failed Stages</text><text fill="#96DDF2" font-family="sans-serif" font-size="13" lengthAdjust="spacing" textLength="103" x="2599" y="452.585">&#8226; HVA Accounts</text><text fill="#96DDF2" font-family="sans-serif" font-size="13" lengthAdjust="spacing" textLength="116" x="2599" y="467.7178">&#8226; Recent Changes</text><text fill="#96DDF2" font-family="sans-serif" font-size="13" lengthAdjust="spacing" textLength="4" x="2599" y="482.8506">&#160;</text><text fill="#0BE784" font-family="sans-serif" font-size="13" lengthAdjust="spacing" textLength="137" x="2599" y="497.9835">Custom Filter Builder:</text><text fill="#96DDF2" font-family="sans-serif" font-size="13" lengthAdjust="spacing" textLength="160" x="2599" y="513.1163">&#8226; Multi-column AND logic</text><text fill="#96DDF2" font-family="sans-serif" font-size="13" lengthAdjust="spacing" textLength="158" x="2599" y="528.2491">&#8226; Network-aware filtering</text><text fill="#96DDF2" font-family="sans-serif" font-size="13" lengthAdjust="spacing" textLength="141" x="2599" y="543.3819">&#8226; Adaptive max_scan:</text><text fill="#96DDF2" font-family="sans-serif" font-size="13" lengthAdjust="spacing" textLength="152" x="2607" y="558.5147">10x dense, 100x sparse</text><text fill="#96DDF2" font-family="sans-serif" font-size="13" lengthAdjust="spacing" textLength="142" x="2599" y="573.6475">&#8226; Result limits: 50-500</text><text fill="#0BE784" font-family="sans-serif" font-size="13" lengthAdjust="spacing" textLength="193" x="2599" y="588.7803">&#8226; Comma-formatted numbers</text></g><g id="elem_GMN43"><path d="M2336,443.0769 L2336,528.7409 L2558,528.7409 L2558,453.0769 L2548,443.0769 L2336,443.0769 " fill="#231B3D" style="stroke:#3F2C70;stroke-width:0.5;"/><path d="M2548,443.0769 L2548,453.0769 L2558,453.0769 L2548,443.0769 " fill="#231B3D" style="stroke:#3F2C70;stroke-width:1.0;"/><text fill="#0BE784" font-family="sans-serif" font-size="13" lengthAdjust="spacing" textLength="134" x="2342" y="460.1438">Optimized Hierarchy:</text><text fill="#96DDF2" font-family="sans-serif" font-size="13" lengthAdjust="spacing" textLength="129" x="2342" y="475.2766">&#8226; No full table scans</text><text fill="#96DDF2" font-family="sans-serif" font-size="13" lengthAdjust="spacing" textLength="163" x="2342" y="490.4094">&#8226; In-memory lineage sets</text><text fill="#96DDF2" font-family="sans-serif" font-size="13" lengthAdjust="spacing" textLength="187" x="2342" y="505.5422">&#8226; Efficient parent/child lookup</text><text fill="#96DDF2" font-family="sans-serif" font-size="13" lengthAdjust="spacing" textLength="201" x="2342" y="520.675">&#8226; Prevents Cassandra timeouts</text></g><!--link User to Vue--><g id="link_User_Vue"><path d="M695,119.1869 C695,150.7669 695,189.5069 695,219.0069 " fill="none" id="User-to-Vue" style="stroke:#01C176;stroke-width:1.0;"/><polygon fill="#01C176" points="695,225.0069,699,216.0069,695,220.0069,691,216.0069,695,225.0069" style="stroke:#01C176;stroke-width:1.0;"/><text fill="#96DDF2" font-family="sans-serif" font-size="13" lengthAdjust="spacing" textLength="56" x="696" y="162.1638">Interacts</text></g><!--link User to D3--><g id="link_User_D3"><path d="M711.29,97.6569 C738.98,124.3669 791.6914,175.1916 830.5614,212.6816 " fill="none" id="User-to-D3" style="stroke:#01C176;stroke-width:1.0;"/><polygon fill="#01C176" points="834.88,216.8469,831.1789,207.7199,831.2812,213.3758,825.6252,213.478,834.88,216.8469" style="stroke:#01C176;stroke-width:1.0;"/><text fill="#96DDF2" font-family="sans-serif" font-size="13" lengthAdjust="spacing" textLength="68" x="780" y="162.1638">Views Tree</text></g><!--link User to QueryBuilder--><g id="link_User_QueryBuilder"><path d="M711.27,82.1569 C771.32,83.5769 984.74,94.2869 1135,174.0969 C1158.32,186.4769 1175.6668,202.7733 1190.9768,220.2533 " fill="none" id="User-to-QueryBuilder" style="stroke:#01C176;stroke-width:1.0;"/><polygon fill="#01C176" points="1194.93,224.7669,1192.0092,215.3611,1191.6356,221.0056,1185.9911,220.632,1194.93,224.7669" style="stroke:#01C176;stroke-width:1.0;"/><text fill="#96DDF2" font-family="sans-serif" font-size="13" lengthAdjust="spacing" textLength="89" x="1114" y="162.1638">Explores Data</text></g><!--link Vue to PendingAPI--><g id="link_Vue_PendingAPI"><path d="M690.14,288.2069 C683.25,331.7169 671.647,405.0005 664.777,448.4505 " fill="none" id="Vue-to-PendingAPI" style="stroke:#01C176;stroke-width:1.0;"/><polygon fill="#01C176" points="663.84,454.3769,669.1965,446.112,664.6209,449.4382,661.2946,444.8626,663.84,454.3769" style="stroke:#01C176;stroke-width:1.0;"/><text fill="#96DDF2" font-family="sans-serif" font-size="13" lengthAdjust="spacing" textLength="95" x="684" y="341.0538">Polls every 30s</text></g><!--link Vue to StagesAPI--><g id="link_Vue_StagesAPI"><path d="M728.44,288.0369 C741.22,298.8669 756.28,310.6769 771,319.9869 C778.06,324.4469 781.6,322.6169 788,327.9869 C830.71,363.7769 862.0904,414.3768 880.7204,448.8968 " fill="none" id="Vue-to-StagesAPI" style="stroke:#01C176;stroke-width:1.0;"/><polygon fill="#01C176" points="883.57,454.1769,882.8157,444.3569,881.1953,449.7768,875.7755,448.1564,883.57,454.1769" style="stroke:#01C176;stroke-width:1.0;"/><text fill="#96DDF2" font-family="sans-serif" font-size="13" lengthAdjust="spacing" textLength="87" x="804" y="341.0538">Polls every 5s</text></g><!--link User to SearchAPI--><g id="link_User_SearchAPI"><path d="M678.55,82.4269 C625.75,84.7269 457.72,97.9769 349,174.0969 C243.06,248.2569 174.2999,386.1977 146.9499,448.8677 " fill="none" id="User-to-SearchAPI" style="stroke:#01C176;stroke-width:1.0;"/><polygon fill="#01C176" points="144.55,454.3669,151.8159,447.7181,146.5499,449.7843,144.4838,444.5182,144.55,454.3669" style="stroke:#01C176;stroke-width:1.0;"/><text fill="#96DDF2" font-family="sans-serif" font-size="13" lengthAdjust="spacing" textLength="60" x="350" y="261.1038">Searches</text></g><!--link User to HVAAPI--><g id="link_User_HVAAPI"><path d="M678.71,84.5469 C640.04,91.5969 542.08,114.6669 490,174.0969 C417.61,256.6969 401.8907,387.8171 398.3407,448.4571 " fill="none" id="User-to-HVAAPI" style="stroke:#01C176;stroke-width:1.0;"/><polygon fill="#01C176" points="397.99,454.4469,402.5091,445.696,398.2822,449.4554,394.5228,445.2285,397.99,454.4469" style="stroke:#01C176;stroke-width:1.0;"/><text fill="#96DDF2" font-family="sans-serif" font-size="13" lengthAdjust="spacing" textLength="129" x="491" y="261.1038">Views HVA Rankings</text></g><!--link QueryBuilder to QueryBuilderAPI--><g id="link_QueryBuilder_QueryBuilderAPI"><path d="M1238.56,288.2069 C1266.31,331.7169 1313.5946,405.8675 1341.2946,449.3175 " fill="none" id="QueryBuilder-to-QueryBuilderAPI" style="stroke:#01C176;stroke-width:1.0;"/><polygon fill="#01C176" points="1344.52,454.3769,1343.0548,444.6376,1341.8322,450.1608,1336.309,448.9381,1344.52,454.3769" style="stroke:#01C176;stroke-width:1.0;"/><text fill="#96DDF2" font-family="sans-serif" font-size="13" lengthAdjust="spacing" textLength="109" x="1275" y="341.0538">Executes queries</text></g><!--link D3 to LineageAPI--><g id="link_D3_LineageAPI"><path d="M922.81,296.2669 C950.02,318.7169 984.46,347.8269 1014,374.9869 C1042.23,400.9269 1068.8001,427.6124 1090.6001,450.0624 " fill="none" id="D3-to-LineageAPI" style="stroke:#01C176;stroke-width:1.0;"/><polygon fill="#01C176" points="1094.78,454.3669,1091.3799,445.1235,1091.2968,450.7798,1085.6405,450.6967,1094.78,454.3669" style="stroke:#01C176;stroke-width:1.0;"/><text fill="#96DDF2" font-family="sans-serif" font-size="13" lengthAdjust="spacing" textLength="113" x="977" y="341.0538">Fetches tree data</text></g><!--link PendingAPI to DB--><g id="link_PendingAPI_DB"><path d="M671.18,517.5569 C683.99,549.3769 705.03,600.4869 725,643.8469 C729.47,653.5469 731.9008,658.6383 736.6408,668.0483 " fill="none" id="PendingAPI-to-DB" style="stroke:#01C176;stroke-width:1.0;"/><polygon fill="#01C176" points="739.34,673.4069,738.8636,663.5695,737.0907,668.9414,731.7188,667.1685,739.34,673.4069" style="stroke:#01C176;stroke-width:1.0;"/><text fill="#96DDF2" font-family="sans-serif" font-size="13" lengthAdjust="spacing" textLength="105" x="726" y="639.9138">2 queries with IN</text></g><!--link StagesAPI to DB--><g id="link_StagesAPI_DB"><path d="M892.09,517.4769 C883.35,551.0769 865.73,605.4069 836,643.8469 C827.45,654.9069 821.1172,661.2799 809.8672,669.7799 " fill="none" id="StagesAPI-to-DB" style="stroke:#01C176;stroke-width:1.0;"/><polygon fill="#01C176" points="805.08,673.3969,814.6721,671.1628,809.0693,670.3827,809.8495,664.7799,805.08,673.3969" style="stroke:#01C176;stroke-width:1.0;"/><text fill="#96DDF2" font-family="sans-serif" font-size="13" lengthAdjust="spacing" textLength="82" x="847" y="639.9138">Stage status</text></g><!--link SearchAPI to DB--><g id="link_SearchAPI_DB"><path d="M160.28,517.5669 C184.56,542.2169 221.63,576.0369 260,596.8469 C407.23,676.6669 603.4488,696.5019 697.2888,701.5919 " fill="none" id="SearchAPI-to-DB" style="stroke:#01C176;stroke-width:1.0;"/><polygon fill="#01C176" points="703.28,701.9169,694.5099,697.4353,698.2873,701.6461,694.0766,705.4235,703.28,701.9169" style="stroke:#01C176;stroke-width:1.0;"/><text fill="#96DDF2" font-family="sans-serif" font-size="13" lengthAdjust="spacing" textLength="96" x="361" y="639.9138">Initiate pipeline</text></g><!--link HVAAPI to DB--><g id="link_HVAAPI_DB"><path d="M419.29,517.4569 C446.7,552.8769 496.46,610.6269 552,643.8469 C599.14,672.0369 654.5556,686.576 697.4156,694.726 " fill="none" id="HVAAPI-to-DB" style="stroke:#01C176;stroke-width:1.0;"/><polygon fill="#01C176" points="703.31,695.8469,695.2157,690.236,698.398,694.9128,693.7212,698.0952,703.31,695.8469" style="stroke:#01C176;stroke-width:1.0;"/><text fill="#96DDF2" font-family="sans-serif" font-size="13" lengthAdjust="spacing" textLength="155" x="553" y="639.9138">Smart threshold queries</text></g><!--link QueryBuilderAPI to DB--><g id="link_QueryBuilderAPI_DB"><path d="M1331.55,517.5669 C1306.1,540.7769 1269.22,572.6869 1234,596.8469 C1198.08,621.4769 1189.27,629.9069 1148,643.8469 C1030.14,683.6369 889.4099,696.6885 812.8999,701.1385 " fill="none" id="QueryBuilderAPI-to-DB" style="stroke:#01C176;stroke-width:1.0;"/><polygon fill="#01C176" points="806.91,701.4869,816.1271,704.9575,811.9016,701.1966,815.6626,696.971,806.91,701.4869" style="stroke:#01C176;stroke-width:1.0;"/><text fill="#96DDF2" font-family="sans-serif" font-size="13" lengthAdjust="spacing" textLength="163" x="1188" y="639.9138">Adaptive max_scan limits</text></g><!--link LineageAPI to DB--><g id="link_LineageAPI_DB"><path d="M1097.21,517.2869 C1075.91,540.5069 1044.7,572.5469 1014,596.8469 C982.86,621.4869 974.02,627.1169 938,643.8469 C895.26,663.6969 849.8569,678.1959 812.5069,688.6759 " fill="none" id="LineageAPI-to-DB" style="stroke:#01C176;stroke-width:1.0;"/><polygon fill="#01C176" points="806.73,690.2969,816.476,691.7167,811.5441,688.9461,814.3147,684.0142,806.73,690.2969" style="stroke:#01C176;stroke-width:1.0;"/><text fill="#96DDF2" font-family="sans-serif" font-size="13" lengthAdjust="spacing" textLength="167" x="972" y="639.9138">In-memory hierarchy build</text></g><!--link PendingAPI to GMN31--><g id="link_PendingAPI_GMN31"><path d="M680,454.2869 C704.55,420.5169 748.61,368.9469 801.5,347.4869 C863.33,322.3969 1939.75,324.8069 2002.5,347.4869 C2032.37,358.2769 2060.67,377.0269 2085.17,397.3069 " fill="none" id="PendingAPI-GMN31" style="stroke:#01C176;stroke-width:1.0;stroke-dasharray:7.0,7.0;"/></g><!--link SearchAPI to GMN34--><g id="link_SearchAPI_GMN34"><path d="M153.61,454.2769 C178.81,420.4769 223.92,368.8969 277.5,347.4869 C339.25,322.8069 1412.75,322.8069 1474.5,347.4869 C1511.89,362.4269 1545.16,392.0669 1570.42,420.0969 " fill="none" id="SearchAPI-GMN34" style="stroke:#01C176;stroke-width:1.0;stroke-dasharray:7.0,7.0;"/></g><!--link HVAAPI to GMN37--><g id="link_HVAAPI_GMN37"><path d="M420.4,454.2269 C447.57,420.3969 495.83,368.7769 551.5,347.4869 C612.57,324.1269 1667.43,324.1269 1728.5,347.4869 C1763.82,360.9969 1796.16,386.7069 1822.02,412.3469 " fill="none" id="HVAAPI-GMN37" style="stroke:#01C176;stroke-width:1.0;stroke-dasharray:7.0,7.0;"/></g><!--link QueryBuilderAPI to GMN40--><g id="link_QueryBuilderAPI_GMN40"><path d="M1386.01,454.2669 C1411.64,420.4569 1457.46,368.8669 1511.5,347.4869 C1565.53,326.0969 2503.65,325.6369 2557.5,347.4869 C2573.8,354.0969 2589.26,363.5669 2603.57,374.4969 " fill="none" id="QueryBuilderAPI-GMN40" style="stroke:#01C176;stroke-width:1.0;stroke-dasharray:7.0,7.0;"/></g><!--link LineageAPI to GMN43--><g id="link_LineageAPI_GMN43"><path d="M1142.17,454.3769 C1163.62,420.6769 1202.76,369.1769 1252.5,347.4869 C1305.92,324.1869 2247.38,325.8569 2301.5,347.4869 C2349.25,366.5669 2390.28,409.6169 2416.48,442.6769 " fill="none" id="LineageAPI-GMN43" style="stroke:#01C176;stroke-width:1.0;stroke-dasharray:7.0,7.0;"/></g><!--SRC=[hLVRRkCs47tNLmnSjBj1LxucUp6A0B5bRunD7AzpQOjkOJ0IRREMH9MaugH5WNvBFwrVqg54IxvGIH_sqTIPuSoPCpEqNB4u8O94S4_yrKBmD0xwFEG2lcc_RNd79uui406TapHKGnuh0_dmrlE6RMSBu_CeuJ6D5Vpf0FJsVRQQJQ_TqL-u2AWmfytUuDtxOpmzT0rm9WHVRu2jVklTM-UlxHi3eiWzaVGhNRZZEq5tP57XkjrfzJhUlklElEs_QxxiclWAFraT5z6z6BF9RiTnpDLN35Wn5LBumTVdNHF3wL0WbCO1V0Tdan5Mo5yoHNsL2keuUMAtafOnEniUQuLbVwCJMTi4bWLTwgTsbzBwR_9BFANeaZrGk1tLW4Z0yrsWrybn960aRDomu0bk1ALVujS8YeWxvo8YIj7WABFtEhlcFSwLL88a-Yg9fn8lov35brs3poaLJz1BMOWiVedpE3E3x8lveDahyjOq3U8WuUovZ1iaOOq4wM7nmYM-ZxLJie5vT9eIVE8lwHiWgUAke7D1vJBFPv8Ru1KMRrBX_Ivzf7wg6AQclPr8YvTh3PI7JYGbM5vjTabO3FbFM3ErX93558sCVVRXq7vDxnjBjbYw3oHCwKvMbpXCcAkMEWWU1X1IWhpTSo9CfSxlpkmEVzSyk_SvqTfLgmc9e2vEA8mfWE_1JwNYqT51LUmicQXSav7sEEOmJyCGSBXW0qYVnBcpYnoY_M21Y-5JEzD20Q-7fdqY9Oa3GOpUUewJjOFxYnbWlxgdMiNGXTe8sq6WlcNDWl4w6dB7w5fcYhPXjfFJwC5ZWgrAyLeChUOu-fuTWr8k6ZxXOIY1FcX5eyfgX_X26Flm4slCXGuqFFz1hS2yk6M2-1kc9COvja3yJbgL2Hi7WqpUcBFM1TFN8NCxHcNLD7v8bOuA57AQxG_aQOkMtHhqj4LxupfN_cXSSqfUBFZi8s3pgHIZAJcnG4SnKupWp4vOGhK0QuwXnkOt8a91sJ95mlkiM6pF0f9aSpGYZpCjQ6pWY6dbRR5Z3T2DQCInuak6MiLCdY1hFMGjMpO2sri1dszBgrmsUxlZ2cE8s1_Of5d8NKHiWVB5SpgSNbqYUpGCYPYPvfpbesUMpK4q-V5yC1qOYh4Wy1hF05vD1cDlDFxuwat-SpIUJQPN7wU3w-lDqNGm6uq_tuwcFx_2WwEN0_059RZJYa3CbB35KA_NznpcR9xg2NvpSm6RwFS-lt__BSpf6hLkAkhe9QdPtUUur58bnHCZ933ImhdVFKonLOSx4h90Iuy40IfA8gXTrtN16Q0NIqubddRg-tVqs29VWyLbYU0- -g3oyAhZEamflWvY2RX2JfhkXoOk4f_7WRIoVvk0ue2Fcq-0BuiGOuiR-BZ1UNsOR7ztnUCpDYIn_mo1fhagsSktqatHOXVbLhAm-E_V_u0dU1BmjLwE8TMldox6_ibjNS9F5vTsaxoFipK6Ud4ekdYoU0TmuHm3Bpk-2qpEbWy4vYp4pM4tkU3hROkOgZKNgqeJ7T04us5QAUwAFe70EGmXvwiqaNPyFsJujD6hqNI5VWsigi1LDJeWNwFRnyii09maM7uIuo1bE5TytOFLPTqVW9NrnQV219yAddagVCxxhQAqrohrLt1c7Yrsp9L8CCeNG4F2GhmjNnfsY5w0ppkPKb-_MVePANkjisc7xDq3mwpKcpTgHNAvql4yZJ3yiOSLNp3VZXtd6dB96llGA0aBP0SVR1ghj5lDH_nB6Kjyr6AhFuB45fUqAdE9mPg5rTKZvAJPjCjdNsnn6jtJPuIpjVp-nz8wtwp02auFduqLjIotgbadE3sgwZwOpvdFTEdpATZ8fg9fq8f-5lX8Go51yHW5J87oL6qnyHy0]--></g></svg>