<?xml version="1.0" encoding="us-ascii" standalone="no"?><svg xmlns="http://www.w3.org/2000/svg" xmlns:xlink="http://www.w3.org/1999/xlink" contentStyleType="text/css" height="659px" preserveAspectRatio="none" style="width:1188px;height:659px;background:#261D45;" version="1.1" viewBox="0 0 1188 659" width="1188px" zoomAndPan="magnify"><defs/><g><rect fill="#261D45" height="659" style="stroke:none;stroke-width:1.0;" width="1188" x="0" y="0"/><text fill="#0BE784" font-family="sans-serif" font-size="14" font-weight="bold" lengthAdjust="spacing" textLength="224" x="475.25" y="22.9951">Frontend &amp; API Architecture</text><!--cluster Frontend Components--><g id="cluster_Frontend Components"><path d="M51.5,182.0969 L229.5,182.0969 A3.75,3.75 0 0 1 232,184.5969 L239,204.3937 L502.5,204.3937 A2.5,2.5 0 0 1 505,206.8937 L505,293.1969 A2.5,2.5 0 0 1 502.5,295.6969 L51.5,295.6969 A2.5,2.5 0 0 1 49,293.1969 L49,184.5969 A2.5,2.5 0 0 1 51.5,182.0969 " fill="#231B3D" style="stroke:#3F2C70;stroke-width:1.5;"/><line style="stroke:#3F2C70;stroke-width:1.5;" x1="49" x2="239" y1="204.3937" y2="204.3937"/><text fill="#96DDF2" font-family="sans-serif" font-size="14" font-weight="bold" lengthAdjust="spacing" textLength="177" x="53" y="197.092">Frontend Components</text></g><!--cluster API Endpoints--><g id="cluster_API Endpoints"><path d="M8.5,373.0569 L117.5,373.0569 A3.75,3.75 0 0 1 120,375.5569 L127,395.3538 L634.5,395.3538 A2.5,2.5 0 0 1 637,397.8538 L637,484.1569 A2.5,2.5 0 0 1 634.5,486.6569 L8.5,486.6569 A2.5,2.5 0 0 1 6,484.1569 L6,375.5569 A2.5,2.5 0 0 1 8.5,373.0569 " fill="#231B3D" style="stroke:#3F2C70;stroke-width:1.5;"/><line style="stroke:#3F2C70;stroke-width:1.5;" x1="6" x2="127" y1="395.3538" y2="395.3538"/><text fill="#96DDF2" font-family="sans-serif" font-size="14" font-weight="bold" lengthAdjust="spacing" textLength="108" x="10" y="388.052">API Endpoints</text></g><!--entity Vue--><g id="elem_Vue"><rect fill="#0BE784" height="62.5938" rx="2.5" ry="2.5" style="stroke:#0BE784;stroke-width:0.5;" width="116" x="65" y="217.0969"/><rect fill="#0BE784" height="10" style="stroke:#0BE784;stroke-width:0.5;" width="15" x="161" y="222.0969"/><rect fill="#0BE784" height="2" style="stroke:#0BE784;stroke-width:0.5;" width="4" x="159" y="224.0969"/><rect fill="#0BE784" height="2" style="stroke:#0BE784;stroke-width:0.5;" width="4" x="159" y="228.0969"/><text fill="#96DDF2" font-family="sans-serif" font-size="14" lengthAdjust="spacing" textLength="42" x="80" y="250.092">Vue.js</text><text fill="#96DDF2" font-family="sans-serif" font-size="14" lengthAdjust="spacing" textLength="76" x="80" y="266.3889">Reactive UI</text></g><!--entity D3--><g id="elem_D3"><rect fill="#0BE784" height="62.5938" rx="2.5" ry="2.5" style="stroke:#0BE784;stroke-width:0.5;" width="117" x="215.5" y="217.0969"/><rect fill="#0BE784" height="10" style="stroke:#0BE784;stroke-width:0.5;" width="15" x="312.5" y="222.0969"/><rect fill="#0BE784" height="2" style="stroke:#0BE784;stroke-width:0.5;" width="4" x="310.5" y="224.0969"/><rect fill="#0BE784" height="2" style="stroke:#0BE784;stroke-width:0.5;" width="4" x="310.5" y="228.0969"/><text fill="#96DDF2" font-family="sans-serif" font-size="14" lengthAdjust="spacing" textLength="35" x="230.5" y="250.092">D3.js</text><text fill="#96DDF2" font-family="sans-serif" font-size="14" lengthAdjust="spacing" textLength="77" x="230.5" y="266.3889">Radial Tree</text></g><!--entity Bootstrap--><g id="elem_Bootstrap"><rect fill="#0BE784" height="62.5938" rx="2.5" ry="2.5" style="stroke:#0BE784;stroke-width:0.5;" width="121" x="367.5" y="217.0969"/><rect fill="#0BE784" height="10" style="stroke:#0BE784;stroke-width:0.5;" width="15" x="468.5" y="222.0969"/><rect fill="#0BE784" height="2" style="stroke:#0BE784;stroke-width:0.5;" width="4" x="466.5" y="224.0969"/><rect fill="#0BE784" height="2" style="stroke:#0BE784;stroke-width:0.5;" width="4" x="466.5" y="228.0969"/><text fill="#96DDF2" font-family="sans-serif" font-size="14" lengthAdjust="spacing" textLength="68" x="382.5" y="250.092">Bootstrap</text><text fill="#96DDF2" font-family="sans-serif" font-size="14" lengthAdjust="spacing" textLength="81" x="382.5" y="266.3889">Responsive</text></g><!--entity PendingAPI--><g id="elem_PendingAPI"><rect fill="#0BE784" height="62.5938" rx="2.5" ry="2.5" style="stroke:#0BE784;stroke-width:0.5;" width="201" x="22.5" y="408.0569"/><rect fill="#0BE784" height="10" style="stroke:#0BE784;stroke-width:0.5;" width="15" x="203.5" y="413.0569"/><rect fill="#0BE784" height="2" style="stroke:#0BE784;stroke-width:0.5;" width="4" x="201.5" y="415.0569"/><rect fill="#0BE784" height="2" style="stroke:#0BE784;stroke-width:0.5;" width="4" x="201.5" y="419.0569"/><text fill="#96DDF2" font-family="sans-serif" font-size="14" lengthAdjust="spacing" textLength="161" x="37.5" y="441.052">/api/pending-accounts/</text><text fill="#96DDF2" font-family="sans-serif" font-size="14" lengthAdjust="spacing" textLength="116" x="37.5" y="457.3489">(5s auto-refresh)</text></g><!--entity StagesAPI--><g id="elem_StagesAPI"><rect fill="#0BE784" height="62.5938" rx="2.5" ry="2.5" style="stroke:#0BE784;stroke-width:0.5;" width="195" x="258.5" y="408.0569"/><rect fill="#0BE784" height="10" style="stroke:#0BE784;stroke-width:0.5;" width="15" x="433.5" y="413.0569"/><rect fill="#0BE784" height="2" style="stroke:#0BE784;stroke-width:0.5;" width="4" x="431.5" y="415.0569"/><rect fill="#0BE784" height="2" style="stroke:#0BE784;stroke-width:0.5;" width="4" x="431.5" y="419.0569"/><text fill="#96DDF2" font-family="sans-serif" font-size="14" lengthAdjust="spacing" textLength="155" x="273.5" y="441.052">/api/stage-executions/</text><text fill="#96DDF2" font-family="sans-serif" font-size="14" lengthAdjust="spacing" textLength="116" x="273.5" y="457.3489">(5s auto-refresh)</text></g><!--entity SearchAPI--><g id="elem_SearchAPI"><rect fill="#0BE784" height="62.5938" rx="2.5" ry="2.5" style="stroke:#0BE784;stroke-width:0.5;" width="133" x="488.5" y="408.0569"/><rect fill="#0BE784" height="10" style="stroke:#0BE784;stroke-width:0.5;" width="15" x="601.5" y="413.0569"/><rect fill="#0BE784" height="2" style="stroke:#0BE784;stroke-width:0.5;" width="4" x="599.5" y="415.0569"/><rect fill="#0BE784" height="2" style="stroke:#0BE784;stroke-width:0.5;" width="4" x="599.5" y="419.0569"/><text fill="#96DDF2" font-family="sans-serif" font-size="14" lengthAdjust="spacing" textLength="57" x="503.5" y="441.052">/search/</text><text fill="#96DDF2" font-family="sans-serif" font-size="14" lengthAdjust="spacing" textLength="93" x="503.5" y="457.3489">(Main search)</text></g><!--entity User--><g id="elem_User"><ellipse cx="274" cy="51.2969" fill="#0BE784" rx="8" ry="8" style="stroke:#0BE784;stroke-width:0.5;"/><path d="M274,59.2969 L274,86.2969 M261,67.2969 L287,67.2969 M274,86.2969 L261,101.2969 M274,86.2969 L287,101.2969 " fill="none" style="stroke:#0BE784;stroke-width:0.5;"/><text fill="#100D23" font-family="sans-serif" font-size="14" lengthAdjust="spacing" textLength="32" x="258" y="115.792">User</text></g><!--entity DB--><g id="elem_DB"><path d="M316,607.0169 C316,597.0169 356,597.0169 356,597.0169 C356,597.0169 396,597.0169 396,607.0169 L396,632.3138 C396,642.3138 356,642.3138 356,642.3138 C356,642.3138 316,642.3138 316,632.3138 L316,607.0169 " fill="#0BE784" style="stroke:#0BE784;stroke-width:0.5;"/><path d="M316,607.0169 C316,617.0169 356,617.0169 356,617.0169 C356,617.0169 396,617.0169 396,607.0169 " fill="none" style="stroke:#0BE784;stroke-width:0.5;"/><text fill="#96DDF2" font-family="sans-serif" font-size="14" lengthAdjust="spacing" textLength="60" x="326" y="634.012">Astra DB</text></g><g id="elem_GMN20"><path d="M657,358.6969 L657,520.025 L921,520.025 L921,368.6969 L911,358.6969 L657,358.6969 " fill="#100D23" style="stroke:#3F2C70;stroke-width:0.5;"/><path d="M911,358.6969 L911,368.6969 L921,368.6969 L911,358.6969 " fill="#100D23" style="stroke:#3F2C70;stroke-width:1.0;"/><text fill="#0BE784" font-family="sans-serif" font-size="13" lengthAdjust="spacing" textLength="111" x="663" y="375.7638">Optimized Query:</text><text fill="#96DDF2" font-family="sans-serif" font-size="13" lengthAdjust="spacing" textLength="4" x="663" y="390.8966">&#160;</text><text fill="#96DDF2" font-family="sans-serif" font-size="13" lengthAdjust="spacing" textLength="232" x="663" y="406.0294">FROM stellar_account_search_cache</text><text fill="#96DDF2" font-family="sans-serif" font-size="13" lengthAdjust="spacing" textLength="115" x="663" y="421.1622">WHERE status IN (</text><text fill="#96DDF2" font-family="sans-serif" font-size="13" lengthAdjust="spacing" textLength="5" x="663" y="436.295">)</text><text fill="#96DDF2" font-family="sans-serif" font-size="13" lengthAdjust="spacing" textLength="4" x="663" y="451.4278">&#160;</text><text fill="#96DDF2" font-family="sans-serif" font-size="13" lengthAdjust="spacing" textLength="243" x="663" y="466.5606">FROM stellar_creator_account_lineage</text><text fill="#96DDF2" font-family="sans-serif" font-size="13" lengthAdjust="spacing" textLength="189" x="663" y="481.6935">WHERE status IN (...)&lt;/color&gt;</text><text fill="#96DDF2" font-family="sans-serif" font-size="13" lengthAdjust="spacing" textLength="4" x="663" y="496.8263">&#160;</text><text fill="#01C176" font-family="sans-serif" font-size="13" lengthAdjust="spacing" textLength="164" x="663" y="511.9591">Result: 88% fewer queries</text></g><g id="elem_GMN23"><path d="M956.5,396.5269 L956.5,482.1909 L1181.5,482.1909 L1181.5,406.5269 L1171.5,396.5269 L956.5,396.5269 " fill="#231B3D" style="stroke:#3F2C70;stroke-width:0.5;"/><path d="M1171.5,396.5269 L1171.5,406.5269 L1181.5,406.5269 L1171.5,396.5269 " fill="#231B3D" style="stroke:#3F2C70;stroke-width:1.0;"/><text fill="#0BE784" font-family="sans-serif" font-size="13" lengthAdjust="spacing" textLength="60" x="962.5" y="413.5938">Features:</text><text fill="#96DDF2" font-family="sans-serif" font-size="13" lengthAdjust="spacing" textLength="133" x="962.5" y="428.7266">&#8226; Real-time progress</text><text fill="#96DDF2" font-family="sans-serif" font-size="13" lengthAdjust="spacing" textLength="159" x="962.5" y="443.8594">&#8226; Interactive JSON viewer</text><text fill="#96DDF2" font-family="sans-serif" font-size="13" lengthAdjust="spacing" textLength="160" x="962.5" y="458.9922">&#8226; Immediate initialization</text><text fill="#96DDF2" font-family="sans-serif" font-size="13" lengthAdjust="spacing" textLength="204" x="962.5" y="474.125">&#8226; 8 stages per address&lt;/color&gt;</text></g><!--link User to Vue--><g id="link_User_Vue"><path d="M257.7,97.9469 C244.16,111.3869 224.51,131.1969 208,149.0969 C187.51,171.3269 169.0584,192.6389 152.4284,212.2689 " fill="none" id="User-to-Vue" style="stroke:#01C176;stroke-width:1.0;"/><polygon fill="#01C176" points="148.55,216.8469,157.4196,212.5654,151.782,213.0319,151.3155,207.3943,148.55,216.8469" style="stroke:#01C176;stroke-width:1.0;"/><text fill="#96DDF2" font-family="sans-serif" font-size="13" lengthAdjust="spacing" textLength="56" x="209" y="162.1638">Interacts</text></g><!--link User to D3--><g id="link_User_D3"><path d="M274,119.4869 C274,148.8569 274,183.1769 274,210.6469 " fill="none" id="User-to-D3" style="stroke:#01C176;stroke-width:1.0;"/><polygon fill="#01C176" points="274,216.6469,278,207.6469,274,211.6469,270,207.6469,274,216.6469" style="stroke:#01C176;stroke-width:1.0;"/><text fill="#96DDF2" font-family="sans-serif" font-size="13" lengthAdjust="spacing" textLength="68" x="275" y="162.1638">Views Tree</text></g><!--link Vue to PendingAPI--><g id="link_Vue_PendingAPI"><path d="M123,280.1769 C123,315.3169 123,366.4569 123,401.5869 " fill="none" id="Vue-to-PendingAPI" style="stroke:#01C176;stroke-width:1.0;"/><polygon fill="#01C176" points="123,407.5869,127,398.5869,123,402.5869,119,398.5869,123,407.5869" style="stroke:#01C176;stroke-width:1.0;"/><text fill="#96DDF2" font-family="sans-serif" font-size="13" lengthAdjust="spacing" textLength="87" x="124" y="324.7638">Polls every 5s</text></g><!--link Vue to StagesAPI--><g id="link_Vue_StagesAPI"><path d="M160.97,280.0069 C172.45,288.3869 185.36,296.9869 198,303.6969 C207.19,308.5669 211.13,306.2569 220,311.6969 C263.07,338.0569 300.2753,375.0769 325.8253,403.3269 " fill="none" id="Vue-to-StagesAPI" style="stroke:#01C176;stroke-width:1.0;"/><polygon fill="#01C176" points="329.85,407.7769,326.7797,398.4188,326.4961,404.0686,320.8464,403.785,329.85,407.7769" style="stroke:#01C176;stroke-width:1.0;"/><text fill="#96DDF2" font-family="sans-serif" font-size="13" lengthAdjust="spacing" textLength="87" x="241" y="324.7638">Polls every 5s</text></g><!--link User to SearchAPI--><g id="link_User_SearchAPI"><path d="M290.21,83.2369 C332.77,87.5269 448.31,105.2869 505,174.0969 C561.26,242.3869 562.0334,348.3905 558.4234,401.9605 " fill="none" id="User-to-SearchAPI" style="stroke:#01C176;stroke-width:1.0;"/><polygon fill="#01C176" points="558.02,407.9469,562.6161,399.2362,558.3562,402.9582,554.6342,398.6983,558.02,407.9469" style="stroke:#01C176;stroke-width:1.0;"/><text fill="#96DDF2" font-family="sans-serif" font-size="13" lengthAdjust="spacing" textLength="60" x="555" y="252.9638">Searches</text></g><!--link PendingAPI to DB--><g id="link_PendingAPI_DB"><path d="M145.71,471.0069 C167.63,498.9269 203,539.8069 241,567.0169 C263.78,583.3269 286.927,594.1005 309.977,602.9305 " fill="none" id="PendingAPI-to-DB" style="stroke:#01C176;stroke-width:1.0;"/><polygon fill="#01C176" points="315.58,605.0769,308.6065,598.122,310.9109,603.2882,305.7447,605.5926,315.58,605.0769" style="stroke:#01C176;stroke-width:1.0;"/><text fill="#96DDF2" font-family="sans-serif" font-size="13" lengthAdjust="spacing" textLength="105" x="242" y="563.0838">2 queries with IN</text></g><!--link StagesAPI to DB--><g id="link_StagesAPI_DB"><path d="M356,471.0069 C356,506.7569 356,558.9669 356,590.5669 " fill="none" id="StagesAPI-to-DB" style="stroke:#01C176;stroke-width:1.0;"/><polygon fill="#01C176" points="356,596.5669,360,587.5669,356,591.5669,352,587.5669,356,596.5669" style="stroke:#01C176;stroke-width:1.0;"/><text fill="#96DDF2" font-family="sans-serif" font-size="13" lengthAdjust="spacing" textLength="82" x="357" y="563.0838">Stage status</text></g><!--link SearchAPI to DB--><g id="link_SearchAPI_DB"><path d="M534.05,470.9469 C514.16,498.4269 482.29,538.6969 448,567.0169 C432.47,579.8569 418.6215,588.4254 401.8015,597.1854 " fill="none" id="SearchAPI-to-DB" style="stroke:#01C176;stroke-width:1.0;"/><polygon fill="#01C176" points="396.48,599.9569,406.31,599.3473,400.9146,597.6473,402.6146,592.2519,396.48,599.9569" style="stroke:#01C176;stroke-width:1.0;"/><text fill="#96DDF2" font-family="sans-serif" font-size="13" lengthAdjust="spacing" textLength="96" x="465" y="563.0838">Initiate pipeline</text></g><!--link PendingAPI to GMN20--><g id="link_PendingAPI_GMN20"><path d="M150.54,407.7969 C175.65,381.6069 215.32,346.3169 258.5,331.1969 C334.21,304.6769 542.49,308.7169 619.5,331.1969 C640.78,337.4069 661.93,347.1869 681.71,358.3869 " fill="none" id="PendingAPI-GMN20" style="stroke:#01C176;stroke-width:1.0;stroke-dasharray:7.0,7.0;"/></g><!--link StagesAPI to GMN23--><g id="link_StagesAPI_GMN23"><path d="M382.78,407.8069 C407.24,381.6369 445.98,346.3469 488.5,331.1969 C579.14,298.8969 830.05,301.2569 921.5,331.1969 C960.88,344.0869 998.44,371.9369 1025.81,396.1569 " fill="none" id="StagesAPI-GMN23" style="stroke:#01C176;stroke-width:1.0;stroke-dasharray:7.0,7.0;"/></g><!--SRC=[bLNRJjj047ttLunSjO3KtBca4Of4S49TYIGaXQegLRJOax35iTtTDIbKIFsMVbg_fBEsupZ1W7YBPy-SENDcPoDlk1yomUPmnPoRcGWYtpqEl430c_f-pThTCsI6S77A8a_r0b-ba0_xbjMh6pcC4yp3m4TVmMy3eBF9MQjMhNf3dmJ2HP56gvtkGNENee-f0Ow421PBOEsuTh1lFEGhkaonAoQnk62rKM_KTbzHS8qx93esUuAQY3iDQvEwCQqx1zMNgPcZwAXOyrBTYvfJEzU8_K3XQyn_Nh3YoaCuT7IybMfezmH1qNVX7HmDRPgGSyqLEYeIU5Y9eMt3I1eybxZIRYpzD3E6u-LzaURIqLZywXwP5n6MVyXBVuH4oMyHpcqJc0IAvrp99LYD1CzSpZpuB11ZlDKeXdU2G4abMAXBI8fAAX9dP2TPuaEk1zrwrtV3W3-dli92NWcfLUxFIinnQ1vALYxzxJq9B591IU1KeBpUYIiE4w2cBjGQiqb5zKlu2vr8SPBx9DjO0-NJP18PZKwddpBkG_APfiQ_ywdKUhPgvf6s1QnEOcndDU5utgLlwQP-BxNZCRN0j6dUWWOepG8CZOOW5nmNCfcNeRFM83bd23eCF4y2tgAuWprP05-rNe1-B63LBi6J3oHWhkYwtex6rU5dX8AZX0LNrs3tJMDLjW0V7m9DJqN4lIfP0BLzhZYZHGvvY1xtoH4ZNcp1PzSAWkdQJSaMUsDF1w7YStwFBfoHqBjMjfm0EN2oxEtUQ71Auj3pc9Ya5tMIN8c9myWFIldoiJlgfXrGlx1DCO2jORTlsVsJhVV9fzsV34U3ar5tF5w6Hjs9tJyxjqTVjoYmamXOg-W8PFHWP9LrqsHNKT5okRnJt4fYOvlMcFwdMj1ileKfBcZOwQ2oBFtqQ3ytNSrjJFQyRpv-f9CUEfbtSyFAVt_-0hrMNedifn6AO4PuIJXzi5m4_P9z6W_wSCkrnENfV8vkF7aUNm6FtpEzvEbn4-Bbbn1IKynrDU_Zflu3]--></g></svg>