<?xml version="1.0" encoding="us-ascii" standalone="no"?><svg xmlns="http://www.w3.org/2000/svg" xmlns:xlink="http://www.w3.org/1999/xlink" contentStyleType="text/css" height="659px" preserveAspectRatio="none" style="width:1144px;height:659px;background:#372963;" version="1.1" viewBox="0 0 1144 659" width="1144px" zoomAndPan="magnify"><defs/><g><rect fill="#372963" height="659" style="stroke:none;stroke-width:1.0;" width="1144" x="0" y="0"/><text fill="#00FF9C" font-family="sans-serif" font-size="14" font-weight="bold" lengthAdjust="spacing" textLength="224" x="453.25" y="22.9951">Frontend &amp; API Architecture</text><!--cluster Frontend Components--><g id="cluster_Frontend Components"><path d="M51.5,182.0969 L229.5,182.0969 A3.75,3.75 0 0 1 232,184.5969 L239,204.3937 L502.5,204.3937 A2.5,2.5 0 0 1 505,206.8937 L505,293.1969 A2.5,2.5 0 0 1 502.5,295.6969 L51.5,295.6969 A2.5,2.5 0 0 1 49,293.1969 L49,184.5969 A2.5,2.5 0 0 1 51.5,182.0969 " fill="#100D23" style="stroke:#000000;stroke-width:1.5;"/><line style="stroke:#000000;stroke-width:1.5;" x1="49" x2="239" y1="204.3937" y2="204.3937"/><text fill="#FFFFFF" font-family="sans-serif" font-size="14" font-weight="bold" lengthAdjust="spacing" textLength="177" x="53" y="197.092">Frontend Components</text></g><!--cluster API Endpoints--><g id="cluster_API Endpoints"><path d="M8.5,373.0569 L117.5,373.0569 A3.75,3.75 0 0 1 120,375.5569 L127,395.3538 L634.5,395.3538 A2.5,2.5 0 0 1 637,397.8538 L637,484.1569 A2.5,2.5 0 0 1 634.5,486.6569 L8.5,486.6569 A2.5,2.5 0 0 1 6,484.1569 L6,375.5569 A2.5,2.5 0 0 1 8.5,373.0569 " fill="#100D23" style="stroke:#000000;stroke-width:1.5;"/><line style="stroke:#000000;stroke-width:1.5;" x1="6" x2="127" y1="395.3538" y2="395.3538"/><text fill="#FFFFFF" font-family="sans-serif" font-size="14" font-weight="bold" lengthAdjust="spacing" textLength="108" x="10" y="388.052">API Endpoints</text></g><!--entity Vue--><g id="elem_Vue"><rect fill="#00FF9C" height="62.5938" rx="2.5" ry="2.5" style="stroke:#00FF9C;stroke-width:0.5;" width="116" x="65" y="217.0969"/><rect fill="#00FF9C" height="10" style="stroke:#00FF9C;stroke-width:0.5;" width="15" x="161" y="222.0969"/><rect fill="#00FF9C" height="2" style="stroke:#00FF9C;stroke-width:0.5;" width="4" x="159" y="224.0969"/><rect fill="#00FF9C" height="2" style="stroke:#00FF9C;stroke-width:0.5;" width="4" x="159" y="228.0969"/><text fill="#FFFFFF" font-family="sans-serif" font-size="14" lengthAdjust="spacing" textLength="42" x="80" y="250.092">Vue.js</text><text fill="#FFFFFF" font-family="sans-serif" font-size="14" lengthAdjust="spacing" textLength="76" x="80" y="266.3889">Reactive UI</text></g><!--entity D3--><g id="elem_D3"><rect fill="#00FF9C" height="62.5938" rx="2.5" ry="2.5" style="stroke:#00FF9C;stroke-width:0.5;" width="117" x="215.5" y="217.0969"/><rect fill="#00FF9C" height="10" style="stroke:#00FF9C;stroke-width:0.5;" width="15" x="312.5" y="222.0969"/><rect fill="#00FF9C" height="2" style="stroke:#00FF9C;stroke-width:0.5;" width="4" x="310.5" y="224.0969"/><rect fill="#00FF9C" height="2" style="stroke:#00FF9C;stroke-width:0.5;" width="4" x="310.5" y="228.0969"/><text fill="#FFFFFF" font-family="sans-serif" font-size="14" lengthAdjust="spacing" textLength="35" x="230.5" y="250.092">D3.js</text><text fill="#FFFFFF" font-family="sans-serif" font-size="14" lengthAdjust="spacing" textLength="77" x="230.5" y="266.3889">Radial Tree</text></g><!--entity Bootstrap--><g id="elem_Bootstrap"><rect fill="#00FF9C" height="62.5938" rx="2.5" ry="2.5" style="stroke:#00FF9C;stroke-width:0.5;" width="121" x="367.5" y="217.0969"/><rect fill="#00FF9C" height="10" style="stroke:#00FF9C;stroke-width:0.5;" width="15" x="468.5" y="222.0969"/><rect fill="#00FF9C" height="2" style="stroke:#00FF9C;stroke-width:0.5;" width="4" x="466.5" y="224.0969"/><rect fill="#00FF9C" height="2" style="stroke:#00FF9C;stroke-width:0.5;" width="4" x="466.5" y="228.0969"/><text fill="#FFFFFF" font-family="sans-serif" font-size="14" lengthAdjust="spacing" textLength="68" x="382.5" y="250.092">Bootstrap</text><text fill="#FFFFFF" font-family="sans-serif" font-size="14" lengthAdjust="spacing" textLength="81" x="382.5" y="266.3889">Responsive</text></g><!--entity PendingAPI--><g id="elem_PendingAPI"><rect fill="#00FF9C" height="62.5938" rx="2.5" ry="2.5" style="stroke:#00FF9C;stroke-width:0.5;" width="201" x="22.5" y="408.0569"/><rect fill="#00FF9C" height="10" style="stroke:#00FF9C;stroke-width:0.5;" width="15" x="203.5" y="413.0569"/><rect fill="#00FF9C" height="2" style="stroke:#00FF9C;stroke-width:0.5;" width="4" x="201.5" y="415.0569"/><rect fill="#00FF9C" height="2" style="stroke:#00FF9C;stroke-width:0.5;" width="4" x="201.5" y="419.0569"/><text fill="#FFFFFF" font-family="sans-serif" font-size="14" lengthAdjust="spacing" textLength="161" x="37.5" y="441.052">/api/pending-accounts/</text><text fill="#FFFFFF" font-family="sans-serif" font-size="14" lengthAdjust="spacing" textLength="116" x="37.5" y="457.3489">(5s auto-refresh)</text></g><!--entity StagesAPI--><g id="elem_StagesAPI"><rect fill="#00FF9C" height="62.5938" rx="2.5" ry="2.5" style="stroke:#00FF9C;stroke-width:0.5;" width="195" x="258.5" y="408.0569"/><rect fill="#00FF9C" height="10" style="stroke:#00FF9C;stroke-width:0.5;" width="15" x="433.5" y="413.0569"/><rect fill="#00FF9C" height="2" style="stroke:#00FF9C;stroke-width:0.5;" width="4" x="431.5" y="415.0569"/><rect fill="#00FF9C" height="2" style="stroke:#00FF9C;stroke-width:0.5;" width="4" x="431.5" y="419.0569"/><text fill="#FFFFFF" font-family="sans-serif" font-size="14" lengthAdjust="spacing" textLength="155" x="273.5" y="441.052">/api/stage-executions/</text><text fill="#FFFFFF" font-family="sans-serif" font-size="14" lengthAdjust="spacing" textLength="116" x="273.5" y="457.3489">(5s auto-refresh)</text></g><!--entity SearchAPI--><g id="elem_SearchAPI"><rect fill="#00FF9C" height="62.5938" rx="2.5" ry="2.5" style="stroke:#00FF9C;stroke-width:0.5;" width="133" x="488.5" y="408.0569"/><rect fill="#00FF9C" height="10" style="stroke:#00FF9C;stroke-width:0.5;" width="15" x="601.5" y="413.0569"/><rect fill="#00FF9C" height="2" style="stroke:#00FF9C;stroke-width:0.5;" width="4" x="599.5" y="415.0569"/><rect fill="#00FF9C" height="2" style="stroke:#00FF9C;stroke-width:0.5;" width="4" x="599.5" y="419.0569"/><text fill="#FFFFFF" font-family="sans-serif" font-size="14" lengthAdjust="spacing" textLength="57" x="503.5" y="441.052">/search/</text><text fill="#FFFFFF" font-family="sans-serif" font-size="14" lengthAdjust="spacing" textLength="93" x="503.5" y="457.3489">(Main search)</text></g><!--entity User--><g id="elem_User"><ellipse cx="274" cy="51.2969" fill="#00FF9C" rx="8" ry="8" style="stroke:#181818;stroke-width:0.5;"/><path d="M274,59.2969 L274,86.2969 M261,67.2969 L287,67.2969 M274,86.2969 L261,101.2969 M274,86.2969 L287,101.2969 " fill="none" style="stroke:#181818;stroke-width:0.5;"/><text fill="#FFFFFF" font-family="sans-serif" font-size="14" lengthAdjust="spacing" textLength="32" x="258" y="115.792">User</text></g><!--entity DB--><g id="elem_DB"><path d="M316,607.0169 C316,597.0169 356,597.0169 356,597.0169 C356,597.0169 396,597.0169 396,607.0169 L396,632.3138 C396,642.3138 356,642.3138 356,642.3138 C356,642.3138 316,642.3138 316,632.3138 L316,607.0169 " fill="#00FF9C" style="stroke:#00FF9C;stroke-width:0.5;"/><path d="M316,607.0169 C316,617.0169 356,617.0169 356,617.0169 C356,617.0169 396,617.0169 396,607.0169 " fill="none" style="stroke:#00FF9C;stroke-width:0.5;"/><text fill="#FFFFFF" font-family="sans-serif" font-size="14" lengthAdjust="spacing" textLength="60" x="326" y="634.012">Astra DB</text></g><g id="elem_GMN20"><path d="M657,358.6969 L657,520.025 L921,520.025 L921,368.6969 L911,358.6969 L657,358.6969 " fill="#FEFFDD" style="stroke:#181818;stroke-width:0.5;"/><path d="M911,358.6969 L911,368.6969 L921,368.6969 L911,358.6969 " fill="#FEFFDD" style="stroke:#181818;stroke-width:1.0;"/><text fill="#00FF9C" font-family="sans-serif" font-size="13" lengthAdjust="spacing" textLength="111" x="663" y="375.7638">Optimized Query:</text><text fill="#FFFFFF" font-family="sans-serif" font-size="13" lengthAdjust="spacing" textLength="4" x="663" y="390.8966">&#160;</text><text fill="#FFFFFF" font-family="sans-serif" font-size="13" lengthAdjust="spacing" textLength="232" x="663" y="406.0294">FROM stellar_account_search_cache</text><text fill="#FFFFFF" font-family="sans-serif" font-size="13" lengthAdjust="spacing" textLength="115" x="663" y="421.1622">WHERE status IN (</text><text fill="#FFFFFF" font-family="sans-serif" font-size="13" lengthAdjust="spacing" textLength="5" x="663" y="436.295">)</text><text fill="#FFFFFF" font-family="sans-serif" font-size="13" lengthAdjust="spacing" textLength="4" x="663" y="451.4278">&#160;</text><text fill="#FFFFFF" font-family="sans-serif" font-size="13" lengthAdjust="spacing" textLength="243" x="663" y="466.5606">FROM stellar_creator_account_lineage</text><text fill="#FFFFFF" font-family="sans-serif" font-size="13" lengthAdjust="spacing" textLength="132" x="663" y="481.6935">WHERE status IN (...)</text><text fill="#FFFFFF" font-family="sans-serif" font-size="13" lengthAdjust="spacing" textLength="4" x="663" y="496.8263">&#160;</text><text fill="#00FF9C" font-family="sans-serif" font-size="13" lengthAdjust="spacing" textLength="164" x="663" y="511.9591">Result: 88% fewer queries</text></g><g id="elem_GMN23"><path d="M956.5,396.5269 L956.5,482.1909 L1137.5,482.1909 L1137.5,406.5269 L1127.5,396.5269 L956.5,396.5269 " fill="#FEFFDD" style="stroke:#181818;stroke-width:0.5;"/><path d="M1127.5,396.5269 L1127.5,406.5269 L1137.5,406.5269 L1127.5,396.5269 " fill="#FEFFDD" style="stroke:#181818;stroke-width:1.0;"/><text fill="#00FF9C" font-family="sans-serif" font-size="13" lengthAdjust="spacing" textLength="60" x="962.5" y="413.5938">Features:</text><text fill="#FFFFFF" font-family="sans-serif" font-size="13" lengthAdjust="spacing" textLength="133" x="962.5" y="428.7266">&#8226; Real-time progress</text><text fill="#FFFFFF" font-family="sans-serif" font-size="13" lengthAdjust="spacing" textLength="159" x="962.5" y="443.8594">&#8226; Interactive JSON viewer</text><text fill="#FFFFFF" font-family="sans-serif" font-size="13" lengthAdjust="spacing" textLength="160" x="962.5" y="458.9922">&#8226; Immediate initialization</text><text fill="#FFFFFF" font-family="sans-serif" font-size="13" lengthAdjust="spacing" textLength="147" x="962.5" y="474.125">&#8226; 8 stages per address</text></g><!--link User to Vue--><g id="link_User_Vue"><path d="M257.7,97.9469 C244.16,111.3869 224.51,131.1969 208,149.0969 C187.51,171.3269 169.0584,192.6389 152.4284,212.2689 " fill="none" id="User-to-Vue" style="stroke:#C592FF;stroke-width:1.0;"/><polygon fill="#C592FF" points="148.55,216.8469,157.4196,212.5654,151.782,213.0319,151.3155,207.3943,148.55,216.8469" style="stroke:#C592FF;stroke-width:1.0;"/><text fill="#FFFFFF" font-family="sans-serif" font-size="13" lengthAdjust="spacing" textLength="56" x="209" y="162.1638">Interacts</text></g><!--link User to D3--><g id="link_User_D3"><path d="M274,119.4869 C274,148.8569 274,183.1769 274,210.6469 " fill="none" id="User-to-D3" style="stroke:#C592FF;stroke-width:1.0;"/><polygon fill="#C592FF" points="274,216.6469,278,207.6469,274,211.6469,270,207.6469,274,216.6469" style="stroke:#C592FF;stroke-width:1.0;"/><text fill="#FFFFFF" font-family="sans-serif" font-size="13" lengthAdjust="spacing" textLength="68" x="275" y="162.1638">Views Tree</text></g><!--link Vue to PendingAPI--><g id="link_Vue_PendingAPI"><path d="M123,280.1769 C123,315.3169 123,366.4569 123,401.5869 " fill="none" id="Vue-to-PendingAPI" style="stroke:#C592FF;stroke-width:1.0;"/><polygon fill="#C592FF" points="123,407.5869,127,398.5869,123,402.5869,119,398.5869,123,407.5869" style="stroke:#C592FF;stroke-width:1.0;"/><text fill="#FFFFFF" font-family="sans-serif" font-size="13" lengthAdjust="spacing" textLength="87" x="124" y="324.7638">Polls every 5s</text></g><!--link Vue to StagesAPI--><g id="link_Vue_StagesAPI"><path d="M160.97,280.0069 C172.45,288.3869 185.36,296.9869 198,303.6969 C207.19,308.5669 211.13,306.2569 220,311.6969 C263.07,338.0569 300.2753,375.0769 325.8253,403.3269 " fill="none" id="Vue-to-StagesAPI" style="stroke:#C592FF;stroke-width:1.0;"/><polygon fill="#C592FF" points="329.85,407.7769,326.7797,398.4188,326.4961,404.0686,320.8464,403.785,329.85,407.7769" style="stroke:#C592FF;stroke-width:1.0;"/><text fill="#FFFFFF" font-family="sans-serif" font-size="13" lengthAdjust="spacing" textLength="87" x="241" y="324.7638">Polls every 5s</text></g><!--link User to SearchAPI--><g id="link_User_SearchAPI"><path d="M290.21,83.2369 C332.77,87.5269 448.31,105.2869 505,174.0969 C561.26,242.3869 562.0334,348.3905 558.4234,401.9605 " fill="none" id="User-to-SearchAPI" style="stroke:#C592FF;stroke-width:1.0;"/><polygon fill="#C592FF" points="558.02,407.9469,562.6161,399.2362,558.3562,402.9582,554.6342,398.6983,558.02,407.9469" style="stroke:#C592FF;stroke-width:1.0;"/><text fill="#FFFFFF" font-family="sans-serif" font-size="13" lengthAdjust="spacing" textLength="60" x="555" y="252.9638">Searches</text></g><!--link PendingAPI to DB--><g id="link_PendingAPI_DB"><path d="M145.71,471.0069 C167.63,498.9269 203,539.8069 241,567.0169 C263.78,583.3269 286.927,594.1005 309.977,602.9305 " fill="none" id="PendingAPI-to-DB" style="stroke:#C592FF;stroke-width:1.0;"/><polygon fill="#C592FF" points="315.58,605.0769,308.6065,598.122,310.9109,603.2882,305.7447,605.5926,315.58,605.0769" style="stroke:#C592FF;stroke-width:1.0;"/><text fill="#FFFFFF" font-family="sans-serif" font-size="13" lengthAdjust="spacing" textLength="105" x="242" y="563.0838">2 queries with IN</text></g><!--link StagesAPI to DB--><g id="link_StagesAPI_DB"><path d="M356,471.0069 C356,506.7569 356,558.9669 356,590.5669 " fill="none" id="StagesAPI-to-DB" style="stroke:#C592FF;stroke-width:1.0;"/><polygon fill="#C592FF" points="356,596.5669,360,587.5669,356,591.5669,352,587.5669,356,596.5669" style="stroke:#C592FF;stroke-width:1.0;"/><text fill="#FFFFFF" font-family="sans-serif" font-size="13" lengthAdjust="spacing" textLength="82" x="357" y="563.0838">Stage status</text></g><!--link SearchAPI to DB--><g id="link_SearchAPI_DB"><path d="M534.05,470.9469 C514.16,498.4269 482.29,538.6969 448,567.0169 C432.47,579.8569 418.6215,588.4254 401.8015,597.1854 " fill="none" id="SearchAPI-to-DB" style="stroke:#C592FF;stroke-width:1.0;"/><polygon fill="#C592FF" points="396.48,599.9569,406.31,599.3473,400.9146,597.6473,402.6146,592.2519,396.48,599.9569" style="stroke:#C592FF;stroke-width:1.0;"/><text fill="#FFFFFF" font-family="sans-serif" font-size="13" lengthAdjust="spacing" textLength="96" x="465" y="563.0838">Initiate pipeline</text></g><!--link PendingAPI to GMN20--><g id="link_PendingAPI_GMN20"><path d="M150.54,407.7969 C175.65,381.6069 215.32,346.3169 258.5,331.1969 C334.21,304.6769 542.49,308.7169 619.5,331.1969 C640.78,337.4069 661.93,347.1869 681.71,358.3869 " fill="none" id="PendingAPI-GMN20" style="stroke:#C592FF;stroke-width:1.0;stroke-dasharray:7.0,7.0;"/></g><!--link StagesAPI to GMN23--><g id="link_StagesAPI_GMN23"><path d="M382.78,407.8069 C407.24,381.6369 445.98,346.3469 488.5,331.1969 C579.14,298.8969 831.3,297.6869 921.5,331.1969 C956.69,344.2669 988.61,372.1169 1011.46,396.2869 " fill="none" id="StagesAPI-GMN23" style="stroke:#C592FF;stroke-width:1.0;stroke-dasharray:7.0,7.0;"/></g><!--SRC=[hLJjRjCm5FsVfxWAWcqI_Q3LOAkcIUlQZY2jxLesX1YglEIsCqlZO3ih6vh4i_1eF0dNJffcRSelyYk-FlUUS- -nhUvu53F9vd33_BkP54aKd8fGI7ZHVDSuVDjqL8vWlkRtN3_0JmVeQwydlAdNEurckYTaW3ABr-kztk6fZVT4fBFer7xEKmd1YPHYaS7y_SC6mJP1OysaVivG1XBnDao0KvQ4UbDI0UEBUImYZBJjUNl7vVrkbWOewUsfo1WmpMwOmlz4IBKrro72aM_YhGnxt9C4nIY0Lt0oz4YLVyir-ZgHU5Ipq6F7eIbIgKk5Amud9abiXk3c5KwNCrBkKg0LlvgTUvLWzPkwZaPeZK6uz5nW2YXUK5z8w3HJF0iu2-6ZHBJuJhCStXP2AorPR2WKHHMHs8ny9qzyAlHWMkz6GIpulzJNMCnhCRNAerc5-JxveLNjEjhTLy0IBIeIfnBLxPvb7AP0KxfKgwscDF5Ny0VwYUOaTskriG6gxSKKChBEf9yp7a6wp5BjVp6LMi-FbtjYnWATTZhOzifXwtVbItOwlrQEhKqjS3toMvA1oYt1a3K4kUAuKAbVZibw1YbCXg134OOAy1xb0-oh4lYgzHBqfe1LkmHF5qZ00kbplMs3Qy3t12L71GkkRy7hkywAjWHlDu7SqmdLNb6MGBs8QyuqGinZ37b44t4YGMl9PxSQnBGm3p9rxNuEOitd_143k2213wtyKWAOUpuQd9CA34Cc9zc9dAJUJtn6ZHFcq_lkg9j9fSPWrpx0EyDkl-FrptPUfqklFncE1cUZxdYy38sw4wz_SUcDFkzGOA-4qPV8w6N8cKrtD9SoqcgrcbLOQv3kAJs-BJWuU0bJN92RcHDvf-PjCGDR7rjkq6RH7kcY5qmLn_Ndrs-WToUiq43932bc153Pnl98cpVfmtZGXtjkj2ntvtCCh8VScXdoHsQkQxPz0FOQAuX9FGi2MpTN_HS0]--></g></svg>