<?xml version="1.0" encoding="us-ascii" standalone="no"?><svg xmlns="http://www.w3.org/2000/svg" xmlns:xlink="http://www.w3.org/1999/xlink" contentStyleType="text/css" height="500px" preserveAspectRatio="none" style="width:1368px;height:500px;background:#372963;" version="1.1" viewBox="0 0 1368 500" width="1368px" zoomAndPan="magnify"><defs/><g><rect fill="#372963" height="500" style="stroke:none;stroke-width:1.0;" width="1368" x="0" y="0"/><text fill="#00FF9C" font-family="sans-serif" font-size="14" font-weight="bold" lengthAdjust="spacing" textLength="220" x="567.25" y="22.9951">Monitoring &amp; Health System</text><!--cluster Monitoring Components--><g id="cluster_Monitoring Components"><path d="M83.5,205.6869 L273.5,205.6869 A3.75,3.75 0 0 1 276,208.1869 L283,227.9838 L586.5,227.9838 A2.5,2.5 0 0 1 589,230.4838 L589,316.7869 A2.5,2.5 0 0 1 586.5,319.2869 L83.5,319.2869 A2.5,2.5 0 0 1 81,316.7869 L81,208.1869 A2.5,2.5 0 0 1 83.5,205.6869 " fill="#100D23" style="stroke:#000000;stroke-width:1.5;"/><line style="stroke:#000000;stroke-width:1.5;" x1="81" x2="283" y1="227.9838" y2="227.9838"/><text fill="#FFFFFF" font-family="sans-serif" font-size="14" font-weight="bold" lengthAdjust="spacing" textLength="189" x="85" y="220.682">Monitoring Components</text></g><!--entity CronHealth--><g id="elem_CronHealth"><rect fill="#00FF9C" height="62.5938" rx="2.5" ry="2.5" style="stroke:#00FF9C;stroke-width:0.5;" width="121" x="97.5" y="240.6869"/><rect fill="#00FF9C" height="10" style="stroke:#00FF9C;stroke-width:0.5;" width="15" x="198.5" y="245.6869"/><rect fill="#00FF9C" height="2" style="stroke:#00FF9C;stroke-width:0.5;" width="4" x="196.5" y="247.6869"/><rect fill="#00FF9C" height="2" style="stroke:#00FF9C;stroke-width:0.5;" width="4" x="196.5" y="251.6869"/><text fill="#FFFFFF" font-family="sans-serif" font-size="14" lengthAdjust="spacing" textLength="81" x="112.5" y="273.682">Cron Health</text><text fill="#FFFFFF" font-family="sans-serif" font-size="14" lengthAdjust="spacing" textLength="52" x="112.5" y="289.9789">Monitor</text></g><!--entity Recovery--><g id="elem_Recovery"><rect fill="#00FF9C" height="62.5938" rx="2.5" ry="2.5" style="stroke:#00FF9C;stroke-width:0.5;" width="133" x="253.5" y="240.6869"/><rect fill="#00FF9C" height="10" style="stroke:#00FF9C;stroke-width:0.5;" width="15" x="366.5" y="245.6869"/><rect fill="#00FF9C" height="2" style="stroke:#00FF9C;stroke-width:0.5;" width="4" x="364.5" y="247.6869"/><rect fill="#00FF9C" height="2" style="stroke:#00FF9C;stroke-width:0.5;" width="4" x="364.5" y="251.6869"/><text fill="#FFFFFF" font-family="sans-serif" font-size="14" lengthAdjust="spacing" textLength="93" x="268.5" y="273.682">Stuck Record</text><text fill="#FFFFFF" font-family="sans-serif" font-size="14" lengthAdjust="spacing" textLength="64" x="268.5" y="289.9789">Recovery</text></g><!--entity StageTracker--><g id="elem_StageTracker"><rect fill="#00FF9C" height="62.5938" rx="2.5" ry="2.5" style="stroke:#00FF9C;stroke-width:0.5;" width="152" x="421" y="240.6869"/><rect fill="#00FF9C" height="10" style="stroke:#00FF9C;stroke-width:0.5;" width="15" x="553" y="245.6869"/><rect fill="#00FF9C" height="2" style="stroke:#00FF9C;stroke-width:0.5;" width="4" x="551" y="247.6869"/><rect fill="#00FF9C" height="2" style="stroke:#00FF9C;stroke-width:0.5;" width="4" x="551" y="251.6869"/><text fill="#FFFFFF" font-family="sans-serif" font-size="14" lengthAdjust="spacing" textLength="112" x="436" y="273.682">Stage Execution</text><text fill="#FFFFFF" font-family="sans-serif" font-size="14" lengthAdjust="spacing" textLength="52" x="436" y="289.9789">Tracker</text></g><!--entity CronWorker--><g id="elem_CronWorker"><rect fill="#00FF9C" height="62.5938" rx="2.5" ry="2.5" style="stroke:#00FF9C;stroke-width:0.5;" width="167" x="223.5" y="44.2969"/><rect fill="#00FF9C" height="10" style="stroke:#00FF9C;stroke-width:0.5;" width="15" x="370.5" y="49.2969"/><rect fill="#00FF9C" height="2" style="stroke:#00FF9C;stroke-width:0.5;" width="4" x="368.5" y="51.2969"/><rect fill="#00FF9C" height="2" style="stroke:#00FF9C;stroke-width:0.5;" width="4" x="368.5" y="55.2969"/><text fill="#FFFFFF" font-family="sans-serif" font-size="14" lengthAdjust="spacing" textLength="86" x="238.5" y="77.292">Cron Worker</text><text fill="#FFFFFF" font-family="sans-serif" font-size="14" lengthAdjust="spacing" textLength="127" x="238.5" y="93.5889">(run_cron_jobs.py)</text></g><!--entity HealthDB--><g id="elem_HealthDB"><path d="M6,432.0869 C6,422.0869 100,422.0869 100,422.0869 C100,422.0869 194,422.0869 194,432.0869 L194,473.6806 C194,483.6806 100,483.6806 100,483.6806 C100,483.6806 6,483.6806 6,473.6806 L6,432.0869 " fill="#00FF9C" style="stroke:#00FF9C;stroke-width:0.5;"/><path d="M6,432.0869 C6,442.0869 100,442.0869 100,442.0869 C100,442.0869 194,442.0869 194,432.0869 " fill="none" style="stroke:#00FF9C;stroke-width:0.5;"/><text fill="#FFFFFF" font-family="sans-serif" font-size="14" lengthAdjust="spacing" textLength="168" x="16" y="459.082">ManagementCronHealth</text><text fill="#FFFFFF" font-family="sans-serif" font-size="14" lengthAdjust="spacing" textLength="38" x="16" y="475.3789">Table</text></g><!--entity StageDB--><g id="elem_StageDB"><path d="M489,432.0869 C489,422.0869 555,422.0869 555,422.0869 C555,422.0869 621,422.0869 621,432.0869 L621,473.6806 C621,483.6806 555,483.6806 555,483.6806 C555,483.6806 489,483.6806 489,473.6806 L489,432.0869 " fill="#00FF9C" style="stroke:#00FF9C;stroke-width:0.5;"/><path d="M489,432.0869 C489,442.0869 555,442.0869 555,442.0869 C555,442.0869 621,442.0869 621,432.0869 " fill="none" style="stroke:#00FF9C;stroke-width:0.5;"/><text fill="#FFFFFF" font-family="sans-serif" font-size="14" lengthAdjust="spacing" textLength="112" x="499" y="459.082">Stage Execution</text><text fill="#FFFFFF" font-family="sans-serif" font-size="14" lengthAdjust="spacing" textLength="38" x="499" y="475.3789">Table</text></g><!--entity DataDB--><g id="elem_DataDB"><path d="M273,432.0869 C273,422.0869 342,422.0869 342,422.0869 C342,422.0869 411,422.0869 411,432.0869 L411,473.6806 C411,483.6806 342,483.6806 342,483.6806 C342,483.6806 273,483.6806 273,473.6806 L273,432.0869 " fill="#00FF9C" style="stroke:#00FF9C;stroke-width:0.5;"/><path d="M273,432.0869 C273,442.0869 342,442.0869 342,442.0869 C342,442.0869 411,442.0869 411,432.0869 " fill="none" style="stroke:#00FF9C;stroke-width:0.5;"/><text fill="#FFFFFF" font-family="sans-serif" font-size="14" lengthAdjust="spacing" textLength="118" x="283" y="459.082">Cache &amp; Lineage</text><text fill="#FFFFFF" font-family="sans-serif" font-size="14" lengthAdjust="spacing" textLength="46" x="283" y="475.3789">Tables</text></g><g id="elem_GMN17"><path d="M608,214.0169 L608,329.9466 L814,329.9466 L814,224.0169 L804,214.0169 L608,214.0169 " fill="#FEFFDD" style="stroke:#181818;stroke-width:0.5;"/><path d="M804,214.0169 L804,224.0169 L814,224.0169 L804,214.0169 " fill="#FEFFDD" style="stroke:#181818;stroke-width:1.0;"/><text fill="#00FF9C" font-family="sans-serif" font-size="13" lengthAdjust="spacing" textLength="107" x="614" y="231.0838">Health Statuses:</text><text fill="#FFFFFF" font-family="sans-serif" font-size="13" lengthAdjust="spacing" textLength="70" x="614" y="246.2166">&#8226; HEALTHY</text><text fill="#FFFFFF" font-family="sans-serif" font-size="13" lengthAdjust="spacing" textLength="185" x="614" y="261.3494">&#8226; UNHEALTHY_RATE_LIMITED</text><text fill="#FFFFFF" font-family="sans-serif" font-size="13" lengthAdjust="spacing" textLength="4" x="614" y="276.4822">&#160;</text><text fill="#00FF9C" font-family="sans-serif" font-size="13" lengthAdjust="spacing" textLength="62" x="614" y="291.615">Recovery:</text><text fill="#FFFFFF" font-family="sans-serif" font-size="13" lengthAdjust="spacing" textLength="157" x="614" y="306.7478">Manual cleanup required</text><text fill="#FFFFFF" font-family="sans-serif" font-size="13" lengthAdjust="spacing" textLength="121" x="614" y="321.8806">via .allow_filtering()</text></g><g id="elem_GMN20"><path d="M849,198.8869 L849,345.0822 L1133,345.0822 L1133,208.8869 L1123,198.8869 L849,198.8869 " fill="#FEFFDD" style="stroke:#181818;stroke-width:0.5;"/><path d="M1123,198.8869 L1123,208.8869 L1133,208.8869 L1123,198.8869 " fill="#FEFFDD" style="stroke:#181818;stroke-width:1.0;"/><text fill="#00FF9C" font-family="sans-serif" font-size="13" lengthAdjust="spacing" textLength="113" x="855" y="215.9538">Stuck Thresholds:</text><text fill="#FFFFFF" font-family="sans-serif" font-size="13" lengthAdjust="spacing" textLength="159" x="855" y="231.0866">Detects records stuck in:</text><text fill="#FFFFFF" font-family="sans-serif" font-size="13" lengthAdjust="spacing" textLength="71" x="855" y="246.2194">&#8226; PENDING</text><text fill="#FFFFFF" font-family="sans-serif" font-size="13" lengthAdjust="spacing" textLength="102" x="855" y="261.3522">&#8226; IN_PROGRESS</text><text fill="#FFFFFF" font-family="sans-serif" font-size="13" lengthAdjust="spacing" textLength="4" x="855" y="276.485">&#160;</text><text fill="#00FF9C" font-family="sans-serif" font-size="13" lengthAdjust="spacing" textLength="116" x="855" y="291.6178">Terminal Statuses</text><text fill="#FFFFFF" font-family="sans-serif" font-size="13" lengthAdjust="spacing" textLength="120" x="855" y="306.7506">(Never recovered):</text><text fill="#FFFFFF" font-family="sans-serif" font-size="13" lengthAdjust="spacing" textLength="56" x="855" y="321.8835">&#8226; FAILED</text><text fill="#FFFFFF" font-family="sans-serif" font-size="13" lengthAdjust="spacing" textLength="263" x="855" y="337.0163">&#8226; INVALID_HORIZON_STELLAR_ADDRESS</text></g><g id="elem_GMN23"><path d="M1168.5,221.5869 L1168.5,322.3838 L1361.5,322.3838 L1361.5,231.5869 L1351.5,221.5869 L1168.5,221.5869 " fill="#FEFFDD" style="stroke:#181818;stroke-width:0.5;"/><path d="M1351.5,221.5869 L1351.5,231.5869 L1361.5,231.5869 L1351.5,221.5869 " fill="#FEFFDD" style="stroke:#181818;stroke-width:1.0;"/><text fill="#00FF9C" font-family="sans-serif" font-size="13" lengthAdjust="spacing" textLength="100" x="1174.5" y="238.6538">Stage Lifecycle:</text><text fill="#FFFFFF" font-family="sans-serif" font-size="13" lengthAdjust="spacing" textLength="144" x="1174.5" y="253.7866">1. Initialize all 8 stages</text><text fill="#FFFFFF" font-family="sans-serif" font-size="13" lengthAdjust="spacing" textLength="172" x="1174.5" y="268.9194">2. Update status per stage</text><text fill="#FFFFFF" font-family="sans-serif" font-size="13" lengthAdjust="spacing" textLength="149" x="1174.5" y="284.0522">3. Track execution time</text><text fill="#FFFFFF" font-family="sans-serif" font-size="13" lengthAdjust="spacing" textLength="81" x="1174.5" y="299.185">4. Log errors</text><text fill="#FFFFFF" font-family="sans-serif" font-size="13" lengthAdjust="spacing" textLength="94" x="1174.5" y="314.3178">5. Display in UI</text></g><!--link CronWorker to CronHealth--><g id="link_CronWorker_CronHealth"><path d="M297.94,106.9869 C291.42,125.8669 281.42,150.0469 268,168.8869 C256.9,184.4769 250.08,184.7369 236,197.6869 C220.82,211.6469 208.5053,223.1705 194.4753,236.4005 " fill="none" id="CronWorker-to-CronHealth" style="stroke:#C592FF;stroke-width:1.0;"/><polygon fill="#C592FF" points="190.11,240.5169,199.4021,237.2525,193.7477,237.0866,193.9137,231.4322,190.11,240.5169" style="stroke:#C592FF;stroke-width:1.0;"/><text fill="#FFFFFF" font-family="sans-serif" font-size="13" lengthAdjust="spacing" textLength="116" x="287" y="157.4538">Checks before run</text></g><!--link CronHealth to CronWorker--><g id="link_CronHealth_CronWorker"><path d="M146.55,240.4369 C137.72,211.2269 130.17,167.2669 151,136.8869 C167.66,112.5769 189.9135,99.8578 217.6035,91.1978 " fill="none" id="CronHealth-to-CronWorker" style="stroke:#C592FF;stroke-width:1.0;"/><polygon fill="#C592FF" points="223.33,89.4069,213.5463,88.2756,218.5579,90.8993,215.9343,95.9109,223.33,89.4069" style="stroke:#C592FF;stroke-width:1.0;"/><text fill="#FFFFFF" font-family="sans-serif" font-size="13" lengthAdjust="spacing" textLength="107" x="152" y="149.9538">Skips processing</text><text fill="#FFFFFF" font-family="sans-serif" font-size="13" lengthAdjust="spacing" textLength="84" x="163.5" y="165.0866">(if unhealthy)</text></g><!--link CronHealth to HealthDB--><g id="link_CronHealth_HealthDB"><path d="M148.03,303.7369 C137.31,336.8069 122.2319,383.3298 111.5919,416.1198 " fill="none" id="CronHealth-to-HealthDB" style="stroke:#C592FF;stroke-width:1.0;"/><polygon fill="#C592FF" points="109.74,421.8269,116.3225,414.5009,111.2832,417.071,108.7131,412.0317,109.74,421.8269" style="stroke:#C592FF;stroke-width:1.0;"/><text fill="#FFFFFF" font-family="sans-serif" font-size="13" lengthAdjust="spacing" textLength="83" x="125" y="388.1538">Reads status</text></g><!--link CronWorker to StageTracker--><g id="link_CronWorker_StageTracker"><path d="M372.07,107.3869 C386.15,115.7769 400.31,125.6969 412,136.8869 C443.46,167.0069 465.7921,205.6526 480.3321,234.9426 " fill="none" id="CronWorker-to-StageTracker" style="stroke:#C592FF;stroke-width:1.0;"/><polygon fill="#C592FF" points="483,240.3169,482.581,230.4769,480.7768,235.8383,475.4154,234.0341,483,240.3169" style="stroke:#C592FF;stroke-width:1.0;"/><text fill="#FFFFFF" font-family="sans-serif" font-size="13" lengthAdjust="spacing" textLength="105" x="439" y="149.9538">Executes stages</text><text fill="#FFFFFF" font-family="sans-serif" font-size="13" lengthAdjust="spacing" textLength="68" x="457.5" y="165.0866">(if healthy)</text></g><!--link StageTracker to StageDB--><g id="link_StageTracker_StageDB"><path d="M506.97,303.7369 C517.69,336.8069 532.7681,383.3298 543.4081,416.1198 " fill="none" id="StageTracker-to-StageDB" style="stroke:#C592FF;stroke-width:1.0;"/><polygon fill="#C592FF" points="545.26,421.8269,546.2869,412.0317,543.7168,417.071,538.6775,414.5009,545.26,421.8269" style="stroke:#C592FF;stroke-width:1.0;"/><text fill="#FFFFFF" font-family="sans-serif" font-size="13" lengthAdjust="spacing" textLength="114" x="535" y="388.1538">Updates progress</text></g><!--link Recovery to DataDB--><g id="link_Recovery_DataDB"><path d="M278.03,303.6669 C256.91,321.7769 233.42,346.7069 222,375.0869 C219.18,382.0969 218.02,385.6569 222,392.0869 C233.58,410.7869 247.4975,421.3447 267.3475,430.3647 " fill="none" id="Recovery-to-DataDB" style="stroke:#C592FF;stroke-width:1.0;"/><polygon fill="#C592FF" points="272.81,432.8469,266.2711,425.4819,268.2579,430.7784,262.9615,432.7652,272.81,432.8469" style="stroke:#C592FF;stroke-width:1.0;"/><text fill="#FFFFFF" font-family="sans-serif" font-size="13" lengthAdjust="spacing" textLength="123" x="223" y="388.1538">Finds stuck records</text></g><!--link Recovery to DataDB--><g id="link_Recovery_DataDB"><path d="M333.73,303.3169 C343.06,327.0869 353.31,361.1869 351,392.0869 C350.27,401.8169 349.7984,406.4476 348.3284,415.9376 " fill="none" id="Recovery-to-DataDB-1" style="stroke:#C592FF;stroke-width:1.0;"/><polygon fill="#C592FF" points="347.41,421.8669,352.7405,413.5852,348.1754,416.9258,344.8348,412.3606,347.41,421.8669" style="stroke:#C592FF;stroke-width:1.0;"/><text fill="#FFFFFF" font-family="sans-serif" font-size="13" lengthAdjust="spacing" textLength="123" x="353" y="388.1538">Resets to PENDING</text></g><!--link CronHealth to GMN17--><g id="link_CronHealth_GMN17"><path d="M172.93,240.2469 C188.49,211.3069 215.89,170.3969 253.5,152.2869 C380.84,90.9769 438.96,103.2169 571.5,152.2869 C605.47,164.8669 636.74,189.8169 661.02,213.6969 " fill="none" id="CronHealth-GMN17" style="stroke:#C592FF;stroke-width:1.0;stroke-dasharray:7.0,7.0;"/></g><!--link Recovery to GMN20--><g id="link_Recovery_GMN20"><path d="M336.38,240.1969 C353.3,211.2169 382.68,170.2669 421.5,152.2869 C500.54,115.6769 730.19,126.8269 813.5,152.2869 C845.49,162.0669 876.93,179.7669 904.24,198.6069 " fill="none" id="Recovery-GMN20" style="stroke:#C592FF;stroke-width:1.0;stroke-dasharray:7.0,7.0;"/></g><!--link StageTracker to GMN23--><g id="link_StageTracker_GMN23"><path d="M515.6,240.3869 C534.73,211.3269 567.48,170.1369 608.5,152.2869 C715.27,105.8269 1023.82,110.4669 1132.5,152.2869 C1168.81,166.2569 1201.36,195.2969 1225.12,221.2769 " fill="none" id="StageTracker-GMN23" style="stroke:#C592FF;stroke-width:1.0;stroke-dasharray:7.0,7.0;"/></g><!--SRC=[hLNHRjCm57tFLrmL2MqFbB4nO1EQL9gMHSewr7OWO2XoazlMDBM3xGmAGk9R-3I-X1l7ITEr5I_a9RNlFVVSStoTwWKN6LDi2HCMBsPAvYBfobGgU73o_FZisOcdwmmM6tx7pGf-U43Fg_k09qT7_l596PCgGUNsZuxw_REktUzBOTpkr3xUpnq47QNaLvSMdvuTKzfsqiWmPJOPTYN9R5zEWbEMfsQxfKPEB9UP52YCrRnVyMwzswK1TcZxsMHCc64Jfl4_4L9jmqsAy38kzizTxiML5Dn8nSKC7i8bijJCORJI1fSl7zlC2y_BY9tD45gDv6vbY6vLtTXErqQrkaeAL_9ME6WBc8OYuAZMBJU08vF72nXYJDfkHV6-GxMoq6gn3rYqsVk6SMwu5BTYhAXrB5bjq6tKSBBbViVlfAACMt6WSX75j1DzbXFTpbQ7TVDbIbt4gy-gTSK4iIofsbeajS4cALfqkUE_gh5hw7RpDSg6TeAwB9uZdLp81LAE0scByYch0V8QdJ_ww6RkqwEBvd6SKyKvnWiD4vnAXK0UjBn6mWQm5aEm8R94WpRCvBgrdslZ40XMoaMBdA4cr_aKvhOk-Urjf6yNAgblClA3IcHApXJgYdvNnuss23XQyCp2OaBHK9VikLZpU_MyRPHnpbA9FXTMTZ6moWuiqVyBD4IDHeEHyAOty8F1Qo8Iqf3RV3Ot8AUD8w41ltTZgqjghKPzNjzJW3-_ViDbhnEEBz-xrSt0hQDXPzoBmk0g6FTy2cxNhRfk5gHnpbaASOhq8oE5NtAkCA787MVGPcaglqPJdXeiFWe7XnwA10efzmLLnRTfoyi-djF9pMMQREZnqM1CJZbddSzSd3jrpZwt2WRHc-7rws5lDDefS8ngoGN9gQnhC1qCaDgpHFJ6vB2Yw7U2q1fMChpjX84VNLuFWm_NWsWqxeLXPnXrVD-oxbFV7EDT3XGNF-HJZ5VaTDE09sq8wBl9MSg_8v3TyCBT50eUjw4SVNVj82C5Dah1apPOGi3gWmA6Bul8qpQ4SWP8_p-gA7FQ1f_hB6KhSXPkWhMAlm00]--></g></svg>