<?xml version="1.0" encoding="us-ascii" standalone="no"?><svg xmlns="http://www.w3.org/2000/svg" xmlns:xlink="http://www.w3.org/1999/xlink" contentStyleType="text/css" height="440px" preserveAspectRatio="none" style="width:2513px;height:440px;background:#261D45;" version="1.1" viewBox="0 0 2513 440" width="2513px" zoomAndPan="magnify"><defs/><g><rect fill="#261D45" height="440" style="stroke:none;stroke-width:1.0;" width="2513" x="0" y="0"/><text fill="#0BE784" font-family="sans-serif" font-size="14" font-weight="bold" lengthAdjust="spacing" textLength="220" x="1139.75" y="22.9951">Monitoring &amp; Health System</text><!--cluster Monitoring Components--><g id="cluster_Monitoring Components"><path d="M717,100.8569 L907,100.8569 A3.75,3.75 0 0 1 909.5,103.3569 L916.5,123.1538 L1424,123.1538 A2.5,2.5 0 0 1 1426.5,125.6538 L1426.5,211.9469 A2.5,2.5 0 0 1 1424,214.4469 L717,214.4469 A2.5,2.5 0 0 1 714.5,211.9469 L714.5,103.3569 A2.5,2.5 0 0 1 717,100.8569 " fill="#231B3D" style="stroke:#3F2C70;stroke-width:1.5;"/><line style="stroke:#3F2C70;stroke-width:1.5;" x1="714.5" x2="916.5" y1="123.1538" y2="123.1538"/><text fill="#96DDF2" font-family="sans-serif" font-size="14" font-weight="bold" lengthAdjust="spacing" textLength="189" x="718.5" y="115.852">Monitoring Components</text></g><!--entity HealthMonitor--><g id="elem_HealthMonitor"><rect fill="#100D23" height="62.5938" rx="2.5" ry="2.5" style="stroke:#0BE784;stroke-width:0.5;" width="92" x="1000.5" y="135.8569"/><rect fill="#100D23" height="10" style="stroke:#0BE784;stroke-width:0.5;" width="15" x="1072.5" y="140.8569"/><rect fill="#100D23" height="2" style="stroke:#0BE784;stroke-width:0.5;" width="4" x="1070.5" y="142.8569"/><rect fill="#100D23" height="2" style="stroke:#0BE784;stroke-width:0.5;" width="4" x="1070.5" y="146.8569"/><text fill="#96DDF2" font-family="sans-serif" font-size="14" lengthAdjust="spacing" textLength="44" x="1015.5" y="168.852">Health</text><text fill="#96DDF2" font-family="sans-serif" font-size="14" lengthAdjust="spacing" textLength="52" x="1015.5" y="185.1489">Monitor</text></g><!--entity Recovery--><g id="elem_Recovery"><rect fill="#100D23" height="62.5938" rx="2.5" ry="2.5" style="stroke:#0BE784;stroke-width:0.5;" width="133" x="1278" y="135.8569"/><rect fill="#100D23" height="10" style="stroke:#0BE784;stroke-width:0.5;" width="15" x="1391" y="140.8569"/><rect fill="#100D23" height="2" style="stroke:#0BE784;stroke-width:0.5;" width="4" x="1389" y="142.8569"/><rect fill="#100D23" height="2" style="stroke:#0BE784;stroke-width:0.5;" width="4" x="1389" y="146.8569"/><text fill="#96DDF2" font-family="sans-serif" font-size="14" lengthAdjust="spacing" textLength="93" x="1293" y="168.852">Stuck Record</text><text fill="#96DDF2" font-family="sans-serif" font-size="14" lengthAdjust="spacing" textLength="64" x="1293" y="185.1489">Recovery</text></g><!--entity ProgressTracker--><g id="elem_ProgressTracker"><rect fill="#100D23" height="62.5938" rx="2.5" ry="2.5" style="stroke:#0BE784;stroke-width:0.5;" width="102" x="730.5" y="135.8569"/><rect fill="#100D23" height="10" style="stroke:#0BE784;stroke-width:0.5;" width="15" x="812.5" y="140.8569"/><rect fill="#100D23" height="2" style="stroke:#0BE784;stroke-width:0.5;" width="4" x="810.5" y="142.8569"/><rect fill="#100D23" height="2" style="stroke:#0BE784;stroke-width:0.5;" width="4" x="810.5" y="146.8569"/><text fill="#96DDF2" font-family="sans-serif" font-size="14" lengthAdjust="spacing" textLength="62" x="745.5" y="168.852">Progress</text><text fill="#96DDF2" font-family="sans-serif" font-size="14" lengthAdjust="spacing" textLength="52" x="745.5" y="185.1489">Tracker</text></g><!--entity RateLimiter--><g id="elem_RateLimiter"><rect fill="#100D23" height="62.5938" rx="2.5" ry="2.5" style="stroke:#0BE784;stroke-width:0.5;" width="97" x="868" y="135.8569"/><rect fill="#100D23" height="10" style="stroke:#0BE784;stroke-width:0.5;" width="15" x="945" y="140.8569"/><rect fill="#100D23" height="2" style="stroke:#0BE784;stroke-width:0.5;" width="4" x="943" y="142.8569"/><rect fill="#100D23" height="2" style="stroke:#0BE784;stroke-width:0.5;" width="4" x="943" y="146.8569"/><text fill="#96DDF2" font-family="sans-serif" font-size="14" lengthAdjust="spacing" textLength="57" x="883" y="168.852">API Rate</text><text fill="#96DDF2" font-family="sans-serif" font-size="14" lengthAdjust="spacing" textLength="45" x="883" y="185.1489">Limiter</text></g><!--entity Dashboard--><g id="elem_Dashboard"><rect fill="#100D23" height="62.5938" rx="2.5" ry="2.5" style="stroke:#0BE784;stroke-width:0.5;" width="116" x="1127.5" y="135.8569"/><rect fill="#100D23" height="10" style="stroke:#0BE784;stroke-width:0.5;" width="15" x="1223.5" y="140.8569"/><rect fill="#100D23" height="2" style="stroke:#0BE784;stroke-width:0.5;" width="4" x="1221.5" y="142.8569"/><rect fill="#100D23" height="2" style="stroke:#0BE784;stroke-width:0.5;" width="4" x="1221.5" y="146.8569"/><text fill="#96DDF2" font-family="sans-serif" font-size="14" lengthAdjust="spacing" textLength="76" x="1142.5" y="168.852">Dashboard</text><text fill="#96DDF2" font-family="sans-serif" font-size="14" lengthAdjust="spacing" textLength="50" x="1142.5" y="185.1489">Metrics</text></g><!--entity BQPipeline--><g id="elem_BQPipeline"><rect fill="#100D23" height="62.5938" rx="2.5" ry="2.5" style="stroke:#0BE784;stroke-width:0.5;" width="161" x="679" y="351.4769"/><rect fill="#100D23" height="10" style="stroke:#0BE784;stroke-width:0.5;" width="15" x="820" y="356.4769"/><rect fill="#100D23" height="2" style="stroke:#0BE784;stroke-width:0.5;" width="4" x="818" y="358.4769"/><rect fill="#100D23" height="2" style="stroke:#0BE784;stroke-width:0.5;" width="4" x="818" y="362.4769"/><text fill="#96DDF2" font-family="sans-serif" font-size="14" lengthAdjust="spacing" textLength="121" x="694" y="384.472">BigQuery Pipeline</text><text fill="#96DDF2" font-family="sans-serif" font-size="14" lengthAdjust="spacing" textLength="60" x="694" y="400.7689">(Primary)</text></g><!--entity APIPipeline--><g id="elem_APIPipeline"><rect fill="#100D23" height="62.5938" rx="2.5" ry="2.5" style="stroke:#0BE784;stroke-width:0.5;" width="130" x="201.5" y="351.4769"/><rect fill="#100D23" height="10" style="stroke:#0BE784;stroke-width:0.5;" width="15" x="311.5" y="356.4769"/><rect fill="#100D23" height="2" style="stroke:#0BE784;stroke-width:0.5;" width="4" x="309.5" y="358.4769"/><rect fill="#100D23" height="2" style="stroke:#0BE784;stroke-width:0.5;" width="4" x="309.5" y="362.4769"/><text fill="#96DDF2" font-family="sans-serif" font-size="14" lengthAdjust="spacing" textLength="79" x="216.5" y="384.472">API Pipeline</text><text fill="#96DDF2" font-family="sans-serif" font-size="14" lengthAdjust="spacing" textLength="90" x="216.5" y="400.7689">(Educational)</text></g><!--entity HealthDB--><g id="elem_HealthDB"><path d="M1357.5,361.9769 C1357.5,351.9769 1451.5,351.9769 1451.5,351.9769 C1451.5,351.9769 1545.5,351.9769 1545.5,361.9769 L1545.5,403.5706 C1545.5,413.5706 1451.5,413.5706 1451.5,413.5706 C1451.5,413.5706 1357.5,413.5706 1357.5,403.5706 L1357.5,361.9769 " fill="#100D23" style="stroke:#0BE784;stroke-width:0.5;"/><path d="M1357.5,361.9769 C1357.5,371.9769 1451.5,371.9769 1451.5,371.9769 C1451.5,371.9769 1545.5,371.9769 1545.5,361.9769 " fill="none" style="stroke:#0BE784;stroke-width:0.5;"/><text fill="#96DDF2" font-family="sans-serif" font-size="14" lengthAdjust="spacing" textLength="168" x="1367.5" y="388.972">ManagementCronHealth</text><text fill="#96DDF2" font-family="sans-serif" font-size="14" lengthAdjust="spacing" textLength="38" x="1367.5" y="405.2689">Table</text></g><!--entity ProgressDB--><g id="elem_ProgressDB"><path d="M6,361.9769 C6,351.9769 78.5,351.9769 78.5,351.9769 C78.5,351.9769 151,351.9769 151,361.9769 L151,403.5706 C151,413.5706 78.5,413.5706 78.5,413.5706 C78.5,413.5706 6,413.5706 6,403.5706 L6,361.9769 " fill="#100D23" style="stroke:#0BE784;stroke-width:0.5;"/><path d="M6,361.9769 C6,371.9769 78.5,371.9769 78.5,371.9769 C78.5,371.9769 151,371.9769 151,361.9769 " fill="none" style="stroke:#0BE784;stroke-width:0.5;"/><text fill="#96DDF2" font-family="sans-serif" font-size="14" lengthAdjust="spacing" textLength="125" x="16" y="388.972">Progress Tracking</text><text fill="#96DDF2" font-family="sans-serif" font-size="14" lengthAdjust="spacing" textLength="38" x="16" y="405.2689">Table</text></g><!--entity DataDB--><g id="elem_DataDB"><path d="M1743.5,361.9769 C1743.5,351.9769 1812.5,351.9769 1812.5,351.9769 C1812.5,351.9769 1881.5,351.9769 1881.5,361.9769 L1881.5,403.5706 C1881.5,413.5706 1812.5,413.5706 1812.5,413.5706 C1812.5,413.5706 1743.5,413.5706 1743.5,403.5706 L1743.5,361.9769 " fill="#100D23" style="stroke:#0BE784;stroke-width:0.5;"/><path d="M1743.5,361.9769 C1743.5,371.9769 1812.5,371.9769 1812.5,371.9769 C1812.5,371.9769 1881.5,371.9769 1881.5,361.9769 " fill="none" style="stroke:#0BE784;stroke-width:0.5;"/><text fill="#96DDF2" font-family="sans-serif" font-size="14" lengthAdjust="spacing" textLength="118" x="1753.5" y="388.972">Cache &amp; Lineage</text><text fill="#96DDF2" font-family="sans-serif" font-size="14" lengthAdjust="spacing" textLength="46" x="1753.5" y="405.2689">Tables</text></g><!--entity CacheDB--><g id="elem_CacheDB"><path d="M1141,361.9769 C1141,351.9769 1199.5,351.9769 1199.5,351.9769 C1199.5,351.9769 1258,351.9769 1258,361.9769 L1258,403.5706 C1258,413.5706 1199.5,413.5706 1199.5,413.5706 C1199.5,413.5706 1141,413.5706 1141,403.5706 L1141,361.9769 " fill="#100D23" style="stroke:#0BE784;stroke-width:0.5;"/><path d="M1141,361.9769 C1141,371.9769 1199.5,371.9769 1199.5,371.9769 C1199.5,371.9769 1258,371.9769 1258,361.9769 " fill="none" style="stroke:#0BE784;stroke-width:0.5;"/><text fill="#96DDF2" font-family="sans-serif" font-size="14" lengthAdjust="spacing" textLength="97" x="1151" y="388.972">Django Cache</text><text fill="#96DDF2" font-family="sans-serif" font-size="14" lengthAdjust="spacing" textLength="92" x="1151" y="405.2689">(rate metrics)</text></g><g id="elem_GMN28"><path d="M875,332.3769 L875,378.7769 L840.1,382.7769 L875,386.7769 L875,433.1738 A0,0 0 0 0 875,433.1738 L1100,433.1738 A0,0 0 0 0 1100,433.1738 L1100,342.3769 L1090,332.3769 L875,332.3769 A0,0 0 0 0 875,332.3769 " fill="#231B3D" style="stroke:#3F2C70;stroke-width:0.5;"/><path d="M1090,332.3769 L1090,342.3769 L1100,342.3769 L1090,332.3769 " fill="#231B3D" style="stroke:#3F2C70;stroke-width:0.5;"/><text fill="#0BE784" font-family="sans-serif" font-size="13" lengthAdjust="spacing" textLength="115" x="881" y="349.4438">BigQuery Pipeline:</text><text fill="#96DDF2" font-family="sans-serif" font-size="13" lengthAdjust="spacing" textLength="172" x="881" y="364.5766">&#8226; 50-90 second processing</text><text fill="#96DDF2" font-family="sans-serif" font-size="13" lengthAdjust="spacing" textLength="98" x="881" y="379.7094">&#8226; No rate limits</text><text fill="#96DDF2" font-family="sans-serif" font-size="13" lengthAdjust="spacing" textLength="204" x="881" y="394.8422">&#8226; Age-based filtering (&lt;2 years)</text><text fill="#96DDF2" font-family="sans-serif" font-size="13" lengthAdjust="spacing" textLength="177" x="881" y="409.975">&#8226; Up to 100 accounts/batch</text><text fill="#0BE784" font-family="sans-serif" font-size="13" lengthAdjust="spacing" textLength="184" x="881" y="425.1078">&#8226; Comma-formatted metrics</text></g><g id="elem_GMN31"><path d="M367,347.5169 L367,378.7769 L331.85,382.7769 L367,386.7769 L367,418.0481 A0,0 0 0 0 367,418.0481 L644,418.0481 A0,0 0 0 0 644,418.0481 L644,357.5169 L634,347.5169 L367,347.5169 A0,0 0 0 0 367,347.5169 " fill="#231B3D" style="stroke:#3F2C70;stroke-width:0.5;"/><path d="M634,347.5169 L634,357.5169 L644,357.5169 L634,347.5169 " fill="#231B3D" style="stroke:#3F2C70;stroke-width:0.5;"/><text fill="#96DDF2" font-family="sans-serif" font-size="13" lengthAdjust="spacing" textLength="155" x="373" y="364.5838">API Pipeline (Reference):</text><text fill="#96DDF2" font-family="sans-serif" font-size="13" lengthAdjust="spacing" textLength="137" x="373" y="379.7166">&#8226; 8 sequential stages</text><text fill="#96DDF2" font-family="sans-serif" font-size="13" lengthAdjust="spacing" textLength="149" x="373" y="394.8494">&#8226; Educational purposes</text><text fill="#96DDF2" font-family="sans-serif" font-size="13" lengthAdjust="spacing" textLength="256" x="373" y="409.9822">&#8226; Rate limited: 0.5s Horizon, 1.0s Expert</text></g><g id="elem_GMN34"><path d="M1698.5,109.1869 L1698.5,225.1166 L1904.5,225.1166 L1904.5,119.1869 L1894.5,109.1869 L1698.5,109.1869 " fill="#231B3D" style="stroke:#3F2C70;stroke-width:0.5;"/><path d="M1894.5,109.1869 L1894.5,119.1869 L1904.5,119.1869 L1894.5,109.1869 " fill="#231B3D" style="stroke:#3F2C70;stroke-width:1.0;"/><text fill="#0BE784" font-family="sans-serif" font-size="13" lengthAdjust="spacing" textLength="107" x="1704.5" y="126.2538">Health Statuses:</text><text fill="#96DDF2" font-family="sans-serif" font-size="13" lengthAdjust="spacing" textLength="70" x="1704.5" y="141.3866">&#8226; HEALTHY</text><text fill="#E5526F" font-family="sans-serif" font-size="13" lengthAdjust="spacing" textLength="185" x="1704.5" y="156.5194">&#8226; UNHEALTHY_RATE_LIMITED</text><text fill="#96DDF2" font-family="sans-serif" font-size="13" lengthAdjust="spacing" textLength="4" x="1704.5" y="171.6522">&#160;</text><text fill="#0BE784" font-family="sans-serif" font-size="13" lengthAdjust="spacing" textLength="62" x="1704.5" y="186.785">Recovery:</text><text fill="#96DDF2" font-family="sans-serif" font-size="13" lengthAdjust="spacing" textLength="122" x="1704.5" y="201.9178">Manual cleanup via</text><text fill="#96DDF2" font-family="sans-serif" font-size="13" lengthAdjust="spacing" textLength="184" x="1704.5" y="217.0506">clear_old_pending command</text></g><g id="elem_GMN37"><path d="M2222.5,94.0569 L2222.5,240.2522 L2506.5,240.2522 L2506.5,104.0569 L2496.5,94.0569 L2222.5,94.0569 " fill="#231B3D" style="stroke:#3F2C70;stroke-width:0.5;"/><path d="M2496.5,94.0569 L2496.5,104.0569 L2506.5,104.0569 L2496.5,94.0569 " fill="#231B3D" style="stroke:#3F2C70;stroke-width:1.0;"/><text fill="#0BE784" font-family="sans-serif" font-size="13" lengthAdjust="spacing" textLength="113" x="2228.5" y="111.1238">Stuck Thresholds:</text><text fill="#96DDF2" font-family="sans-serif" font-size="13" lengthAdjust="spacing" textLength="159" x="2228.5" y="126.2566">Detects records stuck in:</text><text fill="#96DDF2" font-family="sans-serif" font-size="13" lengthAdjust="spacing" textLength="144" x="2228.5" y="141.3894">&#8226; PENDING (&gt;2 hours)</text><text fill="#96DDF2" font-family="sans-serif" font-size="13" lengthAdjust="spacing" textLength="102" x="2228.5" y="156.5222">&#8226; IN_PROGRESS</text><text fill="#96DDF2" font-family="sans-serif" font-size="13" lengthAdjust="spacing" textLength="4" x="2228.5" y="171.655">&#160;</text><text fill="#0BE784" font-family="sans-serif" font-size="13" lengthAdjust="spacing" textLength="120" x="2228.5" y="186.7878">Terminal Statuses:</text><text fill="#96DDF2" font-family="sans-serif" font-size="13" lengthAdjust="spacing" textLength="116" x="2228.5" y="201.9206">(Never recovered)</text><text fill="#E5526F" font-family="sans-serif" font-size="13" lengthAdjust="spacing" textLength="56" x="2228.5" y="217.0535">&#8226; FAILED</text><text fill="#96DDF2" font-family="sans-serif" font-size="13" lengthAdjust="spacing" textLength="263" x="2228.5" y="232.1863">&#8226; INVALID_HORIZON_STELLAR_ADDRESS</text></g><g id="elem_GMN40"><path d="M1446,116.7469 L1446,217.5438 L1663,217.5438 L1663,126.7469 L1653,116.7469 L1446,116.7469 " fill="#231B3D" style="stroke:#3F2C70;stroke-width:0.5;"/><path d="M1653,116.7469 L1653,126.7469 L1663,126.7469 L1653,116.7469 " fill="#231B3D" style="stroke:#3F2C70;stroke-width:1.0;"/><text fill="#0BE784" font-family="sans-serif" font-size="13" lengthAdjust="spacing" textLength="111" x="1452" y="133.8138">API Rate Limiting:</text><text fill="#96DDF2" font-family="sans-serif" font-size="13" lengthAdjust="spacing" textLength="134" x="1452" y="148.9466">&#8226; Horizon: 0.5s delay</text><text fill="#96DDF2" font-family="sans-serif" font-size="13" lengthAdjust="spacing" textLength="171" x="1452" y="164.0794">&#8226; Stellar Expert: 1.0s delay</text><text fill="#96DDF2" font-family="sans-serif" font-size="13" lengthAdjust="spacing" textLength="174" x="1452" y="179.2122">&#8226; Shared metrics via cache</text><text fill="#96DDF2" font-family="sans-serif" font-size="13" lengthAdjust="spacing" textLength="175" x="1452" y="194.345">&#8226; Cross-process awareness</text><text fill="#0BE784" font-family="sans-serif" font-size="13" lengthAdjust="spacing" textLength="196" x="1452" y="209.4778">&#8226; Prevents infinite queue loops</text></g><g id="elem_GMN43"><path d="M1939.5,78.9169 L1939.5,255.3778 L2187.5,255.3778 L2187.5,88.9169 L2177.5,78.9169 L1939.5,78.9169 " fill="#231B3D" style="stroke:#3F2C70;stroke-width:0.5;"/><path d="M2177.5,78.9169 L2177.5,88.9169 L2187.5,88.9169 L2177.5,78.9169 " fill="#231B3D" style="stroke:#3F2C70;stroke-width:1.0;"/><text fill="#0BE784" font-family="sans-serif" font-size="13" lengthAdjust="spacing" textLength="133" x="1945.5" y="95.9838">Dashboard Sections:</text><text fill="#96DDF2" font-family="sans-serif" font-size="13" lengthAdjust="spacing" textLength="227" x="1945.5" y="111.1166">1. Alerts &amp; Recommendations (top)</text><text fill="#96DDF2" font-family="sans-serif" font-size="13" lengthAdjust="spacing" textLength="153" x="1945.5" y="126.2494">2. API Health Monitoring</text><text fill="#96DDF2" font-family="sans-serif" font-size="13" lengthAdjust="spacing" textLength="82" x="1957.5" y="141.3822">&#8226; Call counts</text><text fill="#96DDF2" font-family="sans-serif" font-size="13" lengthAdjust="spacing" textLength="84" x="1957.5" y="156.515">&#8226; Burst limits</text><text fill="#96DDF2" font-family="sans-serif" font-size="13" lengthAdjust="spacing" textLength="86" x="1957.5" y="171.6478">&#8226; Rate delays</text><text fill="#96DDF2" font-family="sans-serif" font-size="13" lengthAdjust="spacing" textLength="145" x="1957.5" y="186.7806">&#8226; Last call timestamps</text><text fill="#96DDF2" font-family="sans-serif" font-size="13" lengthAdjust="spacing" textLength="114" x="1945.5" y="201.9135">3. BigQuery Costs</text><text fill="#96DDF2" font-family="sans-serif" font-size="13" lengthAdjust="spacing" textLength="124" x="1945.5" y="217.0463">4. Database Health</text><text fill="#96DDF2" font-family="sans-serif" font-size="13" lengthAdjust="spacing" textLength="148" x="1945.5" y="232.1791">5. Performance Metrics</text><text fill="#0BE784" font-family="sans-serif" font-size="13" lengthAdjust="spacing" textLength="198" x="1945.5" y="247.3119">All numbers comma-formatted</text></g><!--link BQPipeline to ProgressTracker--><g id="link_BQPipeline_ProgressTracker"><path d="M707.58,351.0569 C693.11,343.7769 677.07,336.8369 661.5,332.3769 C589.86,311.8969 283.9,344.3169 329.5,285.3769 C378.68,221.8269 616.8016,187.1022 724.4216,174.3622 " fill="none" id="BQPipeline-to-ProgressTracker" style="stroke:#0BE784;stroke-width:1.0;"/><polygon fill="#0BE784" points="730.38,173.6569,720.9722,170.7426,725.4147,174.2447,721.9126,178.6872,730.38,173.6569" style="stroke:#0BE784;stroke-width:1.0;"/><text fill="#96DDF2" font-family="sans-serif" font-size="13" lengthAdjust="spacing" textLength="114" x="330.5" y="298.4438">Tracks processing</text></g><!--link APIPipeline to ProgressTracker--><g id="link_APIPipeline_ProgressTracker"><path d="M246.85,350.9969 C236.45,330.4369 228.6,303.8669 243.5,285.3769 C304.44,209.7269 601.7558,180.7425 724.1658,171.8325 " fill="none" id="APIPipeline-to-ProgressTracker" style="stroke:#96DDF2;stroke-width:1.0;stroke-dasharray:7.0,7.0;"/><polygon fill="#96DDF2" points="730.15,171.3969,720.8834,168.0608,725.1632,171.7599,721.4641,176.0397,730.15,171.3969" style="stroke:#96DDF2;stroke-width:1.0;"/><text fill="#96DDF2" font-family="sans-serif" font-size="13" lengthAdjust="spacing" textLength="72" x="244.5" y="298.4438">(If enabled)</text></g><!--link ProgressTracker to ProgressDB--><g id="link_ProgressTracker_ProgressDB"><path d="M730.43,171.5469 C593.97,181.5069 224.71,214.4969 128.5,285.3769 C106.64,301.4869 95.4419,324.273 88.1819,346.123 " fill="none" id="ProgressTracker-to-ProgressDB" style="stroke:#01C176;stroke-width:1.0;"/><polygon fill="#01C176" points="86.29,351.8169,92.9238,344.5373,87.8666,347.0719,85.3319,342.0147,86.29,351.8169" style="stroke:#01C176;stroke-width:1.0;"/><text fill="#96DDF2" font-family="sans-serif" font-size="13" lengthAdjust="spacing" textLength="98" x="129.5" y="298.4438">Updates status</text></g><!--link HealthMonitor to HealthDB--><g id="link_HealthMonitor_HealthDB"><path d="M1060.81,198.6169 C1071.63,218.1269 1088.41,242.1869 1110.5,255.3769 C1192.95,304.6369 1235.83,248.4869 1324.5,285.3769 C1361.56,300.7969 1392.9615,325.6177 1417.0615,347.7577 " fill="none" id="HealthMonitor-to-HealthDB" style="stroke:#01C176;stroke-width:1.0;"/><polygon fill="#01C176" points="1421.48,351.8169,1417.5583,342.7825,1417.7979,348.4342,1412.1461,348.6738,1421.48,351.8169" style="stroke:#01C176;stroke-width:1.0;"/><text fill="#96DDF2" font-family="sans-serif" font-size="13" lengthAdjust="spacing" textLength="99" x="1355.5" y="298.4438">Monitors health</text></g><!--link HealthMonitor to BQPipeline--><g id="link_HealthMonitor_BQPipeline"><path d="M1050.16,198.7369 C1051.97,229.2569 1049.41,275.3869 1022.5,302.3769 C969.87,355.1569 928.17,308.6969 857.5,332.3769 C842.78,337.3169 832.8712,341.4428 818.8712,348.4128 " fill="none" id="HealthMonitor-to-BQPipeline" style="stroke:#01C176;stroke-width:1.0;"/><polygon fill="#01C176" points="813.5,351.0869,823.3395,350.6565,817.976,348.8585,819.774,343.495,813.5,351.0869" style="stroke:#01C176;stroke-width:1.0;"/><text fill="#96DDF2" font-family="sans-serif" font-size="13" lengthAdjust="spacing" textLength="108" x="1034.5" y="298.4438">Checks BigQuery</text></g><!--link HealthMonitor to APIPipeline--><g id="link_HealthMonitor_APIPipeline"><path d="M1032.62,198.5169 C1021.89,218.2569 1005.05,242.6069 982.5,255.3769 C919.97,290.7969 731.15,272.1969 660.5,285.3769 C633.25,290.4669 627.68,296.9369 600.5,302.3769 C490.34,324.4269 455.86,296.1969 349.5,332.3769 C336.16,336.9169 327.8025,340.7393 315.6625,347.9293 " fill="none" id="HealthMonitor-to-APIPipeline" style="stroke:#96DDF2;stroke-width:1.0;stroke-dasharray:7.0,7.0;"/><polygon fill="#96DDF2" points="310.5,350.9869,320.2821,349.8422,314.8021,348.4389,316.2054,342.9589,310.5,350.9869" style="stroke:#96DDF2;stroke-width:1.0;"/><text fill="#96DDF2" font-family="sans-serif" font-size="13" lengthAdjust="spacing" textLength="72" x="661.5" y="298.4438">(If enabled)</text></g><!--link Recovery to DataDB--><g id="link_Recovery_DataDB"><path d="M1364.79,198.9269 C1379.8,218.8469 1402.15,243.2469 1428.5,255.3769 C1480.06,279.1169 1899.56,244.0769 1938.5,285.3769 C1965.24,313.7369 1929.4409,337.8475 1887.1409,355.8475 " fill="none" id="Recovery-to-DataDB" style="stroke:#01C176;stroke-width:1.0;"/><polygon fill="#01C176" points="1881.62,358.1969,1891.4676,358.3535,1886.2208,356.2391,1888.3352,350.9923,1881.62,358.1969" style="stroke:#01C176;stroke-width:1.0;"/><text fill="#96DDF2" font-family="sans-serif" font-size="13" lengthAdjust="spacing" textLength="123" x="1947.5" y="298.4438">Finds stuck records</text></g><!--link Recovery to DataDB--><g id="link_Recovery_DataDB"><path d="M1364.9,198.6969 C1379.95,218.5069 1402.32,242.8769 1428.5,255.3769 C1497.94,288.5369 1711.62,239.6369 1773.5,285.3769 C1794.55,300.9369 1803.0831,323.9154 1807.5431,346.0154 " fill="none" id="Recovery-to-DataDB-1" style="stroke:#01C176;stroke-width:1.0;"/><polygon fill="#01C176" points="1808.73,351.8969,1810.8706,342.2834,1807.7409,346.9957,1803.0287,343.866,1808.73,351.8969" style="stroke:#01C176;stroke-width:1.0;"/><text fill="#96DDF2" font-family="sans-serif" font-size="13" lengthAdjust="spacing" textLength="123" x="1789.5" y="298.4438">Resets to PENDING</text></g><!--link RateLimiter to CacheDB--><g id="link_RateLimiter_CacheDB"><path d="M900.25,198.9469 C886.9,228.9669 873.85,274.1169 898.5,302.3769 C930.79,339.3969 1071.18,316.0369 1117.5,332.3769 C1130.98,337.1369 1139.524,341.1651 1151.744,348.5451 " fill="none" id="RateLimiter-to-CacheDB" style="stroke:#01C176;stroke-width:1.0;"/><polygon fill="#01C176" points="1156.88,351.6469,1151.2438,343.5702,1152.6,349.062,1147.1081,350.4182,1156.88,351.6469" style="stroke:#01C176;stroke-width:1.0;"/><text fill="#96DDF2" font-family="sans-serif" font-size="13" lengthAdjust="spacing" textLength="118" x="899.5" y="298.4438">Stores API metrics</text></g><!--link RateLimiter to APIPipeline--><g id="link_RateLimiter_APIPipeline"><path d="M902,198.6169 C890.85,218.3969 873.47,242.7569 850.5,255.3769 C779.18,294.5769 564.12,264.3369 485.5,285.3769 C468.41,289.9569 466.02,296.0469 449.5,302.3769 C406.18,318.9969 391.98,313.7069 349.5,332.3769 C337.37,337.7069 330.0055,341.4214 318.4455,348.2014 " fill="none" id="RateLimiter-to-APIPipeline" style="stroke:#01C176;stroke-width:1.0;"/><polygon fill="#01C176" points="313.27,351.2369,323.0569,350.134,317.5829,348.7073,319.0096,343.2333,313.27,351.2369" style="stroke:#01C176;stroke-width:1.0;"/><text fill="#96DDF2" font-family="sans-serif" font-size="13" lengthAdjust="spacing" textLength="109" x="486.5" y="298.4438">Controls API calls</text></g><!--link RateLimiter to BQPipeline--><g id="link_RateLimiter_BQPipeline"><path d="M900.06,198.8069 C888.5,217.6369 871.4,240.8569 850.5,255.3769 C812.39,281.8569 778.2,248.1569 750.5,285.3769 C736.65,303.9869 738.5771,324.8148 744.9271,345.3448 " fill="none" id="RateLimiter-to-BQPipeline" style="stroke:#01C176;stroke-width:1.0;"/><polygon fill="#01C176" points="746.7,351.0769,747.862,341.2968,745.2225,346.3001,740.2192,343.6607,746.7,351.0769" style="stroke:#01C176;stroke-width:1.0;"/><text fill="#96DDF2" font-family="sans-serif" font-size="13" lengthAdjust="spacing" textLength="106" x="751.5" y="298.4438">Applies age filter</text></g><!--link Dashboard to HealthDB--><g id="link_Dashboard_HealthDB"><path d="M1203.48,198.6769 C1216.69,218.2169 1236.48,242.2769 1260.5,255.3769 C1303.04,278.5869 1444.68,248.8369 1476.5,285.3769 C1492.39,303.6369 1486.3086,325.4925 1474.9186,346.3225 " fill="none" id="Dashboard-to-HealthDB" style="stroke:#01C176;stroke-width:1.0;"/><polygon fill="#01C176" points="1472.04,351.5869,1479.8675,345.6094,1474.4388,347.1999,1472.8483,341.7712,1472.04,351.5869" style="stroke:#01C176;stroke-width:1.0;"/><text fill="#96DDF2" font-family="sans-serif" font-size="13" lengthAdjust="spacing" textLength="116" x="1484.5" y="298.4438">Reads health data</text></g><!--link Dashboard to CacheDB--><g id="link_Dashboard_CacheDB"><path d="M1187.51,198.7569 C1190.17,239.4869 1194.4671,305.0598 1197.1271,345.5898 " fill="none" id="Dashboard-to-CacheDB" style="stroke:#01C176;stroke-width:1.0;"/><polygon fill="#01C176" points="1197.52,351.5769,1200.922,342.3342,1197.1926,346.5876,1192.9392,342.8582,1197.52,351.5769" style="stroke:#01C176;stroke-width:1.0;"/><text fill="#96DDF2" font-family="sans-serif" font-size="13" lengthAdjust="spacing" textLength="121" x="1194.5" y="298.4438">Reads rate metrics</text></g><!--link Dashboard to DataDB--><g id="link_Dashboard_DataDB"><path d="M1202.98,198.6569 C1216.09,218.4569 1235.97,242.8169 1260.5,255.3769 C1329.79,290.8569 1534.37,265.0269 1609.5,285.3769 C1664.29,300.2269 1717.1449,326.4053 1757.0749,348.7653 " fill="none" id="Dashboard-to-DataDB" style="stroke:#01C176;stroke-width:1.0;"/><polygon fill="#01C176" points="1762.31,351.6969,1756.4117,343.8095,1757.9474,349.2539,1752.503,350.7896,1762.31,351.6969" style="stroke:#01C176;stroke-width:1.0;"/><text fill="#96DDF2" font-family="sans-serif" font-size="13" lengthAdjust="spacing" textLength="97" x="1656.5" y="298.4438">Counts records</text></g><!--link HealthMonitor to GMN34--><g id="link_HealthMonitor_GMN34"><path d="M1059.94,135.5869 C1072.97,109.8669 1095.56,75.9169 1128,63.9169 C1183.75,43.2969 1606.58,45.2069 1663,63.9169 C1691.18,73.2669 1718.28,90.8169 1740.92,108.8369 " fill="none" id="HealthMonitor-GMN34" style="stroke:#01C176;stroke-width:1.0;stroke-dasharray:7.0,7.0;"/></g><!--link Recovery to GMN37--><g id="link_Recovery_GMN37"><path d="M1364.11,135.4369 C1381.87,110.1969 1410.64,76.9969 1446,63.9169 C1484.61,49.6369 2147.25,53.1969 2187,63.9169 C2211.44,70.5069 2235.97,81.3869 2258.67,93.6569 " fill="none" id="Recovery-GMN37" style="stroke:#01C176;stroke-width:1.0;stroke-dasharray:7.0,7.0;"/></g><!--link RateLimiter to GMN40--><g id="link_RateLimiter_GMN40"><path d="M930.64,135.3869 C944.17,109.7369 967.36,75.9969 1000,63.9169 C1042.62,48.1569 1365.7,50.1169 1409,63.9169 C1442.35,74.5469 1474.6,95.9069 1500.24,116.4469 " fill="none" id="RateLimiter-GMN40" style="stroke:#01C176;stroke-width:1.0;stroke-dasharray:7.0,7.0;"/></g><!--link Dashboard to GMN43--><g id="link_Dashboard_GMN43"><path d="M1202.37,135.4069 C1218.03,109.9569 1244.03,76.4869 1278,63.9169 C1310.62,51.8569 1870.65,54.0669 1904,63.9169 C1916.5,67.6069 1928.93,72.6169 1941.03,78.4569 " fill="none" id="Dashboard-GMN43" style="stroke:#01C176;stroke-width:1.0;stroke-dasharray:7.0,7.0;"/></g><!--SRC=[hLRHRY8t57sVhxYYKaMaXG89oMwqYWGCsI0HmW9RgMqgvCmOS3DZJstFRjEgKh-bdzOlwRN70pCmattP9mRx75_VSw-FhPuPJuWaCJoHu7ahHSh3aOY4XEzwbrt_ek-fFIAa6v96-bPmxI3lBdt_jkSLC8684y4fr_2N1p0yNhFRwVYzSpCZP4Yb6-qCnrTlBt3qT6c0WPJYImxiZhfNbzxVnOWXqUI9AFgD0fRMJd0vigrPkdVU7PxxnqkVRth1LUVhItEXl-6wckc8mll0Z5-xz6xk1MTQICQty3tSKHBf7InVbAQnv-MPDGgWKLuxrSXtONTug6aZM-MHErO3Y78hkv4oVAdJu1aMDC1C7hdv_KpbYsNbVyg4kHHRIPLwv2k9EwHPX7pKZPKfW_a45aJJHpvbCTEEOaRS_pBS9sht98ZPpptLaWNAulV3Hiq2VCYs7rFS9inPGYF6CKnpBbbCvCkP9Gu_vZFUqQOAZ76O1aGpmKcKiN1-J_Fs7Tou9noB4kCI8obuBlQAF4Mq8BK_B51oRS2AWsKiulF94cD4WXt5ZfXYS8pcyBaCcfJ0_c-4RmLO3YOYKLQ8CzsoJEmCKho34D3wnRNWhwsRu-B1DJJifu94YW0dSCyDho28eMUT_IR4gj2mPfNcP0EKcxs7PmtFEqQOJLYxADBzeM5-IZ11ga1febE5t58Bbvcvv8Rd00fsTh3n6gyW1p97EseophkfWdcISL6HqsppurCEcfNFm6yP3qs2vln9U_umpw-H5bHHhK0Bc8zd_cJsmGGw7AGopHNUy9QO0xLDdVT6evvtbDS8xKoAA6C798fUuvP57IH9n32kyR4DYypHzxpzGQuluuAICA-XlJuQTQn2ZXcfsF-rh8EW8xHr57HV0C-wlcJRdGQnAQPpSFqZ4pyneEi29ckQc__- -HVwdTQx3YYCnCF2oQe6pqIMIMH4LjMOmPQsZ0U4JbjpGpJVz-254gdEgZcV4jCyUES22GAR-mzFH0UxqxGC6k-RcBGsGiP4QupZTFKePc24EfQhs3cdUhbj59qNcWkwePBoW9xLoFOM9VizHSDb939-iAKrSXGi799K9aBL8HTxPMbu3Prs7tqRBzW_1Ny3tNP7mVYFX4fTcsRP6ceR8x_GhOTHLPFVtNWmNTtzL9WSz_kzozkiN3CtlLuCLkFrT78_MOrDgDDekNLKXC5BAqLHWeZYHmAV6J4tBlwJQn65wmJpDBqJc6hpi3RjlJdLPfoz9bOxz9eThboLiayr3GudpXaWumPgCdQ-1isR7kn4cZMocPZCrlF5muV5UBcip7z5PSnCxL_HkpcZc82DZR_eqzMgtmucKwjo5lV7mNJYh-yU5fEV7sRhvMeydGuMwu7lsxtKgbMmo5h1ygSHM2GMeQv9ilPqpHhIYBnK0vUQHX6HheElitP-3RyZyd2mJMkWnQEbLgFnpQDKotaNa2_8vVXLRHvpYM8RSsLym_2eKC1ZdEB14oAfjv23OzUATe0iiPNmm5ULkjk6GOGIA7n7cSQDySqMMdjGqDGYgV37NjjUSUxO7fxTfqZ8McE4bo5aBbgB6M8BwreRTo3R0hPAzPWfmNNCzGkQnHIDC4ugmEVj_HC6tLjLnRnes_lFlXwpN4yn_JRCgRJ6ZzOCxXrUqR-u7Px6JnIVN47viZXK-7y0]--></g></svg>