<?xml version="1.0" encoding="us-ascii" standalone="no"?><svg xmlns="http://www.w3.org/2000/svg" xmlns:xlink="http://www.w3.org/1999/xlink" contentStyleType="text/css" height="1032px" preserveAspectRatio="none" style="width:1331px;height:1032px;background:#261D45;" version="1.1" viewBox="0 0 1331 1032" width="1331px" zoomAndPan="magnify"><defs/><g><rect fill="#261D45" height="1032" style="stroke:none;stroke-width:1.0;" width="1331" x="0" y="0"/><text fill="#0BE784" font-family="sans-serif" font-size="14" font-weight="bold" lengthAdjust="spacing" textLength="472" x="422.563" y="22.9951">Hybrid Production Architecture - Cost-Effective Deployment</text><!--cluster Cloudflare--><g id="cluster_Cloudflare"><path d="M181.2191,190.7075 C191.8361,175.5813 201.33,175.6101 211.2121,191.42 C219.8056,177.6913 234.3618,176.0535 242.1976,192.2056 C248.7211,178.1104 262.2984,175.2516 271.1139,189.8998 C281.0532,172.7812 290.841,176.0291 302.3667,188.2075 C306.9117,173.5293 320.5161,172.9675 329.8642,182.8245 C340.2922,165.7101 354.2279,164.1708 365.2951,182.1797 C373.7124,171.123 387.0864,169.8103 393.3921,184.4854 C400.5952,172.6513 413.2341,172.1252 420.8544,184.0024 C432.0597,169.2709 442.8977,170.1462 453.4143,184.7664 C461.5954,171.8404 475.1409,170.0279 482.6307,185.4782 C494.534,170.651 503.1032,174.915 512.2086,188.4012 C522.0086,172.4867 535.3504,174.9431 542.8841,190.603 C552.9815,175.5221 563.5592,176.9513 573.6843,190.5732 C586.1628,174.1458 602.4951,177.3067 608.126,197.0869 C608.9406,197.5955 609.1362,198.2905 608.2179,198.8876 C637.7861,210.8872 635.7949,238.4911 612.1111,254.2363 C638.8695,279.4195 631.0134,296.5832 601.126,310.7569 C603.0128,308.2229 605.3512,308.7616 606.6254,311.4073 C596.7353,327.7694 582.1367,330.7183 571.0913,312.5977 C563.8519,327.8109 554.8707,331.7704 541.9243,318.4266 C533.4265,330.3697 520.1737,330.3937 513.3333,316.5863 C505.5872,331.7917 490.4636,331.3546 482.5782,316.73 C474.2394,333.6019 461.1211,330.5063 451.8641,317.6796 C446.8518,331.6732 433.8308,336.0536 423.9839,322.5885 C413.9048,337.2965 401.0682,338.3771 392.3388,321.2469 C381.9303,334.8116 372.4668,332.2281 365.3557,318.0408 C357.2209,335.4527 343.1324,334.7751 332.6415,320.4711 C323.8186,333.6694 307.6488,335.5457 299.897,319.2807 C290.17,332.0689 277.9944,329.2853 270.7909,316.4178 C261.0063,329.1168 247.5308,329.4203 239.8206,314.123 C231.5633,326.4317 218.4293,327.5485 209.6993,314.6888 C192.214,331.6094 177.8707,327.1889 172.126,303.7569 C173.8211,304.6518 174.3782,306.1478 172.6531,307.5216 C147.5852,293.088 146.7032,266.6884 174.8223,254.4278 C146.5871,231.6991 142.7013,208.4906 179.126,190.0869 C180.1079,189.3446 180.8592,189.3518 181.2191,190.7075 " fill="#100D23" style="stroke:#3F2C70;stroke-width:1.0;"/><text fill="#96DDF2" font-family="sans-serif" font-size="14" font-weight="bold" lengthAdjust="spacing" textLength="119" x="330.626" y="208.082">Cloudflare CDN</text></g><!--cluster Replit--><g id="cluster_Replit"><path d="M58.5555,402.8327 C72.5698,381.1603 88.7982,375.8291 105.6602,399.9004 C125.8267,374.3694 144.3547,376.8539 163.9767,400.5455 C176.9244,373.8296 202.5652,374.8461 215.4448,400.6122 C225.0216,379.2704 248.0915,371.4078 264.0736,393.429 C282.4351,369.9746 305.1411,371.6621 316.5331,400.4301 C333.0697,369.9634 351.5548,371.5983 374.7334,392.9734 C391.5577,370.6232 409.362,373.6993 423.5978,395.8178 C441.4203,365.5046 463.7566,366.1759 480.9567,396.4075 C495.2994,372.907 515.4561,373.3445 528.1535,398.0193 C542.7321,366.3707 563.1457,369.0886 582.8373,392.9855 C600.2509,368.1482 625.0459,371.1633 634.5864,400.5054 C650.2629,378.1869 667.0948,372.3385 685.9383,397.0471 C706.7991,366.6412 727.407,364.7137 747.4883,397.8027 C766.6325,377.2161 784.7637,376.5294 798.126,403.9069 C802.4111,404.5897 804.3506,406.4408 802.1629,410.8741 C841.1637,431.9903 838.7315,462.7314 806.1799,487.594 C838.0299,516.2901 826.0196,546.1519 791.126,561.1969 C792.5399,560.1984 793.5759,560.5064 794.2092,562.1187 C784.4317,591.2974 761.5484,593.8318 743.8123,569.633 C729.0366,596.6434 708.4369,596.2417 690.5161,572.9663 C672.1444,598.4716 648.4796,597.0334 636.8573,566.5033 C626.2155,596.343 600.517,599.3319 582.9961,573.1127 C566.564,596.3465 546.5459,604.9554 527.4019,576.0017 C511.311,599.4472 488.283,593.8073 476.0486,571.6581 C466.7734,594.8207 446.9215,599.806 429.5038,580.6041 C406.5036,605.2651 386.4394,604.7971 372.9387,571.356 C356.1867,600.3742 334.2829,599.0675 314.9491,574.1309 C302.9887,596.3071 281.1705,598.1111 268.9635,574.3779 C253.4028,597.9394 225.2248,599.1798 212.2366,571.5285 C191.9256,593.1625 174.2628,596.3054 156.277,568.8763 C138.5492,593.8955 119.9016,590.9633 107.4774,563.9063 C85.0187,595.4708 54.197,592.549 42.126,554.1969 C44.5704,554.5141 44.8626,556.4182 43.4313,558.0488 C7.7375,537.2176 6.5629,505.9595 42.2185,483.9603 C9.0425,458.0331 6,416.7796 49.126,396.9069 C55.2745,393.6997 58.2085,396.8082 58.5555,402.8327 " fill="#100D23" style="stroke:#3F2C70;stroke-width:1.0;"/><text fill="#96DDF2" font-family="sans-serif" font-size="14" font-weight="bold" lengthAdjust="spacing" textLength="127" x="356.626" y="414.902">Replit Autoscale</text></g><!--cluster Web Application--><g id="cluster_Web Application"><path d="M68.626,439.9069 L196.626,439.9069 A3.75,3.75 0 0 1 199.126,442.4069 L206.126,462.2038 L560.626,462.2038 A2.5,2.5 0 0 1 563.126,464.7038 L563.126,534.6969 A2.5,2.5 0 0 1 560.626,537.1969 L68.626,537.1969 A2.5,2.5 0 0 1 66.126,534.6969 L66.126,442.4069 A2.5,2.5 0 0 1 68.626,439.9069 " fill="#231B3D" style="stroke:#3F2C70;stroke-width:1.5;"/><line style="stroke:#3F2C70;stroke-width:1.5;" x1="66.126" x2="206.126" y1="462.2038" y2="462.2038"/><text fill="#96DDF2" font-family="sans-serif" font-size="14" font-weight="bold" lengthAdjust="spacing" textLength="127" x="70.126" y="454.902">Web Application</text></g><!--cluster Linode--><g id="cluster_Linode"><polygon fill="#100D23" points="846.126,385.7569,856.126,375.7569,1292.126,375.7569,1292.126,567.3469,1282.126,577.3469,846.126,577.3469,846.126,385.7569" style="stroke:#3F2C70;stroke-width:1.0;"/><line style="stroke:#3F2C70;stroke-width:1.0;" x1="1282.126" x2="1292.126" y1="385.7569" y2="375.7569"/><line style="stroke:#3F2C70;stroke-width:1.0;" x1="846.126" x2="1282.126" y1="385.7569" y2="385.7569"/><line style="stroke:#3F2C70;stroke-width:1.0;" x1="1282.126" x2="1282.126" y1="385.7569" y2="577.3469"/><text fill="#96DDF2" font-family="sans-serif" font-size="14" font-weight="bold" lengthAdjust="spacing" textLength="89" x="1020.626" y="401.752">Linode VPS</text></g><!--cluster Background Jobs--><g id="cluster_Background Jobs"><path d="M880.626,431.7569 L1013.626,431.7569 A3.75,3.75 0 0 1 1016.126,434.2569 L1023.126,454.0537 L1047.626,454.0537 A2.5,2.5 0 0 1 1050.126,456.5537 L1050.126,542.8469 A2.5,2.5 0 0 1 1047.626,545.3469 L880.626,545.3469 A2.5,2.5 0 0 1 878.126,542.8469 L878.126,434.2569 A2.5,2.5 0 0 1 880.626,431.7569 " fill="#231B3D" style="stroke:#3F2C70;stroke-width:1.5;"/><line style="stroke:#3F2C70;stroke-width:1.5;" x1="878.126" x2="1023.126" y1="454.0537" y2="454.0537"/><text fill="#96DDF2" font-family="sans-serif" font-size="14" font-weight="bold" lengthAdjust="spacing" textLength="132" x="882.126" y="446.752">Background Jobs</text></g><!--cluster DataSources--><g id="cluster_DataSources"><path d="M578.5684,646.1967 C584.9477,630.8419 599.9601,628.0592 610.0633,642.2235 C619.036,625.7819 633.6982,627.6528 642.7862,642.1015 C654.5462,626.7308 666.5655,624.5581 676.9207,643.499 C687.6617,629.7706 699.5967,626.4753 709.7274,644.1369 C719.3299,627.1833 729.887,627.2569 740.7174,642.972 C750.1429,624.7302 765.4259,627.6947 776.0648,641.6393 C785.6627,626.0918 800.4705,626.3584 810.6764,640.9408 C821.2357,628.5516 830.8954,626.929 840.1519,642.323 C851.5155,629.5616 862.0962,627.5584 871.5503,644.3515 C882.8062,628.2128 896.4042,628.1801 907.9962,643.9677 C918.2451,628.709 928.0139,626.2991 940.3287,641.7958 C949.5553,630.0124 965.0728,627.8567 970.7252,645.4891 C980.7579,629.4543 991.494,630.8827 1003.4434,643.2837 C1018.0511,624.8074 1032.3413,631.6329 1041.126,649.3469 C1043.5836,648.3836 1045.6837,649.0844 1045.4981,652.1883 C1070.9553,660.522 1071.243,677.5062 1055.2273,695.2172 C1071.3333,721.6269 1061.5947,733.5637 1034.126,738.9469 C1037.4559,739.3123 1038.9662,741.3008 1037.2261,744.4978 C1026.1563,760.5796 1010.0906,757.9693 1003.7501,739.8666 C996.9689,760.2548 982.96,762.5943 969.4401,746.1425 C959.1161,760.7617 948.1894,758.9123 939.8939,744.1057 C930.9492,762.995 915.2681,761.5097 905.4232,744.9818 C895.8013,763.2594 882.1212,764.6902 870.5794,746.8331 C859.29,760.3398 848.7769,758.3815 840.4627,743.6589 C831.4759,756.8171 818.4485,759.2781 808.9144,744.272 C800.4381,759.097 785.5174,757.7161 777.3225,743.961 C769.2154,762.8298 752.388,759.5473 743.1225,745.152 C732.9201,761.2224 719.1107,760.3785 709.4172,744.6131 C698.862,759.0065 687.1446,760.9133 677.7833,743.4283 C664.6794,762.1873 653.4251,762.0935 641.6402,742.1951 C632.9834,753.2211 622.0647,752.4369 614.4136,740.9773 C597.3058,760.1415 577.6115,756.0232 569.126,731.9469 C569.7647,731.8739 569.9118,732.1699 569.7695,732.7348 C548.3629,722.5025 550.5597,705.9031 565.8401,692.1213 C543.8897,672.0012 552.3078,653.009 576.126,642.3469 C578.7452,642.3453 579.7586,643.7816 578.5684,646.1967 " fill="#100D23" style="stroke:#3F2C70;stroke-width:1.0;"/><text fill="#96DDF2" font-family="sans-serif" font-size="14" font-weight="bold" lengthAdjust="spacing" textLength="105" x="752.626" y="660.342">Data Sources</text></g><!--entity CDN--><g id="elem_CDN"><rect fill="#100D23" height="78.8906" rx="2.5" ry="2.5" style="stroke:#0BE784;stroke-width:0.5;" width="181" x="180.626" y="220.4769"/><rect fill="#100D23" height="10" style="stroke:#0BE784;stroke-width:0.5;" width="15" x="341.626" y="225.4769"/><rect fill="#100D23" height="2" style="stroke:#0BE784;stroke-width:0.5;" width="4" x="339.626" y="227.4769"/><rect fill="#100D23" height="2" style="stroke:#0BE784;stroke-width:0.5;" width="4" x="339.626" y="231.4769"/><text fill="#96DDF2" font-family="sans-serif" font-size="14" lengthAdjust="spacing" textLength="115" x="195.626" y="253.472">DDoS Protection</text><text fill="#96DDF2" font-family="sans-serif" font-size="14" lengthAdjust="spacing" textLength="141" x="195.626" y="269.7689">SSL/TLS Termination</text><text fill="#96DDF2" font-family="sans-serif" font-size="14" lengthAdjust="spacing" textLength="56" x="195.626" y="286.0657">Caching</text></g><g id="elem_GMN5"><path d="M396.126,217.0869 L396.126,255.9269 L362.016,259.9269 L396.126,263.9269 L396.126,302.7509 A0,0 0 0 0 396.126,302.7509 L600.126,302.7509 A0,0 0 0 0 600.126,302.7509 L600.126,227.0869 L590.126,217.0869 L396.126,217.0869 A0,0 0 0 0 396.126,217.0869 " fill="#231B3D" style="stroke:#3F2C70;stroke-width:0.5;"/><path d="M590.126,217.0869 L590.126,227.0869 L600.126,227.0869 L590.126,217.0869 " fill="#231B3D" style="stroke:#3F2C70;stroke-width:0.5;"/><text fill="#0BE784" font-family="sans-serif" font-size="13" lengthAdjust="spacing" textLength="61" x="402.126" y="234.1538">FREE TIER</text><text fill="#96DDF2" font-family="sans-serif" font-size="13" lengthAdjust="spacing" textLength="183" x="402.126" y="249.2866">&#8226; Unlimited DDoS protection</text><text fill="#96DDF2" font-family="sans-serif" font-size="13" lengthAdjust="spacing" textLength="85" x="402.126" y="264.4194">&#8226; Global CDN</text><text fill="#96DDF2" font-family="sans-serif" font-size="13" lengthAdjust="spacing" textLength="111" x="402.126" y="279.5522">&#8226; SSL certificates</text><text fill="#96DDF2" font-family="sans-serif" font-size="13" lengthAdjust="spacing" textLength="74" x="402.126" y="294.685">&#8226; $0/month</text></g><g id="elem_GMN14"><path d="M581.626,455.2169 L581.626,540.8809 L762.626,540.8809 L762.626,465.2169 L752.626,455.2169 L581.626,455.2169 " fill="#231B3D" style="stroke:#3F2C70;stroke-width:0.5;"/><path d="M752.626,455.2169 L752.626,465.2169 L762.626,465.2169 L752.626,455.2169 " fill="#231B3D" style="stroke:#3F2C70;stroke-width:1.0;"/><text fill="#0BE784" font-family="sans-serif" font-size="13" lengthAdjust="spacing" textLength="98" x="587.626" y="472.2838">AUTO-SCALING</text><text fill="#96DDF2" font-family="sans-serif" font-size="13" lengthAdjust="spacing" textLength="160" x="587.626" y="487.4166">&#8226; Scales 0 &#8594; N instances</text><text fill="#96DDF2" font-family="sans-serif" font-size="13" lengthAdjust="spacing" textLength="149" x="587.626" y="502.5494">&#8226; Pay per compute unit</text><text fill="#96DDF2" font-family="sans-serif" font-size="13" lengthAdjust="spacing" textLength="152" x="587.626" y="517.6822">&#8226; Built-in load balancing</text><text fill="#96DDF2" font-family="sans-serif" font-size="13" lengthAdjust="spacing" textLength="106" x="587.626" y="532.815">&#8226; ~$5-15/month</text></g><!--entity Django1--><g id="elem_Django1"><rect fill="#100D23" height="46.2969" rx="2.5" ry="2.5" style="stroke:#0BE784;stroke-width:0.5;" width="102" x="358.126" y="474.9069"/><rect fill="#100D23" height="10" style="stroke:#0BE784;stroke-width:0.5;" width="15" x="440.126" y="479.9069"/><rect fill="#100D23" height="2" style="stroke:#0BE784;stroke-width:0.5;" width="4" x="438.126" y="481.9069"/><rect fill="#100D23" height="2" style="stroke:#0BE784;stroke-width:0.5;" width="4" x="438.126" y="485.9069"/><text fill="#96DDF2" font-family="sans-serif" font-size="14" lengthAdjust="spacing" textLength="62" x="373.126" y="507.902">Django 1</text></g><!--entity Django2--><g id="elem_Django2"><rect fill="#100D23" height="46.2969" rx="2.5" ry="2.5" style="stroke:#0BE784;stroke-width:0.5;" width="102" x="82.126" y="474.9069"/><rect fill="#100D23" height="10" style="stroke:#0BE784;stroke-width:0.5;" width="15" x="164.126" y="479.9069"/><rect fill="#100D23" height="2" style="stroke:#0BE784;stroke-width:0.5;" width="4" x="162.126" y="481.9069"/><rect fill="#100D23" height="2" style="stroke:#0BE784;stroke-width:0.5;" width="4" x="162.126" y="485.9069"/><text fill="#96DDF2" font-family="sans-serif" font-size="14" lengthAdjust="spacing" textLength="62" x="97.126" y="507.902">Django 2</text></g><!--entity DjangoN--><g id="elem_DjangoN"><rect fill="#100D23" height="46.2969" rx="2.5" ry="2.5" style="stroke:#0BE784;stroke-width:0.5;" width="103" x="219.626" y="474.9069"/><rect fill="#100D23" height="10" style="stroke:#0BE784;stroke-width:0.5;" width="15" x="302.626" y="479.9069"/><rect fill="#100D23" height="2" style="stroke:#0BE784;stroke-width:0.5;" width="4" x="300.626" y="481.9069"/><rect fill="#100D23" height="2" style="stroke:#0BE784;stroke-width:0.5;" width="4" x="300.626" y="485.9069"/><text fill="#96DDF2" font-family="sans-serif" font-size="14" lengthAdjust="spacing" textLength="63" x="234.626" y="507.902">Django N</text></g><!--entity More--><g id="elem_More"><rect fill="#100D23" height="46.2969" rx="2.5" ry="2.5" style="stroke:#0BE784;stroke-width:0.5;" width="52" x="495.126" y="474.9069"/><rect fill="#100D23" height="10" style="stroke:#0BE784;stroke-width:0.5;" width="15" x="527.126" y="479.9069"/><rect fill="#100D23" height="2" style="stroke:#0BE784;stroke-width:0.5;" width="4" x="525.126" y="481.9069"/><rect fill="#100D23" height="2" style="stroke:#0BE784;stroke-width:0.5;" width="4" x="525.126" y="485.9069"/><text fill="#96DDF2" font-family="sans-serif" font-size="14" lengthAdjust="spacing" textLength="12" x="510.126" y="507.902">...</text></g><g id="elem_GMN20"><path d="M1069.126,455.2169 L1069.126,540.8809 L1249.126,540.8809 L1249.126,465.2169 L1239.126,455.2169 L1069.126,455.2169 " fill="#231B3D" style="stroke:#3F2C70;stroke-width:0.5;"/><path d="M1239.126,455.2169 L1239.126,465.2169 L1249.126,465.2169 L1239.126,455.2169 " fill="#231B3D" style="stroke:#3F2C70;stroke-width:1.0;"/><text fill="#0BE784" font-family="sans-serif" font-size="13" lengthAdjust="spacing" textLength="107" x="1075.126" y="472.2838">ALWAYS-ON VPS</text><text fill="#96DDF2" font-family="sans-serif" font-size="13" lengthAdjust="spacing" textLength="159" x="1075.126" y="487.4166">&#8226; Reliable 24/7 execution</text><text fill="#96DDF2" font-family="sans-serif" font-size="13" lengthAdjust="spacing" textLength="141" x="1075.126" y="502.5494">&#8226; Nanode 1GB or 2GB</text><text fill="#96DDF2" font-family="sans-serif" font-size="13" lengthAdjust="spacing" textLength="147" x="1075.126" y="517.6822">&#8226; Docker containerized</text><text fill="#96DDF2" font-family="sans-serif" font-size="13" lengthAdjust="spacing" textLength="95" x="1075.126" y="532.815">&#8226; $5-12/month</text></g><!--entity Cron--><g id="elem_Cron"><rect fill="#100D23" height="62.5938" rx="2.5" ry="2.5" style="stroke:#0BE784;stroke-width:0.5;" width="140" x="894.126" y="466.7569"/><rect fill="#100D23" height="10" style="stroke:#0BE784;stroke-width:0.5;" width="15" x="1014.126" y="471.7569"/><rect fill="#100D23" height="2" style="stroke:#0BE784;stroke-width:0.5;" width="4" x="1012.126" y="473.7569"/><rect fill="#100D23" height="2" style="stroke:#0BE784;stroke-width:0.5;" width="4" x="1012.126" y="477.7569"/><text fill="#96DDF2" font-family="sans-serif" font-size="14" lengthAdjust="spacing" textLength="100" x="909.126" y="499.752">BigQuery Cron</text><text fill="#96DDF2" font-family="sans-serif" font-size="14" lengthAdjust="spacing" textLength="98" x="909.126" y="516.0489">(Every 60 min)</text></g><!--entity BigQuery--><g id="elem_BigQuery"><path d="M895.626,679.3469 C895.626,669.3469 964.126,669.3469 964.126,669.3469 C964.126,669.3469 1032.626,669.3469 1032.626,679.3469 L1032.626,720.9406 C1032.626,730.9406 964.126,730.9406 964.126,730.9406 C964.126,730.9406 895.626,730.9406 895.626,720.9406 L895.626,679.3469 " fill="#100D23" style="stroke:#0BE784;stroke-width:0.5;"/><path d="M895.626,679.3469 C895.626,689.3469 964.126,689.3469 964.126,689.3469 C964.126,689.3469 1032.626,689.3469 1032.626,679.3469 " fill="none" style="stroke:#0BE784;stroke-width:0.5;"/><text fill="#96DDF2" font-family="sans-serif" font-size="14" lengthAdjust="spacing" textLength="117" x="905.626" y="706.342">BigQuery/Hubble</text><text fill="#96DDF2" font-family="sans-serif" font-size="14" lengthAdjust="spacing" textLength="110" x="905.626" y="722.6389">(Stellar Dataset)</text></g><!--entity Horizon--><g id="elem_Horizon"><rect fill="#100D23" height="46.2969" rx="2.5" ry="2.5" style="stroke:#0BE784;stroke-width:0.5;" width="118" x="577.126" y="676.9969"/><rect fill="#100D23" height="10" style="stroke:#0BE784;stroke-width:0.5;" width="15" x="675.126" y="681.9969"/><rect fill="#100D23" height="2" style="stroke:#0BE784;stroke-width:0.5;" width="4" x="673.126" y="683.9969"/><rect fill="#100D23" height="2" style="stroke:#0BE784;stroke-width:0.5;" width="4" x="673.126" y="687.9969"/><text fill="#96DDF2" font-family="sans-serif" font-size="14" lengthAdjust="spacing" textLength="78" x="592.126" y="709.992">Horizon API</text></g><!--entity Expert--><g id="elem_Expert"><rect fill="#100D23" height="46.2969" rx="2.5" ry="2.5" style="stroke:#0BE784;stroke-width:0.5;" width="130" x="730.126" y="676.9969"/><rect fill="#100D23" height="10" style="stroke:#0BE784;stroke-width:0.5;" width="15" x="840.126" y="681.9969"/><rect fill="#100D23" height="2" style="stroke:#0BE784;stroke-width:0.5;" width="4" x="838.126" y="683.9969"/><rect fill="#100D23" height="2" style="stroke:#0BE784;stroke-width:0.5;" width="4" x="838.126" y="687.9969"/><text fill="#96DDF2" font-family="sans-serif" font-size="14" lengthAdjust="spacing" textLength="90" x="745.126" y="709.992">Stellar Expert</text></g><!--entity Users--><g id="elem_Users"><ellipse cx="271.126" cy="51.2969" fill="#0BE784" rx="8" ry="8" style="stroke:#0BE784;stroke-width:0.5;"/><path d="M271.126,59.2969 L271.126,86.2969 M258.126,67.2969 L284.126,67.2969 M271.126,86.2969 L258.126,101.2969 M271.126,86.2969 L284.126,101.2969 " fill="none" style="stroke:#0BE784;stroke-width:0.5;"/><text fill="#100D23" font-family="sans-serif" font-size="14" lengthAdjust="spacing" textLength="40" x="251.126" y="115.792">Users</text></g><!--entity AstraDB--><g id="elem_AstraDB"><path d="M196.626,679.3469 C196.626,669.3469 248.126,669.3469 248.126,669.3469 C248.126,669.3469 299.626,669.3469 299.626,679.3469 L299.626,720.9406 C299.626,730.9406 248.126,730.9406 248.126,730.9406 C248.126,730.9406 196.626,730.9406 196.626,720.9406 L196.626,679.3469 " fill="#100D23" style="stroke:#0BE784;stroke-width:0.5;"/><path d="M196.626,679.3469 C196.626,689.3469 248.126,689.3469 248.126,689.3469 C248.126,689.3469 299.626,689.3469 299.626,679.3469 " fill="none" style="stroke:#0BE784;stroke-width:0.5;"/><text fill="#96DDF2" font-family="sans-serif" font-size="14" lengthAdjust="spacing" textLength="60" x="206.626" y="706.342">Astra DB</text><text fill="#96DDF2" font-family="sans-serif" font-size="14" lengthAdjust="spacing" textLength="83" x="206.626" y="722.6389">(Cassandra)</text></g><g id="elem_GMN24"><path d="M334.626,657.3169 L334.626,696.1469 L300.076,700.1469 L334.626,704.1469 L334.626,742.9809 A0,0 0 0 0 334.626,742.9809 L541.626,742.9809 A0,0 0 0 0 541.626,742.9809 L541.626,667.3169 L531.626,657.3169 L334.626,657.3169 A0,0 0 0 0 334.626,657.3169 " fill="#231B3D" style="stroke:#3F2C70;stroke-width:0.5;"/><path d="M531.626,657.3169 L531.626,667.3169 L541.626,667.3169 L531.626,657.3169 " fill="#231B3D" style="stroke:#3F2C70;stroke-width:0.5;"/><text fill="#0BE784" font-family="sans-serif" font-size="13" lengthAdjust="spacing" textLength="128" x="340.626" y="674.3838">SHARED DATABASE</text><text fill="#96DDF2" font-family="sans-serif" font-size="13" lengthAdjust="spacing" textLength="153" x="340.626" y="689.5166">&#8226; Both services connect</text><text fill="#96DDF2" font-family="sans-serif" font-size="13" lengthAdjust="spacing" textLength="186" x="340.626" y="704.6494">&#8226; Permanent lineage storage</text><text fill="#96DDF2" font-family="sans-serif" font-size="13" lengthAdjust="spacing" textLength="114" x="340.626" y="719.7822">&#8226; Free tier (80GB)</text><text fill="#96DDF2" font-family="sans-serif" font-size="13" lengthAdjust="spacing" textLength="74" x="340.626" y="734.915">&#8226; $0/month</text></g><g id="elem_GMN31"><path d="M1067.126,657.3169 L1067.126,742.9809 L1271.126,742.9809 L1271.126,667.3169 L1261.126,657.3169 L1067.126,657.3169 " fill="#231B3D" style="stroke:#3F2C70;stroke-width:0.5;"/><path d="M1261.126,657.3169 L1261.126,667.3169 L1271.126,667.3169 L1261.126,657.3169 " fill="#231B3D" style="stroke:#3F2C70;stroke-width:1.0;"/><text fill="#0BE784" font-family="sans-serif" font-size="13" lengthAdjust="spacing" textLength="144" x="1073.126" y="674.3838">PERMANENT STORAGE</text><text fill="#96DDF2" font-family="sans-serif" font-size="13" lengthAdjust="spacing" textLength="165" x="1073.126" y="689.5166">&#8226; Query once per account</text><text fill="#96DDF2" font-family="sans-serif" font-size="13" lengthAdjust="spacing" textLength="183" x="1073.126" y="704.6494">&#8226; Store forever in Cassandra</text><text fill="#96DDF2" font-family="sans-serif" font-size="13" lengthAdjust="spacing" textLength="169" x="1073.126" y="719.7822">&#8226; Repeat searches = FREE</text><text fill="#96DDF2" font-family="sans-serif" font-size="13" lengthAdjust="spacing" textLength="87" x="1073.126" y="734.915">&#8226; $0-5/month</text></g><g id="elem_GMN45"><path d="M1014.126,803.9769 L1014.126,1025.8362 L1324.126,1025.8362 L1324.126,813.9769 L1314.126,803.9769 L1014.126,803.9769 " fill="#231B3D" style="stroke:#3F2C70;stroke-width:0.5;"/><path d="M1314.126,803.9769 L1314.126,813.9769 L1324.126,813.9769 L1314.126,803.9769 " fill="#231B3D" style="stroke:#3F2C70;stroke-width:1.0;"/><text fill="#0BE784" font-family="sans-serif" font-size="13" lengthAdjust="spacing" textLength="163" x="1020.126" y="821.0438">Total Cost: $10-32/month</text><text fill="#96DDF2" font-family="sans-serif" font-size="13" lengthAdjust="spacing" textLength="4" x="1020.126" y="836.1766">&#160;</text><text fill="#96DDF2" font-family="sans-serif" font-size="13" font-weight="bold" lengthAdjust="spacing" textLength="126" x="1020.126" y="851.3094">Cost Breakdown:</text><text fill="#96DDF2" font-family="sans-serif" font-size="13" lengthAdjust="spacing" textLength="169" x="1020.126" y="866.4422">&#8226; Cloudflare: $0 (Free Tier)</text><text fill="#96DDF2" font-family="sans-serif" font-size="13" lengthAdjust="spacing" textLength="275" x="1020.126" y="881.575">&#8226; Replit Autoscale: ~$5-15 (Scales to zero)</text><text fill="#96DDF2" font-family="sans-serif" font-size="13" lengthAdjust="spacing" textLength="207" x="1020.126" y="896.7078">&#8226; Linode VPS: $5-12 (Always-on)</text><text fill="#96DDF2" font-family="sans-serif" font-size="13" lengthAdjust="spacing" textLength="205" x="1020.126" y="911.8406">&#8226; Astra DB: $0 (Free Tier, 80GB)</text><text fill="#96DDF2" font-family="sans-serif" font-size="13" lengthAdjust="spacing" textLength="289" x="1020.126" y="926.9735">&#8226; BigQuery: $0-5 (Permanent storage model)</text><text fill="#96DDF2" font-family="sans-serif" font-size="13" lengthAdjust="spacing" textLength="4" x="1020.126" y="942.1063">&#160;</text><text fill="#0BE784" font-family="sans-serif" font-size="13" font-weight="bold" lengthAdjust="spacing" textLength="66" x="1020.126" y="957.2391">Benefits:</text><text fill="#96DDF2" font-family="sans-serif" font-size="13" lengthAdjust="spacing" textLength="270" x="1020.126" y="972.3719">&#8226; Web app scales automatically with traffic</text><text fill="#96DDF2" font-family="sans-serif" font-size="13" lengthAdjust="spacing" textLength="178" x="1020.126" y="987.5047">&#8226; Cron jobs run reliably 24/7</text><text fill="#96DDF2" font-family="sans-serif" font-size="13" lengthAdjust="spacing" textLength="202" x="1020.126" y="1002.6375">&#8226; DDoS protected by Cloudflare</text><text fill="#96DDF2" font-family="sans-serif" font-size="13" lengthAdjust="spacing" textLength="149" x="1020.126" y="1017.7703">&#8226; Predictable, low costs</text></g><!--link Replit to GMN14--><g id="link_Replit_GMN14"><path d="M797.296,498.0469 C785.756,498.0469 774.226,498.0469 762.686,498.0469 " fill="none" id="Replit-GMN14" style="stroke:#01C176;stroke-width:1.0;stroke-dasharray:7.0,7.0;"/></g><!--link Linode to GMN20--><g id="link_Linode_GMN20"><path d="M1283.316,498.0469 C1272.026,498.0469 1260.746,498.0469 1249.456,498.0469 " fill="none" id="Linode-GMN20" style="stroke:#01C176;stroke-width:1.0;stroke-dasharray:7.0,7.0;"/></g><!--link BigQuery to GMN31--><g id="link_BigQuery_GMN31"><path d="M1032.996,700.1469 C1044.246,700.1469 1055.506,700.1469 1066.756,700.1469 " fill="none" id="BigQuery-GMN31" style="stroke:#01C176;stroke-width:1.0;stroke-dasharray:7.0,7.0;"/></g><!--link Users to CDN--><g id="link_Users_CDN"><path d="M271.126,119.4769 C271.126,149.1069 271.126,184.2969 271.126,214.2169 " fill="none" id="Users-to-CDN" style="stroke:#01C176;stroke-width:1.0;"/><polygon fill="#01C176" points="271.126,220.2169,275.126,211.2169,271.126,215.2169,267.126,211.2169,271.126,220.2169" style="stroke:#01C176;stroke-width:1.0;"/><text fill="#96DDF2" font-family="sans-serif" font-size="13" lengthAdjust="spacing" textLength="104" x="272.126" y="162.1538">HTTPS Requests</text></g><!--link CDN to Django1--><g id="link_CDN_Django1"><path d="M299.986,299.4969 C312.896,317.4269 327.906,339.2669 340.126,359.7569 C363.486,398.9369 383.9259,441.5825 396.5859,469.2025 " fill="none" id="CDN-to-Django1" style="stroke:#01C176;stroke-width:1.0;"/><polygon fill="#01C176" points="399.086,474.6569,398.9721,464.8087,397.0026,470.1116,391.6997,468.1421,399.086,474.6569" style="stroke:#01C176;stroke-width:1.0;"/><text fill="#96DDF2" font-family="sans-serif" font-size="13" lengthAdjust="spacing" textLength="94" x="335.126" y="347.8238">Load Balanced</text></g><!--link CDN to Django2--><g id="link_CDN_Django2"><path d="M242.266,299.4969 C229.356,317.4269 214.346,339.2669 202.126,359.7569 C178.766,398.9369 158.326,441.5825 145.666,469.2025 " fill="none" id="CDN-to-Django2" style="stroke:#01C176;stroke-width:1.0;"/><polygon fill="#01C176" points="143.166,474.6569,150.5523,468.1421,145.2494,470.1116,143.2799,464.8087,143.166,474.6569" style="stroke:#01C176;stroke-width:1.0;"/></g><!--link CDN to DjangoN--><g id="link_CDN_DjangoN"><path d="M271.126,299.6469 C271.126,349.4969 271.126,428.4669 271.126,468.6869 " fill="none" id="CDN-to-DjangoN" style="stroke:#01C176;stroke-width:1.0;"/><polygon fill="#01C176" points="271.126,474.6869,275.126,465.6869,271.126,469.6869,267.126,465.6869,271.126,474.6869" style="stroke:#01C176;stroke-width:1.0;"/></g><!--link Django1 to AstraDB--><g id="link_Django1_AstraDB"><path d="M393.466,521.5469 C379.806,540.9069 359.236,569.4069 340.126,593.3469 C319.166,619.5969 298.0787,643.8272 279.3887,664.6972 " fill="none" id="Django1-to-AstraDB" style="stroke:#01C176;stroke-width:1.0;"/><polygon fill="#01C176" points="275.386,669.1669,284.3699,665.1309,278.7216,665.4422,278.4104,659.7939,275.386,669.1669" style="stroke:#01C176;stroke-width:1.0;"/><text fill="#96DDF2" font-family="sans-serif" font-size="13" lengthAdjust="spacing" textLength="68" x="333.126" y="614.4138">Read/Write</text></g><!--link Django2 to AstraDB--><g id="link_Django2_AstraDB"><path d="M146.096,521.6169 C166.826,557.6969 204.4864,623.2147 227.7264,663.6547 " fill="none" id="Django2-to-AstraDB" style="stroke:#01C176;stroke-width:1.0;"/><polygon fill="#01C176" points="230.716,668.8569,229.6997,659.0606,228.2247,664.5217,222.7635,663.0467,230.716,668.8569" style="stroke:#01C176;stroke-width:1.0;"/></g><!--link DjangoN to AstraDB--><g id="link_DjangoN_AstraDB"><path d="M268.536,521.6169 C264.386,557.6969 256.9414,622.4562 252.2914,662.8962 " fill="none" id="DjangoN-to-AstraDB" style="stroke:#01C176;stroke-width:1.0;"/><polygon fill="#01C176" points="251.606,668.8569,256.6079,660.3727,252.1771,663.8896,248.6602,659.4589,251.606,668.8569" style="stroke:#01C176;stroke-width:1.0;"/></g><!--link Cron to AstraDB--><g id="link_Cron_AstraDB"><path d="M927.766,529.8269 C898.986,552.1269 856.686,580.5169 814.126,593.3469 C779.546,603.7769 524.996,597.0869 489.126,601.3469 C453.466,605.5869 445.646,613.0169 410.126,618.3469 C389.616,621.4269 335.816,617.3469 317.126,626.3469 C297.516,635.7969 284.3098,648.6565 272.1398,664.1665 " fill="none" id="Cron-to-AstraDB" style="stroke:#01C176;stroke-width:1.0;"/><polygon fill="#01C176" points="268.436,668.8869,277.1386,664.2756,271.5225,664.9533,270.8448,659.3371,268.436,668.8869" style="stroke:#01C176;stroke-width:1.0;"/><text fill="#96DDF2" font-family="sans-serif" font-size="13" lengthAdjust="spacing" textLength="84" x="490.126" y="614.4138">Pipeline Data</text></g><!--link Cron to BigQuery--><g id="link_Cron_BigQuery"><path d="M964.126,529.4369 C964.126,567.2669 964.126,625.4669 964.126,663.1269 " fill="none" id="Cron-to-BigQuery" style="stroke:#0BE784;stroke-width:2.0;"/><polygon fill="#0BE784" points="964.126,669.1269,968.126,660.1269,964.126,664.1269,960.126,660.1269,964.126,669.1269" style="stroke:#0BE784;stroke-width:2.0;"/><text fill="#0BE784" font-family="sans-serif" font-size="13" font-weight="bold" lengthAdjust="spacing" textLength="134" x="965.126" y="614.4138">First-Time Queries</text></g><!--link Django1 to Horizon--><g id="link_Django1_Horizon"><path d="M418.586,521.3969 C429.406,543.8569 449.406,577.3769 478.126,593.3469 C498.576,604.7269 563.486,588.6169 583.126,601.3469 C609.536,618.4669 622.0967,647.6855 628.9767,670.8355 " fill="none" id="Django1-to-Horizon" style="stroke:#96DDF2;stroke-width:1.0;stroke-dasharray:7.0,7.0;"/><polygon fill="#96DDF2" points="630.686,676.5869,631.9563,666.8203,629.2616,671.7941,624.2878,669.0993,630.686,676.5869" style="stroke:#96DDF2;stroke-width:1.0;"/><text fill="#96DDF2" font-family="sans-serif" font-size="13" lengthAdjust="spacing" textLength="73" x="601.126" y="614.4138">Enrichment</text></g><!--link Django1 to Expert--><g id="link_Django1_Expert"><path d="M418.466,521.6069 C429.186,544.2469 449.116,577.9069 478.126,593.3469 C498.246,604.0569 661.846,593.1769 683.126,601.3469 C722.886,616.6269 754.0694,648.2321 773.9594,672.0421 " fill="none" id="Django1-to-Expert" style="stroke:#96DDF2;stroke-width:1.0;stroke-dasharray:7.0,7.0;"/><polygon fill="#96DDF2" points="777.806,676.6469,775.1059,667.1754,774.6005,672.8096,768.9662,672.3042,777.806,676.6469" style="stroke:#96DDF2;stroke-width:1.0;"/><text fill="#96DDF2" font-family="sans-serif" font-size="13" lengthAdjust="spacing" textLength="43" x="715.126" y="614.4138">Assets</text></g><!--link GMN31 to GMN45--><g id="link_GMN31_GMN45"><path d="M1169.126,743.4369 C1169.126,761.0069 1169.126,782.2969 1169.126,803.7969 " fill="none" id="GMN31-GMN45" style="stroke:#01C176;stroke-width:1.0;stroke-dasharray:7.0,7.0;"/></g><!--SRC=[jLRTRjis5BxNKnne1UO0SMCxJT8PNG39Sf8EgUjPxefXsmKbqGaNcVGeggaxTDZL7c2Fi4Vha-oGacp95hrUh3UMHHv-Elo-yvSzCBuYaYmX8l73dHGvJqOY5HA-6fptWsTdJhQnIEY2vAcw4boL9j-S1y7LmAdPnAd84_ZT0V1tyVgzNZ0urJj29bIMgpr_VF7y6Qxkmtwi0tEHq2-16ulbId3ArVy43k19AHuhm_weVt7U_69258b8zaLkiq8uScU17fps_TDW5_fqCOWlUfyZWFeYk2HMkDKAlBdrVt9HieR0YgcKmejOhmzBsykRTIHP0bCfaZnMJ70KARvdYiOgbnIwC1APweuN2rnWxoW4T9MAzHAZmd4A_zmt6PMP2oG3ys_ZXbD4l3lIZqLA46uKJ8nXRQbqq5np6t5k48XGUwKTGQz-vc5uUpA_3M5EvP9nKYoE2FhAxmhCO88GHWl9xkuLY8LUgua0kvU_cet7C7yvdZKs2oakF_tv3xpXALiY6GaOVrORVsm7hbCHaRJqfTK2xm4nbOejM4mKpMnsJtedIrJn7lSfJyozj8WbfpEKWIdmSYMocAJKC50krXcjejvzIoFmLhWV6-hSYXPZrMJ-LyBl1FGDPF7IjzWCQZO3YysaPZFPjNdwzAdPVYKanRsFUm9MLx9hwBsPl-w68-_svUJQohccA8CUVFhhRvW0uvaYFBPpFoLhM55fFCtHdPmpPRFrSvQgBkEG2f9WgqWH6KFIPlx7axDk_wnLMbF7tLjcdZzCGyDC-TggwROgm7SYoWvewhExxtCgrp2IEcqwutVwvRm7c4f7HVP84zJx2bGE753WzgttOzXzFT5Es-uzeoaZ4TQVmREJ2w3lQPmVogC9CL_jN_k09MPmxTiC0n4_6AMu8enJoJxGn9fIIFsWbVfDut6zJ4a2WOyaZKYM4Pv8KZ1aTWBVQT9JhjRusM4dlF5cum02R-xvNZXsseD8g7l0ulcEOLJgot0iC-scKwn_nAYQudrr76HOXV7PRdubAGN5aABEyzwrV-GSBZORKgf24o0p48fSecD59kD2-Tw8oYs5LR2TtEGHAevCXegcMEpDsOogWi_Ah5dtRmHAgBlGzAMnAj-RHXNU-3rcgJ9snTyYZUhwR2BVAj1qF7lbJSQJEOJprpFlsY9HWIAmR9ZIGE8O4y-YKOYAK5ZW3-OPbXlOX99ZIOuL9Ge3W63lHLw_1TsPR59rp_R4-jgqNbYauj4fcd3tftB2-gLxQThW4DmTj9lvV1hYjt_BQQOoLwFK-h8IPV5rzEa6NDaKMY1lTGtqJGsaYMixER1jJBGFkbEHrKexKCMKKtsnSQPAlNqtPfGa9sybDcwtF3feFLfkJjetDHzO5HkEc8NFz6BALbJdg0bxjmwt2VqDd0d5uqYaYSRS16qDj8pM5z7b5PCuaitPafgWPBJGhiOR9ay67SebY-_rg7PK9x3mxZWXsJqrNwjIRly6ums2Un2XIBuM02_3T2_SQuoL4ULqmLHM96iab19BUuREXT8p5GwYGtZIxtLFjqLyFqUG86q9lgJa8H6FVFZY9BfipwLjk2Dm3pgcMCwnM1vPyxGnTGtBTWwTSi90xZzGAIp7jwrzMFGYw7Zf8rbdNS4jHwfsjEFVCHmevbNq34sjWCwsOvIT0fReHdhKf6yRNtufpW7YgbZBYciJ96I9SoM-fMjuPDZCqEq5JhWMtdNO_ueZ2yYSWon6WxKP3TeFrATl7CQZTKqwIvkKD66nqYF7COvcZzW-iCXjI-Q_]--></g></svg>