<?xml version="1.0" encoding="us-ascii" standalone="no"?><svg xmlns="http://www.w3.org/2000/svg" xmlns:xlink="http://www.w3.org/1999/xlink" contentStyleType="text/css" height="2777px" preserveAspectRatio="none" style="width:1230px;height:2777px;background:#261D45;" version="1.1" viewBox="0 0 1230 2777" width="1230px" zoomAndPan="magnify"><defs/><g><rect fill="#261D45" height="2777" style="stroke:none;stroke-width:1.0;" width="1230" x="0" y="0"/><text fill="#0BE784" font-family="sans-serif" font-size="14" font-weight="bold" lengthAdjust="spacing" textLength="351" x="435.5" y="27.9951">Query Builder: Cassandra Database Explorer</text><rect fill="#100D23" height="744.3828" style="stroke:#0BE784;stroke-width:1.0;" width="10" x="251" y="196.3203"/><rect fill="#100D23" height="747.1172" style="stroke:#0BE784;stroke-width:1.0;" width="10" x="251" y="1014.1328"/><rect fill="#100D23" height="495.9219" style="stroke:#0BE784;stroke-width:1.0;" width="10" x="487" y="358.3828"/><rect fill="#100D23" height="318.5938" style="stroke:#0BE784;stroke-width:1.0;" width="10" x="487" y="1380.2578"/><rect fill="#100D23" height="109.6641" style="stroke:#0BE784;stroke-width:1.0;" width="10" x="1018" y="387.5156"/><rect fill="#100D23" height="73.3984" style="stroke:#0BE784;stroke-width:1.0;" width="10" x="1018" y="1409.3906"/><line style="stroke:#0BE784;stroke-width:0.5;stroke-dasharray:5.0,5.0;" x1="24" x2="24" y1="120.8906" y2="2682.6172"/><line style="stroke:#0BE784;stroke-width:0.5;stroke-dasharray:5.0,5.0;" x1="255.5" x2="255.5" y1="120.8906" y2="2682.6172"/><line style="stroke:#0BE784;stroke-width:0.5;stroke-dasharray:5.0,5.0;" x1="491.5" x2="491.5" y1="120.8906" y2="2682.6172"/><line style="stroke:#0BE784;stroke-width:0.5;stroke-dasharray:5.0,5.0;" x1="760.5" x2="760.5" y1="120.8906" y2="2682.6172"/><line style="stroke:#0BE784;stroke-width:0.5;stroke-dasharray:5.0,5.0;" x1="1023" x2="1023" y1="120.8906" y2="2682.6172"/><text fill="#100D23" font-family="sans-serif" font-size="14" lengthAdjust="spacing" textLength="32" x="5" y="117.5889">User</text><ellipse cx="24" cy="53.0938" fill="#0BE784" rx="8" ry="8" style="stroke:#0BE784;stroke-width:0.5;"/><path d="M24,61.0938 L24,88.0938 M11,69.0938 L37,69.0938 M24,88.0938 L11,103.0938 M24,88.0938 L37,103.0938 " fill="none" style="stroke:#0BE784;stroke-width:0.5;"/><text fill="#100D23" font-family="sans-serif" font-size="14" lengthAdjust="spacing" textLength="32" x="5" y="2694.6123">User</text><ellipse cx="24" cy="2706.4141" fill="#0BE784" rx="8" ry="8" style="stroke:#0BE784;stroke-width:0.5;"/><path d="M24,2714.4141 L24,2741.4141 M11,2722.4141 L37,2722.4141 M24,2741.4141 L11,2756.4141 M24,2741.4141 L37,2756.4141 " fill="none" style="stroke:#0BE784;stroke-width:0.5;"/><rect fill="#100D23" height="46.5938" rx="2.5" ry="2.5" style="stroke:#0BE784;stroke-width:0.5;" width="107" x="202.5" y="73.2969"/><text fill="#96DDF2" font-family="sans-serif" font-size="14" lengthAdjust="spacing" textLength="93" x="209.5" y="93.292">Query Builder</text><text fill="#96DDF2" font-family="sans-serif" font-size="14" lengthAdjust="spacing" textLength="59" x="226.5" y="109.5889">Vue.js UI</text><rect fill="#100D23" height="46.5938" rx="2.5" ry="2.5" style="stroke:#0BE784;stroke-width:0.5;" width="107" x="202.5" y="2681.6172"/><text fill="#96DDF2" font-family="sans-serif" font-size="14" lengthAdjust="spacing" textLength="93" x="209.5" y="2701.6123">Query Builder</text><text fill="#96DDF2" font-family="sans-serif" font-size="14" lengthAdjust="spacing" textLength="59" x="226.5" y="2717.9092">Vue.js UI</text><rect fill="#100D23" height="46.5938" rx="2.5" ry="2.5" style="stroke:#0BE784;stroke-width:0.5;" width="107" x="438.5" y="73.2969"/><text fill="#96DDF2" font-family="sans-serif" font-size="14" lengthAdjust="spacing" textLength="93" x="445.5" y="93.292">Query Builder</text><text fill="#96DDF2" font-family="sans-serif" font-size="14" lengthAdjust="spacing" textLength="87" x="448.5" y="109.5889">API Endpoint</text><rect fill="#100D23" height="46.5938" rx="2.5" ry="2.5" style="stroke:#0BE784;stroke-width:0.5;" width="107" x="438.5" y="2681.6172"/><text fill="#96DDF2" font-family="sans-serif" font-size="14" lengthAdjust="spacing" textLength="93" x="445.5" y="2701.6123">Query Builder</text><text fill="#96DDF2" font-family="sans-serif" font-size="14" lengthAdjust="spacing" textLength="87" x="448.5" y="2717.9092">API Endpoint</text><text fill="#96DDF2" font-family="sans-serif" font-size="14" lengthAdjust="spacing" textLength="60" x="728" y="101.292">Astra DB</text><text fill="#96DDF2" font-family="sans-serif" font-size="14" lengthAdjust="spacing" textLength="83" x="716.5" y="117.5889">(Cassandra)</text><path d="M743,52.2969 C743,42.2969 761,42.2969 761,42.2969 C761,42.2969 779,42.2969 779,52.2969 L779,78.2969 C779,88.2969 761,88.2969 761,88.2969 C761,88.2969 743,88.2969 743,78.2969 L743,52.2969 " fill="#100D23" style="stroke:#0BE784;stroke-width:1.5;"/><path d="M743,52.2969 C743,62.2969 761,62.2969 761,62.2969 C761,62.2969 779,62.2969 779,52.2969 " fill="none" style="stroke:#0BE784;stroke-width:1.5;"/><text fill="#96DDF2" font-family="sans-serif" font-size="14" lengthAdjust="spacing" textLength="60" x="728" y="2694.6123">Astra DB</text><text fill="#96DDF2" font-family="sans-serif" font-size="14" lengthAdjust="spacing" textLength="83" x="716.5" y="2710.9092">(Cassandra)</text><path d="M743,2724.2109 C743,2714.2109 761,2714.2109 761,2714.2109 C761,2714.2109 779,2714.2109 779,2724.2109 L779,2750.2109 C779,2760.2109 761,2760.2109 761,2760.2109 C761,2760.2109 743,2760.2109 743,2750.2109 L743,2724.2109 " fill="#100D23" style="stroke:#0BE784;stroke-width:1.5;"/><path d="M743,2724.2109 C743,2734.2109 761,2734.2109 761,2734.2109 C761,2734.2109 779,2734.2109 779,2724.2109 " fill="none" style="stroke:#0BE784;stroke-width:1.5;"/><rect fill="#100D23" height="30.2969" rx="2.5" ry="2.5" style="stroke:#0BE784;stroke-width:0.5;" width="108" x="969" y="89.5938"/><text fill="#96DDF2" font-family="sans-serif" font-size="14" lengthAdjust="spacing" textLength="94" x="976" y="109.5889">Network Filter</text><rect fill="#100D23" height="30.2969" rx="2.5" ry="2.5" style="stroke:#0BE784;stroke-width:0.5;" width="108" x="969" y="2681.6172"/><text fill="#96DDF2" font-family="sans-serif" font-size="14" lengthAdjust="spacing" textLength="94" x="976" y="2701.6123">Network Filter</text><rect fill="#100D23" height="744.3828" style="stroke:#0BE784;stroke-width:1.0;" width="10" x="251" y="196.3203"/><rect fill="#100D23" height="747.1172" style="stroke:#0BE784;stroke-width:1.0;" width="10" x="251" y="1014.1328"/><rect fill="#100D23" height="495.9219" style="stroke:#0BE784;stroke-width:1.0;" width="10" x="487" y="358.3828"/><rect fill="#100D23" height="318.5938" style="stroke:#0BE784;stroke-width:1.0;" width="10" x="487" y="1380.2578"/><rect fill="#100D23" height="109.6641" style="stroke:#0BE784;stroke-width:1.0;" width="10" x="1018" y="387.5156"/><rect fill="#100D23" height="73.3984" style="stroke:#0BE784;stroke-width:1.0;" width="10" x="1018" y="1409.3906"/><rect fill="#100D23" height="3" style="stroke:#100D23;stroke-width:1.0;" width="1223" x="0" y="152.0391"/><line style="stroke:#0BE784;stroke-width:1.0;" x1="0" x2="1223" y1="152.0391" y2="152.0391"/><line style="stroke:#0BE784;stroke-width:1.0;" x1="0" x2="1223" y1="155.0391" y2="155.0391"/><rect fill="#100D23" height="24.2969" style="stroke:#0BE784;stroke-width:2.0;" width="248" x="487.5" y="140.8906"/><text fill="#0BE784" font-family="sans-serif" font-size="14" font-weight="bold" lengthAdjust="spacing" textLength="229" x="493.5" y="157.8857">Pre-Defined Query Execution</text><polygon fill="#01C176" points="239,192.3203,249,196.3203,239,200.3203,243,196.3203" style="stroke:#01C176;stroke-width:1.0;"/><line style="stroke:#01C176;stroke-width:1.0;stroke-dasharray:2.0,2.0;" x1="24" x2="245" y1="196.3203" y2="196.3203"/><text fill="#96DDF2" font-family="sans-serif" font-size="13" lengthAdjust="spacing" textLength="153" x="31" y="191.2544">Select "Stuck Accounts"</text><line style="stroke:#01C176;stroke-width:1.0;stroke-dasharray:2.0,2.0;" x1="261" x2="303" y1="270.8516" y2="270.8516"/><line style="stroke:#01C176;stroke-width:1.0;stroke-dasharray:2.0,2.0;" x1="303" x2="303" y1="270.8516" y2="283.8516"/><line style="stroke:#01C176;stroke-width:1.0;stroke-dasharray:2.0,2.0;" x1="262" x2="303" y1="283.8516" y2="283.8516"/><polygon fill="#01C176" points="272,279.8516,262,283.8516,272,287.8516,268,283.8516" style="stroke:#01C176;stroke-width:1.0;"/><text fill="#96DDF2" font-family="sans-serif" font-size="13" lengthAdjust="spacing" textLength="137" x="268" y="220.3872">Load query definition:</text><text fill="#96DDF2" font-family="sans-serif" font-size="13" lengthAdjust="spacing" textLength="80" x="268" y="235.52">Table: cache</text><text fill="#96DDF2" font-family="sans-serif" font-size="13" lengthAdjust="spacing" textLength="160" x="268" y="250.6528">Filters: status=PENDING,</text><text fill="#96DDF2" font-family="sans-serif" font-size="13" lengthAdjust="spacing" textLength="168" x="268" y="265.7856">updated_at &lt; 2 hours ago</text><polygon fill="#01C176" points="475,354.3828,485,358.3828,475,362.3828,479,358.3828" style="stroke:#01C176;stroke-width:1.0;"/><line style="stroke:#01C176;stroke-width:1.0;stroke-dasharray:2.0,2.0;" x1="261" x2="481" y1="358.3828" y2="358.3828"/><text fill="#96DDF2" font-family="sans-serif" font-size="13" lengthAdjust="spacing" textLength="159" x="268" y="307.9185">POST /web/query-builder/</text><text fill="#96DDF2" font-family="sans-serif" font-size="13" lengthAdjust="spacing" textLength="191" x="268" y="323.0513">query_type="stuck_accounts"</text><text fill="#96DDF2" font-family="sans-serif" font-size="13" lengthAdjust="spacing" textLength="108" x="268" y="338.1841">network="public"</text><text fill="#96DDF2" font-family="sans-serif" font-size="13" lengthAdjust="spacing" textLength="62" x="268" y="353.3169">limit=100</text><polygon fill="#01C176" points="1006,383.5156,1016,387.5156,1006,391.5156,1010,387.5156" style="stroke:#01C176;stroke-width:1.0;"/><line style="stroke:#01C176;stroke-width:1.0;stroke-dasharray:2.0,2.0;" x1="497" x2="1012" y1="387.5156" y2="387.5156"/><text fill="#96DDF2" font-family="sans-serif" font-size="13" lengthAdjust="spacing" textLength="121" x="504" y="382.4497">Apply network filter</text><polygon fill="#01C176" points="772,445.9141,762,449.9141,772,453.9141,768,449.9141" style="stroke:#01C176;stroke-width:1.0;"/><line style="stroke:#01C176;stroke-width:1.0;stroke-dasharray:2.0,2.0;" x1="766" x2="1017" y1="449.9141" y2="449.9141"/><text fill="#96DDF2" font-family="sans-serif" font-size="13" lengthAdjust="spacing" textLength="220" x="778" y="429.7153">Query StellarAccountSearchCache</text><text fill="#96DDF2" font-family="sans-serif" font-size="13" lengthAdjust="spacing" textLength="197" x="778" y="444.8481">WHERE network_name='public'</text><path d="M1033,400.5156 L1033,470.5156 L1218,470.5156 L1218,410.5156 L1208,400.5156 L1033,400.5156 " fill="#231B3D" style="stroke:#3F2C70;stroke-width:0.5;"/><path d="M1208,400.5156 L1208,410.5156 L1218,410.5156 L1208,400.5156 " fill="#231B3D" style="stroke:#3F2C70;stroke-width:0.5;"/><text fill="#0BE784" font-family="sans-serif" font-size="13" lengthAdjust="spacing" textLength="100" x="1039" y="417.5825">Network-Aware:</text><text fill="#96DDF2" font-family="sans-serif" font-size="13" lengthAdjust="spacing" textLength="117" x="1039" y="432.7153">All queries filter by</text><text fill="#96DDF2" font-family="sans-serif" font-size="13" lengthAdjust="spacing" textLength="164" x="1039" y="447.8481">network_name to prevent</text><text fill="#96DDF2" font-family="sans-serif" font-size="13" lengthAdjust="spacing" textLength="126" x="1039" y="462.981">cross-network leaks</text><polygon fill="#01C176" points="1011,493.1797,1021,497.1797,1011,501.1797,1015,497.1797" style="stroke:#01C176;stroke-width:1.0;"/><line style="stroke:#01C176;stroke-width:1.0;stroke-dasharray:2.0,2.0;" x1="761" x2="1017" y1="497.1797" y2="497.1797"/><text fill="#96DDF2" font-family="sans-serif" font-size="13" lengthAdjust="spacing" textLength="162" x="768" y="492.1138">All public network records</text><line style="stroke:#01C176;stroke-width:1.0;stroke-dasharray:2.0,2.0;" x1="497" x2="539" y1="556.5781" y2="556.5781"/><line style="stroke:#01C176;stroke-width:1.0;stroke-dasharray:2.0,2.0;" x1="539" x2="539" y1="556.5781" y2="569.5781"/><line style="stroke:#01C176;stroke-width:1.0;stroke-dasharray:2.0,2.0;" x1="498" x2="539" y1="569.5781" y2="569.5781"/><polygon fill="#01C176" points="508,565.5781,498,569.5781,508,573.5781,504,569.5781" style="stroke:#01C176;stroke-width:1.0;"/><text fill="#96DDF2" font-family="sans-serif" font-size="13" lengthAdjust="spacing" textLength="78" x="504" y="521.2466">Apply filters:</text><text fill="#96DDF2" font-family="sans-serif" font-size="13" lengthAdjust="spacing" textLength="124" x="504" y="536.3794">status = 'PENDING'</text><text fill="#96DDF2" font-family="sans-serif" font-size="13" lengthAdjust="spacing" textLength="164" x="504" y="551.5122">updated_at &lt; cutoff_time</text><line style="stroke:#01C176;stroke-width:1.0;stroke-dasharray:2.0,2.0;" x1="497" x2="539" y1="640.6094" y2="640.6094"/><line style="stroke:#01C176;stroke-width:1.0;stroke-dasharray:2.0,2.0;" x1="539" x2="539" y1="640.6094" y2="653.6094"/><line style="stroke:#01C176;stroke-width:1.0;stroke-dasharray:2.0,2.0;" x1="498" x2="539" y1="653.6094" y2="653.6094"/><polygon fill="#01C176" points="508,649.6094,498,653.6094,508,657.6094,504,653.6094" style="stroke:#01C176;stroke-width:1.0;"/><text fill="#96DDF2" font-family="sans-serif" font-size="13" lengthAdjust="spacing" textLength="167" x="504" y="605.2778">Apply adaptive max_scan:</text><text fill="#96DDF2" font-family="sans-serif" font-size="13" lengthAdjust="spacing" textLength="140" x="504" y="620.4106">Dense data: limit * 10</text><text fill="#96DDF2" font-family="sans-serif" font-size="13" lengthAdjust="spacing" textLength="194" x="504" y="635.5435">Sparse data (HVA): limit * 100</text><path d="M710,582.5781 L710,667.5781 L925,667.5781 L925,592.5781 L915,582.5781 L710,582.5781 " fill="#231B3D" style="stroke:#3F2C70;stroke-width:0.5;"/><path d="M915,582.5781 L915,592.5781 L925,592.5781 L915,582.5781 " fill="#231B3D" style="stroke:#3F2C70;stroke-width:0.5;"/><text fill="#0BE784" font-family="sans-serif" font-size="13" lengthAdjust="spacing" textLength="163" x="716" y="599.645">Performance Safeguards:</text><text fill="#96DDF2" font-family="sans-serif" font-size="13" lengthAdjust="spacing" textLength="185" x="716" y="614.7778">&#8226; Prevents unbounded scans</text><text fill="#96DDF2" font-family="sans-serif" font-size="13" lengthAdjust="spacing" textLength="148" x="716" y="629.9106">&#8226; 10x for cache/lineage</text><text fill="#96DDF2" font-family="sans-serif" font-size="13" lengthAdjust="spacing" textLength="147" x="716" y="645.0435">&#8226; 100x for HVA queries</text><text fill="#96DDF2" font-family="sans-serif" font-size="13" lengthAdjust="spacing" textLength="194" x="716" y="660.1763">&#8226; Early exit when limit reached</text><line style="stroke:#01C176;stroke-width:1.0;stroke-dasharray:2.0,2.0;" x1="497" x2="539" y1="694.375" y2="694.375"/><line style="stroke:#01C176;stroke-width:1.0;stroke-dasharray:2.0,2.0;" x1="539" x2="539" y1="694.375" y2="707.375"/><line style="stroke:#01C176;stroke-width:1.0;stroke-dasharray:2.0,2.0;" x1="498" x2="539" y1="707.375" y2="707.375"/><polygon fill="#01C176" points="508,703.375,498,707.375,508,711.375,504,707.375" style="stroke:#01C176;stroke-width:1.0;"/><text fill="#96DDF2" font-family="sans-serif" font-size="13" lengthAdjust="spacing" textLength="163" x="504" y="689.3091">Sort by updated_at DESC</text><line style="stroke:#01C176;stroke-width:1.0;stroke-dasharray:2.0,2.0;" x1="497" x2="539" y1="751.6406" y2="751.6406"/><line style="stroke:#01C176;stroke-width:1.0;stroke-dasharray:2.0,2.0;" x1="539" x2="539" y1="751.6406" y2="764.6406"/><line style="stroke:#01C176;stroke-width:1.0;stroke-dasharray:2.0,2.0;" x1="498" x2="539" y1="764.6406" y2="764.6406"/><polygon fill="#01C176" points="508,760.6406,498,764.6406,508,768.6406,504,764.6406" style="stroke:#01C176;stroke-width:1.0;"/><text fill="#96DDF2" font-family="sans-serif" font-size="13" lengthAdjust="spacing" textLength="200" x="504" y="731.4419">Format numbers with commas:</text><text fill="#96DDF2" font-family="sans-serif" font-size="13" lengthAdjust="spacing" textLength="139" x="504" y="746.5747">1000000 &#8594; 1,000,000</text><polygon fill="#01C176" points="272,850.3047,262,854.3047,272,858.3047,268,854.3047" style="stroke:#01C176;stroke-width:1.0;"/><line style="stroke:#01C176;stroke-width:1.0;stroke-dasharray:2.0,2.0;" x1="266" x2="491" y1="854.3047" y2="854.3047"/><text fill="#96DDF2" font-family="sans-serif" font-size="13" lengthAdjust="spacing" textLength="99" x="278" y="788.7075">JSON response:</text><text fill="#96DDF2" font-family="sans-serif" font-size="13" lengthAdjust="spacing" textLength="5" x="278" y="803.8403">[</text><text fill="#96DDF2" font-family="sans-serif" font-size="13" lengthAdjust="spacing" textLength="169" x="286" y="818.9731">{account, network, status,</text><text fill="#96DDF2" font-family="sans-serif" font-size="13" lengthAdjust="spacing" textLength="190" x="290" y="834.106">xlm_balance: "1,234,567.89"}</text><text fill="#96DDF2" font-family="sans-serif" font-size="13" lengthAdjust="spacing" textLength="5" x="278" y="849.2388">]</text><line style="stroke:#01C176;stroke-width:1.0;stroke-dasharray:2.0,2.0;" x1="261" x2="303" y1="898.5703" y2="898.5703"/><line style="stroke:#01C176;stroke-width:1.0;stroke-dasharray:2.0,2.0;" x1="303" x2="303" y1="898.5703" y2="911.5703"/><line style="stroke:#01C176;stroke-width:1.0;stroke-dasharray:2.0,2.0;" x1="262" x2="303" y1="911.5703" y2="911.5703"/><polygon fill="#01C176" points="272,907.5703,262,911.5703,272,915.5703,268,911.5703" style="stroke:#01C176;stroke-width:1.0;"/><text fill="#96DDF2" font-family="sans-serif" font-size="13" lengthAdjust="spacing" textLength="137" x="268" y="878.3716">Render sortable table</text><text fill="#96DDF2" font-family="sans-serif" font-size="13" lengthAdjust="spacing" textLength="170" x="268" y="893.5044">with clickable account links</text><polygon fill="#01C176" points="35,936.7031,25,940.7031,35,944.7031,31,940.7031" style="stroke:#01C176;stroke-width:1.0;"/><line style="stroke:#01C176;stroke-width:1.0;stroke-dasharray:2.0,2.0;" x1="29" x2="255" y1="940.7031" y2="940.7031"/><text fill="#96DDF2" font-family="sans-serif" font-size="13" lengthAdjust="spacing" textLength="93" x="41" y="935.6372">Display results</text><rect fill="#100D23" height="3" style="stroke:#100D23;stroke-width:1.0;" width="1223" x="0" y="969.8516"/><line style="stroke:#0BE784;stroke-width:1.0;" x1="0" x2="1223" y1="969.8516" y2="969.8516"/><line style="stroke:#0BE784;stroke-width:1.0;" x1="0" x2="1223" y1="972.8516" y2="972.8516"/><rect fill="#100D23" height="24.2969" style="stroke:#0BE784;stroke-width:2.0;" width="184" x="519.5" y="958.7031"/><text fill="#0BE784" font-family="sans-serif" font-size="14" font-weight="bold" lengthAdjust="spacing" textLength="165" x="525.5" y="975.6982">Custom Filter Builder</text><polygon fill="#01C176" points="239,1010.1328,249,1014.1328,239,1018.1328,243,1014.1328" style="stroke:#01C176;stroke-width:1.0;"/><line style="stroke:#01C176;stroke-width:1.0;stroke-dasharray:2.0,2.0;" x1="24" x2="245" y1="1014.1328" y2="1014.1328"/><text fill="#96DDF2" font-family="sans-serif" font-size="13" lengthAdjust="spacing" textLength="127" x="31" y="1009.0669">Build custom query:</text><polygon fill="#01C176" points="239,1039.2656,249,1043.2656,239,1047.2656,243,1043.2656" style="stroke:#01C176;stroke-width:1.0;"/><line style="stroke:#01C176;stroke-width:1.0;stroke-dasharray:2.0,2.0;" x1="24" x2="245" y1="1043.2656" y2="1043.2656"/><text fill="#96DDF2" font-family="sans-serif" font-size="13" lengthAdjust="spacing" textLength="156" x="31" y="1038.1997">1. Select table: "lineage"</text><line style="stroke:#01C176;stroke-width:1.0;stroke-dasharray:2.0,2.0;" x1="261" x2="303" y1="1102.6641" y2="1102.6641"/><line style="stroke:#01C176;stroke-width:1.0;stroke-dasharray:2.0,2.0;" x1="303" x2="303" y1="1102.6641" y2="1115.6641"/><line style="stroke:#01C176;stroke-width:1.0;stroke-dasharray:2.0,2.0;" x1="262" x2="303" y1="1115.6641" y2="1115.6641"/><polygon fill="#01C176" points="272,1111.6641,262,1115.6641,272,1119.6641,268,1115.6641" style="stroke:#01C176;stroke-width:1.0;"/><text fill="#96DDF2" font-family="sans-serif" font-size="13" lengthAdjust="spacing" textLength="126" x="268" y="1067.3325">Load table schema:</text><text fill="#96DDF2" font-family="sans-serif" font-size="13" lengthAdjust="spacing" textLength="177" x="268" y="1082.4653">Columns: account, balance,</text><text fill="#96DDF2" font-family="sans-serif" font-size="13" lengthAdjust="spacing" textLength="178" x="268" y="1097.5981">home_domain, creator, etc.</text><polygon fill="#01C176" points="239,1155.9297,249,1159.9297,239,1163.9297,243,1159.9297" style="stroke:#01C176;stroke-width:1.0;"/><line style="stroke:#01C176;stroke-width:1.0;stroke-dasharray:2.0,2.0;" x1="24" x2="245" y1="1159.9297" y2="1159.9297"/><text fill="#96DDF2" font-family="sans-serif" font-size="13" lengthAdjust="spacing" textLength="92" x="31" y="1139.731">2. Add Filter 1:</text><text fill="#96DDF2" font-family="sans-serif" font-size="13" lengthAdjust="spacing" textLength="139" x="31" y="1154.8638">xlm_balance &gt; 10000</text><polygon fill="#01C176" points="239,1200.1953,249,1204.1953,239,1208.1953,243,1204.1953" style="stroke:#01C176;stroke-width:1.0;"/><line style="stroke:#01C176;stroke-width:1.0;stroke-dasharray:2.0,2.0;" x1="24" x2="245" y1="1204.1953" y2="1204.1953"/><text fill="#96DDF2" font-family="sans-serif" font-size="13" lengthAdjust="spacing" textLength="92" x="31" y="1183.9966">3. Add Filter 2:</text><text fill="#96DDF2" font-family="sans-serif" font-size="13" lengthAdjust="spacing" textLength="203" x="31" y="1199.1294">home_domain contains "stellar"</text><polygon fill="#01C176" points="239,1229.3281,249,1233.3281,239,1237.3281,243,1233.3281" style="stroke:#01C176;stroke-width:1.0;"/><line style="stroke:#01C176;stroke-width:1.0;stroke-dasharray:2.0,2.0;" x1="24" x2="245" y1="1233.3281" y2="1233.3281"/><text fill="#96DDF2" font-family="sans-serif" font-size="13" lengthAdjust="spacing" textLength="101" x="31" y="1228.2622">4. Set limit: 100</text><line style="stroke:#01C176;stroke-width:1.0;stroke-dasharray:2.0,2.0;" x1="261" x2="303" y1="1277.5938" y2="1277.5938"/><line style="stroke:#01C176;stroke-width:1.0;stroke-dasharray:2.0,2.0;" x1="303" x2="303" y1="1277.5938" y2="1290.5938"/><line style="stroke:#01C176;stroke-width:1.0;stroke-dasharray:2.0,2.0;" x1="262" x2="303" y1="1290.5938" y2="1290.5938"/><polygon fill="#01C176" points="272,1286.5938,262,1290.5938,272,1294.5938,268,1290.5938" style="stroke:#01C176;stroke-width:1.0;"/><text fill="#96DDF2" font-family="sans-serif" font-size="13" lengthAdjust="spacing" textLength="170" x="268" y="1257.395">Build query with AND logic:</text><text fill="#96DDF2" font-family="sans-serif" font-size="13" lengthAdjust="spacing" textLength="123" x="268" y="1272.5278">Filter 1 AND Filter 2</text><polygon fill="#01C176" points="475,1376.2578,485,1380.2578,475,1384.2578,479,1380.2578" style="stroke:#01C176;stroke-width:1.0;"/><line style="stroke:#01C176;stroke-width:1.0;stroke-dasharray:2.0,2.0;" x1="261" x2="481" y1="1380.2578" y2="1380.2578"/><text fill="#96DDF2" font-family="sans-serif" font-size="13" lengthAdjust="spacing" textLength="159" x="268" y="1314.6606">POST /web/query-builder/</text><text fill="#96DDF2" font-family="sans-serif" font-size="13" lengthAdjust="spacing" textLength="99" x="268" y="1329.7935">table="lineage"</text><text fill="#96DDF2" font-family="sans-serif" font-size="13" lengthAdjust="spacing" textLength="68" x="268" y="1344.9263">filters=[...]</text><text fill="#96DDF2" font-family="sans-serif" font-size="13" lengthAdjust="spacing" textLength="108" x="268" y="1360.0591">network="public"</text><text fill="#96DDF2" font-family="sans-serif" font-size="13" lengthAdjust="spacing" textLength="62" x="268" y="1375.1919">limit=100</text><polygon fill="#01C176" points="1006,1405.3906,1016,1409.3906,1006,1413.3906,1010,1409.3906" style="stroke:#01C176;stroke-width:1.0;"/><line style="stroke:#01C176;stroke-width:1.0;stroke-dasharray:2.0,2.0;" x1="497" x2="1012" y1="1409.3906" y2="1409.3906"/><text fill="#96DDF2" font-family="sans-serif" font-size="13" lengthAdjust="spacing" textLength="149" x="504" y="1404.3247">Apply network filter first</text><polygon fill="#01C176" points="772,1449.6563,762,1453.6563,772,1457.6563,768,1453.6563" style="stroke:#01C176;stroke-width:1.0;"/><line style="stroke:#01C176;stroke-width:1.0;stroke-dasharray:2.0,2.0;" x1="766" x2="1017" y1="1453.6563" y2="1453.6563"/><text fill="#96DDF2" font-family="sans-serif" font-size="13" lengthAdjust="spacing" textLength="233" x="778" y="1433.4575">Query StellarCreatorAccountLineage</text><text fill="#96DDF2" font-family="sans-serif" font-size="13" lengthAdjust="spacing" textLength="197" x="778" y="1448.5903">WHERE network_name='public'</text><polygon fill="#01C176" points="1011,1478.7891,1021,1482.7891,1011,1486.7891,1015,1482.7891" style="stroke:#01C176;stroke-width:1.0;"/><line style="stroke:#01C176;stroke-width:1.0;stroke-dasharray:2.0,2.0;" x1="761" x2="1017" y1="1482.7891" y2="1482.7891"/><text fill="#96DDF2" font-family="sans-serif" font-size="13" lengthAdjust="spacing" textLength="108" x="768" y="1477.7231">All public records</text><line style="stroke:#01C176;stroke-width:1.0;stroke-dasharray:2.0,2.0;" x1="497" x2="539" y1="1542.1875" y2="1542.1875"/><line style="stroke:#01C176;stroke-width:1.0;stroke-dasharray:2.0,2.0;" x1="539" x2="539" y1="1542.1875" y2="1555.1875"/><line style="stroke:#01C176;stroke-width:1.0;stroke-dasharray:2.0,2.0;" x1="498" x2="539" y1="1555.1875" y2="1555.1875"/><polygon fill="#01C176" points="508,1551.1875,498,1555.1875,508,1559.1875,504,1555.1875" style="stroke:#01C176;stroke-width:1.0;"/><text fill="#96DDF2" font-family="sans-serif" font-size="13" lengthAdjust="spacing" textLength="206" x="504" y="1506.856">Apply custom filters (AND logic):</text><text fill="#96DDF2" font-family="sans-serif" font-size="13" lengthAdjust="spacing" textLength="139" x="504" y="1521.9888">xlm_balance &gt; 10000</text><text fill="#96DDF2" font-family="sans-serif" font-size="13" lengthAdjust="spacing" textLength="245" x="504" y="1537.1216">AND home_domain CONTAINS 'stellar'</text><line style="stroke:#01C176;stroke-width:1.0;stroke-dasharray:2.0,2.0;" x1="497" x2="539" y1="1599.4531" y2="1599.4531"/><line style="stroke:#01C176;stroke-width:1.0;stroke-dasharray:2.0,2.0;" x1="539" x2="539" y1="1599.4531" y2="1612.4531"/><line style="stroke:#01C176;stroke-width:1.0;stroke-dasharray:2.0,2.0;" x1="498" x2="539" y1="1612.4531" y2="1612.4531"/><polygon fill="#01C176" points="508,1608.4531,498,1612.4531,508,1616.4531,504,1612.4531" style="stroke:#01C176;stroke-width:1.0;"/><text fill="#96DDF2" font-family="sans-serif" font-size="13" lengthAdjust="spacing" textLength="198" x="504" y="1579.2544">Apply adaptive max_scan limit:</text><text fill="#96DDF2" font-family="sans-serif" font-size="13" lengthAdjust="spacing" textLength="190" x="504" y="1594.3872">100 * 10 = 1000 max records</text><line style="stroke:#01C176;stroke-width:1.0;stroke-dasharray:2.0,2.0;" x1="497" x2="539" y1="1656.7188" y2="1656.7188"/><line style="stroke:#01C176;stroke-width:1.0;stroke-dasharray:2.0,2.0;" x1="539" x2="539" y1="1656.7188" y2="1669.7188"/><line style="stroke:#01C176;stroke-width:1.0;stroke-dasharray:2.0,2.0;" x1="498" x2="539" y1="1669.7188" y2="1669.7188"/><polygon fill="#01C176" points="508,1665.7188,498,1669.7188,508,1673.7188,504,1669.7188" style="stroke:#01C176;stroke-width:1.0;"/><text fill="#96DDF2" font-family="sans-serif" font-size="13" lengthAdjust="spacing" textLength="111" x="504" y="1636.52">Format numbers:</text><text fill="#96DDF2" font-family="sans-serif" font-size="13" lengthAdjust="spacing" textLength="169" x="504" y="1651.6528">xlm_balance with commas</text><polygon fill="#01C176" points="272,1694.8516,262,1698.8516,272,1702.8516,268,1698.8516" style="stroke:#01C176;stroke-width:1.0;"/><line style="stroke:#01C176;stroke-width:1.0;stroke-dasharray:2.0,2.0;" x1="266" x2="491" y1="1698.8516" y2="1698.8516"/><text fill="#96DDF2" font-family="sans-serif" font-size="13" lengthAdjust="spacing" textLength="177" x="278" y="1693.7856">Filtered &amp; formatted results</text><polygon fill="#01C176" points="35,1757.25,25,1761.25,35,1765.25,31,1761.25" style="stroke:#01C176;stroke-width:1.0;"/><line style="stroke:#01C176;stroke-width:1.0;stroke-dasharray:2.0,2.0;" x1="29" x2="255" y1="1761.25" y2="1761.25"/><text fill="#96DDF2" font-family="sans-serif" font-size="13" lengthAdjust="spacing" textLength="93" x="41" y="1756.1841">Display results</text><path d="M266,1711.8516 L266,1796.8516 L480,1796.8516 L480,1721.8516 L470,1711.8516 L266,1711.8516 " fill="#231B3D" style="stroke:#3F2C70;stroke-width:0.5;"/><path d="M470,1711.8516 L470,1721.8516 L480,1721.8516 L470,1711.8516 " fill="#231B3D" style="stroke:#3F2C70;stroke-width:0.5;"/><text fill="#0BE784" font-family="sans-serif" font-size="13" lengthAdjust="spacing" textLength="110" x="272" y="1728.9185">Display Features:</text><text fill="#96DDF2" font-family="sans-serif" font-size="13" lengthAdjust="spacing" textLength="124" x="272" y="1744.0513">&#8226; Sortable columns</text><text fill="#96DDF2" font-family="sans-serif" font-size="13" lengthAdjust="spacing" textLength="155" x="272" y="1759.1841">&#8226; Clickable account links</text><text fill="#96DDF2" font-family="sans-serif" font-size="13" lengthAdjust="spacing" textLength="193" x="272" y="1774.3169">&#8226; Comma-formatted balances</text><text fill="#96DDF2" font-family="sans-serif" font-size="13" lengthAdjust="spacing" textLength="108" x="272" y="1789.4497">&#8226; Network badge</text><rect fill="#100D23" height="3" style="stroke:#100D23;stroke-width:1.0;" width="1223" x="0" y="1823.6641"/><line style="stroke:#0BE784;stroke-width:1.0;" x1="0" x2="1223" y1="1823.6641" y2="1823.6641"/><line style="stroke:#0BE784;stroke-width:1.0;" x1="0" x2="1223" y1="1826.6641" y2="1826.6641"/><rect fill="#100D23" height="24.2969" style="stroke:#0BE784;stroke-width:2.0;" width="205" x="509" y="1812.5156"/><text fill="#0BE784" font-family="sans-serif" font-size="14" font-weight="bold" lengthAdjust="spacing" textLength="186" x="515" y="1829.5107">10 Pre-Defined Queries</text><path d="M138,1851.8125 L138,2330.8125 L374,2330.8125 L374,1861.8125 L364,1851.8125 L138,1851.8125 " fill="#231B3D" style="stroke:#3F2C70;stroke-width:0.5;"/><path d="M364,1851.8125 L364,1861.8125 L374,1861.8125 L364,1851.8125 " fill="#231B3D" style="stroke:#3F2C70;stroke-width:0.5;"/><text fill="#0BE784" font-family="sans-serif" font-size="13" font-weight="bold" lengthAdjust="spacing" textLength="117" x="144" y="1868.8794">Built-In Queries:</text><text fill="#96DDF2" font-family="sans-serif" font-size="13" lengthAdjust="spacing" textLength="4" x="144" y="1884.0122">&#160;</text><text fill="#96DDF2" font-family="sans-serif" font-size="13" lengthAdjust="spacing" textLength="115" x="144" y="1899.145">1. Stuck Accounts</text><text fill="#96DDF2" font-family="sans-serif" font-size="13" lengthAdjust="spacing" textLength="203" x="156" y="1914.2778">(status=PENDING, old updates)</text><text fill="#96DDF2" font-family="sans-serif" font-size="13" lengthAdjust="spacing" textLength="4" x="144" y="1929.4106">&#160;</text><text fill="#96DDF2" font-family="sans-serif" font-size="13" lengthAdjust="spacing" textLength="126" x="144" y="1944.5435">2. Orphan Accounts</text><text fill="#96DDF2" font-family="sans-serif" font-size="13" lengthAdjust="spacing" textLength="116" x="156" y="1959.6763">(no creator found)</text><text fill="#96DDF2" font-family="sans-serif" font-size="13" lengthAdjust="spacing" textLength="4" x="144" y="1974.8091">&#160;</text><text fill="#96DDF2" font-family="sans-serif" font-size="13" lengthAdjust="spacing" textLength="155" x="144" y="1989.9419">3. Failed Pipeline Stages</text><text fill="#96DDF2" font-family="sans-serif" font-size="13" lengthAdjust="spacing" textLength="145" x="156" y="2005.0747">(stage status=FAILED)</text><text fill="#96DDF2" font-family="sans-serif" font-size="13" lengthAdjust="spacing" textLength="4" x="144" y="2020.2075">&#160;</text><text fill="#96DDF2" font-family="sans-serif" font-size="13" lengthAdjust="spacing" textLength="193" x="144" y="2035.3403">4. High XLM Balance Accounts</text><text fill="#96DDF2" font-family="sans-serif" font-size="13" lengthAdjust="spacing" textLength="133" x="156" y="2050.4731">(balance &gt; 100 XLM)</text><text fill="#96DDF2" font-family="sans-serif" font-size="13" lengthAdjust="spacing" textLength="4" x="144" y="2065.606">&#160;</text><text fill="#96DDF2" font-family="sans-serif" font-size="13" lengthAdjust="spacing" textLength="152" x="144" y="2080.7388">5. Recent Cache Entries</text><text fill="#96DDF2" font-family="sans-serif" font-size="13" lengthAdjust="spacing" textLength="114" x="156" y="2095.8716">(created last 24h)</text><text fill="#96DDF2" font-family="sans-serif" font-size="13" lengthAdjust="spacing" textLength="4" x="144" y="2111.0044">&#160;</text><text fill="#96DDF2" font-family="sans-serif" font-size="13" lengthAdjust="spacing" textLength="150" x="144" y="2126.1372">6. Pending Pipeline Jobs</text><text fill="#96DDF2" font-family="sans-serif" font-size="13" lengthAdjust="spacing" textLength="166" x="156" y="2141.27">(status IN pending states)</text><text fill="#96DDF2" font-family="sans-serif" font-size="13" lengthAdjust="spacing" textLength="4" x="144" y="2156.4028">&#160;</text><text fill="#96DDF2" font-family="sans-serif" font-size="13" lengthAdjust="spacing" textLength="107" x="144" y="2171.5356">7. HVA Accounts</text><text fill="#96DDF2" font-family="sans-serif" font-size="13" lengthAdjust="spacing" textLength="194" x="156" y="2186.6685">(is_hva=True, multi-threshold)</text><text fill="#96DDF2" font-family="sans-serif" font-size="13" lengthAdjust="spacing" textLength="4" x="144" y="2201.8013">&#160;</text><text fill="#96DDF2" font-family="sans-serif" font-size="13" lengthAdjust="spacing" textLength="191" x="144" y="2216.9341">8. Accounts by Home Domain</text><text fill="#96DDF2" font-family="sans-serif" font-size="13" lengthAdjust="spacing" textLength="109" x="156" y="2232.0669">(filter by domain)</text><text fill="#96DDF2" font-family="sans-serif" font-size="13" lengthAdjust="spacing" textLength="4" x="144" y="2247.1997">&#160;</text><text fill="#96DDF2" font-family="sans-serif" font-size="13" lengthAdjust="spacing" textLength="166" x="144" y="2262.3325">9. Failed Account Lookups</text><text fill="#96DDF2" font-family="sans-serif" font-size="13" lengthAdjust="spacing" textLength="105" x="156" y="2277.4653">(status=FAILED)</text><text fill="#96DDF2" font-family="sans-serif" font-size="13" lengthAdjust="spacing" textLength="4" x="144" y="2292.5981">&#160;</text><text fill="#96DDF2" font-family="sans-serif" font-size="13" lengthAdjust="spacing" textLength="160" x="144" y="2307.731">10. Recent HVA Changes</text><text fill="#96DDF2" font-family="sans-serif" font-size="13" lengthAdjust="spacing" textLength="159" x="160" y="2322.8638">(ranking events last 24h)</text><rect fill="#100D23" height="3" style="stroke:#100D23;stroke-width:1.0;" width="1223" x="0" y="2357.0781"/><line style="stroke:#0BE784;stroke-width:1.0;" x1="0" x2="1223" y1="2357.0781" y2="2357.0781"/><line style="stroke:#0BE784;stroke-width:1.0;" x1="0" x2="1223" y1="2360.0781" y2="2360.0781"/><rect fill="#100D23" height="24.2969" style="stroke:#0BE784;stroke-width:2.0;" width="196" x="513.5" y="2345.9297"/><text fill="#0BE784" font-family="sans-serif" font-size="14" font-weight="bold" lengthAdjust="spacing" textLength="177" x="519.5" y="2362.9248">Performance Features</text><path d="M445,2385.2266 L445,2667.2266 L807,2667.2266 L807,2395.2266 L797,2385.2266 L445,2385.2266 " fill="#231B3D" style="stroke:#3F2C70;stroke-width:0.5;"/><path d="M797,2385.2266 L797,2395.2266 L807,2395.2266 L797,2385.2266 " fill="#231B3D" style="stroke:#3F2C70;stroke-width:0.5;"/><text fill="#0BE784" font-family="sans-serif" font-size="13" font-weight="bold" lengthAdjust="spacing" textLength="195" x="493" y="2402.2935">Adaptive Max Scan Limits:</text><text fill="#96DDF2" font-family="sans-serif" font-size="13" lengthAdjust="spacing" textLength="4" x="493" y="2417.4263">&#160;</text><text fill="#96DDF2" font-family="sans-serif" font-size="13" lengthAdjust="spacing" textLength="196" x="493" y="2432.5591">Dense Tables (cache, lineage):</text><text fill="#96DDF2" font-family="sans-serif" font-size="13" lengthAdjust="spacing" textLength="197" x="493" y="2447.6919">&#8226; max_scan = result_limit * 10</text><text fill="#96DDF2" font-family="sans-serif" font-size="13" lengthAdjust="spacing" textLength="195" x="493" y="2462.8247">&#8226; Prevents excessive scanning</text><text fill="#96DDF2" font-family="sans-serif" font-size="13" lengthAdjust="spacing" textLength="4" x="493" y="2477.9575">&#160;</text><text fill="#0BE784" font-family="sans-serif" font-size="13" lengthAdjust="spacing" textLength="136" x="493" y="2493.0903">Sparse Tables (HVA):</text><text fill="#96DDF2" font-family="sans-serif" font-size="13" lengthAdjust="spacing" textLength="205" x="493" y="2508.2231">&#8226; max_scan = result_limit * 100</text><text fill="#96DDF2" font-family="sans-serif" font-size="13" lengthAdjust="spacing" textLength="174" x="493" y="2523.356">&#8226; Ensures complete results</text><text fill="#96DDF2" font-family="sans-serif" font-size="13" lengthAdjust="spacing" textLength="4" x="493" y="2538.4888">&#160;</text><text fill="#0BE784" font-family="sans-serif" font-size="13" lengthAdjust="spacing" textLength="110" x="493" y="2553.6216">Network Filtering:</text><text fill="#96DDF2" font-family="sans-serif" font-size="13" lengthAdjust="spacing" textLength="195" x="493" y="2568.7544">&#8226; Always filters by network first</text><text fill="#96DDF2" font-family="sans-serif" font-size="13" lengthAdjust="spacing" textLength="148" x="493" y="2583.8872">&#8226; Reduces dataset size</text><text fill="#96DDF2" font-family="sans-serif" font-size="13" lengthAdjust="spacing" textLength="257" x="493" y="2599.02">&#8226; Prevents cross-network contamination</text><text fill="#96DDF2" font-family="sans-serif" font-size="13" lengthAdjust="spacing" textLength="4" x="493" y="2614.1528">&#160;</text><text fill="#0BE784" font-family="sans-serif" font-size="13" lengthAdjust="spacing" textLength="62" x="493" y="2629.2856">Early Exit:</text><text fill="#96DDF2" font-family="sans-serif" font-size="13" lengthAdjust="spacing" textLength="234" x="493" y="2644.4185">&#8226; Stops scanning when limit reached</text><text fill="#96DDF2" font-family="sans-serif" font-size="13" lengthAdjust="spacing" textLength="251" x="493" y="2659.5513">&#8226; Avoids unnecessary Cassandra reads</text><!--SRC=[jLZzRXev4F-VfnXnqkL3G0D9atPL8X4WJQgKv4hQEwbKoEoQu6FNkrrxyz6gqlrr3t2FS8_M9xcnrxiiP0rjJwtK9DZZyNpy_9iPn9pnYCGaW0bnvpTnc72l6_fX3B-q3fkzWwSLaKjuT4eINvw6N1gHvuUztcchKf31dvAvB29SmkSAmCcgrkRUNg-rhtR2sAEnMTqxwHyzEy3Lnyg_5DKJL-9MgU9SnKR5neGbnHwHP484_Hb6yr1QzBRscoVxlLMz-zEMUxItMQ-W7nFAtLHt9ux3kyomPhTvT8YB5snABnYdvMRdkrPtU-oMuS7D0gNwpMR1YxAj8Vj4eRcwA1zy2fFGzt3z9LuTsMr8jqijA6nTpvWxvrG8Q6KRPvHOp5lPJaqiELSm4pCZcSHFBrobp37AZdzBQFm09mdpyOm3NI84uLvCe9SXhdyVuG4QLoefkjyA6WCHaAZVcKt5TrLTqZdYxnBQ-5F0s_EgFiRM2dUkpg7FlIXaN6fv4h5AZlvgHqXbsyc8R-UcxcWvD_kuh7v0vLqOp-6K-PB6MfAdIvLAkxqQZQkOrdjqYg3p83MiVq_THBAGGxjTgMYVw-yDWZ_KZz4T1uRKfoxUDPI9EuUEwo8CfAYgUB5RWeyBVQuaxF71Yv1uy57VuwbRcRh86V5hCl6fWowvCphYgUd20I69J4JxgZ_edGzUraOyYJ0or1iJ2I-W1RCmYJ5WD-7Zsp2A3bnT3g_XoHsTFD5trYTfq9-CkFuybWyHRLU5yc9CCYz6tCIhNOsIYSzSNF5Pm6GR4RvmKQMfWZ-MhpL77UX4aV-GVOIfzcXnECj8jh-a8q-iOr8obDJtIMpYFAGaTcVTD5I_d_NVz3DrOqu2sjvAhTwgQ9gBsSrC5eWDLX5Wy5Blt96OEaiIASSTTtnVvunHOHo1oKEPOD4Ca254CRsbN9Q9kd4eH3rptwTaBYgKUvgQAta0RB55Wr8dym37r4LM4HMFFehnuoHfRAG9cXgeZNYADMZ3be7RrWhSy5M4q-bOie2krqay4g4D509oFnOkKG3lKOwlMJrh1pIOO1UQUoC-nBThDc3xx5rdfxYzzuqflABnD8m3eahFa4pfJK8m5gMv_FhNlt2LfWMPYKyKV-FJLrOActnpxnvGV_ewd_Z85UI6seMDD3gJeSOcsoSnXelUexjtCygDvp5LztWBE5Y2FGnZYK24Gf9w_M7N9dwg8YI19y444mvtJCx03OE0gEIZrUeVVFtx7sZMy2_rlqIJuh1Nmyi16YcY45EAPz-FEC1dGn-r37OrGrurjGltVZ2U45zbo85gizRQFwWzFJngF7jU_JBY7ugmrRnInfrlC23uz0IwhTWIzCyHJnt1jp3NgyOEZ2N79_LOaL15hyT4v9C7vGNsZqklHZ7tupBHJOGC0rDJijgrfa1e2Nmn-fJcMcUbE9GUQpQoqYBJWb0rQAlQgqaQ386G2GXc0pk79E1OE_A4cBXZ8cPXGCTU6136Q-0Yph2wru1Ajs4pgDM0ZkTbVZTHVo6JS0mQDvQp-qjdMyxI_GWzBl6t02m_cjsh5ZK7AYOoVHkE9eNIMAGHJqkhXaHdq0C_l66kanLKQEh5pA3lhfawqkqy9IDkoBFzlj5eVFXvPHD_nKB-p-BPJTDjQkX5wiFw-laTPUX7ouzv8IQGi9qdRQSSQjWkeaGHHztBmNNdV324BOEZhUyiJWPPcWDrrS4IgEvI0hbVtyIfAoON6DR2f2aIiVpy2hf-IQJnCaugfyHI9lksWfcTEaLC97ZKMYg76TcwAQtOvBeM_hM9gwZK5pwRa5dbivv-GZoil7bXt4ZRcCpL1byrSOgtTQ32MtnT6DWreThTLSmYw-SyE-xixch1CcCLWI_D16L2kBAzqja3Jcoca8iTgtPauyiucY5cDwddOSRlY2niSUmwaQLF2VCnEbSieehRq0EaXdMMtz1iCZdjd5_qUtRjIDvd24Ruu-8rd9XtiSdsfIUlJjhLFsrWL-1YBmTw7C0vKjhwBQLPXmGzzOcGq3gOsHKVDk0AOSRupI8ihyB9XdJ2-G0YSqojhClbKKDtY9k2mSHuTalQrt52Qn3W4sTrESCNEqF0s9K_Q-IALOTuXdm9FSsNjdlokGPINhNhVfu3nbo1RKWuJw9DKDy4bUPUdamLc2x2t8v2s8u9dwiucrP-aT95srmoxHS6XOpxLjW0kRQsAABhcQ6JrPBNM2g6gfPSg5gobY7IGKZF-rZlz4XH0zDIx5XvE2zMRSFquyMKj77CeVT8hKBPgLHmZDfZwunFPXpBpDC3sO_OP3MgpuKEEjR5oAUgLfd2PRDe-UiSjDrgJyU_8myYxoKcnJPAzK-MOs-ebs1yz0WgiD4Kx1FT6DBbyLttiW7ZH7sRO_KadVRwEEtPowqC8v5dgMmejFb-6p9F3RISgbmJxFiMN-pXMQ_mxS9_]--></g></svg>